<svg width="68" height="67" viewBox="0 0 68 67" fill="none" xmlns="http://www.w3.org/2000/svg">
<rect x="0.875" width="66.4404" height="66.4404" rx="10" fill="#F8F8F8"/>
<path d="M36.8382 46.9496C36.8421 44.7443 36.8693 42.5351 36.8305 40.3297C36.8072 38.9699 37.2844 38.2101 38.7471 38.3582C38.8751 38.3699 39.007 38.3582 39.1351 38.3582C41.9556 38.3153 42.9837 37.0256 42.5608 34.154C42.46 33.4566 42.1457 33.0981 41.4668 33.0396C41.2107 33.0163 40.9469 33.0318 40.6947 33.0007C39.5735 32.8682 38.0332 33.5267 37.4241 32.4435C36.6714 31.1032 36.9469 29.3849 37.3077 27.8809C37.7034 26.2093 39.2359 26.1626 40.5861 26.0184C42.7548 25.7885 43.9071 23.6572 42.9061 21.674C42.7083 21.2843 42.3979 21.148 42.0022 21.0428C35.8838 19.4686 31.5346 22.8156 31.5075 29.1316C31.5075 29.3264 31.5075 29.5212 31.5075 29.7161C31.4997 32.9812 31.4997 33.0513 28.2951 33.063C26.8324 33.0708 26.297 33.6319 26.4173 35.0307C26.4677 35.6112 26.4522 36.1996 26.425 36.7801C26.3746 37.9101 26.8557 38.4867 28.0196 38.4439C28.6016 38.4244 29.1835 38.4712 29.7655 38.4556C30.9604 38.4283 31.523 38.9387 31.5153 40.2011C31.4803 44.6781 31.4571 49.1589 31.5308 53.6358C31.5579 55.28 30.9721 55.6346 29.4396 55.2956C20.8732 53.4098 13.5986 45.2235 12.7218 36.3944C11.5501 24.5807 19.0458 14.4346 30.654 12.1162C43.5036 9.55242 56.2369 19.9245 56.3727 33.0669C56.4852 43.9845 49.5793 53.0124 39.3988 55.2528C37.0439 55.771 36.8615 55.6307 36.846 53.176C36.8266 51.1031 36.8382 49.0264 36.8382 46.9496Z" fill="#2B2A35"/>
</svg>
