
<svg width="64" height="69" viewBox="0 0 64 69" fill="none" xmlns="http://www.w3.org/2000/svg">
<path d="M31.6445 68.9851C25.8026 68.9851 19.9595 68.944 14.1176 68.9984C9.27229 69.0431 4.97835 64.9512 4.98438 59.8756C4.99765 48.1122 4.988 36.3477 4.98921 24.5843C4.98921 22.8937 6.07144 21.684 7.60611 21.6501C9.17336 21.6151 10.3485 22.861 10.3521 24.6049C10.3606 29.5113 10.3557 34.4177 10.3557 39.3242C10.3557 46.1618 10.3533 52.9981 10.3594 59.8357C10.3606 61.4937 11.298 62.8207 12.8303 63.414C13.2513 63.5772 13.6857 63.6207 14.1285 63.6207C25.8122 63.6207 37.4972 63.6279 49.181 63.6146C51.3805 63.6122 52.9465 61.9892 52.9477 59.7705C52.9537 48.0869 52.9525 36.4033 52.9477 24.7197C52.9477 23.6478 53.2397 22.7269 54.1675 22.1154C55.9845 20.9166 58.2672 22.1662 58.4192 24.4308C58.4276 24.5505 58.4252 24.6725 58.4252 24.7922C58.4252 36.4359 58.4337 48.0784 58.4204 59.7221C58.4156 64.1319 55.4608 67.8177 51.2019 68.8014C50.6131 68.9368 50.0171 68.9887 49.4114 68.9887C43.4899 68.9827 37.5672 68.9851 31.6445 68.9851Z" fill="#F47761"/>
<path d="M31.6648 16.2432C22.1069 16.2432 12.5502 16.242 2.99229 16.2468C2.22496 16.2468 1.51674 16.103 0.925552 15.5773C0.0665214 14.8136 -0.21942 13.6812 0.172694 12.6141C0.556362 11.5688 1.51432 10.88 2.68222 10.8715C4.97096 10.8546 7.25969 10.8654 9.54843 10.8654C12.8615 10.8654 16.1745 10.8654 19.4876 10.8654C20.2996 10.8654 20.3032 10.8642 20.3008 10.0256C20.2972 8.51979 20.2549 7.01765 20.7689 5.55659C21.9139 2.30578 25.052 0.0229611 28.4881 0.00725088C30.5766 -0.00241696 32.665 -0.00241696 34.7523 0.00725088C39.2381 0.0290035 42.901 3.71729 42.907 8.21042C42.9082 8.89442 42.9348 9.57963 42.8986 10.2612C42.872 10.7567 43.0747 10.8751 43.532 10.8727C46.8245 10.8582 50.1183 10.8654 53.4108 10.8654C55.7599 10.8654 58.109 10.8618 60.458 10.8667C62.1025 10.8703 63.3295 12.0256 63.3283 13.5555C63.3271 15.0867 62.1049 16.242 60.4544 16.2432C50.8603 16.2444 41.2626 16.2432 31.6648 16.2432ZM31.6914 10.9778C33.4782 10.9778 35.265 10.9682 37.0519 10.9851C37.4802 10.9887 37.678 10.8751 37.6587 10.4099C37.6298 9.68718 37.6636 8.96209 37.6467 8.23821C37.6129 6.76628 36.4341 5.52034 34.9755 5.49617C32.7881 5.45992 30.5983 5.46233 28.4109 5.49617C26.986 5.51792 25.8362 6.69861 25.7819 8.12824C25.753 8.87146 25.7904 9.61709 25.7614 10.3603C25.7433 10.8304 25.9158 10.9935 26.39 10.9875C28.1575 10.9645 29.9239 10.9778 31.6914 10.9778Z" fill="#F47761"/>
<path d="M19.1973 50.3145C19.1792 49.6462 19.5158 48.9948 20.0841 48.4268C22.5308 45.9869 24.9583 43.5288 27.4208 41.1046C27.8117 40.7203 27.7815 40.5318 27.4111 40.1656C24.9113 37.6943 22.4259 35.2072 19.955 32.7069C18.5421 31.2773 18.9572 28.986 20.7718 28.279C21.8745 27.85 22.8964 28.0712 23.7554 28.934C26.2071 31.3969 28.6756 33.8429 31.1103 36.3239C31.5338 36.7553 31.7534 36.7759 32.1889 36.3311C34.6345 33.8344 37.1187 31.3739 39.5848 28.8978C40.3545 28.1243 41.2847 27.9116 42.2982 28.1968C43.337 28.4881 43.9475 29.2373 44.1514 30.2911C44.3444 31.2869 43.9656 32.0978 43.2718 32.7927C40.8299 35.2362 38.3988 37.6919 35.9387 40.1185C35.5382 40.5137 35.4875 40.7191 35.9182 41.1457C38.3469 43.5458 40.7478 45.9748 43.1427 48.4087C44.4325 49.7199 44.3323 51.5906 42.9485 52.6166C41.818 53.4553 40.5548 53.3381 39.4762 52.2637C37.3407 50.138 35.216 48.0002 33.0865 45.8685C32.8452 45.6268 32.6063 45.3827 32.3626 45.1446C31.5253 44.3289 31.769 44.324 30.9197 45.1651C28.5778 47.483 26.2505 49.8142 23.9075 52.1308C22.7251 53.3006 21.5632 53.4795 20.399 52.6964C19.6099 52.1659 19.1973 51.4251 19.1973 50.3145Z" fill="#F47761"/>
</svg>
