<svg width="103" height="110" viewBox="0 0 103 110" fill="none" xmlns="http://www.w3.org/2000/svg">
<path d="M3.95497 54.7832C3.95497 70.3867 3.95888 85.9901 3.94714 101.594C3.94518 102.809 4.12133 103.914 5.10775 104.752C5.89062 105.42 6.79288 105.645 7.81649 105.643C16.5455 105.628 25.2765 105.633 34.0055 105.635C34.4928 105.635 34.9802 105.6 35.4597 105.754C36.358 106.042 36.863 106.713 36.8415 107.639C36.8199 108.567 36.3385 109.174 35.4558 109.407C34.9919 109.531 34.4909 109.559 34.0075 109.559C25.3763 109.566 16.7432 109.574 8.11202 109.561C3.14666 109.553 0.00146788 106.4 0.00146788 101.463C-0.000489295 70.3536 -0.000489295 39.2459 0.00146788 8.13628C0.00146788 3.14131 3.14078 0.00778033 8.18052 0.00583524C29.7447 -0.00194508 51.307 -0.00194508 72.8712 0.00583524C76.9049 0.00778033 79.9444 2.33799 80.7038 5.97529C80.8017 6.446 80.8173 6.93811 80.8173 7.42243C80.8232 21.2442 80.8212 35.0679 80.8271 48.8916C80.8271 49.5918 80.786 50.2609 80.1949 50.7472C79.6254 51.214 78.9795 51.3638 78.2769 51.1109C77.5762 50.858 77.1535 50.3348 77.0341 49.6132C76.9656 49.2028 76.9871 48.7749 76.9871 48.3547C76.9852 34.8889 76.9813 21.4212 76.993 7.95538C76.9949 6.61717 76.674 5.4579 75.5545 4.62346C74.9066 4.14108 74.1766 3.92906 73.3644 3.93101C69.4892 3.94073 65.612 3.95241 61.7368 3.91934C60.9265 3.9135 60.6368 4.17998 60.6779 4.9833C60.7327 6.01614 60.7367 7.05676 60.6779 8.08959C60.629 8.92792 60.9891 9.13799 61.7661 9.12827C64.1441 9.09326 66.5221 9.11271 68.9001 9.1166C71.0784 9.12049 71.7517 9.77792 71.7536 11.9739C71.7595 23.4013 71.7595 34.8286 71.7536 46.256C71.7536 47.3219 71.8378 48.3936 71.6675 49.4556C71.4894 50.5702 70.7222 51.2626 69.7064 51.2373C68.6906 51.2101 67.8941 50.3776 67.8216 49.2495C67.7982 48.8955 67.8119 48.5376 67.8119 48.1816C67.8119 36.9157 67.8119 25.6517 67.8119 14.3858C67.8119 13.0554 67.808 13.0534 66.4575 13.0515C64.6001 13.0496 62.7447 13.0573 60.8874 13.0496C60.4079 13.0476 60.0008 13.1235 59.717 13.5786C58.3039 15.8388 56.1432 16.6927 53.5793 16.6966C44.8502 16.7082 36.1193 16.7024 27.3902 16.7005C24.7794 16.7005 22.6108 15.8213 21.1547 13.5611C20.9159 13.1915 20.6047 13.0496 20.178 13.0515C18.1269 13.0593 16.0738 13.0632 14.0227 13.0496C13.416 13.0457 13.1009 13.2693 13.1283 13.8996C13.142 14.2224 13.1263 14.5473 13.1263 14.8701C13.1263 41.4789 13.1263 68.0895 13.1263 94.6982C13.1263 94.9239 13.1498 95.1534 13.1224 95.3771C13.0167 96.2815 13.4355 96.5383 14.3104 96.5344C20.8259 96.5072 27.3393 96.5188 33.8548 96.5208C34.2462 96.5208 34.6396 96.5033 35.0252 96.5538C36.1545 96.7017 36.8434 97.4427 36.8473 98.4756C36.8512 99.5104 36.1701 100.257 35.0448 100.417C34.7238 100.462 34.395 100.452 34.0701 100.452C26.7405 100.454 19.4128 100.456 12.0831 100.452C9.78932 100.452 9.18064 99.8449 9.18064 97.5789C9.18064 69.0601 9.18064 40.5394 9.18064 12.0206C9.18064 9.69818 9.77367 9.1166 12.1458 9.11465C14.4592 9.11271 16.7706 9.08937 19.084 9.12632C19.8884 9.13994 20.1976 8.86763 20.1604 8.06042C20.1095 6.99451 20.1271 5.92472 20.1545 4.85687C20.1722 4.20916 19.9471 3.92128 19.2562 3.92517C15.2499 3.94657 11.2435 3.9135 7.23716 3.95435C5.50701 3.97186 4.0998 5.39177 3.98629 7.10149C3.95301 7.58582 3.9628 8.07209 3.9628 8.55836C3.95497 23.9653 3.95497 39.3743 3.95497 54.7832ZM40.4505 12.7811C44.9403 12.7811 49.43 12.787 53.9198 12.7772C55.7576 12.7733 56.8203 11.7152 56.8419 9.88296C56.8595 8.2666 56.8066 6.64829 56.8634 5.03387C56.8928 4.1897 56.6246 3.90378 55.7576 3.91739C52.8297 3.96213 49.9017 3.9349 46.9738 3.9349C39.7498 3.9349 32.5278 3.95046 25.3039 3.91739C24.3625 3.9135 24.0435 4.20332 24.0846 5.13501C24.1491 6.61911 24.0983 8.10904 24.1022 9.59703C24.108 11.8767 25.0044 12.7792 27.2728 12.7811C31.6667 12.7831 36.0586 12.7811 40.4505 12.7811Z" fill="#2B2A35"/>
<path d="M60.5292 72.8396C66.2618 72.8396 71.9924 72.8377 77.725 72.8416C78.1477 72.8416 78.5764 72.8338 78.9913 72.8921C80.2341 73.0691 80.8173 73.7285 80.8232 74.9889C80.8369 78.1283 80.8291 81.2677 80.8291 84.407C80.8291 91.9481 80.831 99.4892 80.8291 107.03C80.8291 108.868 80.1734 109.555 78.3063 109.557C66.4849 109.569 54.6636 109.567 42.8422 109.559C41.1042 109.557 40.3057 108.779 40.3057 107.073C40.2939 96.4899 40.2939 85.9067 40.3057 75.3235C40.3076 73.5826 41.1101 72.8455 42.9479 72.8435C48.8038 72.8338 54.6655 72.8396 60.5292 72.8396ZM60.5292 105.634C65.6433 105.634 70.7555 105.63 75.8696 105.638C76.5037 105.64 77.0008 105.641 76.9989 104.751C76.9773 95.7196 76.9793 86.6886 76.995 77.6576C76.9969 76.9729 76.7327 76.7531 76.0712 76.7609C73.7265 76.7843 71.3818 76.7881 69.0371 76.759C68.3149 76.7492 68.0585 77.0157 68.0702 77.7257C68.0996 79.6357 68.0957 81.5458 68.0722 83.4539C68.0526 85.0859 67.2991 85.8619 65.6786 85.8736C62.2907 85.897 58.9028 85.9008 55.5169 85.8717C53.8807 85.8581 53.1663 85.0917 53.1565 83.4462C53.1448 81.5361 53.1311 79.626 53.1643 77.7179C53.1761 77.0002 52.9177 76.7492 52.1995 76.759C49.9526 76.7901 47.7038 76.8076 45.457 76.7512C44.5214 76.7278 44.2298 77.0196 44.2318 77.9591C44.2631 86.7625 44.2494 95.5679 44.2514 104.373C44.2514 105.63 44.2572 105.634 45.5803 105.634C50.5633 105.636 55.5462 105.634 60.5292 105.634ZM60.5312 81.9465C61.4726 81.9465 62.4159 81.9387 63.3573 81.9504C63.8897 81.9562 64.1246 81.715 64.1206 81.1899C64.1109 79.9625 64.1109 78.7371 64.1206 77.5098C64.1246 76.969 63.8584 76.7687 63.3378 76.7726C61.5196 76.7823 59.6994 76.7823 57.8812 76.7745C57.3547 76.7726 57.1022 77.006 57.1042 77.5312C57.1081 78.7254 57.1159 79.9197 57.0983 81.114C57.0885 81.7442 57.3958 81.9718 57.9966 81.9562C58.8402 81.9329 59.6857 81.9484 60.5312 81.9465Z" fill="#464BA8"/>
<path d="M102.879 82.1969C102.879 90.3857 102.881 98.5725 102.879 106.761C102.879 108.887 102.214 109.56 100.084 109.564C95.7529 109.57 91.4217 109.566 87.0904 109.566C86.8634 109.566 86.6344 109.572 86.4074 109.553C85.143 109.444 84.2799 108.611 84.3132 107.543C84.3465 106.466 85.237 105.653 86.4994 105.645C90.2121 105.623 93.9249 105.637 97.6357 105.633C98.9177 105.631 98.9235 105.627 98.9235 104.32C98.9255 89.4968 98.9255 74.6753 98.9235 59.8518C98.9235 58.5369 98.9177 58.533 97.6494 58.533C94.2948 58.5311 90.9402 58.5583 87.5875 58.5155C86.697 58.5039 86.3702 58.7723 86.3976 59.6709C86.4504 61.4176 86.4269 63.1662 86.4074 64.9129C86.3858 67.0058 85.7263 67.6496 83.6536 67.6516C80.4301 67.6535 77.2047 67.6574 73.9812 67.6496C72.1669 67.6457 71.5152 66.9903 71.5093 65.1852C71.5034 63.3082 71.4839 61.4312 71.5191 59.5542C71.5328 58.8326 71.3547 58.5078 70.5425 58.5155C66.9941 58.5525 63.4438 58.5505 59.8935 58.5175C59.1086 58.5097 58.8855 58.7995 58.8933 59.5406C58.9247 62.0964 58.9207 64.6542 58.8953 67.21C58.8816 68.5541 58.177 69.3535 57.0477 69.4099C56.075 69.4586 55.3411 68.9528 55.0964 68.0017C54.9927 67.5991 54.9574 67.1711 54.9555 66.7549C54.9437 63.6486 54.9418 60.5404 54.9516 57.4341C54.9575 55.3178 55.57 54.7148 57.674 54.7148C71.8401 54.7148 86.0061 54.7148 100.172 54.7148C102.296 54.7148 102.877 55.2964 102.877 57.438C102.881 65.6909 102.879 73.9439 102.879 82.1969ZM78.9349 63.7245C78.9349 63.7264 78.9349 63.7264 78.9349 63.7284C79.8117 63.7284 80.6904 63.7167 81.5673 63.7322C82.1544 63.742 82.4852 63.5552 82.4715 62.9017C82.446 61.7074 82.4499 60.5112 82.4715 59.3169C82.4832 58.7275 82.2268 58.5214 81.6514 58.5253C79.7999 58.5428 77.9465 58.5408 76.095 58.5272C75.5548 58.5233 75.3376 58.747 75.3454 59.2799C75.363 60.5073 75.361 61.7346 75.3473 62.962C75.3415 63.4949 75.5842 63.7284 76.1087 63.7245C77.0501 63.7186 77.9934 63.7245 78.9349 63.7245Z" fill="#464BA8"/>
<path d="M40.4732 47.0008C45.2028 47.0008 49.9348 46.9968 54.6644 47.0067C55.194 47.0087 55.7484 47.0146 56.2458 47.1353C57.3422 47.4004 57.9511 48.0374 57.9981 48.9572C58.0426 49.8415 57.3076 50.6169 56.1914 50.8405C55.5999 50.9572 54.9713 50.9928 54.36 50.9928C45.0642 51.0027 35.7684 51.0007 26.4726 50.9968C24.265 50.9968 23.0201 50.2787 23.0003 49.0205C22.978 47.7327 24.2526 47.0028 26.5295 47.0028C31.1774 46.9988 35.8253 47.0008 40.4732 47.0008Z" fill="#2B2A35"/>
<path d="M36.9786 62.0008C40.7622 62.0008 44.5478 61.9968 48.3315 62.0067C48.7552 62.0087 49.1987 62.0146 49.5967 62.1353C50.4738 62.4004 50.9608 63.0374 50.9985 63.9572C51.0341 64.8415 50.4461 65.6169 49.5531 65.8405C49.0799 65.9572 48.577 65.9928 48.088 65.9928C40.6513 66.0027 33.2147 66.0007 25.7781 65.9968C24.012 65.9968 23.0161 65.2787 23.0002 64.0205C22.9824 62.7327 24.0021 62.0028 25.8236 62.0028C29.5419 61.9988 33.2602 62.0008 36.9786 62.0008Z" fill="#2B2A35"/>
<path d="M40.5104 34.9959C35.577 34.9959 30.6412 34.9898 25.7078 35C24.6241 35.002 23.7879 34.6928 23.2782 33.881C22.8131 33.1383 22.9541 32.4384 23.5306 31.7853C24.1268 31.1099 24.9952 31 25.9404 31C32.5611 31.0102 39.1794 31.0041 45.8001 31.0041C48.9249 31.0041 52.0497 30.998 55.1745 31.0081C56.9039 31.0142 57.9975 31.7976 58 32.9939C58.0049 34.1902 56.9064 34.9878 55.1869 34.9919C50.2956 35.002 45.4042 34.9959 40.5104 34.9959Z" fill="#2B2A35"/>
<path d="M36.972 24C40.5086 24 44.0453 24 47.582 24C48.1578 24 48.7337 23.9961 49.2898 24.1505C50.3871 24.4573 51 25.0948 51 26.0016C51 26.9103 50.392 27.5597 49.2848 27.8448C48.9388 27.9339 48.5607 27.9933 48.1974 27.9933C40.7533 28.0012 33.3093 28.0032 25.8652 27.9933C25.4228 27.9933 24.9533 27.926 24.543 27.7953C23.5198 27.4726 22.9761 26.8193 23.0008 25.9521C23.0255 25.1285 23.5717 24.5227 24.5405 24.2C25.1213 24.0059 25.7417 24 26.362 24C29.8962 24.002 33.4353 24 36.972 24Z" fill="#2B2A35"/>
<path d="M37.0583 40.0061C40.7542 40.0061 44.4501 40 48.1435 40.0081C49.9173 40.0122 50.9673 40.7365 50.9994 41.949C51.0291 43.127 49.905 43.9855 48.2226 43.9896C40.7493 44.0018 33.2759 44.0058 25.8026 43.9875C23.6014 43.9835 22.3587 42.4352 23.3395 40.9949C23.8608 40.2258 24.7032 39.998 25.7236 40C29.5035 40.0163 33.2809 40.0061 37.0583 40.0061Z" fill="#2B2A35"/>
<path d="M37.0583 55.0061C40.7542 55.0061 44.4501 55 48.1435 55.0081C49.9173 55.0122 50.9673 55.7365 50.9994 56.949C51.0291 58.127 49.905 58.9855 48.2226 58.9896C40.7493 59.0018 33.2759 59.0058 25.8026 58.9875C23.6014 58.9835 22.3587 57.4352 23.3395 55.9949C23.8608 55.2258 24.7032 54.998 25.7236 55C29.5035 55.0163 33.2809 55.0061 37.0583 55.0061Z" fill="#2B2A35"/>
<circle cx="53" cy="53.4268" r="22.5" stroke="white" stroke-width="5"/>
<circle cx="53" cy="53.4268" r="18.75" fill="white" stroke="#F47761" stroke-width="2.5"/>
<path d="M46.9151 52.4019C46.9151 50.0317 46.9143 47.6626 46.9151 45.2924C46.9151 44.5015 46.9233 44.491 47.494 44.4887C48.1369 44.4864 48.7798 44.5039 49.4219 44.4829C49.7511 44.4724 49.8923 44.6404 49.8915 45.1221C49.8858 49.9979 49.8866 54.8737 49.8907 59.7494C49.8907 60.181 49.7848 60.391 49.4596 60.3828C48.7486 60.3642 48.0375 60.3642 47.3265 60.3828C46.9972 60.391 46.9085 60.1799 46.9102 59.7448C46.92 57.2975 46.9151 54.8492 46.9151 52.4019Z" fill="#F47761"/>
<path d="M59.828 52.4344C59.828 54.8042 59.8288 57.1728 59.828 59.5427C59.828 60.3719 59.8263 60.373 59.2268 60.3754C58.5985 60.3777 57.9703 60.359 57.342 60.3824C56.9976 60.3952 56.8507 60.2273 56.8516 59.7141C56.8598 54.859 56.8581 50.0027 56.8532 45.1476C56.8524 44.6858 56.9631 44.4735 57.3051 44.484C58.0015 44.505 58.6986 44.5062 59.3949 44.4829C59.746 44.4712 59.8345 44.6951 59.8329 45.1523C59.8222 47.5793 59.828 50.0074 59.828 52.4344Z" fill="#F47761"/>
</svg>
