<svg width="103" height="110" viewBox="0 0 103 110" fill="none" xmlns="http://www.w3.org/2000/svg">
<path d="M3.95497 54.7832C3.95497 70.3867 3.95888 85.9901 3.94714 101.594C3.94518 102.809 4.12133 103.914 5.10775 104.752C5.89062 105.42 6.79288 105.645 7.81649 105.643C16.5455 105.628 25.2765 105.633 34.0055 105.635C34.4928 105.635 34.9802 105.6 35.4597 105.754C36.358 106.042 36.863 106.713 36.8415 107.639C36.8199 108.567 36.3385 109.174 35.4558 109.407C34.9919 109.531 34.4909 109.559 34.0075 109.559C25.3763 109.566 16.7432 109.574 8.11202 109.561C3.14666 109.553 0.00146788 106.4 0.00146788 101.463C-0.000489295 70.3536 -0.000489295 39.2459 0.00146788 8.13628C0.00146788 3.14131 3.14078 0.00778033 8.18052 0.00583524C29.7447 -0.00194508 51.307 -0.00194508 72.8712 0.00583524C76.9049 0.00778033 79.9444 2.33799 80.7038 5.97529C80.8017 6.446 80.8173 6.93811 80.8173 7.42243C80.8232 21.2442 80.8212 35.0679 80.8271 48.8916C80.8271 49.5918 80.786 50.2609 80.1949 50.7472C79.6254 51.214 78.9795 51.3638 78.2769 51.1109C77.5762 50.858 77.1535 50.3348 77.0341 49.6132C76.9656 49.2028 76.9871 48.7749 76.9871 48.3547C76.9852 34.8889 76.9813 21.4212 76.993 7.95538C76.9949 6.61717 76.674 5.4579 75.5545 4.62346C74.9066 4.14108 74.1766 3.92906 73.3644 3.93101C69.4892 3.94073 65.612 3.95241 61.7368 3.91934C60.9265 3.9135 60.6368 4.17998 60.6779 4.9833C60.7327 6.01614 60.7367 7.05676 60.6779 8.08959C60.629 8.92792 60.9891 9.13799 61.7661 9.12827C64.1441 9.09326 66.5221 9.11271 68.9001 9.1166C71.0784 9.12049 71.7517 9.77792 71.7536 11.9739C71.7595 23.4013 71.7595 34.8286 71.7536 46.256C71.7536 47.3219 71.8378 48.3936 71.6675 49.4556C71.4894 50.5702 70.7222 51.2626 69.7064 51.2373C68.6906 51.2101 67.8941 50.3776 67.8216 49.2495C67.7982 48.8955 67.8119 48.5376 67.8119 48.1816C67.8119 36.9157 67.8119 25.6517 67.8119 14.3858C67.8119 13.0554 67.808 13.0534 66.4575 13.0515C64.6001 13.0496 62.7447 13.0573 60.8874 13.0496C60.4079 13.0476 60.0008 13.1235 59.717 13.5786C58.3039 15.8388 56.1432 16.6927 53.5793 16.6966C44.8502 16.7082 36.1193 16.7024 27.3902 16.7005C24.7794 16.7005 22.6108 15.8213 21.1547 13.5611C20.9159 13.1915 20.6047 13.0496 20.178 13.0515C18.1269 13.0593 16.0738 13.0632 14.0227 13.0496C13.416 13.0457 13.1009 13.2693 13.1283 13.8996C13.142 14.2224 13.1263 14.5473 13.1263 14.8701C13.1263 41.4789 13.1263 68.0895 13.1263 94.6982C13.1263 94.9239 13.1498 95.1534 13.1224 95.3771C13.0167 96.2815 13.4355 96.5383 14.3104 96.5344C20.8259 96.5072 27.3393 96.5188 33.8548 96.5208C34.2462 96.5208 34.6396 96.5033 35.0252 96.5538C36.1545 96.7017 36.8434 97.4427 36.8473 98.4756C36.8512 99.5104 36.1701 100.257 35.0448 100.417C34.7238 100.462 34.395 100.452 34.0701 100.452C26.7405 100.454 19.4128 100.456 12.0831 100.452C9.78932 100.452 9.18064 99.8449 9.18064 97.5789C9.18064 69.0601 9.18064 40.5394 9.18064 12.0206C9.18064 9.69818 9.77367 9.1166 12.1458 9.11465C14.4592 9.11271 16.7706 9.08937 19.084 9.12632C19.8884 9.13994 20.1976 8.86763 20.1604 8.06042C20.1095 6.99451 20.1271 5.92472 20.1545 4.85687C20.1722 4.20916 19.9471 3.92128 19.2562 3.92517C15.2499 3.94657 11.2435 3.9135 7.23716 3.95435C5.50701 3.97186 4.0998 5.39177 3.98629 7.10149C3.95301 7.58582 3.9628 8.07209 3.9628 8.55836C3.95497 23.9653 3.95497 39.3743 3.95497 54.7832ZM40.4505 12.7811C44.9403 12.7811 49.43 12.787 53.9198 12.7772C55.7576 12.7733 56.8203 11.7152 56.8419 9.88296C56.8595 8.2666 56.8066 6.64829 56.8634 5.03387C56.8928 4.1897 56.6246 3.90378 55.7576 3.91739C52.8297 3.96213 49.9017 3.9349 46.9738 3.9349C39.7498 3.9349 32.5278 3.95046 25.3039 3.91739C24.3625 3.9135 24.0435 4.20332 24.0846 5.13501C24.1491 6.61911 24.0983 8.10904 24.1022 9.59703C24.108 11.8767 25.0044 12.7792 27.2728 12.7811C31.6667 12.7831 36.0586 12.7811 40.4505 12.7811Z" fill="#2B2A35"/>
<path d="M60.5292 72.8396C66.2618 72.8396 71.9924 72.8377 77.725 72.8416C78.1477 72.8416 78.5764 72.8338 78.9913 72.8921C80.2341 73.0691 80.8173 73.7285 80.8232 74.9889C80.8369 78.1283 80.8291 81.2677 80.8291 84.407C80.8291 91.9481 80.831 99.4892 80.8291 107.03C80.8291 108.868 80.1734 109.555 78.3063 109.557C66.4849 109.569 54.6636 109.567 42.8422 109.559C41.1042 109.557 40.3057 108.779 40.3057 107.073C40.2939 96.4899 40.2939 85.9067 40.3057 75.3235C40.3076 73.5826 41.1101 72.8455 42.9479 72.8435C48.8038 72.8338 54.6655 72.8396 60.5292 72.8396ZM60.5292 105.634C65.6433 105.634 70.7555 105.63 75.8696 105.638C76.5037 105.64 77.0008 105.641 76.9989 104.751C76.9773 95.7196 76.9793 86.6886 76.995 77.6576C76.9969 76.9729 76.7327 76.7531 76.0712 76.7609C73.7265 76.7843 71.3818 76.7881 69.0371 76.759C68.3149 76.7492 68.0585 77.0157 68.0702 77.7257C68.0996 79.6357 68.0957 81.5458 68.0722 83.4539C68.0526 85.0859 67.2991 85.8619 65.6786 85.8736C62.2907 85.897 58.9028 85.9008 55.5169 85.8717C53.8807 85.8581 53.1663 85.0917 53.1565 83.4462C53.1448 81.5361 53.1311 79.626 53.1643 77.7179C53.1761 77.0002 52.9177 76.7492 52.1995 76.759C49.9526 76.7901 47.7038 76.8076 45.457 76.7512C44.5214 76.7278 44.2298 77.0196 44.2318 77.9591C44.2631 86.7625 44.2494 95.5679 44.2514 104.373C44.2514 105.63 44.2572 105.634 45.5803 105.634C50.5633 105.636 55.5462 105.634 60.5292 105.634ZM60.5312 81.9465C61.4726 81.9465 62.4159 81.9387 63.3573 81.9504C63.8897 81.9562 64.1246 81.715 64.1206 81.1899C64.1109 79.9625 64.1109 78.7371 64.1206 77.5098C64.1246 76.969 63.8584 76.7687 63.3378 76.7726C61.5196 76.7823 59.6994 76.7823 57.8812 76.7745C57.3547 76.7726 57.1022 77.006 57.1042 77.5312C57.1081 78.7254 57.1159 79.9197 57.0983 81.114C57.0885 81.7442 57.3958 81.9718 57.9966 81.9562C58.8402 81.9329 59.6857 81.9484 60.5312 81.9465Z" fill="#464BA8"/>
<path d="M102.879 82.1969C102.879 90.3857 102.881 98.5725 102.879 106.761C102.879 108.887 102.214 109.56 100.084 109.564C95.7529 109.57 91.4217 109.566 87.0904 109.566C86.8634 109.566 86.6344 109.572 86.4074 109.553C85.143 109.444 84.2799 108.611 84.3132 107.543C84.3465 106.466 85.237 105.653 86.4994 105.645C90.2121 105.623 93.9249 105.637 97.6357 105.633C98.9177 105.631 98.9235 105.627 98.9235 104.32C98.9255 89.4968 98.9255 74.6753 98.9235 59.8518C98.9235 58.5369 98.9177 58.533 97.6494 58.533C94.2948 58.5311 90.9402 58.5583 87.5875 58.5155C86.697 58.5039 86.3702 58.7723 86.3976 59.6709C86.4504 61.4176 86.4269 63.1662 86.4074 64.9129C86.3858 67.0058 85.7263 67.6496 83.6536 67.6516C80.4301 67.6535 77.2047 67.6574 73.9812 67.6496C72.1669 67.6457 71.5152 66.9903 71.5093 65.1852C71.5034 63.3082 71.4839 61.4312 71.5191 59.5542C71.5328 58.8326 71.3547 58.5078 70.5425 58.5155C66.9941 58.5525 63.4438 58.5505 59.8935 58.5175C59.1086 58.5097 58.8855 58.7995 58.8933 59.5406C58.9247 62.0964 58.9207 64.6542 58.8953 67.21C58.8816 68.5541 58.177 69.3535 57.0477 69.4099C56.075 69.4586 55.3411 68.9528 55.0964 68.0017C54.9927 67.5991 54.9574 67.1711 54.9555 66.7549C54.9437 63.6486 54.9418 60.5404 54.9516 57.4341C54.9575 55.3178 55.57 54.7148 57.674 54.7148C71.8401 54.7148 86.0061 54.7148 100.172 54.7148C102.296 54.7148 102.877 55.2964 102.877 57.438C102.881 65.6909 102.879 73.9439 102.879 82.1969ZM78.9349 63.7245C78.9349 63.7264 78.9349 63.7264 78.9349 63.7284C79.8117 63.7284 80.6904 63.7167 81.5673 63.7322C82.1544 63.742 82.4852 63.5552 82.4715 62.9017C82.446 61.7074 82.4499 60.5112 82.4715 59.3169C82.4832 58.7275 82.2268 58.5214 81.6514 58.5253C79.7999 58.5428 77.9465 58.5408 76.095 58.5272C75.5548 58.5233 75.3376 58.747 75.3454 59.2799C75.363 60.5073 75.361 61.7346 75.3473 62.962C75.3415 63.4949 75.5842 63.7284 76.1087 63.7245C77.0501 63.7186 77.9934 63.7245 78.9349 63.7245Z" fill="#464BA8"/>
<path d="M48.6538 47.365C52.394 47.365 56.1361 47.3611 59.8763 47.3709C60.2952 47.3728 60.7336 47.3786 61.127 47.4973C61.994 47.7579 62.4754 48.3842 62.5126 49.2887C62.5479 50.1582 61.9666 50.9206 61.0839 51.1404C60.6161 51.2552 60.119 51.2902 59.6356 51.2902C52.2844 51.2999 44.9333 51.298 37.5821 51.2941C35.8363 51.2941 34.8518 50.588 34.8362 49.351C34.8185 48.0847 35.8265 47.367 37.6271 47.367C41.3027 47.3631 44.9783 47.365 48.6538 47.365Z" fill="#2B2A35"/>
<path d="M48.6878 34.8406C44.7852 34.8406 40.8806 34.8348 36.978 34.8445C36.1207 34.8465 35.4592 34.5508 35.056 33.7747C34.6881 33.0648 34.7996 32.3957 35.2556 31.7713C35.7273 31.1255 36.4143 31.0205 37.1619 31.0205C42.3994 31.0302 47.6348 31.0244 52.8722 31.0244C55.3441 31.0244 57.8161 31.0186 60.288 31.0283C61.656 31.0341 62.5211 31.783 62.5231 32.9267C62.527 34.0704 61.658 34.8329 60.2978 34.8368C56.4284 34.8465 52.5591 34.8406 48.6878 34.8406Z" fill="#2B2A35"/>
<path d="M51.4161 23.6816C54.2169 23.6816 57.0176 23.6816 59.8183 23.6816C60.2743 23.6816 60.7304 23.6778 61.1707 23.8295C62.0397 24.131 62.5251 24.7573 62.5251 25.6481C62.5251 26.5409 62.0436 27.1789 61.1668 27.459C60.8928 27.5465 60.5933 27.6049 60.3056 27.6049C54.4106 27.6127 48.5156 27.6146 42.6206 27.6049C42.2702 27.6049 41.8984 27.5387 41.5735 27.4104C40.7632 27.0933 40.3326 26.4514 40.3522 25.5995C40.3718 24.7903 40.8043 24.1952 41.5715 23.8781C42.0315 23.6875 42.5227 23.6816 43.014 23.6816C45.8127 23.6836 48.6154 23.6816 51.4161 23.6816Z" fill="#2B2A35"/>
<path d="M51.4809 40.1484C54.4089 40.1484 57.3368 40.1426 60.2628 40.1504C61.6681 40.1543 62.4999 40.8467 62.5253 42.006C62.5488 43.1322 61.6583 43.953 60.3254 43.9569C54.405 43.9686 48.4845 43.9725 42.564 43.9549C40.8202 43.9511 39.8357 42.4709 40.6127 41.0937C41.0257 40.3585 41.6931 40.1406 42.5014 40.1426C45.4959 40.1582 48.4884 40.1484 51.4809 40.1484Z" fill="#2B2A35"/>
<path d="M33.2065 41.9996C33.1811 42.6979 32.8816 43.188 32.4569 43.6101C30.1611 45.8975 27.8771 48.1947 25.5579 50.4568C24.4579 51.5285 23.4226 51.4955 22.3207 50.4276C21.2266 49.3675 20.1463 48.2958 19.0816 47.2066C18.1558 46.2593 18.1245 45.0903 18.9622 44.285C19.7568 43.5206 20.8841 43.5906 21.8373 44.4854C22.3814 44.995 22.9235 45.5104 23.4206 46.0628C23.8316 46.5199 24.1213 46.4499 24.5264 46.0395C26.2781 44.2636 28.0572 42.5131 29.8323 40.7606C30.4743 40.1265 31.2435 39.9689 32.0733 40.3054C32.8503 40.6225 33.1595 41.2799 33.2065 41.9996Z" fill="#26C296"/>
<path d="M23.9249 67.6342C23.375 67.6089 22.917 67.3852 22.5353 67.0059C21.3591 65.8408 20.1691 64.6874 19.0163 63.5009C18.1611 62.6198 18.1513 61.5072 18.9263 60.7292C19.6974 59.957 20.8248 59.9725 21.7172 60.7953C22.2653 61.301 22.8113 61.8165 23.3045 62.3747C23.7645 62.896 24.103 62.8454 24.5708 62.3669C26.2305 60.6747 27.9254 59.0175 29.6047 57.3467C30.1546 56.8001 30.7692 56.378 31.5932 56.5336C32.3134 56.6698 32.8419 57.0957 33.0904 57.7901C33.3683 58.5701 33.1511 59.2704 32.5894 59.8441C31.4757 60.9801 30.3406 62.0946 29.2132 63.2169C27.9939 64.4307 26.7668 65.6385 25.5533 66.8581C25.0973 67.3133 24.5767 67.6031 23.9249 67.6342Z" fill="#26C296"/>
<path d="M23.9419 83.9769C23.3234 84.0197 22.8322 83.7143 22.4036 83.2942C21.2919 82.203 20.1724 81.1215 19.094 79.9992C18.1526 79.0228 18.1252 77.848 18.9589 77.0758C19.8377 76.2627 20.877 76.3464 21.8947 77.3247C22.3625 77.7741 22.8498 78.2098 23.2686 78.7019C23.7501 79.2679 24.0907 79.3107 24.6465 78.7291C26.3297 76.9746 28.0716 75.2746 29.8134 73.5766C30.7901 72.6254 32.0446 72.6721 32.7923 73.6369C33.3833 74.3974 33.3853 75.3913 32.667 76.1168C30.2284 78.5852 27.7545 81.0204 25.2865 83.4595C24.9303 83.8155 24.4782 83.9944 23.9419 83.9769Z" fill="#26C296"/>
<path d="M33.2244 25.6074C33.2028 26.1832 32.9875 26.6714 32.5765 27.0799C30.179 29.4567 27.7991 31.8511 25.3839 34.2105C24.4718 35.1014 23.4522 35.0819 22.5245 34.195C21.3286 33.0513 20.1523 31.8842 19.0035 30.6938C18.1541 29.8146 18.156 28.6962 18.9428 27.924C19.7335 27.1479 20.8237 27.1732 21.7318 28.0154C22.3033 28.5445 22.8709 29.0833 23.3856 29.6668C23.8142 30.1531 24.1019 30.1259 24.5521 29.6649C26.2999 27.8773 28.0848 26.1287 29.8619 24.3704C30.4667 23.7732 31.1811 23.5418 32.0011 23.8802C32.7664 24.1934 33.148 24.7983 33.2244 25.6074Z" fill="#26C296"/>
<path d="M43.0958 67.6457C41.0486 67.6476 38.9994 67.6768 36.9522 67.6379C35.3884 67.6087 34.4666 66.3522 34.9774 65.0354C35.2318 64.3799 35.7152 63.9598 36.4081 63.8567C37.0148 63.7672 37.6352 63.738 38.2518 63.7361C41.6005 63.7244 44.9473 63.7283 48.296 63.7341C48.7814 63.7361 49.2726 63.7516 49.7521 63.8217C50.9167 63.9909 51.5293 64.695 51.496 65.7687C51.4627 66.8346 50.6955 67.6146 49.531 67.634C47.3879 67.671 45.2408 67.6437 43.0958 67.6457Z" fill="#2B2A35"/>
<path d="M45.9211 60.3288C44.6881 60.3288 43.4492 60.3969 42.2201 60.3093C41.0262 60.2238 40.3158 59.3952 40.353 58.3526C40.3901 57.31 41.2533 56.5087 42.4569 56.495C44.7644 56.4698 47.0739 56.4717 49.3814 56.4931C50.6399 56.5048 51.4384 57.2186 51.501 58.3059C51.5656 59.4496 50.9178 60.2257 49.6241 60.321C48.397 60.4105 47.1581 60.3405 45.9231 60.3405C45.9211 60.3366 45.9211 60.3327 45.9211 60.3288Z" fill="#2B2A35"/>
</svg>
