<svg width="64" height="76" viewBox="0 0 64 76" fill="none" xmlns="http://www.w3.org/2000/svg">
<path d="M60.2348 52.8051H25.7348C24.8739 52.8051 24.0482 53.1475 23.4395 53.757C22.8307 54.3665 22.4887 55.1931 22.4887 56.0551V71.7556C22.4887 72.6176 22.8307 73.4442 23.4395 74.0537C24.0482 74.6632 24.8739 75.0056 25.7348 75.0056H60.2348C61.0951 75.0036 61.9196 74.6605 62.5279 74.0515C63.1362 73.4424 63.4789 72.617 63.481 71.7556V56.0551C63.4789 55.1938 63.1362 54.3683 62.5279 53.7593C61.9196 53.1502 61.0951 52.8072 60.2348 52.8051ZM16.365 66.9356H7.27734C6.96749 66.9356 6.67033 66.8123 6.45123 66.593C6.23213 66.3736 6.10905 66.0761 6.10905 65.7659V7.67392C6.10905 7.36369 6.23213 7.06618 6.45123 6.84682C6.67033 6.62746 6.96749 6.50423 7.27734 6.50423H31.984V16.8195C31.9589 19.6394 33.0517 22.3543 35.0227 24.3689C36.9937 26.3834 39.6822 27.5333 42.4987 27.5665H51.1237V46.6897H57.2318V22.1263C57.2231 19.8186 56.3885 17.5904 54.8795 15.846L44.4276 3.74878C43.5215 2.7024 42.4016 1.86302 41.1436 1.28743C39.8855 0.711827 38.5187 0.413431 37.1355 0.412419H7.27734C6.32151 0.411386 5.37485 0.599114 4.49158 0.964856C3.6083 1.3306 2.80575 1.86717 2.12988 2.54386C1.454 3.22054 0.918065 4.02405 0.552759 4.90838C0.187453 5.79271 -5.08667e-05 6.74049 0.000980797 7.69747V65.7894C-5.08667e-05 66.7464 0.187453 67.6942 0.552759 68.5785C0.918065 69.4629 1.454 70.2664 2.12988 70.943C2.80575 71.6197 3.6083 72.1563 4.49158 72.522C5.37485 72.8878 6.32151 73.0755 7.27734 73.0745H16.4747C16.4061 72.6329 16.3694 72.1869 16.365 71.7399V66.9356ZM38.0921 6.68478C38.7507 6.86534 50.8963 20.8153 51.0139 21.4433H42.4987C41.3022 21.4145 40.166 20.9113 39.3397 20.0443C38.5135 19.1774 38.0647 18.0175 38.0921 16.8195V6.68478Z" fill="#C4C4C4"/>
</svg>
