
<svg width="125" height="134" viewBox="0 0 125 134" fill="none" xmlns="http://www.w3.org/2000/svg">
<path d="M124.052 85.5884C124.073 85.8572 124.115 86.1259 124.115 86.3947C124.117 98.9811 124.177 111.569 124.077 124.156C124.048 127.695 122.337 130.479 119.169 132.266C117.256 133.344 115.237 133.782 113.034 133.778C88.586 133.748 64.1378 133.76 39.6896 133.758C29.7962 133.757 19.9011 133.831 10.0077 133.7C5.62402 133.642 1.411 130.573 0.35048 126.052C0.0980617 124.973 0.0108957 123.916 0.0108957 122.826C0.0145277 100.467 0.0163436 78.1067 0 55.745C0 54.9895 0.221547 54.4284 0.74999 53.8945C2.91098 51.7099 5.25175 49.7287 7.61431 47.7729C8.49686 47.0429 9.31404 46.2366 10.1675 45.4757C11.5186 44.2754 12.9841 43.1985 14.2189 41.862C14.6766 41.3662 14.9054 40.8686 14.9017 40.1731C14.8763 34.8487 14.8618 29.5225 14.9017 24.1982C14.9199 21.91 15.8588 19.9724 17.3769 18.26C18.7625 16.6964 20.4586 15.6886 22.4071 15.0239C22.9374 14.8423 23.4676 14.8097 24.0124 14.8097C30.7605 14.8115 37.5068 14.8006 44.2549 14.826C45.0158 14.8296 45.586 14.619 46.0908 14.0669C48.4007 11.5482 51.1537 9.50887 53.6416 7.17718C56.1421 4.83278 58.8969 2.76077 61.3503 0.35463C61.8261 -0.112071 62.2746 -0.117516 62.7722 0.334657C64.9804 2.34311 67.1995 4.33885 69.4131 6.34185C72.3859 9.02946 75.6056 11.4429 78.3604 14.3738C78.7544 14.7915 79.2466 14.8187 79.7768 14.8169C86.4341 14.8024 93.0896 14.7842 99.7469 14.7969C102.104 14.8024 104.073 15.7667 105.863 17.2812C107.634 18.7793 108.523 20.7388 109.166 22.8634C109.286 23.2575 109.268 23.7024 109.268 24.1237C109.273 29.479 109.282 34.8342 109.257 40.1895C109.253 40.8832 109.466 41.3844 109.947 41.871C112.173 44.1246 114.699 46.0314 117.064 48.1252C117.897 48.8625 118.675 49.656 119.539 50.3697C120.926 51.5174 122.419 52.5761 123.543 54.0252C123.923 54.5155 124.261 55.0077 124.037 55.6723C123.663 55.8575 123.819 56.2044 123.819 56.4804C123.81 65.9179 123.81 75.3555 123.817 84.7912C123.819 85.0636 123.667 85.4141 124.052 85.5884ZM45.1483 87.9582C45.299 88.0436 45.4498 88.1289 45.5987 88.2161C47.3638 90.3843 49.7191 91.9352 51.6204 93.9636C51.8801 94.2396 52.2669 94.2723 52.6373 94.2723C58.6881 94.2668 64.7407 94.2596 70.7915 94.2578C71.2945 94.2578 71.7557 94.1525 72.1298 93.802C74.1056 91.9461 76.0777 90.0865 78.0517 88.227C78.3549 88.1816 78.551 88.0218 78.6092 87.7112C79.0922 87.615 79.4463 87.3045 79.8258 87.0194C81.3948 85.8408 82.5552 84.2119 84.1805 83.1023C84.4002 82.9516 84.4057 82.7718 84.4057 82.5612C85.2319 82.1926 85.7223 81.4262 86.3905 80.8705C88.9547 78.7386 91.5188 76.6049 93.8959 74.2568C94.9855 73.18 96.1495 72.1775 97.3171 71.1842C99.5653 69.2738 101.804 67.358 103.755 65.1335C103.994 64.8592 104.241 64.5905 104.165 64.1819C104.196 61.6178 104.254 59.0536 104.254 56.4895C104.254 45.9497 104.238 35.4099 104.223 24.87C104.223 24.5414 104.174 24.2145 104.149 23.8858C104.18 23.3374 103.853 22.9016 103.606 22.4803C102.681 20.9149 101.468 19.7236 99.4818 19.7255C97.092 19.7291 94.704 19.7436 92.3142 19.7454C69.7509 19.7545 47.1876 19.7872 24.6244 19.7327C22.2164 19.7273 19.8938 22.266 19.8938 24.4161C19.892 32.1284 19.8593 39.8408 19.8502 47.5532C19.843 52.7541 19.9701 57.9586 19.8012 63.1541C19.7376 65.0917 20.5548 66.312 21.8387 67.4161C24.717 69.8913 27.6443 72.3247 30.4373 74.8797C33.0849 77.3022 35.9469 79.4868 38.4547 82.0618C38.6581 82.2706 38.9505 82.3905 39.2029 82.5521C39.1302 82.9789 39.4063 83.2367 39.6896 83.4528C41.0969 84.5315 42.3354 85.799 43.6538 86.9776C44.0188 87.3045 44.3729 87.6114 44.8814 87.6622C44.8632 87.8529 44.8886 88.0127 45.1483 87.9582ZM62.1566 128.656C77.6449 128.656 93.1332 128.656 108.623 128.656C109.168 128.656 109.713 128.65 110.258 128.652C110.517 128.652 110.748 128.587 110.864 128.338C110.995 128.056 110.895 127.809 110.683 127.601C110.554 127.473 110.43 127.341 110.299 127.214C108.487 125.44 106.301 124.127 104.428 122.414C103.608 121.664 102.836 120.849 101.957 120.161C99.825 118.488 97.7693 116.714 95.7554 114.916C93.4818 112.888 91.0811 111.017 88.7967 109.007C87.4147 107.792 86.1254 106.465 84.6999 105.313C82.4027 103.459 80.2798 101.407 77.9699 99.5695C77.5414 99.2281 77.1655 99.0174 76.608 99.0174C66.9271 99.0301 57.2481 99.0301 47.5672 99.0156C46.9715 99.0138 46.5539 99.2117 46.1362 99.6221C44.1114 101.605 41.7979 103.25 39.6841 105.132C37.7301 106.87 35.8161 108.646 33.7423 110.251C32.6763 111.075 31.6194 111.934 30.6443 112.888C28.6613 114.825 26.3441 116.376 24.3429 118.308C22.9809 119.623 21.4628 120.774 20.0118 121.995C18.0579 123.638 16.0894 125.269 14.1518 126.932C13.7613 127.266 13.1294 127.622 13.3491 128.227C13.6015 128.926 14.3424 128.65 14.88 128.65C30.6352 128.661 46.3959 128.657 62.1566 128.656ZM119.179 60.5463C119.147 60.2358 119.367 59.8726 118.94 59.6638C118.497 59.4495 118.308 59.8581 118.01 60.0288C116.494 60.8914 115.361 62.2316 114.164 63.4174C111.413 66.1431 108.293 68.4203 105.451 71.0262C102.77 73.485 99.8522 75.6696 97.2518 78.2265C96.4691 78.9965 95.6083 79.7265 94.7367 80.4184C93.7016 81.241 92.6229 82.0273 91.6986 82.9643C90.4637 84.2137 89.0545 85.2579 87.7452 86.4146C86.8736 87.1864 85.9965 87.9782 85.0794 88.7118C83.436 90.0266 81.798 91.3613 80.4832 93.0193C79.5734 94.1652 79.6787 94.5756 80.8028 95.5707C81.7253 96.3879 82.6769 97.1887 83.5504 98.0386C85.5842 100.022 87.8233 101.763 89.997 103.559C92.7101 105.798 95.1743 108.315 97.9763 110.46C100.239 112.19 102.191 114.32 104.376 116.162C105.32 116.959 106.252 117.765 107.16 118.604C109.148 120.442 111.414 121.951 113.323 123.892C114.247 124.833 115.273 125.687 116.256 126.575C117.18 127.412 118.152 127.163 118.742 126.077C119.114 125.394 119.268 124.677 119.259 123.903C119.214 120.159 119.159 116.416 119.149 112.672C119.11 98.8576 119.13 85.0418 119.201 71.2278C119.218 67.674 119.254 64.1074 119.179 60.5463ZM5.01204 122.628C4.97572 122.628 4.9394 122.628 4.90308 122.628C4.90308 123.173 4.89764 123.718 4.9049 124.263C4.91216 124.846 5.05744 125.391 5.3262 125.914C6.01082 127.246 6.88429 127.428 8.03743 126.447C8.28984 126.233 8.51321 125.983 8.74747 125.746C9.76622 124.724 10.8376 123.74 11.9199 122.805C13.9901 121.014 16.0113 119.165 18.145 117.442C20.5802 115.475 22.8992 113.363 25.2473 111.29C27.2993 109.479 29.4585 107.783 31.4524 105.918C34.0292 103.506 36.715 101.231 39.4099 98.9611C40.9535 97.6609 42.4771 96.3352 44.0043 95.0132C44.4728 94.6083 44.6362 94.127 44.2331 93.5804C44.0188 93.2899 43.7718 93.0229 43.5394 92.7451C42.3681 91.3468 40.8772 90.3044 39.4626 89.1912C38.5292 88.4558 37.7828 87.5333 36.8567 86.816C34.6848 85.138 32.7181 83.2204 30.5862 81.5025C29.1897 80.3784 28.0239 79.0146 26.6383 77.9051C23.9597 75.755 21.4846 73.3761 18.8097 71.2187C17.2207 69.9385 15.7462 68.5075 14.208 67.1564C11.5132 64.7939 8.83282 62.4113 6.11796 60.0706C5.86917 59.8563 5.66215 59.5185 5.27717 59.6783C4.86858 59.8472 5.01567 60.2485 5.01567 60.5609C5.01204 81.2482 5.01204 101.937 5.01204 122.628ZM61.7825 14.9586C63.5367 14.9586 65.2891 14.9586 67.0433 14.9586C68.0712 14.9586 69.099 14.9567 70.1268 14.9567C70.3756 14.9567 70.628 14.944 70.7533 14.6898C70.8877 14.4174 70.6916 14.2394 70.5245 14.0597C69.9289 13.4186 69.3859 12.7195 68.7322 12.1456C66.7401 10.3969 64.6136 8.79883 62.7795 6.8721C62.3146 6.38361 61.9368 6.40177 61.3848 6.81763C60.1499 7.74376 59.0876 8.85877 57.9072 9.8412C56.3346 11.1505 54.7638 12.4616 53.2112 13.7945C52.9606 14.0088 52.5102 14.2358 52.7245 14.6607C52.9079 15.0239 53.351 14.9549 53.7106 14.9549C56.4 14.9567 59.0912 14.9567 61.7825 14.9586ZM15.0379 54.7407C15.0379 52.834 15.0379 50.929 15.0379 49.0223C15.0379 48.7517 15.0743 48.4593 14.7946 48.2886C14.5785 48.1579 14.3951 48.2578 14.2244 48.4121C12.2559 50.1918 10.2819 51.9623 8.32253 53.751C7.7723 54.2522 7.82678 54.7898 8.30982 55.3364C8.93451 56.0446 9.8207 56.4169 10.4672 57.1178C11.5913 58.3418 12.8043 59.4858 13.9865 60.6571C14.1899 60.8587 14.366 61.1946 14.7292 61.053C15.136 60.8968 15.0343 60.5046 15.0361 60.185C15.0416 58.3726 15.0379 56.5567 15.0379 54.7407ZM109.112 54.274C109.114 54.274 109.114 54.274 109.115 54.274C109.115 56.0882 109.114 57.9023 109.117 59.7146C109.117 59.9471 109.055 60.2267 109.346 60.3448C109.608 60.4501 109.789 60.2703 109.993 60.1305C112.017 58.7504 113.742 57.0143 115.589 55.4217C116.426 54.699 116.425 54.3376 115.637 53.5676C113.826 51.7989 111.747 50.3243 109.993 48.492C109.822 48.3122 109.629 48.1434 109.361 48.2868C109.106 48.4212 109.114 48.6791 109.114 48.9242C109.112 50.7075 109.112 52.4907 109.112 54.274Z" fill="#2B2A35"/>
<path d="M124.054 85.5888C123.667 85.4145 123.82 85.0658 123.82 84.7898C123.812 75.3522 123.814 65.9147 123.821 56.479C123.821 56.203 123.665 55.8579 124.039 55.6709C124.063 56.5444 124.105 57.4197 124.105 58.2931C124.11 67.1514 124.108 76.0114 124.107 84.8697C124.108 85.1094 124.074 85.3491 124.054 85.5888Z" fill="#2B2A35"/>
<path d="M104.166 64.1781C104.244 64.5867 103.997 64.8555 103.756 65.1297C101.805 67.3542 99.5662 69.2719 97.3181 71.1805C96.1504 72.172 94.9864 73.1762 93.8968 74.2531C91.5197 76.6011 88.9556 78.733 86.3915 80.8668C85.7232 81.4225 85.2329 82.1888 84.4066 82.5574C80.8129 82.5284 77.2209 82.4739 73.6289 82.4739C62.4227 82.4721 51.2182 82.4884 40.0119 82.5011C39.7414 82.5011 39.4708 82.532 39.202 82.5484C38.9514 82.3867 38.6572 82.2669 38.4538 82.058C35.946 79.483 33.0822 77.3002 30.4364 74.8759C27.6435 72.3209 24.7161 69.8875 21.8378 67.4124C20.554 66.3083 19.7368 65.0861 19.8003 63.1503C19.971 57.9548 19.8439 52.7503 19.8494 47.5494C19.8584 39.8371 19.8911 32.1247 19.8929 24.4123C19.8929 22.2604 22.2156 19.7235 24.6235 19.7289C47.1868 19.7834 69.75 19.7507 92.3133 19.7417C94.7031 19.7398 97.0911 19.7253 99.4809 19.7217C101.468 19.7181 102.681 20.9111 103.605 22.4765C103.854 22.8978 104.179 23.3336 104.148 23.882C103.71 23.9892 103.839 24.3487 103.839 24.6248C103.834 37.5671 103.834 50.5094 103.837 63.4499C103.837 63.7296 103.721 64.0873 104.166 64.1781ZM72.9952 52.8556C73.6671 52.9428 74.2645 52.6359 74.8329 52.191C76.9993 50.4967 79.2076 48.8569 81.3377 47.1208C83.1318 45.6572 85.1512 44.4677 86.6984 42.7063C87.4956 41.7983 87.6372 40.8721 87.1542 39.7935C86.8164 39.0416 86.2462 38.5368 85.5779 38.0937C81.8752 35.6404 78.1833 33.1707 74.4788 30.7191C73.8087 30.276 73.0823 30.0127 72.2506 30.2815C71.1284 30.6447 70.342 31.322 70.155 32.5333C69.9171 34.0805 70.8069 35.012 71.9764 35.7856C74.4643 37.4309 76.9431 39.0889 79.4327 40.7305C79.8522 41.0065 79.8903 41.2226 79.469 41.5331C78.7645 42.0525 78.0726 42.5918 77.3916 43.1421C75.276 44.8509 73.0351 46.3981 70.9994 48.2068C70.066 49.0367 69.9298 50.07 70.3275 51.1813C70.7052 52.2237 71.7512 52.8629 72.9952 52.8556ZM53.6007 32.8038C53.697 32.1791 53.5354 31.5962 53.0923 31.0751C52.0554 29.8529 50.5699 29.7113 49.1226 30.6846C46.7146 32.3045 44.2867 33.8916 41.8842 35.5205C40.3842 36.5374 38.7771 37.4109 37.4115 38.6113C36.0495 39.8098 36.0332 41.5967 37.3461 42.8334C38.0035 43.4526 38.7317 44.001 39.4454 44.5585C42.685 47.09 45.9247 49.6196 49.1789 52.1329C50.4773 53.1371 52.0953 52.9119 53.1867 51.5972C53.8296 50.8236 54.0602 48.9513 52.7527 47.9144C52.4458 47.6711 52.1607 47.3969 51.852 47.1554C49.4204 45.2613 46.9925 43.3582 44.5409 41.4896C43.9744 41.0574 43.9362 40.8249 44.57 40.4145C47.0143 38.8292 49.4422 37.2184 51.8483 35.575C52.7981 34.9249 53.7714 34.2348 53.6007 32.8038ZM58.1969 56.9942C59.6915 56.996 60.6666 56.1861 61.0716 54.6207C61.6472 52.398 62.2138 50.1735 62.8095 47.9562C64.4856 41.7111 66.1835 35.4715 67.8542 29.2264C68.2936 27.5866 67.4456 26.1302 65.8694 25.698C64.4039 25.2967 62.9348 26.1956 62.4989 27.8027C60.9045 33.6937 59.3228 39.5883 57.7375 45.4829C57.0402 48.0797 56.3392 50.6765 55.6564 53.2769C55.137 55.2563 56.3338 56.9942 58.1969 56.9942Z" fill="#ECEDFF"/>
<path d="M62.1544 128.657C46.3937 128.657 30.633 128.661 14.8723 128.648C14.3348 128.648 13.5938 128.922 13.3414 128.225C13.1235 127.62 13.7555 127.265 14.1441 126.93C16.0817 125.265 18.0484 123.636 20.0042 121.993C21.4551 120.772 22.9751 119.621 24.3352 118.306C26.3346 116.376 28.6536 114.823 30.6366 112.886C31.6118 111.932 32.6705 111.075 33.7346 110.249C35.8084 108.644 37.7243 106.868 39.6764 105.13C41.7902 103.25 44.1037 101.603 46.1285 99.6202C46.5462 99.2098 46.9657 99.0137 47.5595 99.0137C57.2404 99.0282 66.9194 99.0282 76.6003 99.0155C77.1578 99.0155 77.5337 99.2261 77.9623 99.5675C80.2722 101.405 82.395 103.457 84.6922 105.311C86.1195 106.463 87.4071 107.788 88.789 109.005C91.0735 111.015 93.4742 112.886 95.7477 114.914C97.7616 116.712 99.8173 118.486 101.949 120.159C102.828 120.849 103.6 121.662 104.421 122.412C106.293 124.125 108.479 125.438 110.292 127.212C110.421 127.339 110.544 127.472 110.675 127.599C110.889 127.807 110.987 128.054 110.857 128.336C110.742 128.585 110.51 128.65 110.25 128.65C109.705 128.648 109.16 128.654 108.616 128.654C93.1328 128.656 77.6426 128.656 62.1544 128.657Z" fill="#464BA8"/>
<path d="M119.177 60.5461C119.252 64.1072 119.215 67.6719 119.197 71.2312C119.126 85.0451 119.108 98.861 119.144 112.675C119.155 116.419 119.208 120.162 119.255 123.907C119.264 124.682 119.11 125.398 118.738 126.08C118.147 127.166 117.176 127.415 116.252 126.578C115.269 125.688 114.243 124.836 113.319 123.896C111.41 121.954 109.144 120.445 107.155 118.608C106.249 117.769 105.318 116.962 104.372 116.165C102.189 114.322 100.235 112.194 97.9721 110.463C95.1683 108.318 92.7058 105.803 89.9928 103.562C87.8173 101.768 85.5782 100.025 83.5462 98.042C82.6745 97.1903 81.7211 96.3894 80.7986 95.5741C79.6727 94.5789 79.5692 94.1685 80.479 93.0226C81.7938 91.3647 83.4318 90.0299 85.0752 88.7152C85.9923 87.9816 86.8694 87.188 87.741 86.418C89.0485 85.2612 90.4577 84.2171 91.6944 82.9677C92.6187 82.0325 93.6974 81.2443 94.7325 80.4217C95.6059 79.728 96.4649 78.9998 97.2476 78.2299C99.848 75.673 102.766 73.4884 105.447 71.0296C108.289 68.4237 111.408 66.1465 114.16 63.4207C115.356 62.2331 116.489 60.8947 118.006 60.0322C118.305 59.8615 118.494 59.4529 118.936 59.6672C119.364 59.8724 119.144 60.2355 119.177 60.5461Z" fill="#464BA8" fill-opacity="0.5"/>
<path d="M5.01535 122.628C5.01535 101.939 5.01535 81.2481 5.0208 60.5589C5.0208 60.2465 4.87371 59.8452 5.2823 59.6763C5.66728 59.5165 5.8743 59.8543 6.12309 60.0686C8.83794 62.4112 11.5183 64.7919 14.2132 67.1544C15.7531 68.5037 17.2277 69.9347 18.8148 71.2167C21.4879 73.3723 23.9649 75.753 26.6434 77.9031C28.0272 79.0144 29.1948 80.3764 30.5913 81.5005C32.7232 83.2184 34.6899 85.136 36.8618 86.814C37.7897 87.5313 38.5343 88.4538 39.4677 89.1893C40.8823 90.3024 42.3732 91.3466 43.5445 92.7431C43.777 93.0209 44.0239 93.2879 44.2382 93.5784C44.6413 94.125 44.4761 94.6063 44.0094 95.0112C42.4822 96.3332 40.9586 97.6571 39.415 98.9591C36.7201 101.229 34.0362 103.506 31.4575 105.916C29.4636 107.781 27.3044 109.475 25.2524 111.288C22.9043 113.361 20.5854 115.473 18.1502 117.44C16.0164 119.162 13.9953 121.012 11.9251 122.803C10.8428 123.74 9.77316 124.724 8.75259 125.744C8.51833 125.981 8.29497 126.231 8.04255 126.445C6.88942 127.426 6.01594 127.243 5.33133 125.912C5.06257 125.389 4.91729 124.844 4.91003 124.261C4.90276 123.716 4.90821 123.171 4.90821 122.626C4.94271 122.628 4.97903 122.628 5.01535 122.628Z" fill="#464BA8" fill-opacity="0.5"/>
<path d="M39.1993 82.5482C39.4699 82.5319 39.7404 82.501 40.0092 82.501C51.2155 82.4883 62.4199 82.472 73.6262 82.4738C77.2182 82.4738 80.8119 82.5282 84.4039 82.5573C84.4021 82.7679 84.3984 82.9477 84.1787 83.0985C82.5534 84.2098 81.393 85.8369 79.824 87.0155C79.4427 87.3006 79.0904 87.6129 78.6074 87.7073C67.8569 87.7092 57.1064 87.711 46.356 87.7164C46.0273 87.7164 45.7004 87.7637 45.3717 87.7891C45.3082 87.7746 45.2446 87.76 45.1792 87.7455C45.1175 87.5766 44.9813 87.6674 44.8741 87.6583C44.3657 87.6075 44.0116 87.3006 43.6466 86.9737C42.33 85.7933 41.0915 84.5258 39.6823 83.4489C39.4027 83.2328 39.1266 82.975 39.1993 82.5482Z" fill="#2B2A35"/>
<path d="M78.0527 88.2255C76.0788 90.0832 74.1066 91.9446 72.1309 93.8005C71.7568 94.1509 71.2955 94.2563 70.7925 94.2563C64.7417 94.2599 58.6892 94.2653 52.6384 94.2708C52.2679 94.2708 51.8811 94.2399 51.6215 93.9621C49.722 91.9337 47.3667 90.3828 45.6016 88.2146C45.9321 88.191 46.2626 88.1492 46.5931 88.1492C56.7189 88.1456 66.8446 88.1456 76.9704 88.1492C77.33 88.151 77.6913 88.2001 78.0527 88.2255Z" fill="#ECEDFF"/>
<path d="M61.786 14.959C59.0948 14.9571 56.4054 14.959 53.7141 14.9571C53.3527 14.9571 52.9115 15.0262 52.728 14.663C52.5138 14.238 52.9641 14.0128 53.2147 13.7967C54.7674 12.4638 56.3382 11.1527 57.9108 9.8434C59.0912 8.86097 60.1535 7.74598 61.3883 6.81984C61.9422 6.40399 62.3181 6.38583 62.783 6.87432C64.6171 8.80105 66.7436 10.3991 68.7357 12.1479C69.3894 12.7217 69.9342 13.4208 70.528 14.0619C70.6933 14.2398 70.8912 14.4196 70.7569 14.692C70.6316 14.9462 70.3791 14.959 70.1304 14.959C69.1025 14.959 68.0747 14.9608 67.0469 14.9608C65.2926 14.959 63.5384 14.959 61.786 14.959Z" fill="#464BA8"/>
<path d="M15.0324 54.7408C15.0324 56.5568 15.0361 58.3709 15.0288 60.1869C15.027 60.5047 15.1287 60.8969 14.7219 61.0549C14.3569 61.1965 14.1826 60.8606 13.9792 60.659C12.797 59.4877 11.5857 58.3437 10.4598 57.1197C9.81518 56.4188 8.929 56.0465 8.30249 55.3383C7.82126 54.7935 7.76497 54.2541 8.3152 53.7529C10.2746 51.966 12.2504 50.1936 14.2171 48.414C14.3859 48.2615 14.5712 48.1598 14.7873 48.2905C15.0687 48.4594 15.0306 48.7536 15.0306 49.0242C15.0342 50.9291 15.0324 52.8359 15.0324 54.7408Z" fill="#464BA8"/>
<path d="M109.11 54.2743C109.11 52.491 109.11 50.7077 109.11 48.9226C109.11 48.6793 109.103 48.4196 109.357 48.2852C109.626 48.1436 109.819 48.3125 109.989 48.4904C111.745 50.3227 113.823 51.7973 115.633 53.566C116.421 54.336 116.423 54.6974 115.586 55.4201C113.741 57.0127 112.014 58.7488 109.989 60.1289C109.784 60.2687 109.604 60.4485 109.343 60.3432C109.052 60.2252 109.116 59.9455 109.114 59.7131C109.11 57.8989 109.112 56.0848 109.112 54.2724C109.114 54.2742 109.112 54.2743 109.11 54.2743Z" fill="#464BA8"/>
<path d="M104.165 64.1789C103.722 64.0881 103.836 63.7304 103.836 63.4507C103.833 50.5084 103.833 37.5679 103.838 24.6255C103.838 24.3495 103.709 23.99 104.147 23.8828C104.172 24.2115 104.221 24.5384 104.221 24.8671C104.236 35.4069 104.252 45.9467 104.252 56.4865C104.252 59.0506 104.196 61.6148 104.165 64.1789Z" fill="white"/>
<path d="M78.0499 88.2247C77.6886 88.1993 77.329 88.1503 76.9676 88.1503C66.8419 88.1466 56.7161 88.1466 46.5903 88.1503C46.2598 88.1503 45.9293 88.192 45.5988 88.2156C45.4481 88.1303 45.2973 88.0449 45.1484 87.9578C45.212 87.9432 45.2774 87.9287 45.3409 87.9142C45.3645 87.8761 45.3754 87.8361 45.3736 87.7907C45.7023 87.7653 46.0292 87.7181 46.3579 87.7181C57.1083 87.7126 67.8588 87.7108 78.6093 87.709C78.5493 88.0195 78.3532 88.1793 78.0499 88.2247Z" fill="white"/>
<path d="M44.8776 87.6609C44.9847 87.67 45.1209 87.5792 45.1827 87.748C45.2353 87.8043 45.288 87.8588 45.3425 87.9151C45.2789 87.9296 45.2154 87.9442 45.15 87.9587C44.8903 88.0132 44.8649 87.8534 44.8776 87.6609Z" fill="#464BA8" fill-opacity="0.5"/>
<path d="M72.9924 52.8554C71.7485 52.8608 70.7025 52.2216 70.3284 51.1811C69.9289 50.0697 70.0669 49.0346 71.0003 48.2065C73.036 46.3978 75.2769 44.8506 77.3925 43.1418C78.0735 42.5916 78.7653 42.0522 79.4699 41.5329C79.8912 41.2223 79.8531 41.0062 79.4336 40.7302C76.9439 39.0886 74.4651 37.4306 71.9773 35.7854C70.8078 35.0118 69.918 34.0802 70.1559 32.533C70.3429 31.3217 71.1292 30.6444 72.2515 30.2812C73.0814 30.0124 73.8078 30.2758 74.4797 30.7188C78.1842 33.1704 81.8761 35.6401 85.5788 38.0934C86.2471 38.5365 86.8173 39.0414 87.1551 39.7932C87.6381 40.8719 87.4965 41.798 86.6993 42.706C85.1502 44.4675 83.1309 45.6587 81.3385 47.1206C79.2084 48.8584 77.0002 50.4982 74.8338 52.1907C74.2636 52.6356 73.6643 52.9443 72.9924 52.8554Z" fill="#2B2A35"/>
<path d="M53.5978 32.804C53.7666 34.2332 52.7933 34.9251 51.8472 35.5716C49.441 37.215 47.0131 38.8276 44.5688 40.4111C43.9351 40.8233 43.9732 41.0539 44.5398 41.4861C46.9913 43.3566 49.4174 45.2579 51.8508 47.1519C52.1613 47.3934 52.4446 47.6677 52.7515 47.911C54.059 48.9479 53.8284 50.8201 53.1855 51.5937C52.0923 52.9085 50.4761 53.1337 49.1777 52.1295C45.9253 49.6144 42.6857 47.0847 39.4442 44.5551C38.7305 43.9976 38.0023 43.4492 37.3449 42.8299C36.0338 41.5933 36.0484 39.8064 37.4103 38.6078C38.7759 37.4075 40.383 36.534 41.883 35.5171C44.2855 33.89 46.7135 32.301 49.1214 30.6812C50.5687 29.7078 52.0524 29.8495 53.0911 31.0716C53.5324 31.5964 53.694 32.1794 53.5978 32.804Z" fill="#2B2A35"/>
<path d="M58.1936 56.9939C56.3304 56.9921 55.1337 55.2561 55.6531 53.2767C56.3359 50.6762 57.0368 48.0794 57.7341 45.4826C59.3177 39.588 60.9012 33.6934 62.4956 27.8024C62.9296 26.1953 64.3987 25.2964 65.866 25.6977C67.4422 26.1299 68.2903 27.5845 67.8508 29.2262C66.1802 35.473 64.484 41.7127 62.8061 47.9559C62.2105 50.1732 61.6421 52.3978 61.0682 54.6205C60.6633 56.1858 59.6881 56.9958 58.1936 56.9939Z" fill="#2B2A35"/>
<path d="M34.0628 73.7246C33.8831 74.5073 33.9085 75.2918 34.0519 76.0745C33.5108 75.29 33.4926 74.5055 34.0628 73.7246Z" fill="#2B2A35"/>
<path d="M35.9394 72.4588C35.8268 72.7657 35.5853 72.7222 35.3438 72.6804C35.489 72.4625 35.7051 72.4334 35.9394 72.4588Z" fill="#2B2A35"/>
<path d="M45.3395 87.9151C45.2868 87.8588 45.2342 87.8043 45.1797 87.748C45.2432 87.7626 45.3068 87.7771 45.3722 87.7916C45.3722 87.837 45.3613 87.877 45.3395 87.9151Z" fill="#ECEDFF"/>
<path d="M57.1409 60.377H36.2356C34.8028 60.377 33.6406 61.5392 33.6406 62.972V74.9373C33.6406 76.3701 34.8028 77.5323 36.2356 77.5323H57.1427C58.5755 77.5323 59.7377 76.3701 59.7377 74.9373V62.972C59.7377 61.5392 58.5755 60.377 57.1409 60.377Z" fill="#2B2A35"/>
<path d="M76.9965 61.5613C80.7628 61.5613 84.5272 61.5631 88.2935 61.5594C88.5877 61.5594 88.8764 61.5958 89.1488 61.8754C89.5647 62.304 89.8462 62.9559 89.8861 64.0037C89.9261 65.0842 89.6137 65.7162 89.2578 66.2591C88.9999 66.6514 88.693 66.724 88.3807 66.7258C80.8354 66.764 73.2901 66.8548 65.7466 66.7513C65.3943 66.7458 65.0529 66.6532 64.7515 66.2156C64.381 65.6798 64.1377 64.9807 64.1758 63.9601C64.2121 62.9505 64.4954 62.3203 64.8913 61.89C65.16 61.5976 65.4488 61.5576 65.743 61.5576C69.4929 61.5631 73.2447 61.5613 76.9965 61.5613Z" fill="#2B2A35"/>
<path d="M76.9965 70.8396C80.7628 70.8396 84.5272 70.8414 88.2935 70.8378C88.5877 70.8378 88.8764 70.8741 89.1488 71.1537C89.5647 71.5823 89.8462 72.2342 89.8861 73.282C89.9261 74.3625 89.6137 74.9945 89.2578 75.5375C88.9999 75.9297 88.693 76.0023 88.3807 76.0041C80.8354 76.0423 73.2901 76.1331 65.7466 76.0296C65.3943 76.0241 65.0529 75.9315 64.7515 75.4939C64.381 74.9582 64.1377 74.259 64.1758 73.2384C64.2121 72.2288 64.4954 71.5986 64.8913 71.1682C65.16 70.8759 65.4488 70.8359 65.743 70.8359C69.4929 70.8414 73.2447 70.8396 76.9965 70.8396Z" fill="#2B2A35"/>
</svg>
