<svg width="17" height="13" viewBox="0 0 17 13" fill="none" xmlns="http://www.w3.org/2000/svg">
<path fill-rule="evenodd" clip-rule="evenodd" d="M13.7665 1.39503H3.41153C2.19806 1.39503 1.21435 2.43756 1.21435 3.72359V9.26779C1.21435 10.5538 2.19806 11.5964 3.41153 11.5964H13.7665C14.9799 11.5964 15.9637 10.5538 15.9637 9.26779V3.72359C15.9637 2.43756 14.98 1.39503 13.7665 1.39503ZM3.41153 0.397072C1.67801 0.397072 0.272705 1.88641 0.272705 3.72359V9.26779C0.272705 11.105 1.678 12.5943 3.41153 12.5943H13.7665C15.5 12.5943 16.9053 11.105 16.9053 9.26779V3.72359C16.9053 1.88641 15.5 0.397072 13.7665 0.397072H3.41153Z" fill="#545465"/>
<path fill-rule="evenodd" clip-rule="evenodd" d="M6.52989 3.23606C6.37726 3.14724 6.20127 3.15284 6.06381 3.22078C5.92613 3.28883 5.81763 3.4252 5.81763 3.60156V9.37188C5.81763 9.54824 5.92613 9.68461 6.06381 9.75266C6.20127 9.8206 6.37726 9.8262 6.52989 9.73738L11.4875 6.85222C11.7779 6.68326 11.7779 6.29018 11.4875 6.12122L6.52989 3.23606ZM6.74764 8.59188V4.38158L10.365 6.48673L6.74764 8.59188Z" fill="#545465"/>
</svg>
