<svg width="76" height="75" viewBox="0 0 76 75" fill="none" xmlns="http://www.w3.org/2000/svg">
<path d="M40.2807 23.4173C39.6566 23.8347 38.9229 24.0575 38.1723 24.0575C37.1658 24.0575 36.2005 23.6573 35.4888 22.9449C34.7771 22.2325 34.3773 21.2663 34.3773 20.2588C34.3773 19.5075 34.5999 18.773 35.0169 18.1483C35.4339 17.5236 36.0266 17.0367 36.72 16.7492C37.4134 16.4617 38.1765 16.3865 38.9127 16.5331C39.6488 16.6796 40.325 17.0414 40.8558 17.5727C41.3865 18.1039 41.7479 18.7808 41.8944 19.5177C42.0408 20.2546 41.9656 21.0184 41.6784 21.7125C41.3912 22.4066 40.9048 22.9999 40.2807 23.4173Z" fill="#C4C4C4"/>
<path d="M40.8558 54.2464C40.1441 54.9588 39.1788 55.359 38.1723 55.359C37.1658 55.359 36.2005 54.9588 35.4888 54.2464C34.7771 53.534 34.3773 52.5678 34.3773 51.5603L34.3773 33.3644C34.3773 32.3569 34.7771 31.3907 35.4888 30.6783C36.2005 29.9659 37.1658 29.5657 38.1723 29.5657C39.1788 29.5657 40.1441 29.9659 40.8558 30.6783C41.5675 31.3907 41.9673 32.3569 41.9673 33.3644L41.9673 51.5603C41.9673 52.5678 41.5675 53.534 40.8558 54.2464Z" fill="#C4C4C4"/>
<path d="M6.03326 5.90525H16.8398V0.0960388H0.279785V16.6723H6.03326V5.90525Z" fill="#C4C4C4"/>
<path d="M6.03326 58.113H0.279785V74.6892H16.8398V68.88H6.03326V58.113Z" fill="#C4C4C4"/>
<path d="M69.9662 68.88H59.1597V74.6892H75.7197V58.113H69.9662V68.88Z" fill="#C4C4C4"/>
<path d="M59.1597 0.0960388V5.90525H69.9662V16.6723H75.7197V0.0960388H59.1597Z" fill="#C4C4C4"/>
</svg>
