<svg width="67" height="67" viewBox="0 0 67 67" fill="none" xmlns="http://www.w3.org/2000/svg">
<rect width="66.4404" height="66.4404" rx="10" fill="#F8F8F8"/>
<path d="M33.9643 10.956C37.2872 10.956 40.6102 10.9268 43.9373 10.9601C50.579 11.0267 56.0479 16.0007 56.5012 22.659C57.0336 30.4652 57.0377 38.2964 56.5012 46.1026C56.0396 52.8482 50.5499 57.7723 43.7335 57.8098C37.57 57.843 31.3941 57.5561 25.2515 57.8929C18.6597 58.2506 11.3983 53.6343 11.1737 44.9755C10.9782 37.3689 10.6788 29.7416 11.365 22.1475C11.9306 15.8801 17.4577 11.0391 23.7875 10.9643C27.177 10.9227 30.5707 10.956 33.9643 10.956ZM16.1477 34.1791C16.1477 37.6393 16.1186 41.1036 16.156 44.5638C16.2101 49.5419 19.5122 52.894 24.5195 52.9481C30.8202 53.0146 37.1209 53.0229 43.4216 52.9439C48.3166 52.8815 51.6353 49.5211 51.6727 44.6636C51.7227 37.8098 51.7227 30.956 51.6727 24.1021C51.6353 19.2529 48.2625 15.8676 43.4174 15.826C37.0502 15.7719 30.6788 15.7636 24.3074 15.8302C19.5829 15.8801 16.235 19.2779 16.1602 24.0065C16.1103 27.3918 16.1519 30.7854 16.1477 34.1791Z" fill="#2B2A35"/>
<path d="M33.9583 21.3574C41.2779 21.3657 46.9548 27.08 46.9423 34.4329C46.934 41.7525 41.2197 47.4294 33.8668 47.4169C26.5472 47.4086 20.8704 41.6901 20.8828 34.3373C20.8953 27.0177 26.6096 21.3491 33.9583 21.3574ZM33.9042 42.551C38.2253 42.5593 42.0016 38.8413 42.0806 34.4995C42.1638 30.116 38.3334 26.2275 33.925 26.2191C29.604 26.2108 25.8319 29.9247 25.7487 34.2707C25.6697 38.6542 29.5 42.5469 33.9042 42.551Z" fill="#2B2A35"/>
</svg>
