<svg width="67" height="67" viewBox="0 0 67 67" fill="none" xmlns="http://www.w3.org/2000/svg">
<rect x="0.3125" width="66.4404" height="66.4404" rx="10" fill="#F8F8F8"/>
<path d="M36.7883 29.4213C39.3035 26.3648 42.528 25.8437 46.0922 26.6439C49.9893 27.5215 52.9012 30.9512 52.9718 34.9458C53.0626 39.9323 52.9819 44.9188 53.0088 49.9087C53.0189 51.489 52.2791 52.1481 50.7358 52.0876C49.5623 52.0405 48.3821 52.0943 47.2052 52.0775C45.3256 52.0506 44.8313 51.5966 44.8145 49.6599C44.7742 45.6249 44.838 41.59 44.7708 37.5551C44.7237 34.6566 42.6793 33.046 39.8381 33.5268C37.8912 33.8564 36.5832 35.5746 36.553 37.9922C36.5126 41.1293 36.5362 44.2665 36.5395 47.407C36.5496 52.5045 36.8959 52.0842 31.7817 52.0808C31.2201 52.0808 30.662 52.0708 30.1004 52.0741C28.8362 52.0808 28.2612 51.405 28.2612 50.1878C28.2578 43.0157 28.2578 35.8436 28.2578 28.6715C28.2578 27.4307 28.9337 26.8053 30.1139 26.7381C31.1764 26.6775 32.2423 26.6944 33.3082 26.6977C35.9847 26.7011 36.1629 26.8389 36.7883 29.4213Z" fill="#2B2A35"/>
<path d="M23.7744 39.8456C23.7744 43.2584 23.7812 46.6713 23.7744 50.0808C23.7677 52.5119 23.5424 52.7271 21.0475 52.7372C19.874 52.7405 18.6971 52.7204 17.5236 52.7372C16.2291 52.754 15.5028 52.1588 15.4995 50.8408C15.4894 43.4568 15.4927 36.0729 15.4927 28.6889C15.4927 27.3608 16.2594 26.7589 17.5001 26.7253C18.8989 26.6883 20.2977 26.695 21.6931 26.7186C23.1288 26.7421 23.798 27.4583 23.7812 28.9378C23.7442 32.5726 23.7711 36.2074 23.7744 39.8456Z" fill="#2B2A35"/>
<path d="M19.8842 14.8548C22.406 14.9422 24.1915 16.9193 24.1074 19.5286C24.0301 22.0101 21.9554 23.9065 19.4437 23.7922C16.9857 23.6812 15.0422 21.5427 15.17 19.0881C15.2978 16.6033 17.3422 14.764 19.8842 14.8548Z" fill="#2B2A35"/>
</svg>
