<?xml version="1.0" encoding="utf-8"?>
<!-- Generator: Adobe Illustrator 24.0.1, SVG Export Plug-In . SVG Version: 6.00 Build 0)  -->
<svg version="1.1" id="Layer_1" xmlns="http://www.w3.org/2000/svg" xmlns:xlink="http://www.w3.org/1999/xlink" x="0px" y="0px"
	 viewBox="0 0 2092.2 370.5" style="enable-background:new 0 0 2092.2 370.5;" xml:space="preserve">
<style type="text/css">
	.st0{fill:#202C76;}
	.st1{fill:#F25094;}
	.st2{fill:#FFFFFF;}
	.st3{fill:#231F20;}
</style>
<g>
	<g>
		<path class="st0" d="M620.6,305.7c-19.9,0-37.3-4.5-52.1-13.6c-14.9-9-26.4-21.7-34.7-37.8c-8.2-16.2-12.4-35-12.4-56.5
			c0-21.7,4.3-40.8,12.8-57.4c8.5-16.6,20.7-29.5,36.5-38.9c15.8-9.3,34.5-14,56.2-14c24.7,0,45.2,5.9,61.5,17.8
			c16.3,11.9,26.8,28.2,31.7,49.1H677c-3.2-9.9-9-17.5-17.5-23.1s-19.3-8.3-32.5-8.3c-21.1,0-37.4,6.7-48.8,20
			c-11.5,13.4-17.2,31.7-17.2,55c0,23.3,5.7,41.3,17,54.1c11.4,12.8,26.8,19.1,46.3,19.1c19.1,0,33.5-5.2,43.3-15.5
			c9.7-10.3,15.6-24,17.6-40.8h-53.3v-28.9H724v116.1h-35.6l-3-27.7c-6.8,10.1-15.4,17.8-25.6,23.2
			C649.6,303,636.5,305.7,620.6,305.7z"/>
		<path class="st0" d="M760.5,302.1V152.6h34.4l3.6,28c5.4-9.6,12.8-17.3,22.2-23.1c9.3-5.7,20.4-8.6,33-8.6v40.7h-10.8
			c-8.4,0-16,1.3-22.6,3.9c-6.6,2.6-11.8,7.1-15.5,13.6c-3.7,6.4-5.6,15.4-5.6,26.8v68.1H760.5z"/>
		<path class="st0" d="M931.4,305.7c-12.9,0-23.4-2.1-31.7-6.2c-8.2-4.1-14.4-9.6-18.4-16.4c-4-6.8-6-14.4-6-22.6
			c0-13.9,5.4-25.1,16.3-33.8c10.9-8.6,27.1-13,48.8-13h38v-3.6c0-10.2-2.9-17.8-8.7-22.6c-5.8-4.8-13.1-7.2-21.7-7.2
			c-7.8,0-14.7,1.9-20.5,5.6c-5.8,3.7-9.4,9.2-10.8,16.4h-37.7c1-10.8,4.7-20.3,11-28.3c6.3-8,14.5-14.2,24.6-18.5
			c10-4.3,21.3-6.5,33.8-6.5c21.3,0,38.1,5.3,50.3,16c12.3,10.7,18.4,25.7,18.4,45.2v91.9h-32.9l-3.6-24.1
			c-4.4,8-10.6,14.7-18.5,19.9C954,303.1,943.9,305.7,931.4,305.7z M940.1,275.6c11,0,19.6-3.6,25.8-10.9c6.1-7.2,10-16.2,11.6-26.8
			h-32.9c-10.2,0-17.6,1.9-22,5.6s-6.6,8.3-6.6,13.7c0,5.8,2.2,10.4,6.6,13.6C927.1,274,932.9,275.6,940.1,275.6z"/>
		<path class="st0" d="M1122.5,305.7c-14.1,0-26.6-3.4-37.7-10.2c-11.1-6.8-19.8-16.2-26.2-28c-6.4-11.9-9.6-25.3-9.6-40.4
			s3.2-28.5,9.6-40.2c6.4-11.7,15.2-21,26.2-27.7c11-6.7,23.6-10.1,37.7-10.1c11.3,0,21.1,2.1,29.5,6.3c8.4,4.2,15.3,10.1,20.5,17.8
			v-88h38.6v217h-34.4l-4.2-21.4c-4.8,6.6-11.2,12.5-19.1,17.5C1145.5,303.2,1135.2,305.7,1122.5,305.7z M1130.6,272
			c12.5,0,22.7-4.2,30.6-12.5c7.9-8.3,11.9-19,11.9-32.1s-4-23.8-11.9-32.1c-7.9-8.3-18.1-12.5-30.6-12.5
			c-12.3,0-22.4,4.1-30.4,12.4c-8,8.2-12.1,18.9-12.1,31.9c0,13.1,4,23.8,12.1,32.3C1108.2,267.8,1118.4,272,1130.6,272z"/>
		<path class="st0" d="M1306.4,305.7c-18.7,0-33.1-5.8-43.3-17.5c-10.2-11.7-15.2-28.7-15.2-51.2v-84.4h38.3v80.8
			c0,12.9,2.6,22.7,7.8,29.5c5.2,6.8,13.5,10.2,24.7,10.2c10.7,0,19.4-3.8,26.4-11.4c6.9-7.6,10.4-18.3,10.4-32v-77.2h38.6v149.5
			H1360l-3-25.3c-4.6,8.8-11.3,15.9-20,21.1C1328.2,303.1,1318,305.7,1306.4,305.7z"/>
		<path class="st0" d="M1485.1,305.7c-12.9,0-23.4-2.1-31.7-6.2c-8.2-4.1-14.4-9.6-18.4-16.4c-4-6.8-6-14.4-6-22.6
			c0-13.9,5.4-25.1,16.3-33.8c10.9-8.6,27.1-13,48.8-13h38v-3.6c0-10.2-2.9-17.8-8.7-22.6c-5.8-4.8-13.1-7.2-21.7-7.2
			c-7.8,0-14.7,1.9-20.5,5.6c-5.8,3.7-9.4,9.2-10.8,16.4h-37.7c1-10.8,4.7-20.3,11-28.3c6.3-8,14.5-14.2,24.6-18.5
			c10-4.3,21.3-6.5,33.8-6.5c21.3,0,38.1,5.3,50.3,16c12.3,10.7,18.4,25.7,18.4,45.2v91.9h-32.9l-3.6-24.1
			c-4.4,8-10.6,14.7-18.5,19.9C1507.8,303.1,1497.6,305.7,1485.1,305.7z M1493.9,275.6c11,0,19.6-3.6,25.8-10.9
			c6.1-7.2,10-16.2,11.6-26.8h-32.9c-10.2,0-17.6,1.9-22,5.6s-6.6,8.3-6.6,13.7c0,5.8,2.2,10.4,6.6,13.6
			C1480.8,274,1486.6,275.6,1493.9,275.6z"/>
		<path class="st0" d="M1672,302.1c-15.7,0-28.2-3.8-37.7-11.5c-9.4-7.6-14.2-21.2-14.2-40.7v-65.1h-25.6v-32.3h25.6l4.5-40.1h34.1
			v40.1h40.4v32.3h-40.4v65.4c0,7.2,1.6,12.2,4.7,14.9c3.1,2.7,8.5,4.1,16.1,4.1h18.7v32.9H1672z"/>
		<path class="st0" d="M1801,305.7c-15.1,0-28.4-3.2-40.1-9.6s-20.8-15.5-27.4-27.1c-6.6-11.7-10-25.1-10-40.4
			c0-15.5,3.3-29.2,9.8-41.3c6.5-12.1,15.6-21.4,27.1-28.2c11.5-6.7,25.2-10.1,40.8-10.1c14.7,0,27.6,3.2,38.9,9.6
			c11.3,6.4,20,15.2,26.4,26.4c6.3,11.2,9.5,23.6,9.5,37.2c0,2.2-0.1,4.5-0.2,6.9c-0.1,2.4-0.3,4.9-0.5,7.5h-113.6
			c0.8,11.7,4.9,20.8,12.2,27.4c7.3,6.6,16.2,10,26.7,10c7.8,0,14.4-1.8,19.7-5.3c5.3-3.5,9.3-8.1,11.9-13.7h39.2
			c-2.8,9.4-7.5,18-14,25.8c-6.5,7.7-14.6,13.8-24.1,18.2C1823.9,303.5,1813.1,305.7,1801,305.7z M1801.4,180.3
			c-9.5,0-17.8,2.7-25,8c-7.2,5.3-11.9,13.4-13.9,24.3h74.5c-0.6-9.8-4.2-17.7-10.8-23.5C1819.4,183.3,1811.2,180.3,1801.4,180.3z"
			/>
		<path class="st0" d="M1970.4,305.7c-13.3,0-24.9-2.2-35-6.5c-10.1-4.3-18.1-10.3-24.1-17.9c-6-7.6-9.6-16.5-10.9-26.5h38.9
			c1.2,5.8,4.5,10.8,9.8,14.9c5.3,4.1,12.2,6.2,20.6,6.2s14.6-1.7,18.5-5.1c3.9-3.4,5.9-7.3,5.9-11.8c0-6.4-2.8-10.8-8.4-13.1
			c-5.6-2.3-13.5-4.6-23.5-6.8c-6.4-1.4-13-3.1-19.6-5.1c-6.6-2-12.7-4.6-18.2-7.7c-5.5-3.1-10-7.1-13.4-12.1
			c-3.4-4.9-5.1-11-5.1-18.2c0-13.3,5.3-24.4,15.8-33.5c10.5-9,25.4-13.6,44.5-13.6c17.7,0,31.8,4.1,42.3,12.4
			c10.6,8.2,16.8,19.6,18.8,34.1H1991c-2.2-11-10.6-16.6-25-16.6c-7.2,0-12.8,1.4-16.7,4.2c-3.9,2.8-5.9,6.3-5.9,10.6
			c0,4.4,2.9,7.9,8.7,10.6c5.8,2.6,13.6,5,23.2,7.2c10.4,2.4,20,5.1,28.8,8c8.7,2.9,15.7,7.2,21,13c5.2,5.7,7.8,13.9,7.8,24.6
			c0.2,9.2-2.2,17.6-7.2,25c-5,7.4-12.3,13.3-21.7,17.5C1994.5,303.6,1983.3,305.7,1970.4,305.7z"/>
	</g>
	<g>
		<path class="st0" d="M789.4,75.1L632,7.8c-5.9-2.5-12.8-2.5-18.7,0L455.9,75.1c-13.2,5.6-14.5,11.3,0,16.9l72.2,25.5
			c21.5-33.3,60.6-49.1,98.3-48.2c39.7,0.9,80.4,17.1,99.5,52L789.4,92C805,84.4,804.3,82,789.4,75.1z"/>
	</g>
	<g>
		<path class="st1" d="M60.4,302.2V119.1H6.1l0.2-31.6h146.8l-0.2,31.6H99.7v183.1H60.4z"/>
		<path class="st1" d="M214.6,305.7c-14.3,0-27.1-3.3-38.5-9.8s-20.4-15.6-27.1-27.2c-6.6-11.6-10-25-10-40.3s3.4-28.7,10.1-40.3
			c6.7-11.6,15.8-20.7,27.2-27.2c11.4-6.5,24.3-9.8,38.5-9.8c14.1,0,26.8,3.3,38.3,9.8c11.4,6.5,20.4,15.6,27.1,27.2
			c6.6,11.6,10,25,10,40.3s-3.3,28.7-10,40.3c-6.6,11.6-15.7,20.7-27.2,27.2C241.5,302.5,228.7,305.7,214.6,305.7z M214.6,272.7
			c9.9,0,18.6-3.7,25.9-11.2c7.3-7.4,11-18.5,11-33.2s-3.7-25.8-11-33.2c-7.3-7.4-15.9-11.2-25.6-11.2c-10.1,0-18.8,3.7-26,11.2
			c-7.2,7.4-10.9,18.5-10.9,33.2s3.6,25.7,10.9,33.2C196.1,269,204.7,272.7,214.6,272.7z"/>
		<path class="st1" d="M324.1,367.7V154.5H358l4.2,21.1c4.8-6.5,11.1-12.3,18.9-17.3c7.8-5,18-7.4,30.5-7.4
			c13.9,0,26.3,3.4,37.2,10.1c10.9,6.7,19.5,16,25.9,27.7c6.3,11.7,9.5,25,9.5,39.9c0,14.9-3.2,28.1-9.5,39.7
			c-6.4,11.6-15,20.7-25.9,27.4s-23.3,10-37.2,10c-11.1,0-20.8-2.1-29.2-6.2c-8.3-4.2-15.1-10-20.2-17.6v85.7H324.1z M403.6,272.4
			c12.1,0,22.1-4.1,30.1-12.2c7.9-8.1,11.9-18.7,11.9-31.6c0-12.9-4-23.5-11.9-31.8c-7.9-8.3-18-12.5-30.1-12.5
			c-12.3,0-22.4,4.1-30.2,12.4c-7.8,8.2-11.8,18.8-11.8,31.7s3.9,23.5,11.8,31.7C381.2,268.3,391.3,272.4,403.6,272.4z"/>
	</g>
</g>
<g>
	<g>
		<path class="st2" d="M620.6,863.8c-19.9,0-37.3-4.5-52.1-13.6c-14.9-9-26.4-21.7-34.7-37.8c-8.2-16.2-12.4-35-12.4-56.5
			c0-21.7,4.3-40.8,12.8-57.4c8.5-16.6,20.7-29.5,36.5-38.9c15.8-9.3,34.5-14,56.2-14c24.7,0,45.2,5.9,61.5,17.8
			c16.3,11.9,26.8,28.2,31.7,49.1H677c-3.2-9.9-9-17.5-17.5-23.1s-19.3-8.3-32.5-8.3c-21.1,0-37.4,6.7-48.8,20
			c-11.5,13.4-17.2,31.7-17.2,55c0,23.3,5.7,41.3,17,54.1c11.4,12.8,26.8,19.1,46.3,19.1c19.1,0,33.5-5.2,43.3-15.5
			s15.6-24,17.6-40.8h-53.3v-28.9H724v116.1h-35.6l-3-27.7c-6.8,10.1-15.4,17.8-25.6,23.2C649.6,861.1,636.5,863.8,620.6,863.8z"/>
		<path class="st2" d="M760.5,860.2V710.7h34.4l3.6,28c5.4-9.6,12.8-17.3,22.2-23.1c9.3-5.7,20.4-8.6,33-8.6v40.7h-10.8
			c-8.4,0-16,1.3-22.6,3.9c-6.6,2.6-11.8,7.1-15.5,13.6c-3.7,6.4-5.6,15.4-5.6,26.8v68.1H760.5z"/>
		<path class="st2" d="M931.4,863.8c-12.9,0-23.4-2.1-31.7-6.2c-8.2-4.1-14.4-9.6-18.4-16.4c-4-6.8-6-14.4-6-22.6
			c0-13.9,5.4-25.1,16.3-33.8c10.9-8.6,27.1-13,48.8-13h38v-3.6c0-10.2-2.9-17.8-8.7-22.6c-5.8-4.8-13.1-7.2-21.7-7.2
			c-7.8,0-14.7,1.9-20.5,5.6c-5.8,3.7-9.4,9.2-10.8,16.4h-37.7c1-10.8,4.7-20.3,11-28.3c6.3-8,14.5-14.2,24.6-18.5
			c10-4.3,21.3-6.5,33.8-6.5c21.3,0,38.1,5.3,50.3,16c12.3,10.7,18.4,25.7,18.4,45.2v91.9h-32.9l-3.6-24.1
			c-4.4,8-10.6,14.7-18.5,19.9C954,861.2,943.9,863.8,931.4,863.8z M940.1,833.7c11,0,19.6-3.6,25.8-10.9c6.1-7.2,10-16.2,11.6-26.8
			h-32.9c-10.2,0-17.6,1.9-22,5.6c-4.4,3.7-6.6,8.3-6.6,13.7c0,5.8,2.2,10.4,6.6,13.6C927.1,832.1,932.9,833.7,940.1,833.7z"/>
		<path class="st2" d="M1122.5,863.8c-14.1,0-26.6-3.4-37.7-10.2c-11.1-6.8-19.8-16.2-26.2-28c-6.4-11.9-9.6-25.3-9.6-40.4
			s3.2-28.5,9.6-40.2c6.4-11.7,15.2-21,26.2-27.7c11-6.7,23.6-10.1,37.7-10.1c11.3,0,21.1,2.1,29.5,6.3c8.4,4.2,15.3,10.1,20.5,17.8
			v-88h38.6v217h-34.4l-4.2-21.4c-4.8,6.6-11.2,12.5-19.1,17.5C1145.5,861.3,1135.2,863.8,1122.5,863.8z M1130.6,830
			c12.5,0,22.7-4.2,30.6-12.5c7.9-8.3,11.9-19,11.9-32.1s-4-23.8-11.9-32.1c-7.9-8.3-18.1-12.5-30.6-12.5
			c-12.3,0-22.4,4.1-30.4,12.4c-8,8.2-12.1,18.9-12.1,31.9c0,13.1,4,23.8,12.1,32.3C1108.2,825.8,1118.4,830,1130.6,830z"/>
		<path class="st2" d="M1306.4,863.8c-18.7,0-33.1-5.8-43.3-17.5c-10.2-11.7-15.2-28.7-15.2-51.2v-84.4h38.3v80.8
			c0,12.9,2.6,22.7,7.8,29.5c5.2,6.8,13.5,10.2,24.7,10.2c10.7,0,19.4-3.8,26.4-11.4c6.9-7.6,10.4-18.3,10.4-32v-77.2h38.6v149.5
			H1360l-3-25.3c-4.6,8.8-11.3,15.9-20,21.1C1328.2,861.2,1318,863.8,1306.4,863.8z"/>
		<path class="st2" d="M1485.1,863.8c-12.9,0-23.4-2.1-31.7-6.2c-8.2-4.1-14.4-9.6-18.4-16.4c-4-6.8-6-14.4-6-22.6
			c0-13.9,5.4-25.1,16.3-33.8c10.9-8.6,27.1-13,48.8-13h38v-3.6c0-10.2-2.9-17.8-8.7-22.6c-5.8-4.8-13.1-7.2-21.7-7.2
			c-7.8,0-14.7,1.9-20.5,5.6c-5.8,3.7-9.4,9.2-10.8,16.4h-37.7c1-10.8,4.7-20.3,11-28.3c6.3-8,14.5-14.2,24.6-18.5
			c10-4.3,21.3-6.5,33.8-6.5c21.3,0,38.1,5.3,50.3,16c12.3,10.7,18.4,25.7,18.4,45.2v91.9h-32.9l-3.6-24.1
			c-4.4,8-10.6,14.7-18.5,19.9C1507.8,861.2,1497.6,863.8,1485.1,863.8z M1493.9,833.7c11,0,19.6-3.6,25.8-10.9
			c6.1-7.2,10-16.2,11.6-26.8h-32.9c-10.2,0-17.6,1.9-22,5.6c-4.4,3.7-6.6,8.3-6.6,13.7c0,5.8,2.2,10.4,6.6,13.6
			C1480.8,832.1,1486.6,833.7,1493.9,833.7z"/>
		<path class="st2" d="M1672,860.2c-15.7,0-28.2-3.8-37.7-11.5s-14.2-21.2-14.2-40.7v-65.1h-25.6v-32.3h25.6l4.5-40.1h34.1v40.1
			h40.4v32.3h-40.4v65.4c0,7.2,1.6,12.2,4.7,14.9c3.1,2.7,8.5,4.1,16.1,4.1h18.7v32.9H1672z"/>
		<path class="st2" d="M1801,863.8c-15.1,0-28.4-3.2-40.1-9.6c-11.7-6.4-20.8-15.5-27.4-27.1c-6.6-11.7-10-25.1-10-40.4
			c0-15.5,3.3-29.2,9.8-41.3c6.5-12.1,15.6-21.4,27.1-28.2c11.5-6.7,25.2-10.1,40.8-10.1c14.7,0,27.6,3.2,38.9,9.6
			c11.3,6.4,20,15.2,26.4,26.4c6.3,11.2,9.5,23.6,9.5,37.2c0,2.2-0.1,4.5-0.2,6.9c-0.1,2.4-0.3,4.9-0.5,7.5h-113.6
			c0.8,11.7,4.9,20.8,12.2,27.4s16.2,10,26.7,10c7.8,0,14.4-1.8,19.7-5.3c5.3-3.5,9.3-8.1,11.9-13.7h39.2c-2.8,9.4-7.5,18-14,25.8
			c-6.5,7.7-14.6,13.8-24.1,18.2C1823.9,861.6,1813.1,863.8,1801,863.8z M1801.4,738.4c-9.5,0-17.8,2.7-25,8
			c-7.2,5.3-11.9,13.4-13.9,24.3h74.5c-0.6-9.8-4.2-17.7-10.8-23.5C1819.4,741.3,1811.2,738.4,1801.4,738.4z"/>
		<path class="st2" d="M1970.4,863.8c-13.3,0-24.9-2.2-35-6.5c-10.1-4.3-18.1-10.3-24.1-17.9c-6-7.6-9.6-16.5-10.9-26.5h38.9
			c1.2,5.8,4.5,10.8,9.8,14.9c5.3,4.1,12.2,6.2,20.6,6.2s14.6-1.7,18.5-5.1c3.9-3.4,5.9-7.3,5.9-11.8c0-6.4-2.8-10.8-8.4-13.1
			c-5.6-2.3-13.5-4.6-23.5-6.8c-6.4-1.4-13-3.1-19.6-5.1c-6.6-2-12.7-4.6-18.2-7.7c-5.5-3.1-10-7.1-13.4-12.1
			c-3.4-4.9-5.1-11-5.1-18.2c0-13.3,5.3-24.4,15.8-33.5c10.5-9,25.4-13.6,44.5-13.6c17.7,0,31.8,4.1,42.3,12.4
			c10.6,8.2,16.8,19.6,18.8,34.1H1991c-2.2-11-10.6-16.6-25-16.6c-7.2,0-12.8,1.4-16.7,4.2c-3.9,2.8-5.9,6.3-5.9,10.6
			c0,4.4,2.9,7.9,8.7,10.6c5.8,2.6,13.6,5,23.2,7.2c10.4,2.4,20,5.1,28.8,8c8.7,2.9,15.7,7.2,21,13c5.2,5.7,7.8,13.9,7.8,24.6
			c0.2,9.2-2.2,17.6-7.2,25c-5,7.4-12.3,13.3-21.7,17.5C1994.5,861.7,1983.3,863.8,1970.4,863.8z"/>
	</g>
	<g>
		<path class="st2" d="M789.4,633.2L632,565.9c-5.9-2.5-12.8-2.5-18.7,0l-157.4,67.3c-13.2,5.6-14.5,11.3,0,16.9l72.2,25.5
			c21.5-33.3,60.6-49.1,98.3-48.2c39.7,0.9,80.4,17.1,99.5,52l63.5-29.2C805,642.5,804.3,640.1,789.4,633.2z"/>
	</g>
	<g>
		<path class="st2" d="M60.4,860.2V677.2H6.1l0.2-31.6h146.8l-0.2,31.6H99.7v183.1H60.4z"/>
		<path class="st2" d="M214.6,863.8c-14.3,0-27.1-3.3-38.5-9.8c-11.4-6.5-20.4-15.6-27.1-27.2c-6.6-11.6-10-25-10-40.3
			c0-15.3,3.4-28.7,10.1-40.3c6.7-11.6,15.8-20.7,27.2-27.2c11.4-6.5,24.3-9.8,38.5-9.8c14.1,0,26.8,3.3,38.3,9.8
			c11.4,6.5,20.4,15.6,27.1,27.2c6.6,11.6,10,25,10,40.3c0,15.3-3.3,28.7-10,40.3c-6.6,11.6-15.7,20.7-27.2,27.2
			C241.5,860.5,228.7,863.8,214.6,863.8z M214.6,830.8c9.9,0,18.6-3.7,25.9-11.2c7.3-7.4,11-18.5,11-33.2s-3.7-25.8-11-33.2
			c-7.3-7.4-15.9-11.2-25.6-11.2c-10.1,0-18.8,3.7-26,11.2c-7.2,7.4-10.9,18.5-10.9,33.2s3.6,25.7,10.9,33.2
			C196.1,827,204.7,830.8,214.6,830.8z"/>
		<path class="st2" d="M324.1,925.7V712.6H358l4.2,21.1c4.8-6.5,11.1-12.3,18.9-17.3c7.8-5,18-7.4,30.5-7.4
			c13.9,0,26.3,3.4,37.2,10.1c10.9,6.7,19.5,16,25.9,27.7c6.3,11.7,9.5,25,9.5,39.9c0,14.9-3.2,28.1-9.5,39.7
			c-6.4,11.6-15,20.7-25.9,27.4s-23.3,10-37.2,10c-11.1,0-20.8-2.1-29.2-6.2c-8.3-4.2-15.1-10-20.2-17.6v85.7H324.1z M403.6,830.5
			c12.1,0,22.1-4.1,30.1-12.2c7.9-8.1,11.9-18.7,11.9-31.6c0-12.9-4-23.5-11.9-31.8c-7.9-8.3-18-12.5-30.1-12.5
			c-12.3,0-22.4,4.1-30.2,12.4c-7.8,8.2-11.8,18.8-11.8,31.7c0,12.9,3.9,23.5,11.8,31.7C381.2,826.3,391.3,830.5,403.6,830.5z"/>
	</g>
</g>
<g>
	<g>
		<path class="st3" d="M620.6,1423.4c-19.9,0-37.3-4.5-52.1-13.6c-14.9-9-26.4-21.7-34.7-37.8c-8.2-16.2-12.4-35-12.4-56.5
			c0-21.7,4.3-40.8,12.8-57.4c8.5-16.6,20.7-29.5,36.5-38.9c15.8-9.3,34.5-14,56.2-14c24.7,0,45.2,5.9,61.5,17.8
			c16.3,11.9,26.8,28.2,31.7,49.1H677c-3.2-9.9-9-17.5-17.5-23.1s-19.3-8.3-32.5-8.3c-21.1,0-37.4,6.7-48.8,20
			c-11.5,13.4-17.2,31.7-17.2,55c0,23.3,5.7,41.3,17,54.1c11.4,12.8,26.8,19.1,46.3,19.1c19.1,0,33.5-5.2,43.3-15.5
			c9.7-10.3,15.6-24,17.6-40.8h-53.3v-28.9H724v116.1h-35.6l-3-27.7c-6.8,10.1-15.4,17.8-25.6,23.2
			C649.6,1420.7,636.5,1423.4,620.6,1423.4z"/>
		<path class="st3" d="M760.5,1419.8v-149.5h34.4l3.6,28c5.4-9.6,12.8-17.3,22.2-23.1c9.3-5.7,20.4-8.6,33-8.6v40.7h-10.8
			c-8.4,0-16,1.3-22.6,3.9c-6.6,2.6-11.8,7.1-15.5,13.6c-3.7,6.4-5.6,15.4-5.6,26.8v68.1H760.5z"/>
		<path class="st3" d="M931.4,1423.4c-12.9,0-23.4-2.1-31.7-6.2c-8.2-4.1-14.4-9.6-18.4-16.4c-4-6.8-6-14.4-6-22.6
			c0-13.9,5.4-25.1,16.3-33.8c10.9-8.6,27.1-13,48.8-13h38v-3.6c0-10.2-2.9-17.8-8.7-22.6s-13.1-7.2-21.7-7.2
			c-7.8,0-14.7,1.9-20.5,5.6c-5.8,3.7-9.4,9.2-10.8,16.4h-37.7c1-10.8,4.7-20.3,11-28.3c6.3-8,14.5-14.2,24.6-18.5
			c10-4.3,21.3-6.5,33.8-6.5c21.3,0,38.1,5.3,50.3,16c12.3,10.7,18.4,25.7,18.4,45.2v91.9h-32.9l-3.6-24.1
			c-4.4,8-10.6,14.7-18.5,19.9C954,1420.8,943.9,1423.4,931.4,1423.4z M940.1,1393.2c11,0,19.6-3.6,25.8-10.9
			c6.1-7.2,10-16.2,11.6-26.8h-32.9c-10.2,0-17.6,1.9-22,5.6c-4.4,3.7-6.6,8.3-6.6,13.7c0,5.8,2.2,10.4,6.6,13.6
			C927.1,1391.6,932.9,1393.2,940.1,1393.2z"/>
		<path class="st3" d="M1122.5,1423.4c-14.1,0-26.6-3.4-37.7-10.2c-11.1-6.8-19.8-16.2-26.2-28c-6.4-11.9-9.6-25.3-9.6-40.4
			c0-15.1,3.2-28.5,9.6-40.2c6.4-11.7,15.2-21,26.2-27.7c11-6.7,23.6-10.1,37.7-10.1c11.3,0,21.1,2.1,29.5,6.3
			c8.4,4.2,15.3,10.1,20.5,17.8v-88h38.6v217h-34.4l-4.2-21.4c-4.8,6.6-11.2,12.5-19.1,17.5
			C1145.5,1420.9,1135.2,1423.4,1122.5,1423.4z M1130.6,1389.6c12.5,0,22.7-4.2,30.6-12.5c7.9-8.3,11.9-19,11.9-32.1
			s-4-23.8-11.9-32.1c-7.9-8.3-18.1-12.5-30.6-12.5c-12.3,0-22.4,4.1-30.4,12.4c-8,8.2-12.1,18.9-12.1,31.9c0,13.1,4,23.8,12.1,32.3
			C1108.2,1385.4,1118.4,1389.6,1130.6,1389.6z"/>
		<path class="st3" d="M1306.4,1423.4c-18.7,0-33.1-5.8-43.3-17.5c-10.2-11.7-15.2-28.7-15.2-51.2v-84.4h38.3v80.8
			c0,12.9,2.6,22.7,7.8,29.5c5.2,6.8,13.5,10.2,24.7,10.2c10.7,0,19.4-3.8,26.4-11.4c6.9-7.6,10.4-18.3,10.4-32v-77.2h38.6v149.5
			H1360l-3-25.3c-4.6,8.8-11.3,15.9-20,21.1C1328.2,1420.8,1318,1423.4,1306.4,1423.4z"/>
		<path class="st3" d="M1485.1,1423.4c-12.9,0-23.4-2.1-31.7-6.2c-8.2-4.1-14.4-9.6-18.4-16.4c-4-6.8-6-14.4-6-22.6
			c0-13.9,5.4-25.1,16.3-33.8c10.9-8.6,27.1-13,48.8-13h38v-3.6c0-10.2-2.9-17.8-8.7-22.6c-5.8-4.8-13.1-7.2-21.7-7.2
			c-7.8,0-14.7,1.9-20.5,5.6c-5.8,3.7-9.4,9.2-10.8,16.4h-37.7c1-10.8,4.7-20.3,11-28.3c6.3-8,14.5-14.2,24.6-18.5
			c10-4.3,21.3-6.5,33.8-6.5c21.3,0,38.1,5.3,50.3,16c12.3,10.7,18.4,25.7,18.4,45.2v91.9h-32.9l-3.6-24.1
			c-4.4,8-10.6,14.7-18.5,19.9C1507.8,1420.8,1497.6,1423.4,1485.1,1423.4z M1493.9,1393.2c11,0,19.6-3.6,25.8-10.9
			c6.1-7.2,10-16.2,11.6-26.8h-32.9c-10.2,0-17.6,1.9-22,5.6c-4.4,3.7-6.6,8.3-6.6,13.7c0,5.8,2.2,10.4,6.6,13.6
			C1480.8,1391.6,1486.6,1393.2,1493.9,1393.2z"/>
		<path class="st3" d="M1672,1419.8c-15.7,0-28.2-3.8-37.7-11.5s-14.2-21.2-14.2-40.7v-65.1h-25.6v-32.3h25.6l4.5-40.1h34.1v40.1
			h40.4v32.3h-40.4v65.4c0,7.2,1.6,12.2,4.7,14.9c3.1,2.7,8.5,4.1,16.1,4.1h18.7v32.9H1672z"/>
		<path class="st3" d="M1801,1423.4c-15.1,0-28.4-3.2-40.1-9.6c-11.7-6.4-20.8-15.5-27.4-27.1c-6.6-11.7-10-25.1-10-40.4
			c0-15.5,3.3-29.2,9.8-41.3c6.5-12.1,15.6-21.4,27.1-28.2c11.5-6.7,25.2-10.1,40.8-10.1c14.7,0,27.6,3.2,38.9,9.6
			c11.3,6.4,20,15.2,26.4,26.4c6.3,11.2,9.5,23.6,9.5,37.2c0,2.2-0.1,4.5-0.2,6.9c-0.1,2.4-0.3,4.9-0.5,7.5h-113.6
			c0.8,11.7,4.9,20.8,12.2,27.4c7.3,6.6,16.2,10,26.7,10c7.8,0,14.4-1.8,19.7-5.3c5.3-3.5,9.3-8.1,11.9-13.7h39.2
			c-2.8,9.4-7.5,18-14,25.8c-6.5,7.7-14.6,13.8-24.1,18.2C1823.9,1421.2,1813.1,1423.4,1801,1423.4z M1801.4,1298
			c-9.5,0-17.8,2.7-25,8s-11.9,13.4-13.9,24.3h74.5c-0.6-9.8-4.2-17.7-10.8-23.5C1819.4,1300.9,1811.2,1298,1801.4,1298z"/>
		<path class="st3" d="M1970.4,1423.4c-13.3,0-24.9-2.2-35-6.5c-10.1-4.3-18.1-10.3-24.1-17.9c-6-7.6-9.6-16.5-10.9-26.5h38.9
			c1.2,5.8,4.5,10.8,9.8,14.9c5.3,4.1,12.2,6.2,20.6,6.2s14.6-1.7,18.5-5.1c3.9-3.4,5.9-7.3,5.9-11.8c0-6.4-2.8-10.8-8.4-13.1
			c-5.6-2.3-13.5-4.6-23.5-6.8c-6.4-1.4-13-3.1-19.6-5.1c-6.6-2-12.7-4.6-18.2-7.7c-5.5-3.1-10-7.1-13.4-12.1
			c-3.4-4.9-5.1-11-5.1-18.2c0-13.3,5.3-24.4,15.8-33.5c10.5-9,25.4-13.6,44.5-13.6c17.7,0,31.8,4.1,42.3,12.4
			c10.6,8.2,16.8,19.6,18.8,34.1H1991c-2.2-11-10.6-16.6-25-16.6c-7.2,0-12.8,1.4-16.7,4.2c-3.9,2.8-5.9,6.3-5.9,10.6
			c0,4.4,2.9,7.9,8.7,10.6c5.8,2.6,13.6,5,23.2,7.2c10.4,2.4,20,5.1,28.8,8c8.7,2.9,15.7,7.2,21,13c5.2,5.7,7.8,13.9,7.8,24.6
			c0.2,9.2-2.2,17.6-7.2,25c-5,7.4-12.3,13.3-21.7,17.5C1994.5,1421.3,1983.3,1423.4,1970.4,1423.4z"/>
	</g>
	<g>
		<path class="st3" d="M789.4,1192.8L632,1125.5c-5.9-2.5-12.8-2.5-18.7,0l-157.4,67.3c-13.2,5.6-14.5,11.3,0,16.9l72.2,25.5
			c21.5-33.3,60.6-49.1,98.3-48.2c39.7,0.9,80.4,17.1,99.5,52l63.5-29.2C805,1202.1,804.3,1199.7,789.4,1192.8z"/>
	</g>
	<g>
		<path class="st3" d="M60.4,1419.8v-183.1H6.1l0.2-31.6h146.8l-0.2,31.6H99.7v183.1H60.4z"/>
		<path class="st3" d="M214.6,1423.4c-14.3,0-27.1-3.3-38.5-9.8s-20.4-15.6-27.1-27.2c-6.6-11.6-10-25-10-40.3
			c0-15.3,3.4-28.7,10.1-40.3c6.7-11.6,15.8-20.7,27.2-27.2c11.4-6.5,24.3-9.8,38.5-9.8c14.1,0,26.8,3.3,38.3,9.8
			c11.4,6.5,20.4,15.6,27.1,27.2c6.6,11.6,10,25,10,40.3c0,15.3-3.3,28.7-10,40.3c-6.6,11.6-15.7,20.7-27.2,27.2
			C241.5,1420.1,228.7,1423.4,214.6,1423.4z M214.6,1390.3c9.9,0,18.6-3.7,25.9-11.2c7.3-7.4,11-18.5,11-33.2s-3.7-25.8-11-33.2
			c-7.3-7.4-15.9-11.2-25.6-11.2c-10.1,0-18.8,3.7-26,11.2c-7.2,7.4-10.9,18.5-10.9,33.2s3.6,25.7,10.9,33.2
			C196.1,1386.6,204.7,1390.3,214.6,1390.3z"/>
		<path class="st3" d="M324.1,1485.3v-213.1H358l4.2,21.1c4.8-6.5,11.1-12.3,18.9-17.3c7.8-5,18-7.4,30.5-7.4
			c13.9,0,26.3,3.4,37.2,10.1c10.9,6.7,19.5,16,25.9,27.7c6.3,11.7,9.5,25,9.5,39.9c0,14.9-3.2,28.1-9.5,39.7
			c-6.4,11.6-15,20.7-25.9,27.4c-10.9,6.6-23.3,10-37.2,10c-11.1,0-20.8-2.1-29.2-6.2c-8.3-4.2-15.1-10-20.2-17.6v85.7H324.1z
			 M403.6,1390.1c12.1,0,22.1-4.1,30.1-12.2c7.9-8.1,11.9-18.7,11.9-31.6c0-12.9-4-23.5-11.9-31.8c-7.9-8.3-18-12.5-30.1-12.5
			c-12.3,0-22.4,4.1-30.2,12.4c-7.8,8.2-11.8,18.8-11.8,31.7c0,12.9,3.9,23.5,11.8,31.7C381.2,1385.9,391.3,1390.1,403.6,1390.1z"/>
	</g>
</g>
</svg>
