
<svg width="116" height="153" viewBox="0 0 116 153" fill="none" xmlns="http://www.w3.org/2000/svg">
<rect x="2" y="2" width="111.925" height="148.927" rx="12" fill="#ECEDFF" stroke="#2B2A35" stroke-width="4"/>
<path d="M4 14C4 8.47715 8.47715 4 14 4H101.925C107.447 4 111.925 8.47715 111.925 14V24.0431H4V14Z" fill="#464BA8"/>
<rect x="22.5" y="61.8164" width="70.9218" height="3.08356" rx="1.54178" fill="#464BA8"/>
<rect x="22.5" y="79.5469" width="24.6685" height="3.08356" rx="1.54178" fill="#464BA8"/>
<rect x="22.5" y="70.2964" width="24.6685" height="3.08356" rx="1.54178" fill="#464BA8"/>
<rect x="23" y="116.279" width="27.9586" height="13.6469" rx="6.82345" fill="white" stroke="#464BA8"/>
<path d="M27.3866 126.123V119.123H29.8366C30.3832 119.123 30.8366 119.216 31.1966 119.403C31.5566 119.583 31.8232 119.833 31.9966 120.153C32.1766 120.466 32.2666 120.823 32.2666 121.223C32.2666 121.603 32.1799 121.953 32.0066 122.273C31.8399 122.586 31.5766 122.836 31.2166 123.023C30.8566 123.209 30.3966 123.303 29.8366 123.303H28.4466V126.123H27.3866ZM28.4466 122.433H29.7866C30.2866 122.433 30.6432 122.326 30.8566 122.113C31.0766 121.893 31.1866 121.596 31.1866 121.223C31.1866 120.836 31.0766 120.536 30.8566 120.323C30.6432 120.103 30.2866 119.993 29.7866 119.993H28.4466V122.433ZM33.2743 126.123V121.163H34.2243L34.3143 122.103C34.4876 121.776 34.7276 121.519 35.0343 121.333C35.3476 121.139 35.7243 121.043 36.1643 121.043V122.153H35.8743C35.581 122.153 35.3176 122.203 35.0843 122.303C34.8576 122.396 34.6743 122.559 34.5343 122.793C34.401 123.019 34.3343 123.336 34.3343 123.743V126.123H33.2743ZM39.2564 126.243C38.7698 126.243 38.3364 126.136 37.9564 125.923C37.5831 125.703 37.2898 125.399 37.0764 125.013C36.8631 124.626 36.7564 124.176 36.7564 123.663C36.7564 123.143 36.8598 122.686 37.0664 122.293C37.2798 121.899 37.5731 121.593 37.9464 121.373C38.3264 121.153 38.7664 121.043 39.2664 121.043C39.7531 121.043 40.1764 121.153 40.5364 121.373C40.8964 121.586 41.1764 121.873 41.3764 122.233C41.5764 122.593 41.6764 122.989 41.6764 123.423C41.6764 123.489 41.6731 123.563 41.6664 123.643C41.6664 123.716 41.6631 123.799 41.6564 123.893H37.7964C37.8298 124.373 37.9864 124.739 38.2664 124.993C38.5531 125.239 38.8831 125.363 39.2564 125.363C39.5564 125.363 39.8064 125.296 40.0064 125.163C40.2131 125.023 40.3664 124.836 40.4664 124.603H41.5264C41.3931 125.069 41.1264 125.459 40.7264 125.773C40.3331 126.086 39.8431 126.243 39.2564 126.243ZM39.2564 121.913C38.9031 121.913 38.5898 122.019 38.3164 122.233C38.0431 122.439 37.8764 122.753 37.8164 123.173H40.6164C40.5964 122.786 40.4598 122.479 40.2064 122.253C39.9531 122.026 39.6364 121.913 39.2564 121.913ZM43.971 126.123L42.111 121.163H43.221L44.601 125.113L45.981 121.163H47.081L45.231 126.123H43.971Z" fill="#464BA8"/>
<rect x="64.1328" y="115.779" width="28.9586" height="14.6469" rx="7.32345" fill="#464BA8"/>
<path d="M68.3504 126.123V119.123H69.4104L72.9204 124.393V119.123H73.9804V126.123H72.9204L69.4104 120.853V126.123H68.3504ZM77.6812 126.243C77.1946 126.243 76.7612 126.136 76.3812 125.923C76.0079 125.703 75.7146 125.4 75.5012 125.013C75.2879 124.626 75.1812 124.176 75.1812 123.663C75.1812 123.143 75.2846 122.686 75.4912 122.293C75.7046 121.9 75.9979 121.593 76.3712 121.373C76.7512 121.153 77.1912 121.043 77.6912 121.043C78.1779 121.043 78.6012 121.153 78.9612 121.373C79.3212 121.586 79.6012 121.873 79.8012 122.233C80.0012 122.593 80.1012 122.99 80.1012 123.423C80.1012 123.49 80.0979 123.563 80.0912 123.643C80.0912 123.716 80.0879 123.8 80.0812 123.893H76.2212C76.2546 124.373 76.4112 124.74 76.6912 124.993C76.9779 125.24 77.3079 125.363 77.6812 125.363C77.9812 125.363 78.2312 125.296 78.4312 125.163C78.6379 125.023 78.7912 124.836 78.8912 124.603H79.9512C79.8179 125.07 79.5512 125.46 79.1512 125.773C78.7579 126.086 78.2679 126.243 77.6812 126.243ZM77.6812 121.913C77.3279 121.913 77.0146 122.02 76.7412 122.233C76.4679 122.44 76.3012 122.753 76.2412 123.173H79.0412C79.0212 122.786 78.8846 122.48 78.6312 122.253C78.3779 122.026 78.0612 121.913 77.6812 121.913ZM80.4281 126.123L82.1881 123.643L80.4281 121.163H81.5581L82.8881 123.063L84.2081 121.163H85.3481L83.5881 123.643L85.3481 126.123H84.2081L82.8881 124.223L81.5581 126.123H80.4281ZM88.2908 126.123C87.8042 126.123 87.4175 126.006 87.1308 125.773C86.8442 125.533 86.7008 125.11 86.7008 124.503V122.053H85.8508V121.163H86.7008L86.8308 119.903H87.7608V121.163H89.1608V122.053H87.7608V124.503C87.7608 124.776 87.8175 124.966 87.9308 125.073C88.0508 125.173 88.2542 125.223 88.5408 125.223H89.1108V126.123H88.2908Z" fill="white"/>
</svg>
