<svg width="190" height="185" viewBox="0 0 190 185" fill="none" xmlns="http://www.w3.org/2000/svg">
<path d="M120.619 41.6058H69.4227C68.256 41.6072 67.1375 42.0701 66.3125 42.893C65.4876 43.7159 65.0235 44.8316 65.0221 45.9954V159.496L64.4353 159.675L51.8759 163.511C51.2807 163.692 50.6378 163.63 50.0883 163.339C49.5389 163.048 49.1277 162.551 48.9452 161.957L11.5868 40.2333C11.405 39.6395 11.4669 38.9981 11.7591 38.4499C12.0512 37.9017 12.5495 37.4916 13.1446 37.3098L32.4986 31.3984L88.6065 14.2672L107.96 8.35588C108.255 8.26546 108.564 8.23386 108.871 8.26289C109.178 8.29193 109.476 8.38103 109.748 8.52509C110.02 8.66915 110.262 8.86535 110.458 9.10245C110.654 9.33956 110.801 9.61291 110.891 9.90688L120.44 41.0205L120.619 41.6058Z" fill="#F2F2F2"/>
<path d="M131.792 41.0207L120.283 3.52165C120.091 2.89685 119.778 2.3158 119.361 1.81172C118.945 1.30764 118.433 0.890404 117.854 0.58385C117.276 0.277296 116.643 0.0874322 115.991 0.0251147C115.339 -0.0372029 114.681 0.0292473 114.054 0.220661L86.8439 8.52874L30.739 25.6629L3.5285 33.9739C2.26445 34.3611 1.20603 35.2327 0.585588 36.3975C-0.0348585 37.5623 -0.16665 38.925 0.219147 40.1867L39.5548 168.343C39.8682 169.361 40.5006 170.253 41.3592 170.886C42.2177 171.52 43.2572 171.862 44.3252 171.863C44.8195 171.864 45.311 171.79 45.7832 171.644L64.4359 165.949L65.0227 165.768V165.156L64.4359 165.335L45.6101 171.085C44.4944 171.424 43.2893 171.308 42.2591 170.762C41.229 170.217 40.458 169.285 40.1152 168.173L0.782547 40.014C0.612709 39.4629 0.553516 38.8839 0.608355 38.3099C0.663195 37.736 0.830984 37.1785 1.10213 36.6694C1.37327 36.1602 1.74244 35.7095 2.18848 35.3428C2.63453 34.9762 3.14869 34.701 3.70154 34.5328L30.912 26.2218L87.0171 9.09061L114.228 0.779611C114.647 0.651961 115.083 0.586874 115.521 0.586467C116.462 0.588574 117.378 0.891152 118.134 1.44988C118.89 2.00861 119.446 2.79413 119.722 3.69139L131.179 41.0207L131.361 41.606H131.971L131.792 41.0207Z" fill="#3F3D56"/>
<path d="M35.9912 37.4055C35.4257 37.4051 34.8753 37.2239 34.4206 36.8886C33.9659 36.5533 33.631 36.0814 33.4648 35.5423L29.6861 23.2304C29.5845 22.8997 29.5493 22.5522 29.5824 22.2079C29.6154 21.8636 29.7162 21.5292 29.8789 21.2237C30.0415 20.9183 30.263 20.6478 30.5305 20.4277C30.7979 20.2076 31.1063 20.0422 31.4378 19.941L83.0539 4.17827C83.7235 3.97445 84.4468 4.04396 85.065 4.37154C85.6833 4.69913 86.146 5.25801 86.3516 5.92554L90.1304 18.2376C90.3346 18.9055 90.2648 19.627 89.9365 20.2437C89.6081 20.8603 89.0479 21.3219 88.3787 21.5271L36.7626 37.2899C36.5126 37.3664 36.2526 37.4053 35.9912 37.4055Z" fill="#464BA8"/>
<path d="M55.7864 13.1553C59.027 13.1553 61.6539 10.535 61.6539 7.30253C61.6539 4.0701 59.027 1.44971 55.7864 1.44971C52.5459 1.44971 49.9189 4.0701 49.9189 7.30253C49.9189 10.535 52.5459 13.1553 55.7864 13.1553Z" fill="#464BA8"/>
<path d="M55.7858 11.0091C57.8378 11.0091 59.5013 9.34974 59.5013 7.30287C59.5013 5.256 57.8378 3.59668 55.7858 3.59668C53.7338 3.59668 52.0703 5.256 52.0703 7.30287C52.0703 9.34974 53.7338 11.0091 55.7858 11.0091Z" fill="white"/>
<path d="M176.798 170.368H77.6372C76.9761 170.367 76.3423 170.105 75.8748 169.639C75.4073 169.172 75.1443 168.54 75.1436 167.881V49.361C75.1443 48.7015 75.4073 48.0692 75.8748 47.6029C76.3422 47.1366 76.9761 46.8743 77.6372 46.8735H176.798C177.459 46.8743 178.093 47.1366 178.56 47.6029C179.028 48.0693 179.291 48.7015 179.292 49.361V167.881C179.291 168.54 179.028 169.172 178.56 169.639C178.093 170.105 177.459 170.367 176.798 170.368Z" fill="#E6E6E6"/>
<path d="M131.178 41.0205H69.4229C68.1008 41.0224 66.8333 41.5471 65.8984 42.4797C64.9635 43.4123 64.4374 44.6766 64.4355 45.9954V165.334L65.0223 165.156V45.9954C65.0237 44.8316 65.4878 43.7159 66.3128 42.893C67.1377 42.0701 68.2562 41.6072 69.4229 41.6058H131.36L131.178 41.0205ZM185.012 41.0205H69.4229C68.1008 41.0224 66.8333 41.5471 65.8984 42.4797C64.9635 43.4123 64.4374 44.6766 64.4355 45.9954V180.025C64.4374 181.344 64.9635 182.608 65.8984 183.541C66.8333 184.473 68.1008 184.998 69.4229 185H185.012C186.335 184.998 187.602 184.473 188.537 183.541C189.472 182.608 189.998 181.344 190 180.025V45.9954C189.998 44.6766 189.472 43.4123 188.537 42.4797C187.602 41.5471 186.335 41.0224 185.012 41.0205ZM189.413 180.025C189.412 181.189 188.948 182.304 188.123 183.127C187.298 183.95 186.179 184.413 185.012 184.415H69.4229C68.2562 184.413 67.1377 183.95 66.3128 183.127C65.4878 182.304 65.0237 181.189 65.0223 180.025V45.9954C65.0237 44.8316 65.4878 43.7159 66.3128 42.893C67.1377 42.0701 68.2562 41.6072 69.4229 41.6058H185.012C186.179 41.6072 187.298 42.0701 188.123 42.893C188.948 43.7159 189.412 44.8316 189.413 45.9954V180.025Z" fill="#3F3D56"/>
<path d="M154.208 53.8967H100.227C99.5273 53.8959 98.8561 53.6181 98.3611 53.1244C97.8661 52.6306 97.5877 51.9612 97.5869 51.2629V38.3867C97.5877 37.6884 97.8661 37.019 98.3611 36.5252C98.8561 36.0315 99.5273 35.7537 100.227 35.7529H154.208C154.908 35.7537 155.579 36.0315 156.074 36.5252C156.569 37.019 156.848 37.6884 156.849 38.3867V51.2629C156.848 51.9612 156.569 52.6306 156.074 53.1244C155.579 53.6181 154.908 53.8959 154.208 53.8967Z" fill="#464BA8"/>
<path d="M127.218 36.6309C130.459 36.6309 133.086 34.0105 133.086 30.7781C133.086 27.5457 130.459 24.9253 127.218 24.9253C123.978 24.9253 121.351 27.5457 121.351 30.7781C121.351 34.0105 123.978 36.6309 127.218 36.6309Z" fill="#464BA8"/>
<path d="M127.217 34.3432C129.191 34.3432 130.791 32.7471 130.791 30.7783C130.791 28.8094 129.191 27.2134 127.217 27.2134C125.244 27.2134 123.644 28.8094 123.644 30.7783C123.644 32.7471 125.244 34.3432 127.217 34.3432Z" fill="white"/>
</svg>
