
<svg width="125" height="134" viewBox="0 0 125 134" fill="none" xmlns="http://www.w3.org/2000/svg">
<path d="M124.052 85.5866C124.073 85.8553 124.115 86.1241 124.115 86.3929C124.117 98.9793 124.177 111.567 124.077 124.154C124.048 127.693 122.337 130.477 119.169 132.264C117.256 133.343 115.237 133.78 113.034 133.777C88.586 133.746 64.1378 133.758 39.6896 133.757C29.7962 133.755 19.9011 133.829 10.0077 133.699C5.62402 133.64 1.411 130.571 0.35048 126.05C0.0980617 124.971 0.0108957 123.914 0.0108957 122.825C0.0127117 100.465 0.0163436 78.1048 0 55.7449C0 54.9895 0.221547 54.4284 0.74999 53.8945C2.91098 51.7099 5.25175 49.7287 7.61431 47.7729C8.49686 47.0429 9.31404 46.2366 10.1675 45.4757C11.5186 44.2754 12.9841 43.1985 14.2189 41.862C14.6766 41.3662 14.9054 40.8686 14.9017 40.1731C14.8763 34.8487 14.8618 29.5225 14.9017 24.1981C14.9199 21.91 15.8588 19.9724 17.3769 18.26C18.7625 16.6964 20.4586 15.6886 22.4071 15.0239C22.9374 14.8423 23.4676 14.8096 24.0124 14.8096C30.7605 14.8115 37.5068 14.8006 44.2549 14.826C45.0158 14.8296 45.586 14.619 46.0908 14.0669C48.4007 11.5482 51.1537 9.50887 53.6416 7.17718C56.1421 4.83278 58.8969 2.76077 61.3503 0.354632C61.8261 -0.112069 62.2746 -0.117517 62.7722 0.334656C64.9804 2.3431 67.1995 4.33884 69.4131 6.34184C72.3859 9.02946 75.6056 11.4429 78.3604 14.3738C78.7544 14.7915 79.2466 14.8187 79.7768 14.8169C86.4341 14.8024 93.0896 14.7842 99.7469 14.7969C102.104 14.8024 104.073 15.7667 105.863 17.2812C107.634 18.7793 108.523 20.7387 109.166 22.8634C109.286 23.2575 109.268 23.7024 109.268 24.1237C109.273 29.479 109.282 34.8342 109.257 40.1895C109.253 40.8832 109.466 41.3844 109.947 41.871C112.173 44.1246 114.699 46.0314 117.064 48.1252C117.897 48.8625 118.675 49.656 119.539 50.3697C120.926 51.5174 122.419 52.5761 123.543 54.0252C123.923 54.5155 124.26 55.0077 124.037 55.6723C123.663 55.8575 123.819 56.2044 123.819 56.4804C123.81 65.9179 123.81 75.3555 123.817 84.7912C123.817 85.0636 123.665 85.4122 124.052 85.5866ZM45.1465 87.9582C45.2972 88.0436 45.448 88.1289 45.5969 88.2161C47.362 90.3843 49.7173 91.9352 51.6186 93.9636C51.8783 94.2396 52.2651 94.2723 52.6355 94.2723C58.6863 94.2668 64.7389 94.2596 70.7896 94.2578C71.2927 94.2578 71.7539 94.1524 72.128 93.802C74.1038 91.9461 76.0759 90.0865 78.0498 88.227C78.3531 88.1816 78.5492 88.0218 78.6073 87.7112C79.0904 87.615 79.4445 87.3045 79.824 87.0194C81.393 85.8408 82.5534 84.2119 84.1787 83.1023C84.3984 82.9516 84.4039 82.7718 84.4039 82.5612C85.2301 82.1926 85.7204 81.4262 86.3887 80.8705C88.9528 78.7386 91.517 76.6048 93.8941 74.2568C94.9836 73.1799 96.1477 72.1775 97.3153 71.1842C99.5635 69.2738 101.803 67.358 103.753 65.1334C103.993 64.8592 104.24 64.5905 104.163 64.1819C104.194 61.6178 104.252 59.0536 104.252 56.4895C104.252 45.9497 104.236 35.4099 104.221 24.8701C104.221 24.5414 104.172 24.2145 104.147 23.8858C104.178 23.3374 103.851 22.9016 103.604 22.4803C102.68 20.9149 101.467 19.7236 99.4799 19.7254C97.0901 19.7291 94.7022 19.7436 92.3124 19.7454C69.7491 19.7545 47.1858 19.7872 24.6226 19.7327C22.2146 19.7273 19.892 22.266 19.892 24.4161C19.8902 32.1284 19.8575 39.8408 19.8484 47.5532C19.8411 52.7541 19.9683 57.9586 19.7994 63.1541C19.7358 65.0917 20.553 66.312 21.8369 67.4161C24.7152 69.8913 27.6425 72.3246 30.4354 74.8797C33.0831 77.3022 35.9451 79.4868 38.4529 82.0618C38.6563 82.2706 38.9486 82.3905 39.2011 82.5521C39.1284 82.9789 39.4045 83.2367 39.6877 83.4528C41.0951 84.5315 42.3336 85.799 43.652 86.9776C44.017 87.3045 44.3711 87.6114 44.8796 87.6622C44.8632 87.8529 44.8868 88.0109 45.1465 87.9582ZM62.1548 128.656C77.6431 128.656 93.1314 128.656 108.621 128.656C109.166 128.656 109.711 128.65 110.256 128.652C110.516 128.652 110.746 128.587 110.862 128.338C110.993 128.056 110.893 127.809 110.681 127.601C110.552 127.473 110.428 127.341 110.298 127.214C108.485 125.44 106.299 124.127 104.427 122.414C103.606 121.664 102.834 120.849 101.955 120.161C99.8232 118.488 97.7675 116.714 95.7536 114.916C93.48 112.888 91.0793 111.017 88.7949 109.007C87.4129 107.792 86.1236 106.465 84.6981 105.313C82.4009 103.459 80.278 101.407 77.9681 99.5694C77.5396 99.228 77.1637 99.0174 76.6062 99.0174C66.9253 99.0301 57.2462 99.0301 47.5654 99.0156C46.9697 99.0138 46.5521 99.2117 46.1344 99.6221C44.1096 101.605 41.7961 103.25 39.6823 105.132C37.7283 106.87 35.8143 108.646 33.7405 110.251C32.6745 111.075 31.6176 111.934 30.6425 112.888C28.6594 114.825 26.3423 116.376 24.3411 118.308C22.9791 119.623 21.461 120.774 20.01 121.995C18.0561 123.638 16.0876 125.269 14.1499 126.932C13.7595 127.266 13.1276 127.622 13.3473 128.227C13.5997 128.926 14.3406 128.65 14.8781 128.65C30.6334 128.659 46.3941 128.657 62.1548 128.656ZM119.178 60.5463C119.145 60.2358 119.365 59.8726 118.938 59.6638C118.495 59.4495 118.306 59.8581 118.008 60.0288C116.492 60.8914 115.359 62.2315 114.162 63.4174C111.411 66.1431 108.291 68.4203 105.449 71.0262C102.769 73.485 99.8504 75.6696 97.25 78.2265C96.4673 78.9965 95.6065 79.7265 94.7348 80.4184C93.6998 81.241 92.6211 82.0273 91.6968 82.9625C90.4619 84.2119 89.0527 85.2561 87.7434 86.4128C86.8718 87.1846 85.9947 87.9764 85.0776 88.71C83.4342 90.0248 81.7962 91.3595 80.4814 93.0175C79.5716 94.1633 79.6769 94.5737 80.801 95.5689C81.7235 96.3861 82.6751 97.1869 83.5486 98.0368C85.5824 100.02 87.8215 101.761 89.9952 103.557C92.7082 105.796 95.1725 108.313 97.9745 110.458C100.237 112.189 102.189 114.319 104.374 116.16C105.318 116.957 106.25 117.764 107.158 118.602C109.146 120.44 111.413 121.949 113.321 123.891C114.245 124.831 115.272 125.685 116.254 126.573C117.178 127.41 118.15 127.161 118.74 126.075C119.112 125.392 119.267 124.675 119.258 123.901C119.212 120.157 119.158 116.414 119.147 112.67C119.109 98.8558 119.129 85.04 119.199 71.226C119.216 67.6721 119.252 64.1074 119.178 60.5463ZM5.01023 122.627C4.97391 122.627 4.93759 122.627 4.90127 122.627C4.90127 123.171 4.89582 123.716 4.90308 124.261C4.91035 124.844 5.05562 125.389 5.32439 125.912C6.009 127.245 6.88248 127.426 8.03561 126.446C8.28803 126.231 8.51139 125.981 8.74565 125.745C9.7644 124.722 10.8358 123.738 11.9181 122.803C13.9883 121.012 16.0095 119.164 18.1432 117.44C20.5784 115.474 22.8974 113.362 25.2454 111.288C27.2975 109.477 29.4566 107.781 31.4506 105.916C34.0274 103.505 36.7132 101.229 39.4081 98.9593C40.9516 97.6591 42.4752 96.3334 44.0025 95.0114C44.471 94.6064 44.6344 94.1252 44.2313 93.5786C44.017 93.288 43.77 93.0211 43.5376 92.7433C42.3663 91.345 40.8754 90.3026 39.4608 89.1894C38.5273 88.454 37.781 87.5315 36.8549 86.8142C34.683 85.1362 32.7163 83.2186 30.5844 81.5007C29.1879 80.3766 28.022 79.0128 26.6365 77.9033C23.9579 75.7532 21.4828 73.3743 18.8079 71.2169C17.2189 69.9367 15.7443 68.5039 14.2062 67.1546C11.5114 64.792 8.831 62.4095 6.11614 60.0687C5.86736 59.8545 5.66034 59.5167 5.27536 59.6765C4.86677 59.8454 5.01386 60.2467 5.01386 60.5591C5.01023 81.2464 5.01023 101.936 5.01023 122.627ZM61.7807 14.9586C63.5349 14.9586 65.2873 14.9586 67.0415 14.9586C68.0693 14.9586 69.0972 14.9567 70.125 14.9567C70.3738 14.9567 70.6262 14.944 70.7515 14.6898C70.8859 14.4174 70.6898 14.2394 70.5227 14.0597C69.9271 13.4186 69.3841 12.7195 68.7303 12.1456C66.7382 10.3969 64.6118 8.79883 62.7776 6.8721C62.3128 6.38361 61.935 6.40177 61.383 6.81762C60.1481 7.74376 59.0858 8.85876 57.9054 9.84119C56.3328 11.1505 54.762 12.4616 53.2094 13.7945C52.9588 14.0088 52.5084 14.2358 52.7227 14.6607C52.9061 15.0239 53.3492 14.9549 53.7088 14.9549C56.4 14.9567 59.0894 14.9567 61.7807 14.9586ZM15.0361 54.7407C15.0361 52.834 15.0361 50.929 15.0361 49.0223C15.0361 48.7517 15.0724 48.4593 14.7928 48.2886C14.5767 48.1579 14.3933 48.2578 14.2226 48.4121C12.2541 50.1917 10.2801 51.9623 8.32072 53.751C7.77048 54.2522 7.82496 54.7898 8.308 55.3364C8.93269 56.0446 9.81888 56.4169 10.4654 57.1178C11.5894 58.3418 12.8025 59.4858 13.9847 60.6571C14.1881 60.8587 14.3642 61.1946 14.7274 61.053C15.1342 60.8968 15.0325 60.5046 15.0343 60.185C15.0398 58.3708 15.0361 56.5549 15.0361 54.7407ZM109.112 54.2722C109.114 54.2722 109.114 54.2722 109.115 54.2722C109.115 56.0863 109.114 57.9005 109.117 59.7128C109.117 59.9453 109.055 60.2249 109.346 60.343C109.608 60.4483 109.789 60.2685 109.993 60.1287C112.017 58.7485 113.742 57.0125 115.589 55.4199C116.426 54.6971 116.425 54.3358 115.637 53.5658C113.826 51.7971 111.747 50.3225 109.993 48.4902C109.822 48.3104 109.629 48.1415 109.361 48.285C109.106 48.4194 109.114 48.6772 109.114 48.9224C109.11 50.7057 109.112 52.4889 109.112 54.2722Z" fill="#2B2A35"/>
<path d="M124.054 85.5868C123.667 85.4125 123.82 85.0638 123.82 84.7878C123.812 75.3503 123.814 65.9128 123.821 56.477C123.821 56.201 123.665 55.856 124.039 55.6689C124.063 56.5424 124.105 57.4177 124.105 58.2912C124.11 67.1494 124.108 76.0077 124.106 84.8677C124.108 85.1074 124.072 85.3471 124.054 85.5868Z" fill="#2B2A35"/>
<path d="M104.158 64.1781C104.236 64.5867 103.989 64.8555 103.748 65.1297C101.798 67.3542 99.5584 69.2719 97.3103 71.1805C96.1426 72.172 94.9786 73.1762 93.889 74.2531C91.5119 76.6011 88.9478 78.733 86.3837 80.8668C85.7154 81.4225 85.2251 82.1888 84.3988 82.5574C80.805 82.5284 77.2131 82.4739 73.6211 82.4739C62.4148 82.4721 51.2104 82.4884 40.0041 82.5011C39.7335 82.5011 39.463 82.532 39.1942 82.5483C38.9436 82.3867 38.6494 82.2669 38.446 82.058C35.9382 79.483 33.0744 77.3002 30.4286 74.8759C27.6356 72.3209 24.7083 69.8875 21.83 67.4123C20.5461 66.3082 19.729 65.0861 19.7925 63.1503C19.9632 57.9548 19.8361 52.7503 19.8416 47.5494C19.8506 39.837 19.8833 32.1247 19.8851 24.4123C19.8851 22.2604 22.2077 19.7235 24.6157 19.729C47.179 19.7834 69.7422 19.7507 92.3055 19.7417C94.6953 19.7398 97.0833 19.7253 99.4731 19.7217C101.46 19.7181 102.673 20.9111 103.597 22.4765C103.846 22.8978 104.171 23.3336 104.14 23.882C103.702 23.9892 103.831 24.3487 103.831 24.6248C103.826 37.5671 103.826 50.5076 103.83 63.4499C103.83 63.7296 103.715 64.0855 104.158 64.1781ZM87.2807 77.3874C88.5792 77.0987 89.3909 76.1634 89.5325 75.1011C89.7196 73.701 88.0961 72.3209 86.449 72.3263C69.9057 72.3681 53.3605 72.3499 36.8171 72.3518C36.5193 72.3518 36.2088 72.2882 35.9291 72.4571C35.6949 72.4335 35.4788 72.4607 35.3335 72.6786C34.7542 72.8402 34.3619 73.2289 34.0569 73.7246C33.4867 74.5055 33.503 75.29 34.046 76.0745C34.2439 76.4631 34.5399 76.7536 34.9303 76.9479C35.5677 77.5345 36.3559 77.5145 37.1458 77.5145C53.5348 77.5127 69.9256 77.5145 86.3147 77.5109C86.6379 77.5109 86.9829 77.6089 87.2807 77.3874ZM61.6013 62.1515C53.4368 62.1515 45.2704 62.1533 37.104 62.1479C36.4612 62.1479 35.8329 62.186 35.2481 62.4802C34.3874 62.9124 33.7718 63.5407 33.6919 64.5504C33.6101 65.571 34.1386 66.2701 34.9467 66.8058C35.6059 67.2435 36.3486 67.3361 37.1149 67.3415C53.5348 67.445 69.9565 67.3542 86.3764 67.3161C87.0556 67.3143 87.7238 67.2416 88.285 66.8494C89.0604 66.3083 89.7396 65.6745 89.6524 64.594C89.567 63.5462 88.9551 62.8942 88.0489 62.4657C87.4587 62.186 86.8304 62.1497 86.1875 62.1497C77.9939 62.1533 69.7985 62.1533 61.6013 62.1515Z" fill="#ECEDFF"/>
<path d="M62.1544 128.655C46.3937 128.655 30.633 128.659 14.8723 128.646C14.3348 128.646 13.5938 128.921 13.3414 128.223C13.1235 127.618 13.7555 127.263 14.1441 126.928C16.0817 125.263 18.0484 123.634 20.0042 121.991C21.4551 120.771 22.9751 119.619 24.3352 118.304C26.3346 116.374 28.6536 114.821 30.6366 112.884C31.6118 111.93 32.6705 111.073 33.7346 110.247C35.8084 108.642 37.7243 106.866 39.6764 105.128C41.7902 103.248 44.1037 101.601 46.1285 99.6183C46.5462 99.2078 46.9657 99.0117 47.5595 99.0117C57.2404 99.0262 66.9194 99.0262 76.6003 99.0135C77.1578 99.0135 77.5337 99.2242 77.9623 99.5656C80.2722 101.403 82.395 103.455 84.6922 105.309C86.1195 106.461 87.4071 107.786 88.789 109.003C91.0735 111.013 93.4742 112.884 95.7477 114.912C97.7616 116.71 99.8173 118.484 101.949 120.157C102.828 120.847 103.6 121.66 104.421 122.41C106.293 124.123 108.479 125.436 110.292 127.21C110.421 127.337 110.544 127.47 110.675 127.597C110.889 127.806 110.987 128.052 110.857 128.334C110.742 128.583 110.51 128.648 110.25 128.648C109.705 128.646 109.16 128.652 108.616 128.652C93.1328 128.655 77.6445 128.655 62.1544 128.655Z" fill="#464BA8"/>
<path d="M119.177 60.5462C119.252 64.1073 119.215 67.672 119.197 71.2313C119.126 85.0453 119.108 98.8611 119.144 112.675C119.155 116.42 119.208 120.162 119.255 123.907C119.264 124.682 119.11 125.398 118.738 126.08C118.147 127.166 117.176 127.415 116.252 126.578C115.269 125.688 114.243 124.837 113.319 123.896C111.41 121.955 109.144 120.446 107.155 118.608C106.249 117.769 105.318 116.963 104.372 116.165C102.189 114.322 100.235 112.194 97.9721 110.463C95.1683 108.319 92.7059 105.803 89.9928 103.563C87.8173 101.768 85.5782 100.025 83.5462 98.0421C82.6745 97.1904 81.7211 96.3896 80.7986 95.5742C79.6727 94.5791 79.5692 94.1687 80.479 93.0228C81.7938 91.3648 83.4318 90.0301 85.0752 88.7153C85.9923 87.9817 86.8694 87.1881 87.741 86.4182C89.0485 85.2614 90.4577 84.2172 91.6944 82.9678C92.6187 82.0326 93.6974 81.2445 94.7325 80.4237C95.6059 79.73 96.4649 79.0018 97.2476 78.2318C99.848 75.675 102.766 73.4904 105.447 71.0316C108.289 68.4257 111.408 66.1484 114.16 63.4227C115.356 62.2351 116.489 60.8967 118.006 60.0341C118.305 59.8634 118.494 59.4548 118.936 59.6691C119.364 59.8707 119.144 60.2357 119.177 60.5462Z" fill="#464BA8" fill-opacity="0.5"/>
<path d="M5.00754 122.626C5.00754 101.937 5.00754 81.2461 5.01299 60.5569C5.01299 60.2446 4.8659 59.8432 5.27449 59.6744C5.65947 59.5146 5.86649 59.8523 6.11527 60.0666C8.83013 62.4092 11.5105 64.7899 14.2054 67.1525C15.7453 68.5017 17.2199 69.9327 18.807 71.2148C21.4801 73.3703 23.9571 75.751 26.6356 77.9011C28.0193 79.0125 29.187 80.3745 30.5835 81.4985C32.7154 83.2164 34.6821 85.1341 36.854 86.812C37.7819 87.5293 38.5265 88.4518 39.4599 89.1873C40.8745 90.3005 42.3654 91.3447 43.5367 92.7411C43.7691 93.019 44.0161 93.2859 44.2304 93.5765C44.6335 94.1231 44.4683 94.6043 44.0016 95.0093C42.4744 96.3313 40.9508 97.6551 39.4072 98.9571C36.7123 101.227 34.0283 103.504 31.4497 105.914C29.4558 107.779 27.2966 109.473 25.2446 111.286C22.8965 113.36 20.5776 115.471 18.1424 117.438C16.0086 119.16 13.9874 121.01 11.9173 122.801C10.8349 123.738 9.76535 124.722 8.74478 125.743C8.51052 125.979 8.28716 126.229 8.03474 126.443C6.88161 127.424 6.00813 127.241 5.32352 125.91C5.05476 125.387 4.90948 124.842 4.90221 124.259C4.89495 123.714 4.9004 123.169 4.9004 122.625C4.93672 122.626 4.97122 122.626 5.00754 122.626Z" fill="#464BA8" fill-opacity="0.5"/>
<path d="M39.1992 82.5463C39.4698 82.5299 39.7404 82.4991 40.0091 82.4991C51.2154 82.4863 62.4199 82.47 73.6261 82.4718C77.2181 82.4718 80.8119 82.5263 84.4038 82.5554C84.402 82.766 84.3984 82.9458 84.1787 83.0965C82.5534 84.2079 81.393 85.835 79.824 87.0135C79.4426 87.2986 79.0903 87.611 78.6073 87.7072C67.8568 87.709 57.1064 87.7108 46.3559 87.7163C46.0272 87.7163 45.7003 87.7635 45.3717 87.7889C45.3081 87.7744 45.2445 87.7599 45.1792 87.7454C45.1174 87.5765 44.9812 87.6673 44.8741 87.6582C44.3656 87.6073 44.0115 87.3004 43.6465 86.9736C42.3299 85.7932 41.0914 84.5257 39.6823 83.4488C39.4044 83.2309 39.1266 82.973 39.1992 82.5463Z" fill="#2B2A35"/>
<path d="M78.0527 88.2255C76.0788 90.0832 74.1066 91.9446 72.1309 93.8005C71.7568 94.1509 71.2955 94.2563 70.7925 94.2563C64.7417 94.2599 58.6892 94.2654 52.6384 94.2708C52.2679 94.2708 51.8811 94.2399 51.6215 93.9621C49.722 91.9337 47.3667 90.3828 45.6016 88.2146C45.9321 88.191 46.2626 88.1492 46.5931 88.1492C56.7188 88.1456 66.8446 88.1456 76.9704 88.1492C77.33 88.151 77.6913 88.1982 78.0527 88.2255Z" fill="#ECEDFF"/>
<path d="M61.7782 14.957C59.087 14.9552 56.3975 14.957 53.7063 14.9552C53.3449 14.9552 52.9036 15.0242 52.7202 14.661C52.5059 14.2361 52.9563 14.0109 53.2069 13.7948C54.7596 12.4619 56.3304 11.1508 57.903 9.84145C59.0833 8.85902 60.1457 7.74402 61.3805 6.81789C61.9344 6.40203 62.3103 6.38387 62.7752 6.87237C64.6093 8.7991 66.7358 10.3971 68.7279 12.1459C69.3816 12.7197 69.9264 13.4189 70.5202 14.0599C70.6855 14.2379 70.8834 14.4177 70.749 14.6901C70.6237 14.9443 70.3713 14.957 70.1225 14.957C69.0947 14.957 68.0669 14.9588 67.039 14.9588C65.2848 14.9588 63.5306 14.9588 61.7782 14.957Z" fill="#464BA8"/>
<path d="M15.0324 54.7408C15.0324 56.5568 15.0361 58.3709 15.0288 60.1869C15.027 60.5047 15.1287 60.8969 14.7219 61.0549C14.3569 61.1965 14.1826 60.8606 13.9792 60.659C12.797 59.4877 11.5857 58.3437 10.4598 57.1197C9.81518 56.4188 8.929 56.0465 8.30249 55.3383C7.82126 54.7935 7.76497 54.2541 8.3152 53.7529C10.2746 51.966 12.2504 50.1937 14.2171 48.414C14.3859 48.2615 14.5712 48.1598 14.7873 48.2905C15.0687 48.4594 15.0306 48.7536 15.0306 49.0242C15.0342 50.9291 15.0324 52.8341 15.0324 54.7408Z" fill="#464BA8"/>
<path d="M109.11 54.2723C109.11 52.489 109.11 50.7058 109.11 48.9207C109.11 48.6773 109.103 48.4177 109.357 48.2833C109.626 48.1416 109.819 48.3105 109.989 48.4885C111.745 50.3208 113.823 51.7953 115.633 53.5641C116.421 54.334 116.423 54.6954 115.586 55.4182C113.741 57.0108 112.014 58.7468 109.989 60.1269C109.784 60.2668 109.604 60.4466 109.343 60.3412C109.052 60.2232 109.116 59.9435 109.114 59.7111C109.11 57.897 109.112 56.0828 109.112 54.2705C109.112 54.2723 109.11 54.2723 109.11 54.2723Z" fill="#464BA8"/>
<path d="M104.165 64.1789C103.722 64.0881 103.836 63.7304 103.836 63.4507C103.833 50.5084 103.833 37.566 103.838 24.6255C103.838 24.3495 103.709 23.99 104.147 23.8828C104.172 24.2115 104.221 24.5384 104.221 24.8671C104.236 35.4069 104.252 45.9467 104.252 56.4865C104.252 59.0488 104.196 61.6148 104.165 64.1789Z" fill="white"/>
<path d="M78.0499 88.2247C77.6886 88.1993 77.329 88.1503 76.9676 88.1503C66.8419 88.1466 56.7161 88.1466 46.5903 88.1503C46.2598 88.1503 45.9293 88.192 45.5988 88.2156C45.4481 88.1303 45.2973 88.0449 45.1484 87.9578C45.212 87.9432 45.2774 87.9287 45.3409 87.9142C45.3645 87.8761 45.3754 87.8361 45.3736 87.7907C45.7023 87.7653 46.0292 87.7181 46.3579 87.7181C57.1083 87.7126 67.8588 87.7108 78.6093 87.709C78.5493 88.0177 78.3532 88.1793 78.0499 88.2247Z" fill="white"/>
<path d="M44.8777 87.6589C44.9848 87.668 45.121 87.5772 45.1828 87.7461C45.2354 87.8024 45.2881 87.8569 45.3426 87.9132C45.279 87.9277 45.2154 87.9422 45.1501 87.9567C44.8886 88.0112 44.865 87.8532 44.8777 87.6589Z" fill="#464BA8" fill-opacity="0.5"/>
<path d="M61.5502 62.1521C69.7456 62.1521 77.9411 62.1539 86.1365 62.1503C86.7775 62.1503 87.4058 62.1866 87.9978 62.4662C88.904 62.8948 89.516 63.5467 89.6013 64.5945C89.6885 65.675 89.0093 66.307 88.2339 66.85C87.6728 67.2422 87.0027 67.3148 86.3253 67.3166C69.9054 67.3548 53.4837 67.4456 37.0639 67.3421C36.2975 67.3366 35.5548 67.244 34.8956 66.8064C34.0893 66.2707 33.5609 65.5715 33.6408 64.551C33.7207 63.5413 34.3363 62.9111 35.1971 62.4808C35.7818 62.1884 36.4101 62.1484 37.053 62.1484C45.2193 62.1539 53.3857 62.1521 61.5502 62.1521Z" fill="#2B2A35"/>
<path d="M61.5502 51.8611C69.7456 51.8611 77.9411 51.8629 86.1365 51.8592C86.7775 51.8592 87.4058 51.8956 87.9978 52.1752C88.904 52.6038 89.516 53.2557 89.6013 54.3035C89.6885 55.384 89.0093 56.016 88.2339 56.5589C87.6728 56.9512 87.0027 57.0238 86.3253 57.0256C69.9054 57.0638 53.4837 57.1546 37.0639 57.0511C36.2975 57.0456 35.5548 56.953 34.8956 56.5154C34.0893 55.9796 33.5609 55.2805 33.6408 54.2599C33.7207 53.2503 34.3363 52.6201 35.1971 52.1897C35.7818 51.8974 36.4101 51.8574 37.053 51.8574C45.2193 51.8611 53.3857 51.8611 61.5502 51.8611Z" fill="#2B2A35"/>
<path d="M61.5502 41.2321C69.7456 41.2321 77.9411 41.234 86.1365 41.2303C86.7775 41.2303 87.4058 41.2667 87.9978 41.5463C88.904 41.9749 89.516 42.6268 89.6013 43.6746C89.6885 44.7551 89.0093 45.3871 88.2339 45.93C87.6728 46.3223 87.0027 46.3949 86.3253 46.3967C69.9054 46.4349 53.4837 46.5257 37.0639 46.4222C36.2975 46.4167 35.5548 46.3241 34.8956 45.8864C34.0893 45.3507 33.5609 44.6516 33.6408 43.631C33.7207 42.6214 34.3363 41.9912 35.1971 41.5608C35.7818 41.2685 36.4101 41.2285 37.053 41.2285C45.2193 41.234 53.3857 41.2321 61.5502 41.2321Z" fill="#2B2A35"/>
<path d="M61.5502 29.7517C69.7456 29.7517 77.9411 29.7535 86.1365 29.7499C86.7775 29.7499 87.4058 29.7862 87.9978 30.0658C88.904 30.4944 89.516 31.1463 89.6013 32.1941C89.6885 33.2746 89.0093 33.9066 88.2339 34.4496C87.6728 34.8418 87.0027 34.9144 86.3253 34.9163C69.9054 34.9544 53.4837 35.0452 37.0639 34.9417C36.2975 34.9362 35.5548 34.8436 34.8956 34.406C34.0893 33.8703 33.5609 33.1711 33.6408 32.1506C33.7207 31.1409 34.3363 30.5107 35.1971 30.0804C35.7818 29.788 36.4101 29.748 37.053 29.748C45.2193 29.7535 53.3857 29.7517 61.5502 29.7517Z" fill="#2B2A35"/>
<path d="M35.9328 72.4569C36.2125 72.288 36.523 72.3516 36.8208 72.3516C53.3642 72.3498 69.9094 72.3661 86.4528 72.3262C88.0998 72.3225 89.7233 73.7027 89.5363 75.101C89.3946 76.1633 88.5829 77.0985 87.2863 77.3873C86.9594 77.1439 86.5835 77.2656 86.233 77.2656C70.6558 77.2583 55.0785 77.2638 39.503 77.2529C37.9776 77.2511 36.434 77.4345 34.9377 76.946C34.5473 76.7517 34.2513 76.4611 34.0533 76.0725C33.9099 75.288 33.8844 74.5053 34.0642 73.7227C34.3693 73.2269 34.7616 72.8383 35.3408 72.6767C35.5787 72.7202 35.8221 72.7638 35.9328 72.4569Z" fill="#2B2A35"/>
<path d="M34.9375 76.9482C36.432 77.4367 37.9774 77.2551 39.5028 77.2551C55.0801 77.2642 70.6574 77.2606 86.2328 77.2679C86.5833 77.2679 86.9592 77.1462 87.2861 77.3895C86.9883 77.6111 86.6432 77.5112 86.32 77.513C69.931 77.5184 53.5402 77.5166 37.1512 77.5166C36.363 77.5148 35.5749 77.5348 34.9375 76.9482Z" fill="#2B2A35"/>
<path d="M34.0628 73.7227C33.8831 74.5053 33.9085 75.2898 34.0519 76.0725C33.5108 75.288 33.4926 74.5053 34.0628 73.7227Z" fill="#2B2A35"/>
<path d="M35.9394 72.4572C35.8268 72.7641 35.5853 72.7205 35.3438 72.6787C35.489 72.4608 35.7051 72.4336 35.9394 72.4572Z" fill="#2B2A35"/>
<path d="M45.3395 87.9132C45.2868 87.8569 45.2342 87.8024 45.1797 87.7461C45.2432 87.7606 45.3068 87.7752 45.3722 87.7897C45.374 87.8351 45.3631 87.8768 45.3395 87.9132Z" fill="#ECEDFF"/>
</svg>
    