<svg width="56" height="88" viewBox="0 0 56 88" fill="none" xmlns="http://www.w3.org/2000/svg">
<path d="M4.55269 4.59228H13.1038V0H0V13.1038H4.55269V4.59228Z" fill="#C4C4C4"/>
<path d="M4.55269 32H0V45.1038H13.1038V40.5116H4.55269V32Z" fill="#C4C4C4"/>
<path d="M41.5511 40.5116H33V45.1038H46.1038V32H41.5511V40.5116Z" fill="#C4C4C4"/>
<path d="M33 0V4.59228H41.5511V13.1038H46.1038V0H33Z" fill="#C4C4C4"/>
<path d="M56.0001 56.3845C56.0001 53.5999 53.7069 51.3068 50.9223 51.3068C49.1206 51.3068 47.4826 52.2896 46.5817 53.6818V53.518C46.5817 50.7335 44.2885 48.4403 41.504 48.4403C39.7022 48.4403 38.0642 49.4231 37.1633 50.8154V50.6516C37.1633 47.867 34.8701 45.5738 32.0856 45.5738C30.2838 45.5738 28.6458 46.5566 27.7449 47.9489V31.0777C27.7449 29.6855 27.2535 28.457 26.2708 27.4742C25.288 26.4914 24.0595 26 22.6672 26C19.8826 26 17.5895 28.2932 17.5895 31.0777V62.445C17.5895 62.7726 17.4257 63.0183 17.18 63.1002C16.9343 63.1821 16.6067 63.1821 16.4429 62.9364L11.2832 57.7768C9.56337 56.0569 6.77881 55.8112 4.73134 57.1216C3.50285 57.9406 2.68386 59.251 2.52006 60.6432C2.27437 62.1174 2.76576 63.5097 3.66665 64.6563L16.5248 80.2171C20.1283 84.6396 25.5337 87.1785 31.1847 87.1785H39.2108C43.7152 87.1785 47.8921 85.4586 51.0861 82.2646C54.2802 79.0705 56.0001 74.8937 56.0001 70.3892V56.3845Z" fill="#C4C4C4"/>
</svg>
