
<svg width="116" height="153" viewBox="0 0 116 153" fill="none" xmlns="http://www.w3.org/2000/svg">
<rect x="2" y="2" width="111.925" height="148.927" rx="12" fill="#ECEDFF" stroke="#2B2A35" stroke-width="4"/>
<rect x="22.5039" y="20.96" width="70.9218" height="3.08356" rx="1.54178" fill="#464BA8"/>
<rect x="22.5039" y="51.0244" width="70.9218" height="3.08356" rx="1.54178" fill="#464BA8"/>
<rect x="22.5039" y="80.3184" width="70.9218" height="3.08356" rx="1.54178" fill="#464BA8"/>
<rect x="22.5039" y="39.4614" width="24.6685" height="3.08356" rx="1.54178" fill="#464BA8"/>
<rect x="22.5039" y="68.7549" width="24.6685" height="3.08356" rx="1.54178" fill="#464BA8"/>
<rect x="22.5039" y="98.8198" width="24.6685" height="3.08356" rx="1.54178" fill="#464BA8"/>
<rect x="22.5039" y="30.2104" width="24.6685" height="3.08356" rx="1.54178" fill="#464BA8"/>
<rect x="22.5039" y="59.5044" width="24.6685" height="3.08356" rx="1.54178" fill="#464BA8"/>
<rect x="22.5039" y="89.5693" width="24.6685" height="3.08356" rx="1.54178" fill="#464BA8"/>
<rect x="22.5039" y="113.467" width="53.1914" height="19.2722" rx="9.63612" fill="#464BA8"/>
<path d="M35.1672 125.899C34.6538 125.899 34.2038 125.809 33.8172 125.629C33.4305 125.449 33.1272 125.193 32.9072 124.859C32.6938 124.526 32.5838 124.129 32.5772 123.669H33.6972C33.7038 124.043 33.8338 124.359 34.0872 124.619C34.3405 124.879 34.6972 125.009 35.1572 125.009C35.5638 125.009 35.8805 124.913 36.1072 124.719C36.3405 124.519 36.4572 124.266 36.4572 123.959C36.4572 123.713 36.4005 123.513 36.2872 123.359C36.1805 123.206 36.0305 123.079 35.8372 122.979C35.6505 122.879 35.4338 122.789 35.1872 122.709C34.9405 122.629 34.6805 122.543 34.4072 122.449C33.8672 122.269 33.4605 122.036 33.1872 121.749C32.9205 121.463 32.7872 121.086 32.7872 120.619C32.7805 120.226 32.8705 119.883 33.0572 119.589C33.2505 119.296 33.5172 119.069 33.8572 118.909C34.2038 118.743 34.6072 118.659 35.0672 118.659C35.5205 118.659 35.9172 118.743 36.2572 118.909C36.6038 119.076 36.8738 119.309 37.0672 119.609C37.2605 119.903 37.3605 120.246 37.3672 120.639H36.2472C36.2472 120.459 36.2005 120.289 36.1072 120.129C36.0138 119.963 35.8772 119.826 35.6972 119.719C35.5172 119.613 35.2972 119.559 35.0372 119.559C34.7038 119.553 34.4272 119.636 34.2072 119.809C33.9938 119.983 33.8872 120.223 33.8872 120.529C33.8872 120.803 33.9672 121.013 34.1272 121.159C34.2872 121.306 34.5072 121.429 34.7872 121.529C35.0672 121.623 35.3872 121.733 35.7472 121.859C36.0938 121.973 36.4038 122.109 36.6772 122.269C36.9505 122.429 37.1672 122.639 37.3272 122.899C37.4938 123.159 37.5772 123.489 37.5772 123.889C37.5772 124.243 37.4872 124.573 37.3072 124.879C37.1272 125.179 36.8572 125.426 36.4972 125.619C36.1372 125.806 35.6938 125.899 35.1672 125.899ZM40.5261 125.899C39.9261 125.899 39.4527 125.713 39.1061 125.339C38.7661 124.966 38.5961 124.409 38.5961 123.669V120.819H39.6561V123.559C39.6561 124.519 40.0494 124.999 40.8361 124.999C41.2294 124.999 41.5527 124.859 41.8061 124.579C42.0594 124.299 42.1861 123.899 42.1861 123.379V120.819H43.2461V125.779H42.3061L42.2261 124.909C42.0727 125.216 41.8461 125.459 41.5461 125.639C41.2527 125.813 40.9127 125.899 40.5261 125.899ZM47.3845 125.899C46.9978 125.899 46.6545 125.823 46.3545 125.669C46.0612 125.516 45.8278 125.299 45.6545 125.019L45.5445 125.779H44.5945V118.579H45.6545V121.589C45.8145 121.356 46.0345 121.149 46.3145 120.969C46.5945 120.789 46.9545 120.699 47.3945 120.699C47.8745 120.699 48.2978 120.813 48.6645 121.039C49.0312 121.266 49.3178 121.576 49.5245 121.969C49.7378 122.363 49.8445 122.809 49.8445 123.309C49.8445 123.809 49.7378 124.256 49.5245 124.649C49.3178 125.036 49.0312 125.343 48.6645 125.569C48.2978 125.789 47.8712 125.899 47.3845 125.899ZM47.2045 124.979C47.6578 124.979 48.0312 124.826 48.3245 124.519C48.6178 124.206 48.7645 123.799 48.7645 123.299C48.7645 122.973 48.6978 122.683 48.5645 122.429C48.4312 122.176 48.2478 121.979 48.0145 121.839C47.7812 121.693 47.5112 121.619 47.2045 121.619C46.7512 121.619 46.3778 121.776 46.0845 122.089C45.7978 122.403 45.6545 122.806 45.6545 123.299C45.6545 123.799 45.7978 124.206 46.0845 124.519C46.3778 124.826 46.7512 124.979 47.2045 124.979ZM50.991 125.779V120.819H51.931L52.021 121.519C52.181 121.266 52.391 121.066 52.651 120.919C52.9176 120.773 53.2243 120.699 53.571 120.699C54.3576 120.699 54.9043 121.009 55.211 121.629C55.391 121.343 55.631 121.116 55.931 120.949C56.2376 120.783 56.5676 120.699 56.921 120.699C57.541 120.699 58.0276 120.886 58.381 121.259C58.7343 121.633 58.911 122.189 58.911 122.929V125.779H57.851V123.039C57.851 122.079 57.4843 121.599 56.751 121.599C56.3776 121.599 56.071 121.739 55.831 122.019C55.5976 122.299 55.481 122.699 55.481 123.219V125.779H54.421V123.039C54.421 122.079 54.051 121.599 53.311 121.599C52.9443 121.599 52.641 121.739 52.401 122.019C52.1676 122.299 52.051 122.699 52.051 123.219V125.779H50.991ZM60.7511 119.879C60.5511 119.879 60.3845 119.819 60.2511 119.699C60.1245 119.573 60.0611 119.416 60.0611 119.229C60.0611 119.043 60.1245 118.889 60.2511 118.769C60.3845 118.643 60.5511 118.579 60.7511 118.579C60.9511 118.579 61.1145 118.643 61.2411 118.769C61.3745 118.889 61.4411 119.043 61.4411 119.229C61.4411 119.416 61.3745 119.573 61.2411 119.699C61.1145 119.819 60.9511 119.879 60.7511 119.879ZM60.2211 125.779V120.819H61.2811V125.779H60.2211ZM64.7604 125.779C64.2738 125.779 63.8871 125.663 63.6004 125.429C63.3138 125.189 63.1704 124.766 63.1704 124.159V121.709H62.3204V120.819H63.1704L63.3004 119.559H64.2304V120.819H65.6304V121.709H64.2304V124.159C64.2304 124.433 64.2871 124.623 64.4004 124.729C64.5204 124.829 64.7238 124.879 65.0104 124.879H65.5804V125.779H64.7604Z" fill="white"/>
</svg>
