<svg width="655" height="616" viewBox="0 0 655 616" fill="none" xmlns="http://www.w3.org/2000/svg">
<path d="M522.33 120.074C520.982 118.282 519.137 116.925 517.023 116.17C514.909 115.415 512.618 115.295 510.435 115.826L307.026 166.792C304.103 167.526 301.59 169.388 300.039 171.969C298.488 174.549 298.027 177.637 298.756 180.554L363.077 437.262C363.809 440.178 365.672 442.684 368.257 444.228C370.841 445.773 373.935 446.23 376.859 445.499L580.276 394.53C583.198 393.794 585.71 391.932 587.26 389.352C588.81 386.772 589.273 383.685 588.546 380.768L524.225 124.061C523.869 122.618 523.227 121.262 522.337 120.072L522.33 120.074ZM586.09 381.383C586.656 383.653 586.296 386.054 585.09 388.061C583.884 390.068 581.93 391.517 579.656 392.09L376.247 443.056C373.973 443.625 371.565 443.271 369.555 442.069C367.545 440.868 366.095 438.919 365.526 436.65L301.205 179.942C300.64 177.673 301 175.272 302.206 173.265C303.412 171.258 305.366 169.809 307.639 169.236L511.055 118.268C512.77 117.845 514.571 117.942 516.229 118.545C517.888 119.148 519.328 120.231 520.366 121.656C520.569 121.94 520.758 122.236 520.93 122.54C521.305 123.212 521.59 123.93 521.777 124.676L586.09 381.383Z" fill="#3F3D56"/>
<g clip-path="url(#clip0_67_379)">
<path d="M502.252 196.109C506.812 194.966 509.585 190.352 508.445 185.803C507.305 181.254 502.685 178.493 498.125 179.635C493.564 180.778 490.792 185.392 491.932 189.941C493.071 194.49 497.692 197.252 502.252 196.109Z" fill="white"/>
<path d="M177.206 434.875C178.053 433.953 178.688 432.857 179.066 431.663C179.444 430.469 179.555 429.206 179.392 427.965C179.229 426.723 178.796 425.532 178.123 424.476C177.45 423.42 176.554 422.524 175.498 421.851L182.518 392.23L167.66 397.659L163.271 424.955C162.259 426.805 161.961 428.962 162.433 431.017C162.905 433.072 164.115 434.882 165.832 436.105C167.55 437.327 169.656 437.878 171.753 437.651C173.849 437.424 175.789 436.437 177.206 434.875L177.206 434.875Z" fill="#FFB8B8"/>
<path d="M212.937 310.748L206.974 326.082C206.974 326.082 209.53 341.416 205.27 344.823C201.011 348.231 202.715 348.231 202.715 350.786C202.568 352.619 202.037 354.401 201.156 356.015C200.276 357.63 199.065 359.041 197.603 360.157C194.196 362.712 178.862 414.677 178.862 414.677H163.529C164.024 410.717 164.024 406.71 163.529 402.75C162.677 396.787 166.084 381.454 167.788 378.898C169.492 376.342 167.788 372.935 167.788 367.824C167.788 362.712 171.195 360.157 171.195 351.638C171.195 343.119 181.418 276.673 180.566 269.006C179.714 261.339 189.085 254.524 189.085 254.524H197.603L212.937 310.748Z" fill="#6C63FF"/>
<path d="M249.017 343.271L263.19 406.521L172.367 400.871L197.064 338.754L249.017 343.271Z" fill="#FFB8B8"/>
<path d="M233.892 635.193L244.094 635.192L248.948 595.841H233.89L233.892 635.193Z" fill="#FFB8B8"/>
<path d="M137.468 630.117L147.439 632.279L160.524 594.851L145.809 591.66L137.468 630.117Z" fill="#FFB8B8"/>
<path d="M265.512 459.411C258.352 498.761 256.562 515.751 256.562 515.751C256.562 515.751 261.932 522.011 258.352 525.591C254.772 529.171 258.352 536.321 258.352 536.321L248.98 611.16L246.98 622.16L228.212 619.511L230.98 609.16L226.162 537.221C226.162 537.221 222.582 530.061 224.372 528.271C226.162 526.481 222.582 515.751 222.582 515.751L218.112 430.791L190.382 523.801C190.382 523.801 193.072 527.381 190.382 530.061C187.702 532.741 182.342 546.161 182.342 546.161L161.98 600.16L157.98 608.16L155.852 607.151L146.492 605.391L144.772 605.071L141.712 604.491L139.742 604.121L139.072 604.001L135.832 603.391L136.812 599.041L143.98 588.16L151.272 534.791L151.591 533.361L151.931 531.851C151.931 531.851 150.141 527.381 152.821 524.691C153.605 523.872 154.178 522.873 154.49 521.783C154.802 520.692 154.844 519.542 154.611 518.431C154.524 518.338 154.443 518.237 154.371 518.131C154.055 517.697 153.837 517.199 153.731 516.671C153.491 515.551 153.701 513.981 155.511 512.171C156.021 511.63 156.449 511.017 156.781 510.351C159.501 505.201 160.871 494.291 160.871 494.291C160.871 494.291 163.291 407.881 171.211 394.681C171.631 393.991 180.039 380.745 180.479 380.475C189.419 375.115 259.193 381.518 259.193 381.518C259.193 381.518 263.411 392.851 263.601 394.031C264.632 400.661 271.582 426.031 265.512 459.411Z" fill="#2F2E41"/>
<path d="M337.915 267.299C337.758 268.541 337.331 269.734 336.663 270.793C335.995 271.853 335.103 272.753 334.05 273.43C332.996 274.107 331.807 274.545 330.566 274.713C329.325 274.881 328.062 274.775 326.867 274.403L308.779 298.888L303.332 284.036L321.343 263.062C322.102 261.095 323.557 259.475 325.431 258.508C327.305 257.542 329.468 257.297 331.511 257.819C333.554 258.341 335.334 259.595 336.514 261.342C337.695 263.089 338.193 265.209 337.915 267.299H337.915Z" fill="#FFB8B8"/>
<path d="M172.87 371.014C171.212 371.014 170.27 370.689 169.905 369.992C169.37 368.968 170.299 367.631 171.374 366.082C172.172 365.071 172.801 363.938 173.238 362.726C173.881 360.154 178.221 295.179 175.625 282.197C175.024 279.193 175.541 275.342 177.161 270.752C181.585 258.217 187.624 254.365 199.655 246.691C200.632 246.068 201.648 245.417 202.706 244.739C204.073 243.86 203.997 240.946 203.917 237.86C203.827 234.43 203.735 230.883 205.415 228.666L205.524 228.522L205.7 228.481C209.764 227.541 223.433 225.797 231.528 228.494L231.639 228.532L231.723 228.615C233.646 230.538 233.821 234.262 233.99 237.864C234.129 240.821 234.26 243.613 235.348 244.826C243.665 254.096 253.098 253.915 253.194 253.914L253.661 253.9L253.707 254.365C257.325 291.163 263.157 346.703 264.396 348.888C264.461 348.988 264.497 349.104 264.501 349.223C264.504 349.342 264.475 349.46 264.417 349.564C262.597 352.963 179.12 371.014 172.87 371.014Z" fill="#6C63FF"/>
<path d="M227.194 218.065C240.818 218.065 251.862 207.021 251.862 193.397C251.862 179.774 240.818 168.73 227.194 168.73C213.571 168.73 202.527 179.774 202.527 193.397C202.527 207.021 213.571 218.065 227.194 218.065Z" fill="#FFB8B8"/>
<path d="M243.675 238.488C242.505 236.818 236.575 216.421 233.976 210.16C233.71 211.505 230.73 216.722 230.661 218.111L230.635 218.625L230.124 218.691C229.356 218.789 211.213 220.991 201.772 210.285C196.178 203.943 194.909 194.431 197.996 182.007C197.434 181.897 196.897 181.69 196.406 181.395C195.59 180.83 194.906 180.093 194.404 179.237C193.901 178.381 193.591 177.425 193.496 176.437L192.973 176.577C190.311 177.295 187.308 178.245 185.369 180.439C183.209 182.879 182.825 186.194 182.417 189.703C182.258 191.378 181.994 193.042 181.626 194.684C180.311 199.991 176.607 204.962 170.619 209.458C164.59 213.986 158.443 216.576 152.349 217.155C145.15 217.842 138.208 215.477 133.785 210.834C128.852 205.658 127.562 197.693 130.716 191.897L131.224 190.963L131.781 191.868C134.589 196.425 140.725 198.886 146.703 197.852C151.829 196.965 156.91 193.711 161.011 188.687C164.755 184.102 167.337 178.687 169.835 173.45C172.375 168.124 175.001 162.618 178.784 157.945C183.051 152.675 188.376 149.233 193.779 148.253C197.713 147.542 201.224 148.348 203.413 150.469C204.959 152.062 205.874 154.163 205.99 156.38C207.336 156.079 208.739 156.16 210.041 156.613C211.297 157.124 212.392 157.965 213.208 159.048C214.025 160.13 214.534 161.414 214.68 162.762C222.608 158.592 233.099 159.271 238.525 162.399C240.797 163.709 242.102 165.359 242.333 167.2C248.742 167.558 255.636 173.801 255.636 182.646V183.262H255.02C249.947 183.262 245.316 186.179 242.632 191.065C241.056 193.913 240.276 197.132 240.374 200.385C240.472 203.638 241.444 206.805 243.189 209.552C245.088 212.466 246.384 215.731 247.002 219.154C247.62 222.577 247.546 226.089 246.786 229.483L244.471 239.625L243.675 238.488Z" fill="#2F2E41"/>
<path d="M271.992 330.742L255.732 321.595C227.378 301.942 220.393 286.334 219.52 276.698C218.588 266.415 224.067 260.791 224.3 260.558L224.427 260.465L239.085 252.976C240.946 252.025 242.989 251.48 245.078 251.378C247.166 251.277 249.252 251.62 251.198 252.385C253.143 253.151 254.904 254.321 256.363 255.819C257.822 257.316 258.946 259.107 259.66 261.072L273.218 298.36L288.25 287.273L294.661 284.747L299.834 277.83L314.041 269.543L324.595 279.042L311.322 305.587L303.948 307.465L302.384 311.494L302.245 311.582L271.992 330.742Z" fill="#6C63FF"/>
</g>
<path d="M493.368 184.515L432.098 199.867C431.454 200.029 430.784 200.064 430.127 199.968C429.47 199.872 428.839 199.647 428.269 199.307C427.699 198.967 427.202 198.519 426.807 197.987C426.411 197.455 426.125 196.85 425.963 196.207C425.802 195.564 425.77 194.896 425.868 194.241C425.966 193.585 426.193 192.955 426.535 192.386C426.877 191.818 427.328 191.322 427.862 190.928C428.396 190.533 429.003 190.248 429.648 190.087L490.917 174.735C491.561 174.573 492.231 174.539 492.888 174.635C493.545 174.731 494.177 174.955 494.746 175.295C495.316 175.635 495.813 176.084 496.209 176.616C496.604 177.148 496.891 177.752 497.052 178.395C497.213 179.038 497.245 179.706 497.147 180.362C497.049 181.018 496.823 181.648 496.481 182.216C496.138 182.784 495.687 183.28 495.153 183.675C494.619 184.069 494.012 184.355 493.368 184.515Z" fill="#3F3D56"/>
<path d="M499.798 210.186L438.528 225.538C437.884 225.7 437.214 225.735 436.557 225.638C435.9 225.542 435.268 225.318 434.699 224.978C434.129 224.638 433.632 224.189 433.236 223.658C432.841 223.126 432.554 222.521 432.393 221.878C432.232 221.235 432.2 220.567 432.298 219.911C432.396 219.256 432.622 218.626 432.965 218.057C433.307 217.489 433.758 216.993 434.292 216.599C434.826 216.204 435.433 215.919 436.077 215.758L497.347 200.406C497.991 200.244 498.661 200.21 499.318 200.306C499.975 200.402 500.606 200.626 501.176 200.966C501.746 201.306 502.243 201.755 502.639 202.287C503.034 202.819 503.321 203.423 503.482 204.066C503.643 204.709 503.675 205.377 503.577 206.033C503.479 206.688 503.252 207.318 502.91 207.887C502.568 208.455 502.117 208.951 501.583 209.345C501.049 209.74 500.442 210.026 499.798 210.186Z" fill="#3F3D56"/>
<path d="M410.754 248.031L365.979 259.25C364.516 259.615 362.969 259.386 361.677 258.614C360.385 257.842 359.453 256.589 359.086 255.131L345.878 202.42C345.514 200.961 345.746 199.417 346.521 198.127C347.296 196.836 348.553 195.905 350.015 195.537L394.79 184.318C396.253 183.953 397.8 184.182 399.092 184.955C400.384 185.727 401.316 186.98 401.683 188.438L414.891 241.148C415.254 242.607 415.023 244.151 414.248 245.442C413.472 246.732 412.216 247.663 410.754 248.031Z" fill="#CDD6E2"/>
<path d="M512.544 262.857L374.075 297.552C372.775 297.878 371.399 297.675 370.25 296.988C369.101 296.302 368.273 295.187 367.948 293.89C367.623 292.593 367.828 291.22 368.517 290.073C369.207 288.926 370.324 288.098 371.624 287.772L510.093 253.077C511.393 252.752 512.769 252.954 513.918 253.641C515.067 254.328 515.895 255.442 516.22 256.739C516.545 258.036 516.341 259.409 515.651 260.556C514.962 261.704 513.844 262.531 512.544 262.857Z" fill="#CCCCCC"/>
<path d="M518.974 288.529L380.505 323.224C379.206 323.547 377.831 323.343 376.684 322.656C375.537 321.969 374.71 320.856 374.385 319.56C374.061 318.265 374.265 316.893 374.953 315.746C375.641 314.6 376.756 313.772 378.054 313.444L516.523 278.749C517.167 278.587 517.837 278.553 518.494 278.649C519.151 278.745 519.783 278.969 520.353 279.309C520.922 279.649 521.419 280.098 521.815 280.63C522.21 281.161 522.497 281.766 522.658 282.409C522.819 283.052 522.851 283.72 522.753 284.376C522.655 285.031 522.429 285.661 522.087 286.23C521.744 286.798 521.293 287.294 520.759 287.688C520.225 288.083 519.618 288.368 518.974 288.529Z" fill="#CCCCCC"/>
<path d="M525.407 314.199L386.938 348.894C385.639 349.217 384.265 349.013 383.118 348.326C381.97 347.639 381.144 346.526 380.819 345.23C380.494 343.935 380.698 342.563 381.386 341.416C382.074 340.269 383.19 339.441 384.488 339.114L522.957 304.419C523.601 304.257 524.271 304.222 524.928 304.319C525.585 304.415 526.216 304.639 526.786 304.979C527.356 305.319 527.853 305.768 528.248 306.299C528.644 306.831 528.93 307.436 529.091 308.079C529.253 308.722 529.285 309.39 529.187 310.046C529.089 310.701 528.862 311.331 528.52 311.9C528.178 312.468 527.727 312.964 527.193 313.358C526.659 313.753 526.052 314.038 525.407 314.199Z" fill="#CCCCCC"/>
<path d="M531.837 339.871L393.368 374.566C392.069 374.889 390.695 374.685 389.547 373.998C388.4 373.311 387.573 372.198 387.249 370.902C386.924 369.607 387.128 368.235 387.816 367.088C388.504 365.941 389.619 365.113 390.918 364.786L529.387 330.091C530.031 329.929 530.7 329.894 531.358 329.99C532.015 330.086 532.646 330.311 533.216 330.651C533.786 330.991 534.282 331.439 534.678 331.971C535.074 332.503 535.36 333.108 535.521 333.751C535.682 334.394 535.715 335.062 535.617 335.717C535.519 336.373 535.292 337.003 534.95 337.571C534.608 338.14 534.157 338.636 533.623 339.03C533.088 339.425 532.482 339.71 531.837 339.871Z" fill="#CCCCCC"/>
<path d="M538.271 365.54L399.802 400.235C398.502 400.559 397.128 400.354 395.981 399.667C394.834 398.981 394.007 397.867 393.682 396.572C393.358 395.276 393.562 393.904 394.25 392.757C394.938 391.611 396.053 390.783 397.351 390.455L535.82 355.76C536.464 355.598 537.134 355.564 537.791 355.66C538.448 355.756 539.08 355.98 539.649 356.32C540.219 356.66 540.716 357.109 541.112 357.641C541.507 358.173 541.794 358.777 541.955 359.42C542.116 360.063 542.148 360.731 542.05 361.387C541.952 362.043 541.726 362.673 541.383 363.241C541.041 363.809 540.59 364.305 540.056 364.7C539.522 365.094 538.915 365.38 538.271 365.54Z" fill="#CCCCCC"/>
<path d="M538.022 157.587C576.777 147.877 600.341 108.664 590.654 70.0024C580.967 31.3412 541.697 7.87202 502.942 17.5826C464.187 27.2931 440.622 66.5061 450.309 105.167C459.996 143.829 499.267 167.298 538.022 157.587Z" fill="#464BA8"/>
<path d="M530 127.973C533.683 127.05 535.922 123.325 535.001 119.651C534.081 115.978 530.35 113.748 526.667 114.671C522.985 115.593 520.746 119.319 521.667 122.992C522.587 126.666 526.318 128.896 530 127.973Z" fill="white"/>
<path d="M506.715 42.1447C500.506 43.7659 495.173 47.7402 491.852 53.2219C488.53 58.7036 487.482 65.2599 488.93 71.4956C488.958 71.6149 489.167 72.4507 489.441 73.5436C489.843 75.1461 490.866 76.5231 492.286 77.3716C493.705 78.2202 495.405 78.4709 497.012 78.0686C498.619 77.6655 500.001 76.6418 500.854 75.2228C501.706 73.8039 501.959 72.1058 501.557 70.5022L501.556 70.4983C501.369 69.755 501.239 69.2405 501.231 69.2089C500.733 67.2196 500.761 65.1344 501.315 63.1585C501.869 61.1825 502.928 59.3837 504.389 57.9392C505.85 56.4947 507.663 55.4541 509.648 54.9199C511.633 54.3857 513.723 54.3761 515.712 54.8923C517.7 55.4084 519.52 56.4325 520.991 57.8637C522.461 59.2948 523.533 61.0839 524.1 63.0548C524.668 65.0256 524.711 67.1105 524.225 69.1042C523.74 71.098 522.743 72.9319 521.333 74.4257L521.336 74.4277C521.336 74.4277 514.102 82.1243 513.377 90.3779L513.379 90.3779C513.307 92.0496 513.477 93.7227 513.885 95.3453C514.052 96.0123 515.554 101.839 516.817 106.557C517.253 108.185 518.313 109.576 519.768 110.43C521.224 111.284 522.958 111.532 524.597 111.121C525.417 110.915 526.189 110.55 526.868 110.047C527.547 109.544 528.121 108.913 528.556 108.189C528.991 107.465 529.279 106.663 529.403 105.828C529.528 104.994 529.486 104.143 529.281 103.325L529.271 103.287C528.158 98.9549 526.878 93.9066 526.786 93.54C525.617 88.8764 528.963 83.0997 531.909 79.1413C535.328 74.6024 537.143 69.0607 537.067 63.3857C537.064 62.213 536.931 61.0444 536.671 59.9009C535.889 56.7794 534.498 53.8428 532.578 51.2588C530.658 48.6749 528.246 46.4943 525.48 44.8414C522.715 43.1885 519.649 42.0957 516.459 41.6255C513.269 41.1553 510.016 41.3168 506.887 42.1009C506.829 42.1153 506.772 42.1299 506.715 42.1447Z" fill="white"/>
<defs>
<clipPath id="clip0_67_379">
<rect width="560.622" height="564.108" fill="white" transform="translate(0.359375 196.258) rotate(-14.0665)"/>
</clipPath>
</defs>
</svg>
