<svg width="698" height="541" viewBox="0 0 698 541" fill="none" xmlns="http://www.w3.org/2000/svg">
<path d="M615.755 57.6582H203.755C201.546 57.6582 199.755 59.4491 199.755 61.6582V613.658C199.755 615.867 201.546 617.658 203.755 617.658H615.755C617.964 617.658 619.755 615.867 619.755 613.658V61.6582C619.755 59.4491 617.964 57.6582 615.755 57.6582Z" fill="white"/>
<path d="M615.755 617.658H203.755C202.694 617.656 201.678 617.235 200.928 616.485C200.178 615.735 199.756 614.718 199.755 613.658V61.6577C199.756 60.5972 200.178 59.5805 200.928 58.8306C201.678 58.0807 202.694 57.6589 203.755 57.6577H615.755C616.815 57.6589 617.832 58.0807 618.582 58.8306C619.332 59.5805 619.754 60.5972 619.755 61.6577V613.658C619.754 614.718 619.332 615.735 618.582 616.485C617.832 617.235 616.815 617.656 615.755 617.658ZM203.755 59.6577C203.225 59.6583 202.716 59.8692 202.341 60.2441C201.966 60.6191 201.755 61.1275 201.755 61.6577V613.658C201.755 614.188 201.966 614.696 202.341 615.071C202.716 615.446 203.225 615.657 203.755 615.658H615.755C616.285 615.657 616.794 615.446 617.168 615.071C617.543 614.696 617.754 614.188 617.755 613.658V61.6577C617.754 61.1275 617.543 60.6191 617.168 60.2441C616.794 59.8692 616.285 59.6583 615.755 59.6577H203.755Z" fill="#CACACA"/>
<path d="M556.752 183.03H262.752C260.763 183.03 258.855 182.24 257.449 180.833C256.042 179.427 255.252 177.519 255.252 175.53C255.252 173.541 256.042 171.633 257.449 170.227C258.855 168.82 260.763 168.03 262.752 168.03H556.752C558.741 168.03 560.649 168.82 562.055 170.227C563.462 171.633 564.252 173.541 564.252 175.53C564.252 177.519 563.462 179.427 562.055 180.833C560.649 182.24 558.741 183.03 556.752 183.03Z" fill="#E6E6E6"/>
<path d="M556.752 231.53H262.752C260.763 231.53 258.855 230.74 257.449 229.333C256.042 227.927 255.252 226.019 255.252 224.03C255.252 222.041 256.042 220.133 257.449 218.727C258.855 217.32 260.763 216.53 262.752 216.53H556.752C558.741 216.53 560.649 217.32 562.055 218.727C563.462 220.133 564.252 222.041 564.252 224.03C564.252 226.019 563.462 227.927 562.055 229.333C560.649 230.74 558.741 231.53 556.752 231.53Z" fill="#E6E6E6"/>
<path d="M556.752 280.03H262.752C260.763 280.03 258.855 279.24 257.449 277.833C256.042 276.427 255.252 274.519 255.252 272.53C255.252 270.541 256.042 268.633 257.449 267.227C258.855 265.82 260.763 265.03 262.752 265.03H556.752C558.741 265.03 560.649 265.82 562.055 267.227C563.462 268.633 564.252 270.541 564.252 272.53C564.252 274.519 563.462 276.427 562.055 277.833C560.649 279.24 558.741 280.03 556.752 280.03Z" fill="#E6E6E6"/>
<path d="M556.752 328.53H262.752C260.763 328.53 258.855 327.74 257.449 326.333C256.042 324.927 255.252 323.019 255.252 321.03C255.252 319.041 256.042 317.133 257.449 315.727C258.855 314.32 260.763 313.53 262.752 313.53H556.752C558.741 313.53 560.649 314.32 562.055 315.727C563.462 317.133 564.252 319.041 564.252 321.03C564.252 323.019 563.462 324.927 562.055 326.333C560.649 327.74 558.741 328.53 556.752 328.53Z" fill="#E6E6E6"/>
<path d="M556.752 377.03H262.752C260.763 377.03 258.855 376.24 257.449 374.833C256.042 373.427 255.252 371.519 255.252 369.53C255.252 367.541 256.042 365.633 257.449 364.227C258.855 362.82 260.763 362.03 262.752 362.03H556.752C558.741 362.03 560.649 362.82 562.055 364.227C563.462 365.633 564.252 367.541 564.252 369.53C564.252 371.519 563.462 373.427 562.055 374.833C560.649 376.24 558.741 377.03 556.752 377.03Z" fill="#E6E6E6"/>
<path d="M262.351 276.504C262.171 277.13 262.041 277.77 261.962 278.416L209.851 304.719L197.975 296.969L183.937 313.363L203.628 329.126C205.218 330.399 207.179 331.122 209.216 331.186C211.253 331.25 213.255 330.652 214.923 329.481L269.274 291.322C271.575 292.323 274.126 292.6 276.588 292.116C279.05 291.631 281.306 290.409 283.056 288.611C284.806 286.814 285.968 284.526 286.386 282.052C286.804 279.578 286.459 277.035 285.397 274.762C284.335 272.489 282.606 270.593 280.44 269.327C278.274 268.06 275.774 267.483 273.272 267.672C270.77 267.862 268.385 268.808 266.434 270.386C264.483 271.963 263.059 274.097 262.35 276.504L262.351 276.504Z" fill="#FFB6B6"/>
<path d="M208.143 305.712L190.868 326.138C190.376 326.719 189.765 327.187 189.076 327.511C188.388 327.835 187.637 328.006 186.876 328.014C186.115 328.021 185.361 327.865 184.666 327.554C183.971 327.244 183.351 326.788 182.848 326.217L165.228 306.196C162.268 303.665 160.432 300.063 160.124 296.18C159.816 292.297 161.06 288.451 163.584 285.484C166.108 282.517 169.705 280.673 173.587 280.355C177.47 280.037 181.319 281.272 184.292 283.789L206.889 297.791C207.536 298.192 208.089 298.727 208.51 299.361C208.931 299.995 209.211 300.713 209.33 301.465C209.449 302.216 209.404 302.985 209.199 303.718C208.995 304.451 208.634 305.131 208.143 305.712L208.143 305.712Z" fill="#6C63FF"/>
<path d="M140.336 473.432L143.822 485.185L190.817 477.332L185.671 459.985L140.336 473.432Z" fill="#FFB6B6"/>
<path d="M143.284 469.295L150.15 492.443L150.15 492.444C151.31 496.356 150.869 500.569 148.923 504.156C146.977 507.742 143.686 510.409 139.774 511.57L139.294 511.712L128.053 473.813L143.284 469.295Z" fill="#2F2E41"/>
<path d="M559.276 486.087H364.227C361.479 486.087 359.251 482.729 359.251 478.587C359.251 474.445 361.479 471.087 364.227 471.087H559.276C562.024 471.087 564.252 474.445 564.252 478.587C564.252 482.729 562.024 486.087 559.276 486.087Z" fill="#E6E6E6"/>
<path d="M559.276 529.087H364.227C361.479 529.087 359.251 525.729 359.251 521.587C359.251 517.445 361.479 514.087 364.227 514.087H559.276C562.024 514.087 564.252 517.445 564.252 521.587C564.252 525.729 562.024 529.087 559.276 529.087Z" fill="#E6E6E6"/>
<path d="M619.755 115.318C651.599 115.318 677.414 89.5032 677.414 57.659C677.414 25.8148 651.599 0 619.755 0C587.911 0 562.096 25.8148 562.096 57.659C562.096 89.5032 587.911 115.318 619.755 115.318Z" fill="#464BA8"/>
<path d="M595.731 53.8531C594.722 53.8531 593.754 54.254 593.04 54.9676C592.327 55.6812 591.926 56.649 591.926 57.6581C591.926 58.6673 592.327 59.6351 593.04 60.3487C593.754 61.0622 594.722 61.4631 595.731 61.4631H615.951V81.6821C615.953 82.6896 616.355 83.6551 617.068 84.3667C617.781 85.0783 618.748 85.4779 619.755 85.4779C620.763 85.4779 621.729 85.0783 622.442 84.3667C623.156 83.6551 623.557 82.6896 623.56 81.6821V61.4631H643.78C644.789 61.4631 645.757 61.0622 646.47 60.3487C647.184 59.6351 647.585 58.6673 647.585 57.6581C647.585 56.649 647.184 55.6812 646.47 54.9676C645.757 54.254 644.789 53.8531 643.78 53.8531H623.56V33.6331C623.56 32.6241 623.159 31.6564 622.445 30.9429C621.732 30.2294 620.764 29.8286 619.755 29.8286C618.746 29.8286 617.779 30.2294 617.065 30.9429C616.352 31.6564 615.951 32.6241 615.951 33.6331V53.8531H595.731Z" fill="white"/>
<path d="M266.99 449.249C265.22 452.198 262.722 454.643 259.736 456.349C256.75 458.055 253.375 458.964 249.936 458.99L176.252 482.579L172.883 463.038L217.5 438.829L174.273 407.696L205.943 370.636L263.465 424.249C266.826 427.383 269.01 431.575 269.652 436.125C270.293 440.676 269.354 445.308 266.99 449.249Z" fill="#2F2E41"/>
<path d="M160.122 582.888H141.929C125.594 470.919 108.967 358.638 158.101 316.728L216.05 326.162L208.638 375.351L176.295 412.411L160.122 582.888Z" fill="#2F2E41"/>
<path d="M212.507 346.449C187.981 363.162 156.299 359.232 143.075 334.329C162.075 302.329 166.075 279.329 150.78 268.829C148.329 260.089 149.243 250.748 153.343 242.65C157.443 234.552 164.43 228.285 172.925 225.087L201.899 237.216C226.499 257.27 231.344 278.992 222.114 301.903L212.507 346.449Z" fill="#6C63FF"/>
<path d="M42.341 570.056C46.0615 571.364 50.0562 571.692 53.9401 571.008C57.824 570.323 61.4663 568.651 64.516 566.15C72.283 559.631 74.716 548.891 76.699 538.95L82.559 509.536L70.291 517.981C61.468 524.057 52.445 530.327 46.336 539.127C40.227 547.927 37.56 559.94 42.469 569.462" fill="#E6E6E6"/>
<path d="M44.2359 607.713C42.6879 596.462 41.1029 585.068 42.1879 573.695C43.1499 563.595 46.2309 553.732 52.5039 545.644C55.8334 541.359 59.8848 537.687 64.476 534.795C65.676 534.039 66.776 535.937 65.583 536.689C57.6391 541.709 51.4948 549.123 48.036 557.861C44.216 567.578 43.6019 578.17 44.2609 588.493C44.6609 594.735 45.5029 600.937 46.3529 607.13C46.42 607.41 46.3783 607.705 46.2361 607.955C46.0939 608.206 45.8618 608.393 45.587 608.479C45.3065 608.555 45.0072 608.518 44.7544 608.374C44.5017 608.23 44.316 607.993 44.238 607.713H44.2359Z" fill="#F2F2F2"/>
<path d="M121.97 366.196C123.5 365.84 124.933 365.154 126.169 364.185C127.405 363.216 128.413 361.988 129.123 360.587C129.833 359.186 130.227 357.646 130.277 356.076C130.327 354.507 130.033 352.945 129.415 351.501L169.017 262.029L146.362 256.323L114.558 346.066C112.202 347.265 110.367 349.288 109.403 351.749C108.438 354.211 108.409 356.941 109.323 359.423C110.237 361.904 112.029 363.964 114.36 365.212C116.69 366.461 119.398 366.811 121.97 366.196V366.196Z" fill="#FFB6B6"/>
<path d="M163.656 278.031L141.622 267.717C140.995 267.424 140.439 266.998 139.991 266.471C139.544 265.943 139.215 265.325 139.027 264.658C138.84 263.992 138.799 263.293 138.906 262.609C139.013 261.925 139.266 261.273 139.648 260.695L153.039 240.473C154.56 237.276 157.286 234.813 160.619 233.622C163.953 232.431 167.623 232.611 170.825 234.121C174.027 235.631 176.5 238.349 177.701 241.679C178.903 245.009 178.736 248.679 177.237 251.886L170.312 275.049C170.114 275.712 169.775 276.325 169.318 276.845C168.862 277.365 168.299 277.781 167.667 278.064C167.035 278.347 166.35 278.49 165.658 278.485C164.965 278.479 164.283 278.324 163.656 278.031H163.656Z" fill="#6C63FF"/>
<path d="M212.529 218.499H154.529C153.336 218.498 152.192 218.023 151.349 217.18C150.505 216.336 150.031 215.192 150.029 213.999V188.999C150.029 180.114 153.559 171.593 159.841 165.311C166.124 159.028 174.645 155.499 183.529 155.499C192.414 155.499 200.935 159.028 207.217 165.311C213.5 171.593 217.029 180.114 217.029 188.999V213.999C217.028 215.192 216.553 216.336 215.71 217.18C214.866 218.023 213.722 218.498 212.529 218.499Z" fill="#2F2E41"/>
<path d="M191.797 218.119C205.362 218.119 216.358 207.123 216.358 193.558C216.358 179.993 205.362 168.997 191.797 168.997C178.233 168.997 167.236 179.993 167.236 193.558C167.236 207.123 178.233 218.119 191.797 218.119Z" fill="#FFB6B6"/>
<path d="M224.955 191.499H189.489L189.125 186.407L187.307 191.499H181.846L181.125 181.407L177.521 191.499H166.955V190.999C166.962 183.973 169.757 177.237 174.725 172.269C179.693 167.301 186.429 164.507 193.454 164.499H198.455C205.48 164.507 212.216 167.301 217.184 172.269C222.152 177.237 224.947 183.973 224.955 190.999V191.499Z" fill="#2F2E41"/>
</svg>
