<svg width="716" height="591" viewBox="0 0 716 591" fill="none" xmlns="http://www.w3.org/2000/svg">
<path d="M712.254 180.868H232.254V559.868H712.254V180.868Z" fill="#F2F2F2"/>
<path d="M645.254 515.868H163.254V134.868H645.254V515.868ZM165.254 513.868H643.254V136.868H165.254V513.868Z" fill="#3F3D56"/>
<path d="M337.254 438.238L336.973 240.238L561.113 338.921L337.254 438.238Z" fill="#D0CDE1"/>
<path d="M295.394 438.027L295.114 240.027L519.254 338.709L295.394 438.027Z" fill="#464BA8"/>
<path opacity="0.2" d="M504.932 332.404L295.376 425.375L295.394 438.027L519.254 338.709L504.932 332.404Z" fill="black"/>
<path d="M504.883 28.4546H291.48V30.8524H504.883V28.4546Z" fill="#3F3D56"/>
<path d="M504.883 45.2388H291.48V47.6366H504.883V45.2388Z" fill="#3F3D56"/>
<path d="M504.883 62.0234H291.48V64.4212H504.883V62.0234Z" fill="#3F3D56"/>
<path d="M155.293 160.494C156.963 148.386 159.057 135.388 167.694 126.648C170.435 123.874 173.715 121.679 177.337 120.193C180.96 118.707 184.849 117.961 188.77 118.002C192.691 118.042 196.564 118.866 200.154 120.426C203.745 121.986 206.978 124.248 209.66 127.077C215.948 133.708 218.724 143.02 218.979 152.105C219.233 161.191 217.186 170.176 214.915 178.983C202.899 179.221 190.973 176.9 179.944 172.178C177.241 170.874 174.437 169.786 171.559 168.924C168.645 168.191 166.568 170.035 163.858 171.322L162.37 168.506C161.153 170.746 157.381 170.082 156.014 167.928C154.646 165.773 154.945 163.014 155.293 160.494Z" fill="#2F2E41"/>
<path d="M205.467 212L202 194.277L227.996 183.015L274.47 160.734C274.794 158.666 275.737 156.746 277.176 155.227C278.614 153.708 280.479 152.661 282.525 152.226C284.57 151.791 286.699 151.987 288.631 152.789C290.562 153.591 292.205 154.961 293.342 156.718C294.478 158.475 295.055 160.535 294.996 162.627C294.937 164.719 294.244 166.744 293.01 168.433C291.776 170.123 290.059 171.398 288.085 172.089C286.111 172.78 283.974 172.856 281.956 172.306L237.706 199.633L205.467 212Z" fill="#FFB8B8"/>
<path d="M223 209.116L203.972 190L203.595 190.112C203.359 190.183 179.717 197.266 164.645 204.463C162.941 205.215 161.425 206.322 160.202 207.709C158.979 209.095 158.078 210.727 157.563 212.491C156.812 214.96 156.812 217.592 157.563 220.061C158.313 222.53 159.78 224.731 161.785 226.392C163.847 228.205 166.395 229.397 169.127 229.824C171.859 230.251 174.658 229.897 177.19 228.802L223 209.116Z" fill="#6C63FF"/>
<path d="M223 292.865L169.753 307L159 257.028L207.873 242L223 292.865Z" fill="#FFB8B8"/>
<path d="M163.887 280L215.608 268.115L225.512 244.128C226.318 240.704 226.122 237.121 224.948 233.805C223.774 230.489 221.671 227.58 218.889 225.425L199.993 209.483L189.862 196.552L190.965 189.699C191.162 188.329 190.875 186.934 190.152 185.754C189.429 184.574 188.316 183.683 187.005 183.236L173.504 178.398C172.012 177.84 170.363 177.87 168.892 178.481C167.42 179.093 166.236 180.24 165.58 181.691L164.149 184.999C164.149 184.999 158.044 187.87 154.602 189.485C152.83 190.29 151.249 191.459 149.962 192.917C148.674 194.374 147.709 196.087 147.13 197.943C141.862 214.957 143.282 233.336 151.101 249.34L163.887 280Z" fill="#6C63FF"/>
<path d="M193 240.634L208.302 231L228.405 250.919L266.354 285.75C268.407 285.298 270.551 285.473 272.501 286.25C274.452 287.026 276.117 288.369 277.277 290.1C278.437 291.831 279.037 293.869 278.998 295.943C278.959 298.018 278.282 300.032 277.057 301.719C275.833 303.406 274.118 304.687 272.139 305.391C270.161 306.096 268.012 306.191 265.977 305.665C263.943 305.138 262.118 304.015 260.745 302.443C259.371 300.871 258.514 298.925 258.286 296.862L216.435 265.917L193 240.634Z" fill="#FFB8B8"/>
<path d="M192 176C178.745 176 168 165.255 168 152C168 138.745 178.745 128 192 128C205.255 128 216 138.745 216 152C216 165.255 205.255 176 192 176Z" fill="#FFB8B8"/>
<path d="M229 574H239.163L244 536H229V574Z" fill="#FFB8B8"/>
<path d="M224 591H231.166L232.445 584.534L235.721 591H254.727C255.638 591 256.526 590.722 257.259 590.206C257.993 589.69 258.535 588.963 258.806 588.132C259.078 587.3 259.064 586.408 258.766 585.585C258.469 584.762 257.905 584.051 257.155 583.556L241.977 573.537V567L226.013 567.911L224 591Z" fill="#2F2E41"/>
<path d="M105 566.351L114.298 570L133 536.385L119.276 531L105 566.351Z" fill="#FFB8B8"/>
<path d="M94 579.811L100.58 582.353L104.228 576.778L104.763 583.968L122.215 590.709C123.052 591.033 123.973 591.088 124.844 590.867C125.716 590.646 126.491 590.161 127.058 589.482C127.625 588.803 127.953 587.967 127.995 587.094C128.037 586.221 127.791 585.358 127.292 584.631L117.186 569.908L119.686 563.813L104.679 559L94 579.811Z" fill="#2F2E41"/>
<path d="M225.501 557H246L240.335 461.488L244.476 396.748L244.468 396.696L229.021 303.895C227.807 296.577 224.523 289.751 219.552 284.21L219.364 284L167.672 296.662L162.474 308.415C144.727 318.883 139.123 377.913 138.892 380.428L131.379 454.015L113 544.205L125.943 551.116L126.16 550.688L167.019 470.108L192.824 385.132L209.349 461.612L225.501 557Z" fill="#2F2E41"/>
<path d="M162.608 152.891C163.458 147.32 164.346 141.702 166.344 136.456C168.342 131.21 171.562 126.297 176.18 123.325C183.494 118.62 192.962 119.528 201.162 122.234C207.503 124.327 213.692 127.508 218.164 132.622C222.636 137.737 225.147 145.034 223.484 151.721C214.738 149.66 205.991 147.599 197.245 145.538L198.203 146.213C195.331 147.641 192.823 149.703 190.869 152.243C188.916 154.782 187.568 157.732 186.928 160.868C186.303 164.043 186.393 167.317 187.191 170.453C187.99 173.588 189.477 176.508 191.546 179C185.581 176.889 179.616 174.779 173.651 172.668C169.969 171.366 166.028 169.864 163.845 166.523C161.314 162.649 161.902 157.514 162.608 152.891Z" fill="#2F2E41"/>
</svg>
