<svg width="685" height="620" viewBox="0 0 685 620" fill="none" xmlns="http://www.w3.org/2000/svg">
<path d="M400.132 -6.27202L378.009 -2.56193L105.446 43.1473L83.3231 46.8574C72.5836 48.6709 63.002 54.6703 56.6804 63.5395C50.3589 72.4086 47.8135 83.4232 49.6028 94.1667L111.988 466.166C113.801 476.906 119.801 486.487 128.67 492.809C137.539 499.13 148.553 501.676 159.297 499.886L159.354 499.877L476.049 446.767L476.106 446.757C486.845 444.944 496.427 438.944 502.749 430.075C509.07 421.206 511.616 410.191 509.826 399.448L447.441 27.4484C445.628 16.7089 439.628 7.12735 430.759 0.805719C421.89 -5.51591 410.876 -8.0613 400.132 -6.27202Z" fill="#F2F2F2"/>
<path d="M402.078 5.39128L375.875 9.78565L111.472 54.1265L85.2685 58.5208C77.6207 59.8122 70.7974 64.0845 66.2956 70.4004C61.7938 76.7163 59.9812 84.56 61.2554 92.2107L123.64 464.21C124.932 471.858 129.204 478.681 135.52 483.183C141.836 487.685 149.68 489.497 157.33 488.223L157.388 488.213L474.082 435.103L474.14 435.094C481.788 433.802 488.611 429.53 493.112 423.214C497.614 416.898 499.427 409.054 498.152 401.404L435.767 29.4044C434.476 21.7566 430.204 14.9334 423.888 10.4316C417.572 5.92985 409.729 4.11717 402.078 5.39128Z" fill="white"/>
<path d="M372.54 121.554L212.331 148.421C210.542 148.721 208.707 148.298 207.229 147.245C205.752 146.192 204.753 144.595 204.453 142.806C204.153 141.016 204.576 139.181 205.629 137.703C206.682 136.226 208.279 135.227 210.069 134.927L370.277 108.06C372.065 107.762 373.899 108.186 375.375 109.239C376.851 110.292 377.849 111.888 378.149 113.676C378.449 115.465 378.027 117.299 376.975 118.776C375.923 120.253 374.328 121.252 372.54 121.554Z" fill="#F2F2F2"/>
<path d="M404.195 139.658L216.156 171.192C214.367 171.492 212.532 171.069 211.054 170.016C209.577 168.963 208.578 167.366 208.278 165.577C207.978 163.788 208.401 161.952 209.454 160.475C210.507 158.997 212.104 157.999 213.893 157.699L401.932 126.164C403.721 125.864 405.557 126.287 407.034 127.34C408.512 128.393 409.51 129.99 409.81 131.78C410.11 133.569 409.687 135.404 408.634 136.882C407.581 138.359 405.984 139.358 404.195 139.658Z" fill="#F2F2F2"/>
<path d="M389.654 223.6L229.446 250.467C228.56 250.615 227.654 250.588 226.778 250.386C225.903 250.184 225.076 249.812 224.344 249.291C223.612 248.769 222.991 248.109 222.514 247.347C222.038 246.586 221.716 245.737 221.568 244.851C221.419 243.965 221.447 243.059 221.648 242.183C221.85 241.308 222.222 240.481 222.744 239.749C223.265 239.018 223.926 238.396 224.687 237.92C225.449 237.443 226.297 237.122 227.183 236.973L387.391 210.106C388.277 209.957 389.184 209.985 390.059 210.187C390.935 210.388 391.762 210.761 392.493 211.282C393.225 211.803 393.847 212.464 394.323 213.226C394.799 213.987 395.121 214.835 395.27 215.721C395.418 216.607 395.391 217.514 395.189 218.389C394.987 219.265 394.615 220.092 394.094 220.823C393.572 221.555 392.912 222.177 392.15 222.653C391.388 223.129 390.54 223.451 389.654 223.6Z" fill="#F2F2F2"/>
<path d="M421.302 241.704L233.264 273.238C232.378 273.387 231.471 273.359 230.596 273.158C229.72 272.956 228.893 272.584 228.161 272.062C227.43 271.541 226.808 270.88 226.332 270.119C225.856 269.357 225.534 268.509 225.385 267.623C225.237 266.737 225.264 265.83 225.466 264.955C225.668 264.079 226.04 263.252 226.561 262.521C227.083 261.789 227.743 261.168 228.505 260.691C229.267 260.215 230.115 259.893 231.001 259.745L419.039 228.21C420.829 227.91 422.664 228.333 424.142 229.386C425.619 230.439 426.618 232.036 426.918 233.826C427.218 235.615 426.795 237.45 425.742 238.928C424.689 240.405 423.092 241.404 421.302 241.704Z" fill="#F2F2F2"/>
<path d="M406.769 325.647L246.561 352.514C244.772 352.813 242.938 352.389 241.462 351.336C239.985 350.283 238.988 348.686 238.688 346.898C238.388 345.109 238.81 343.275 239.862 341.798C240.914 340.32 242.51 339.322 244.298 339.02L404.506 312.153C406.296 311.853 408.131 312.276 409.609 313.329C411.086 314.382 412.085 315.979 412.385 317.769C412.685 319.558 412.262 321.393 411.209 322.871C410.156 324.348 408.559 325.347 406.769 325.647Z" fill="#F2F2F2"/>
<path d="M438.414 343.748L250.375 375.282C249.489 375.432 248.581 375.405 247.705 375.204C246.829 375.003 246.001 374.631 245.269 374.109C244.537 373.588 243.915 372.927 243.438 372.165C242.961 371.403 242.639 370.555 242.491 369.668C242.342 368.782 242.369 367.874 242.572 366.999C242.774 366.123 243.146 365.295 243.668 364.564C244.191 363.832 244.852 363.21 245.614 362.734C246.377 362.258 247.225 361.937 248.112 361.789L436.151 330.254C437.94 329.954 439.775 330.377 441.253 331.43C442.73 332.484 443.729 334.08 444.029 335.87C444.329 337.659 443.906 339.494 442.853 340.972C441.8 342.449 440.203 343.448 438.414 343.748Z" fill="#F2F2F2"/>
<path d="M182.005 187.549L125.309 197.057C124.451 197.2 123.572 196.996 122.864 196.492C122.156 195.987 121.676 195.222 121.532 194.364L113.068 143.897C112.925 143.039 113.129 142.159 113.633 141.451C114.138 140.743 114.903 140.264 115.761 140.119L172.457 130.611C173.315 130.468 174.194 130.671 174.903 131.176C175.611 131.681 176.09 132.446 176.235 133.304L184.698 183.771C184.841 184.629 184.638 185.509 184.133 186.217C183.628 186.925 182.863 187.404 182.005 187.549Z" fill="#E6E6E6"/>
<path d="M199.118 289.593L142.422 299.101C141.564 299.244 140.684 299.041 139.976 298.536C139.268 298.031 138.789 297.266 138.644 296.409L130.181 245.941C130.038 245.083 130.241 244.204 130.746 243.496C131.25 242.787 132.016 242.308 132.873 242.164L189.569 232.655C190.427 232.513 191.307 232.716 192.015 233.221C192.723 233.725 193.202 234.49 193.347 235.348L201.81 285.816C201.953 286.673 201.75 287.553 201.245 288.261C200.74 288.969 199.975 289.448 199.118 289.593Z" fill="#E6E6E6"/>
<path d="M216.223 391.638L159.527 401.146C158.669 401.289 157.79 401.086 157.082 400.581C156.373 400.076 155.894 399.311 155.749 398.454L147.286 347.986C147.143 347.128 147.346 346.249 147.851 345.54C148.356 344.832 149.121 344.353 149.979 344.208L206.675 334.7C207.533 334.557 208.412 334.761 209.12 335.266C209.828 335.77 210.308 336.535 210.452 337.393L218.916 387.86C219.059 388.718 218.855 389.598 218.351 390.306C217.846 391.014 217.081 391.493 216.223 391.638Z" fill="#E6E6E6"/>
<path d="M608.296 104.652L288.256 76.9875C277.404 76.0618 266.628 79.4785 258.292 86.4881C249.956 93.4977 244.74 103.528 243.79 114.378L211.307 490.171C210.381 501.023 213.798 511.799 220.807 520.135C227.817 528.471 237.847 533.686 248.697 534.636L568.737 562.3C579.589 563.226 590.365 559.81 598.701 552.8C607.037 545.79 612.252 535.76 613.202 524.91L645.686 149.117C646.612 138.265 643.195 127.489 636.185 119.153C629.176 110.817 619.146 105.602 608.296 104.652Z" fill="#E6E6E6"/>
<path d="M607.281 116.434L287.241 88.7698C279.513 88.1106 271.839 90.5437 265.903 95.5354C259.966 100.527 256.252 107.67 255.576 115.396L223.092 491.189C222.433 498.917 224.866 506.591 229.858 512.527C234.85 518.464 241.992 522.178 249.719 522.854L569.759 550.518C577.487 551.178 585.161 548.744 591.097 543.753C597.033 538.761 600.747 531.618 601.424 523.892L633.907 148.099C634.566 140.371 632.133 132.697 627.142 126.761C622.15 120.825 615.008 117.111 607.281 116.434Z" fill="white"/>
<path d="M541.257 318.769L379.415 304.779C378.52 304.703 377.648 304.45 376.85 304.037C376.051 303.623 375.342 303.056 374.763 302.369C374.185 301.681 373.747 300.886 373.475 300.029C373.204 299.172 373.104 298.269 373.181 297.374C373.259 296.478 373.512 295.606 373.927 294.809C374.341 294.011 374.909 293.303 375.597 292.724C376.286 292.146 377.081 291.709 377.939 291.439C378.796 291.168 379.698 291.069 380.594 291.148L542.436 305.138C544.242 305.296 545.911 306.164 547.077 307.553C548.243 308.941 548.811 310.735 548.655 312.542C548.498 314.348 547.632 316.018 546.245 317.186C544.858 318.354 543.064 318.923 541.257 318.769Z" fill="#E6E6E6"/>
<path d="M567.383 344.2L377.427 327.78C376.531 327.704 375.66 327.452 374.861 327.038C374.063 326.624 373.354 326.057 372.775 325.37C372.196 324.682 371.758 323.887 371.487 323.03C371.216 322.173 371.116 321.271 371.193 320.375C371.271 319.479 371.524 318.608 371.938 317.81C372.353 317.012 372.92 316.304 373.609 315.726C374.297 315.147 375.093 314.711 375.95 314.44C376.808 314.17 377.71 314.071 378.605 314.149L568.562 330.569C570.369 330.725 572.041 331.593 573.209 332.982C574.376 334.37 574.944 336.166 574.788 337.974C574.632 339.781 573.764 341.453 572.375 342.62C570.987 343.788 569.191 344.356 567.383 344.2Z" fill="#E6E6E6"/>
<path d="M532.347 421.853L370.505 407.864C369.609 407.787 368.737 407.535 367.939 407.121C367.141 406.708 366.432 406.141 365.853 405.453C365.274 404.765 364.836 403.97 364.565 403.113C364.293 402.256 364.193 401.354 364.271 400.458C364.348 399.562 364.601 398.691 365.016 397.893C365.43 397.095 365.998 396.387 366.686 395.809C367.375 395.231 368.171 394.794 369.028 394.523C369.885 394.253 370.787 394.154 371.683 394.232L533.525 408.222C535.333 408.378 537.004 409.246 538.172 410.635C539.34 412.023 539.908 413.819 539.751 415.627C539.595 417.434 538.727 419.106 537.339 420.273C535.95 421.441 534.154 422.009 532.347 421.853Z" fill="#E6E6E6"/>
<path d="M558.473 447.286L368.517 430.866C367.621 430.79 366.749 430.537 365.951 430.124C365.152 429.71 364.444 429.143 363.865 428.456C363.286 427.768 362.848 426.973 362.576 426.116C362.305 425.258 362.205 424.356 362.282 423.461C362.36 422.565 362.613 421.693 363.028 420.896C363.442 420.098 364.01 419.39 364.698 418.811C365.387 418.233 366.182 417.796 367.04 417.526C367.897 417.255 368.799 417.156 369.695 417.235L559.651 433.655C560.547 433.731 561.419 433.983 562.217 434.397C563.015 434.811 563.724 435.377 564.303 436.065C564.882 436.753 565.32 437.548 565.591 438.405C565.863 439.262 565.963 440.164 565.885 441.06C565.808 441.956 565.554 442.827 565.14 443.625C564.725 444.423 564.158 445.131 563.469 445.709C562.781 446.288 561.985 446.724 561.128 446.995C560.271 447.265 559.368 447.364 558.473 447.286Z" fill="#E6E6E6"/>
<path d="M340.267 335.087L282.993 330.136C282.127 330.06 281.326 329.644 280.766 328.978C280.206 328.313 279.933 327.452 280.007 326.586L284.414 275.604C284.49 274.737 284.907 273.936 285.572 273.377C286.238 272.817 287.098 272.544 287.965 272.618L345.239 277.569C346.106 277.645 346.906 278.061 347.466 278.727C348.026 279.392 348.299 280.253 348.225 281.119L343.818 332.101C343.742 332.968 343.326 333.769 342.66 334.328C341.994 334.888 341.134 335.161 340.267 335.087Z" fill="#E6E6E6"/>
<path d="M331.357 438.175L274.082 433.224C273.216 433.149 272.415 432.732 271.855 432.067C271.296 431.401 271.023 430.54 271.097 429.674L275.504 378.692C275.579 377.825 275.996 377.024 276.662 376.465C277.327 375.905 278.188 375.632 279.054 375.706L336.328 380.657C337.195 380.733 337.996 381.149 338.556 381.815C339.115 382.48 339.388 383.341 339.314 384.207L334.907 435.19C334.831 436.056 334.415 436.857 333.749 437.417C333.084 437.976 332.223 438.249 331.357 438.175Z" fill="#E6E6E6"/>
<path d="M551.356 204.028L432.036 193.714C430.229 193.558 428.557 192.69 427.389 191.302C426.222 189.913 425.654 188.117 425.81 186.31C425.966 184.502 426.834 182.831 428.223 181.663C429.611 180.495 431.407 179.927 433.215 180.083L552.534 190.397C554.342 190.553 556.013 191.421 557.181 192.81C558.348 194.199 558.917 195.994 558.76 197.802C558.604 199.61 557.736 201.281 556.348 202.449C554.959 203.616 553.163 204.185 551.356 204.028Z" fill="#CCCCCC"/>
<path d="M577.482 229.462L430.048 216.718C429.153 216.641 428.282 216.388 427.485 215.974C426.687 215.56 425.979 214.993 425.401 214.305C424.823 213.618 424.386 212.823 424.115 211.966C423.844 211.11 423.744 210.208 423.822 209.313C423.899 208.418 424.152 207.547 424.566 206.75C424.98 205.953 425.547 205.245 426.234 204.667C426.922 204.088 427.717 203.651 428.573 203.38C429.43 203.109 430.331 203.01 431.226 203.087L578.66 215.831C580.468 215.987 582.139 216.855 583.307 218.244C584.474 219.633 585.043 221.428 584.886 223.236C584.73 225.043 583.862 226.715 582.474 227.883C581.085 229.05 579.289 229.619 577.482 229.462Z" fill="#CCCCCC"/>
<path d="M401.232 242.31L291.23 232.801C290.364 232.726 289.563 232.309 289.003 231.644C288.443 230.978 288.17 230.117 288.244 229.251L295.665 143.4C295.741 142.534 296.158 141.733 296.823 141.173C297.489 140.614 298.349 140.341 299.216 140.415L409.218 149.923C410.084 149.999 410.885 150.416 411.445 151.081C412.005 151.747 412.278 152.607 412.204 153.474L404.783 239.324C404.707 240.191 404.29 240.992 403.625 241.551C402.959 242.111 402.099 242.384 401.232 242.31Z" fill="#CDD6E2"/>
<path d="M612.81 251.783L624.034 230.351C613.969 218.196 580.946 203.455 580.946 203.455L536.251 162.774C535.775 160.959 534.829 159.301 533.509 157.968C532.189 156.634 530.541 155.672 528.73 155.179C526.92 154.685 525.012 154.676 523.197 155.155C521.383 155.633 519.726 156.58 518.395 157.902C517.063 159.224 516.103 160.873 515.611 162.684C515.119 164.495 515.113 166.403 515.594 168.217C516.074 170.031 517.024 171.687 518.347 173.017C519.67 174.347 521.321 175.305 523.132 175.794L571.418 233.706L612.81 251.783Z" fill="#9E616A"/>
<path d="M607.371 250.304L623.219 255.35C634.744 259.02 647.164 258.743 658.514 254.564C661.948 253.286 664.955 251.073 667.197 248.175C669.438 245.277 670.825 241.81 671.2 238.166C671.674 233.222 670.254 228.282 667.226 224.346C664.198 220.409 659.788 217.769 654.888 216.96C640.025 214.518 620.874 213.313 614.042 221.443L613.972 221.526L607.371 250.304Z" fill="#3F3D56"/>
<path d="M657.48 400.445L668.636 506.426C668.636 506.426 683.487 612.543 680.698 627.185C677.909 641.827 681.396 643.919 681.396 643.919L655.947 642.107C655.947 642.107 656.645 633.042 652.461 628.859C648.278 624.676 650.37 612.125 650.37 612.125L601.004 439.491L571.023 530.132C571.023 530.132 566.142 629.838 565.445 631.232C564.747 632.627 562.656 651.452 562.656 651.452L536.858 651.452C536.858 651.452 540.344 640.297 535.463 636.81C530.582 633.324 526.399 636.113 530.582 629.838C534.766 623.563 536.16 615.893 534.766 612.407C533.371 608.921 533.371 594.976 533.371 594.976C533.371 594.976 535.463 406.721 547.316 400.445C559.169 394.17 657.48 400.445 657.48 400.445Z" fill="#2F2E41"/>
<path d="M604.649 185.862C619.803 185.862 632.088 173.577 632.088 158.423C632.088 143.269 619.803 130.985 604.649 130.985C589.495 130.985 577.21 143.269 577.21 158.423C577.21 173.577 589.495 185.862 604.649 185.862Z" fill="#9E616A"/>
<path d="M666.964 411.997C613.825 422.97 543.406 404.104 543.406 404.104L562.191 322.674L555.512 237.457C554.697 227.035 560.632 217.267 569.866 213.805L582.616 209.03L593.155 193.942L623.259 194.929L635.293 210.769L644.789 215.808L665.378 226.727L665.469 226.773L665.469 226.818L659.008 289.49L655.111 327.278C655.111 327.278 666.946 369.777 664.517 375.414C662.089 381.041 664.2 378.323 664.789 381.331C665.378 384.34 667.181 384.53 667.453 390.457C667.734 396.374 666.964 411.997 666.964 411.997Z" fill="#3F3D56"/>
<path d="M603.313 184.544C608.126 184.494 612.925 184.034 617.659 183.168C622.346 182.089 632.687 174.093 635.505 169.369C637.599 165.859 638.856 160.43 639.541 156.495C640.467 151.286 640.289 145.941 639.018 140.805C637.746 135.67 635.411 130.859 632.162 126.683C630.91 124.934 629.208 123.556 627.236 122.694C627.062 122.631 626.883 122.576 626.702 122.53C623.845 121.856 621.254 120.344 619.262 118.187C618.875 117.751 618.457 117.342 618.012 116.966C615.778 115.177 613.152 113.942 610.348 113.362C605.82 112.275 599.342 113.637 591.095 117.416C586.952 119.315 582.353 118.785 578.809 118.112C578.61 118.078 578.406 118.098 578.217 118.168C578.029 118.238 577.861 118.357 577.733 118.512C576.269 119.958 574.313 120.797 572.256 120.86C570.998 120.948 569.721 122.727 568.182 125.043C567.833 125.568 567.425 126.182 567.13 126.556L567.071 125.853L566.378 126.657C565.29 127.921 564.539 129.439 564.196 131.071C563.852 132.703 563.927 134.396 564.414 135.991C564.901 137.586 565.783 139.032 566.979 140.194C568.175 141.356 569.646 142.197 571.254 142.638C572.53 142.942 573.834 143.116 575.145 143.155C575.94 143.206 576.762 143.259 577.552 143.375C580.089 143.826 582.465 144.928 584.449 146.572C586.432 148.216 587.956 150.346 588.87 152.755C589.086 153.312 589.427 153.811 589.867 154.215C590.307 154.619 590.833 154.917 591.406 155.085C591.979 155.253 592.583 155.287 593.171 155.185C593.759 155.082 594.316 154.846 594.799 154.494C595.601 153.835 596.551 153.38 597.567 153.168C598.584 152.956 599.637 152.993 600.636 153.275C601.505 153.729 602.191 154.468 602.579 155.368C603.049 156.37 603.807 157.209 604.756 157.779C607.991 159.342 608.399 166.629 607.41 172.738C606.456 178.626 604.38 182.922 602.362 183.183C600.809 183.385 600.634 183.5 600.528 183.778L600.434 184.027L600.615 184.254C601.483 184.543 602.403 184.642 603.313 184.544Z" fill="#2F2E41"/>
<path d="M567.099 277.501L555.014 256.543C539.359 258.531 509.221 278.521 509.221 278.521L450.927 294.471C449.14 293.901 447.233 293.811 445.4 294.212C443.567 294.612 441.872 295.489 440.485 296.753C439.098 298.017 438.069 299.624 437.501 301.412C436.933 303.201 436.846 305.107 437.249 306.94C437.651 308.772 438.53 310.466 439.796 311.852C441.061 313.237 442.67 314.264 444.458 314.83C446.247 315.396 448.154 315.481 449.986 315.076C451.818 314.671 453.511 313.791 454.895 312.523L529.662 302.771L567.099 277.501Z" fill="#9E616A"/>
<path d="M562.938 281.3L589.996 258.637L593.932 240.395C594.692 236.811 594.434 233.086 593.188 229.641C591.941 226.195 589.756 223.167 586.88 220.899C582.959 217.85 578.027 216.403 573.081 216.852C568.135 217.3 563.543 219.61 560.235 223.314C550.211 234.556 538.936 250.083 542.141 260.207L542.174 260.31L562.938 281.3Z" fill="#3F3D56"/>
</svg>
