<svg width="813" height="608" viewBox="0 0 813 608" fill="none" xmlns="http://www.w3.org/2000/svg">
<path d="M265.605 475H30.6055C26.0983 474.995 21.7773 473.202 18.5902 470.015C15.4032 466.828 13.6105 462.507 13.6055 458V352C13.6105 347.493 15.4032 343.172 18.5903 339.985C21.7773 336.798 26.0983 335.005 30.6055 335H265.605C270.113 335.005 274.434 336.798 277.621 339.985C280.808 343.172 282.6 347.493 282.605 352V458C282.6 462.507 280.808 466.828 277.621 470.015C274.434 473.202 270.113 474.995 265.605 475ZM30.6055 337C26.6286 337.004 22.8159 338.586 20.0038 341.398C17.1918 344.21 15.61 348.023 15.6055 352V458C15.61 461.977 17.1918 465.79 20.0038 468.602C22.8159 471.414 26.6286 472.995 30.6055 473H265.605C269.582 472.995 273.395 471.414 276.207 468.602C279.019 465.79 280.601 461.977 280.605 458V352C280.601 348.023 279.019 344.21 276.207 341.398C273.395 338.586 269.582 337.004 265.605 337H30.6055Z" fill="#3F3D56"/>
<path d="M59.6078 379.501C58.6569 379.517 57.7503 379.906 57.0835 380.584C56.4167 381.262 56.043 382.175 56.043 383.126C56.043 384.077 56.4167 384.99 57.0835 385.668C57.7503 386.346 58.6569 386.735 59.6078 386.75H236.486C236.963 386.76 237.436 386.674 237.88 386.5C238.324 386.326 238.729 386.065 239.072 385.734C239.415 385.403 239.689 385.008 239.879 384.57C240.069 384.133 240.171 383.662 240.179 383.186C240.187 382.709 240.1 382.235 239.925 381.792C239.749 381.349 239.488 380.944 239.156 380.602C238.824 380.26 238.428 379.986 237.99 379.798C237.552 379.609 237.082 379.508 236.605 379.501C236.565 379.501 236.526 379.501 236.486 379.501H59.6078Z" fill="#CCCCCC"/>
<path d="M59.6078 401.249C58.6569 401.265 57.7503 401.654 57.0835 402.332C56.4167 403.01 56.043 403.923 56.043 404.874C56.043 405.825 56.4167 406.738 57.0835 407.416C57.7503 408.094 58.6569 408.483 59.6078 408.498H236.486C236.963 408.507 237.436 408.422 237.88 408.248C238.324 408.074 238.729 407.813 239.072 407.482C239.415 407.151 239.689 406.756 239.879 406.318C240.069 405.881 240.171 405.41 240.179 404.934C240.187 404.457 240.1 403.983 239.925 403.54C239.749 403.097 239.488 402.692 239.156 402.35C238.824 402.008 238.428 401.734 237.99 401.546C237.552 401.357 237.082 401.256 236.605 401.249C236.565 401.249 236.526 401.249 236.486 401.249H59.6078Z" fill="#CCCCCC"/>
<path d="M59.6078 423.249C58.6569 423.265 57.7503 423.654 57.0835 424.332C56.4167 425.01 56.043 425.923 56.043 426.874C56.043 427.825 56.4167 428.738 57.0835 429.416C57.7503 430.094 58.6569 430.483 59.6078 430.498H236.486C236.963 430.507 237.436 430.422 237.88 430.248C238.324 430.074 238.729 429.813 239.072 429.482C239.415 429.151 239.689 428.756 239.879 428.318C240.069 427.881 240.171 427.41 240.179 426.934C240.187 426.457 240.1 425.983 239.925 425.54C239.749 425.097 239.488 424.692 239.156 424.35C238.824 424.008 238.428 423.734 237.99 423.546C237.552 423.357 237.082 423.256 236.605 423.249C236.565 423.249 236.526 423.249 236.486 423.249H59.6078Z" fill="#CCCCCC"/>
<path d="M19.716 448.622C46.0061 449.071 46.0019 488.177 19.7152 488.622C-6.57393 488.173 -6.56982 449.067 19.716 448.622Z" fill="#464BA8"/>
<path d="M19.7181 596.512C19.3455 596.511 18.9882 596.363 18.7247 596.1C18.4612 595.836 18.313 595.479 18.3125 595.106V587.654C18.3124 587.488 18.2463 587.329 18.1289 587.211C18.0115 587.094 17.8523 587.028 17.6862 587.027H10.2339C9.86106 587.027 9.50348 586.879 9.23985 586.616C8.97622 586.352 8.82813 585.995 8.82812 585.622C8.82813 585.249 8.97622 584.891 9.23985 584.628C9.50348 584.364 9.86106 584.216 10.2339 584.216H17.6863C17.8523 584.216 18.0115 584.15 18.1289 584.032C18.2463 583.915 18.3124 583.756 18.3126 583.59V576.137C18.3136 575.765 18.4621 575.408 18.7256 575.146C18.989 574.883 19.3459 574.735 19.718 574.735C20.0902 574.735 20.4471 574.883 20.7106 575.146C20.974 575.408 21.1225 575.765 21.1235 576.137V583.59C21.1237 583.756 21.1898 583.915 21.3072 584.032C21.4246 584.15 21.5838 584.216 21.7499 584.216H29.2022C29.5751 584.216 29.9326 584.364 30.1963 584.628C30.4599 584.891 30.608 585.249 30.608 585.622C30.608 585.995 30.4599 586.352 30.1963 586.616C29.9326 586.879 29.5751 587.027 29.2022 587.027H21.7499C21.5838 587.028 21.4246 587.094 21.3071 587.211C21.1897 587.329 21.1237 587.488 21.1235 587.654V595.106C21.1231 595.479 20.9749 595.836 20.7114 596.1C20.448 596.363 20.0907 596.511 19.7181 596.512Z" fill="white"/>
<path d="M755 140H520C515.493 139.995 511.172 138.202 507.985 135.015C504.798 131.828 503.005 127.507 503 123V17C503.005 12.4929 504.798 8.17182 507.985 4.9848C511.172 1.79778 515.493 0.00507387 520 0H755C759.507 0.00507387 763.828 1.79778 767.015 4.9848C770.202 8.17182 771.995 12.4929 772 17V123C771.995 127.507 770.202 131.828 767.015 135.015C763.828 138.202 759.507 139.995 755 140ZM520 2C516.023 2.0045 512.21 3.58631 509.398 6.39838C506.586 9.21045 505.004 13.0231 505 17V123C505.004 126.977 506.586 130.79 509.398 133.602C512.21 136.414 516.023 137.995 520 138H755C758.977 137.995 762.79 136.414 765.602 133.602C768.414 130.79 769.996 126.977 770 123V17C769.996 13.0231 768.414 9.21045 765.602 6.39838C762.79 3.58631 758.977 2.0045 755 2H520Z" fill="#3F3D56"/>
<path d="M567.381 71.8725C579.392 71.8725 589.129 62.1355 589.129 50.1245C589.129 38.1134 579.392 28.3765 567.381 28.3765C555.37 28.3765 545.633 38.1134 545.633 50.1245C545.633 62.1355 555.37 71.8725 567.381 71.8725Z" fill="#CCCCCC"/>
<path d="M614.608 35.626C613.657 35.6418 612.75 36.0306 612.083 36.7086C611.417 37.3866 611.043 38.2995 611.043 39.2505C611.043 40.2015 611.417 41.1144 612.083 41.7924C612.75 42.4704 613.657 42.8592 614.608 42.875H725.486C726.446 42.8883 727.371 42.5205 728.06 41.8521C728.749 41.1838 729.145 40.2695 729.161 39.3098C729.176 38.3501 728.811 37.4234 728.144 36.7328C727.478 36.0422 726.564 35.6442 725.605 35.626C725.565 35.6253 725.526 35.6253 725.486 35.626H614.608Z" fill="#CCCCCC"/>
<path d="M614.608 57.374C613.657 57.3898 612.75 57.7786 612.083 58.4566C611.417 59.1346 611.043 60.0475 611.043 60.9985C611.043 61.9495 611.417 62.8624 612.083 63.5404C612.75 64.2184 613.657 64.6072 614.608 64.623H725.486C726.446 64.6363 727.371 64.2685 728.06 63.6001C728.749 62.9318 729.145 62.0175 729.161 61.0578C729.176 60.0981 728.811 59.1714 728.144 58.4808C727.478 57.7902 726.564 57.3922 725.605 57.374C725.565 57.3734 725.526 57.3734 725.486 57.374H614.608Z" fill="#CCCCCC"/>
<path d="M549.002 82.626C548.051 82.6418 547.145 83.0306 546.478 83.7086C545.811 84.3866 545.438 85.2995 545.438 86.2505C545.438 87.2015 545.811 88.1144 546.478 88.7924C547.145 89.4704 548.051 89.8592 549.002 89.875H725.88C726.357 89.884 726.831 89.7989 727.275 89.6245C727.718 89.4502 728.123 89.19 728.466 88.8588C728.81 88.5277 729.084 88.1321 729.274 87.6947C729.464 87.2574 729.566 86.7869 729.573 86.3101C729.581 85.8334 729.495 85.3598 729.32 84.9164C729.144 84.4731 728.883 84.0687 728.551 83.7265C728.219 83.3843 727.822 83.1109 727.385 82.922C726.947 82.7332 726.476 82.6326 725.999 82.626C725.96 82.6253 725.92 82.6253 725.88 82.626H549.002Z" fill="#CCCCCC"/>
<path d="M549.002 104.374C548.051 104.39 547.145 104.779 546.478 105.457C545.811 106.135 545.438 107.047 545.438 107.998C545.438 108.949 545.811 109.862 546.478 110.54C547.145 111.218 548.051 111.607 549.002 111.623H725.88C726.357 111.632 726.831 111.547 727.275 111.373C727.718 111.198 728.123 110.938 728.466 110.607C728.81 110.276 729.084 109.88 729.274 109.443C729.464 109.005 729.566 108.535 729.573 108.058C729.581 107.581 729.495 107.108 729.32 106.664C729.144 106.221 728.883 105.817 728.551 105.474C728.219 105.132 727.822 104.859 727.385 104.67C726.947 104.481 726.476 104.381 725.999 104.374C725.96 104.373 725.92 104.373 725.88 104.374H549.002Z" fill="#CCCCCC"/>
<path d="M765.111 113.622C791.401 114.071 791.396 153.177 765.11 153.622C738.821 153.173 738.825 114.067 765.111 113.622Z" fill="#464BA8"/>
<path d="M765.113 144.512C764.74 144.512 764.383 144.364 764.119 144.1C763.856 143.837 763.708 143.479 763.707 143.107V135.654C763.707 135.488 763.641 135.329 763.523 135.212C763.406 135.094 763.247 135.028 763.081 135.028H755.628C755.256 135.028 754.898 134.88 754.634 134.616C754.371 134.352 754.223 133.995 754.223 133.622C754.223 133.249 754.371 132.892 754.634 132.628C754.898 132.364 755.256 132.216 755.628 132.216H763.081C763.247 132.216 763.406 132.15 763.523 132.033C763.641 131.915 763.707 131.756 763.707 131.59V124.137C763.707 123.765 763.855 123.407 764.119 123.144C764.382 122.88 764.74 122.732 765.113 122.732C765.485 122.732 765.843 122.88 766.106 123.144C766.37 123.407 766.518 123.765 766.518 124.137V131.59C766.518 131.756 766.584 131.915 766.702 132.033C766.819 132.15 766.978 132.216 767.144 132.216H774.597C774.97 132.216 775.327 132.364 775.591 132.628C775.854 132.892 776.003 133.249 776.003 133.622C776.003 133.995 775.854 134.352 775.591 134.616C775.327 134.88 774.97 135.028 774.597 135.028H767.144C766.978 135.028 766.819 135.094 766.702 135.212C766.584 135.329 766.518 135.488 766.518 135.654V143.107C766.518 143.479 766.37 143.837 766.106 144.1C765.843 144.364 765.485 144.512 765.113 144.512Z" fill="white"/>
<path d="M515.645 61.0733C516.735 64.1203 516.583 67.4736 515.223 70.41C513.864 73.3464 511.404 75.6308 508.375 76.7706C507.705 77.0208 507.015 77.2113 506.311 77.3397L499.31 120.208L482.887 105.044L492.053 66.6604C491.714 63.426 492.661 60.188 494.69 57.6465C496.719 55.1049 499.667 53.464 502.896 53.0784C505.613 52.767 508.355 53.3888 510.671 54.8416C512.988 56.2944 514.742 58.492 515.645 61.0732L515.645 61.0733Z" fill="#FFB6B6"/>
<path d="M394.441 158.207C394.441 158.207 407.187 141.366 453.441 141.827L479.695 132.289L485.695 77.2886L506.695 82.2886L503.695 150.289L458.695 176.289L399.695 188.289L394.441 158.207Z" fill="#E6E7E8"/>
<path d="M323.367 572.834L335.484 577.997L361.167 533.719L343.284 526.099L323.367 572.834Z" fill="#FFB6B6"/>
<path d="M423.495 584.3L436.665 584.299L442.931 533.497L423.492 533.498L423.495 584.3Z" fill="#FFB6B6"/>
<path d="M423.032 598.039L463.534 598.037V597.525C463.533 593.344 461.872 589.335 458.916 586.379C455.96 583.422 451.95 581.761 447.769 581.761H447.768L440.37 576.148L426.567 581.762L423.031 581.762L423.032 598.039Z" fill="#2F2E41"/>
<path d="M316 581.629L353.259 597.507L353.46 597.036C355.099 593.189 355.143 588.85 353.582 584.971C352.022 581.092 348.984 577.992 345.138 576.353L345.137 576.353L340.532 568.289L325.633 568.041L322.381 566.655L316 581.629Z" fill="#2F2E41"/>
<path d="M436.415 283.636L456.432 405.52L450.984 423.683L458.132 436.547L447.635 549.517L451.896 558.898L439.991 566.241H415.765L414.479 463.968L408.495 448.952V440.676L396.312 378.313L394.069 449.649L390.526 464.688L393.502 475.396L389.613 482.898L356.282 554.469H329.117L331.218 538.283C326.351 535.819 338.525 528.617 339.695 523.289L335.695 514.289L339.695 497.289L343.363 464.07L339.495 393.952L341.315 299.529L373.093 275.228L436.415 283.636Z" fill="#2F2E41"/>
<path d="M387.671 123.122C402.832 123.122 415.123 110.831 415.123 95.6699C415.123 80.5082 402.832 68.2173 387.671 68.2173C372.509 68.2173 360.218 80.5082 360.218 95.6699C360.218 110.831 372.509 123.122 387.671 123.122Z" fill="#FFB6B6"/>
<path d="M341.205 303.822C341.156 303.822 341.107 303.815 341.061 303.802C340.554 303.661 340.153 303.549 341.982 287.733L343.957 275.232L342.029 264.193L338.788 260.952L343.998 255.742L340.805 232.113L332.126 186.27C330.633 178.36 331.793 170.178 335.424 162.993C339.055 155.809 344.956 150.023 352.21 146.534L369.297 130.685L400.739 130.45L410.799 143.527L437.412 152.567L433 243.861L436.095 251.083L435.83 251.323C435.809 251.341 433.747 253.206 432.821 254.231C432.372 254.869 433.214 259.627 434.253 263.668L435.586 273.642L432.227 276.043L436.595 281.202L437.859 290.686L437.146 290.509C436.342 290.309 356.659 270.926 341.755 303.405C341.717 303.522 341.644 303.626 341.546 303.7C341.447 303.775 341.328 303.817 341.205 303.822Z" fill="#E6E7E8"/>
<path d="M359.453 69.4655C360.757 68.2357 362.451 67.5032 364.24 67.396C366.015 67.4532 367.815 69.0565 367.447 70.7942C370.708 65.0208 375.898 60.5805 382.106 58.2525C388.315 55.9246 395.145 55.8577 401.398 58.0638C405.81 59.6204 410.136 62.7346 411.15 67.3021C411.249 68.5013 411.606 69.6648 412.198 70.7124C412.711 71.2724 413.377 71.6702 414.113 71.8567C414.849 72.0432 415.624 72.0103 416.341 71.7621L416.385 71.7492C416.631 71.6654 416.896 71.6571 417.146 71.7256C417.397 71.794 417.621 71.936 417.789 72.1333C417.958 72.3305 418.064 72.5738 418.093 72.8318C418.122 73.0897 418.073 73.3505 417.952 73.5802L416.704 75.9085C418.278 76.2593 419.913 76.2245 421.47 75.8071C421.729 75.7393 422.002 75.7532 422.253 75.8468C422.503 75.9405 422.719 76.1094 422.869 76.3303C423.02 76.5512 423.099 76.8133 423.095 77.0807C423.091 77.3482 423.004 77.6077 422.846 77.8239C420.772 80.6623 418.063 82.9773 414.936 84.5846C411.809 86.1919 408.35 87.0471 404.835 87.0822C399.847 87.0518 394.807 85.3327 389.953 86.4798C388.075 86.9235 386.32 87.7821 384.817 88.9925C383.314 90.2029 382.101 91.7344 381.267 93.4747C380.434 95.215 380 97.1198 379.998 99.0495C379.997 100.979 380.427 102.885 381.258 104.626C379.767 102.995 376.884 103.381 375.359 104.981C374.656 105.837 374.137 106.828 373.833 107.893C373.529 108.958 373.447 110.074 373.592 111.172C373.999 114.535 374.997 117.799 376.541 120.815C370.643 120.633 364.942 118.646 360.209 115.121C355.476 111.596 351.939 106.703 350.076 101.104C348.212 95.5044 348.113 89.468 349.79 83.81C351.467 78.1521 354.84 73.1451 359.453 69.4654V69.4655Z" fill="#2F2E41"/>
<path d="M269.093 335.678C268.974 332.444 270.13 329.293 272.313 326.903C274.495 324.514 277.529 323.078 280.761 322.906C281.475 322.869 282.191 322.896 282.901 322.986L302.512 284.23L313.593 303.642L293.271 337.47C292.619 340.656 290.739 343.458 288.037 345.268C285.336 347.079 282.03 347.754 278.835 347.147C276.151 346.624 273.725 345.204 271.954 343.12C270.184 341.035 269.175 338.411 269.093 335.678L269.093 335.678Z" fill="#FFB6B6"/>
<path d="M287 309.902L317.5 257.402L326.949 205.874L330.73 176.363C331.243 172.359 332.553 168.499 334.584 165.01C336.614 161.521 339.323 158.475 342.551 156.051C345.779 153.627 349.46 151.875 353.376 150.898C357.293 149.921 361.365 149.739 365.354 150.363L365.568 150.397L365.69 150.577C366.179 151.299 377.477 168.755 362.273 212.068L350.5 244.902L306 316.402L287 309.902Z" fill="#E6E7E8"/>
</svg>
