<svg width="566" height="521" viewBox="0 0 566 521" fill="none" xmlns="http://www.w3.org/2000/svg">
<path d="M140.292 71.5657C138.846 71.7253 137.453 72.1999 136.211 72.9561C134.968 73.7123 133.907 74.7318 133.101 75.9427C132.295 77.1536 131.764 78.5265 131.546 79.9646C131.328 81.4027 131.428 82.8711 131.839 84.2664L103.072 104.823L120.22 111.422L144.909 90.8893C147.207 90.0435 149.115 88.384 150.271 86.2254C151.428 84.0667 151.752 81.5589 151.183 79.177C150.614 76.7951 149.191 74.7047 147.184 73.3019C145.177 71.8991 142.724 71.2814 140.292 71.5657L140.292 71.5657Z" fill="#FFB8B8"/>
<path d="M137.618 102.53L101.935 138.433C97.045 143.322 90.5966 146.343 83.7104 146.971L39.6181 150.994C38.0017 151.149 36.3707 150.977 34.8216 150.491C33.2725 150.004 31.8367 149.211 30.5991 148.16C28.8868 146.727 27.6136 144.84 26.9256 142.716C26.2376 140.591 26.1628 138.316 26.7097 136.151C27.2567 133.987 28.4033 132.02 30.0177 130.477C31.6321 128.935 33.6489 127.879 35.8364 127.431L80.8816 117.84L121.892 87.6097C122.462 87.2889 123.106 87.1227 123.76 87.1275C124.415 87.1324 125.056 87.3082 125.621 87.6376L136.774 96.7737C137.445 97.1414 137.984 97.7099 138.316 98.3996C138.647 99.0892 138.754 99.8653 138.622 100.619C138.492 101.344 138.141 102.011 137.618 102.53Z" fill="#2F2E41"/>
<path d="M565.433 121.825C565.698 119.375 565.203 116.901 564.014 114.742C562.824 112.582 560.999 110.841 558.786 109.755L336.717 1.21798C335.305 0.527089 333.77 0.121107 332.201 0.023226C330.632 -0.0746546 329.059 0.137475 327.572 0.647507C326.085 1.15754 324.713 1.95549 323.534 2.99578C322.355 4.03608 321.393 5.29835 320.702 6.71054L320.698 6.71887L237.408 177.132C236.018 179.986 235.816 183.275 236.847 186.278C237.879 189.281 240.058 191.752 242.909 193.15L464.978 301.688C467.832 303.078 471.121 303.28 474.124 302.248C477.127 301.217 479.598 299.037 480.997 296.187L564.287 125.774C564.895 124.534 565.283 123.198 565.433 121.825Z" fill="#F2F2F2"/>
<path d="M435.337 500.058H147.191C143.563 500.054 140.085 498.611 137.52 496.046C134.955 493.481 133.512 490.003 133.508 486.375V95.2049C133.512 91.5772 134.955 88.0993 137.52 85.5341C140.085 82.969 143.563 81.5261 147.191 81.522H435.337C438.964 81.5261 442.442 82.969 445.007 85.5341C447.573 88.0993 449.015 91.5772 449.019 95.2049V486.375C449.015 490.003 447.573 493.481 445.007 496.046C442.442 498.611 438.964 500.054 435.337 500.058Z" fill="white"/>
<path d="M223.615 198.166C233.997 198.166 242.414 189.749 242.414 179.367C242.414 168.984 233.997 160.567 223.615 160.567C213.232 160.567 204.815 168.984 204.815 179.367C204.815 189.749 213.232 198.166 223.615 198.166Z" fill="#E6E6E6"/>
<path d="M194.969 230.747C197.625 232.257 200.405 233.538 203.279 234.576L203.787 234.752C209.575 236.784 215.666 237.819 221.801 237.812C223.035 237.812 224.224 237.769 225.335 237.685C228.038 237.519 230.725 237.148 233.372 236.576C234.825 236.259 236.273 235.879 237.674 235.449C238.013 235.349 238.327 235.251 238.67 235.143C244.381 233.292 249.747 230.511 254.553 226.914C254.167 226.184 253.745 225.474 253.287 224.787C250.816 221.012 247.443 217.912 243.472 215.769C239.502 213.626 235.059 212.506 230.547 212.512H220.653C215.434 212.513 210.326 214.014 205.936 216.836C201.546 219.658 198.059 223.683 195.892 228.43C195.545 229.186 195.237 229.959 194.969 230.747Z" fill="#E6E6E6"/>
<path d="M229.996 236.108C229.365 236.154 228.757 236.367 228.235 236.726C230.888 236.56 233.524 236.194 236.121 235.631L229.996 236.108Z" fill="#2F2E41"/>
<path d="M224.755 128.351C212.647 128.352 200.878 132.35 191.275 139.725C181.672 147.099 174.772 157.437 171.646 169.134C168.52 180.831 169.342 193.233 173.986 204.415C178.63 215.597 186.835 224.933 197.327 230.975C200.113 232.588 203.037 233.948 206.064 235.041L206.579 235.219C212.419 237.27 218.565 238.314 224.754 238.306C225.952 238.306 227.149 238.267 228.326 238.178C231.052 238.01 233.761 237.636 236.43 237.06C237.924 236.733 239.388 236.347 240.773 235.922C241.11 235.823 241.426 235.724 241.772 235.615C254.216 231.562 264.807 223.203 271.639 212.041C278.472 200.878 281.099 187.645 279.048 174.719C276.997 161.793 270.403 150.023 260.451 141.524C250.499 133.024 237.842 128.354 224.755 128.351L224.755 128.351ZM256.653 224.514C251.91 228.174 246.572 230.989 240.872 232.835C240.566 232.934 240.249 233.033 239.932 233.132C238.616 233.537 237.231 233.893 235.806 234.2C233.281 234.751 230.718 235.108 228.138 235.269C227.02 235.348 225.882 235.387 224.755 235.387C218.896 235.391 213.078 234.404 207.548 232.469L207.064 232.3C204.052 231.218 201.15 229.853 198.396 228.224C188.804 222.577 181.276 214.002 176.919 203.76C172.562 193.518 171.604 182.148 174.188 171.321C176.771 160.494 182.76 150.782 191.272 143.61C199.785 136.439 210.373 132.188 221.481 131.48C232.59 130.773 243.632 133.647 252.985 139.68C262.339 145.713 269.511 154.588 273.447 164.999C277.383 175.411 277.876 186.81 274.853 197.523C271.83 208.235 265.451 217.695 256.653 224.514V224.514Z" fill="#CCCCCC"/>
<path d="M435.337 500.058H147.191C143.563 500.054 140.085 498.611 137.52 496.046C134.955 493.481 133.512 490.003 133.508 486.375V95.2049C133.512 91.5772 134.955 88.0993 137.52 85.5341C140.085 82.969 143.563 81.5261 147.191 81.522H435.337C438.964 81.5261 442.442 82.969 445.007 85.5341C447.573 88.0993 449.015 91.5772 449.019 95.2049V486.375C449.015 490.003 447.573 493.481 445.007 496.046C442.442 498.611 438.964 500.054 435.337 500.058ZM147.191 83.1317C143.99 83.1353 140.921 84.4085 138.658 86.6719C136.394 88.9352 135.121 92.004 135.118 95.2049V486.375C135.121 489.576 136.394 492.645 138.658 494.908C140.921 497.171 143.99 498.445 147.191 498.448H435.337C438.537 498.445 441.606 497.171 443.87 494.908C446.133 492.645 447.406 489.576 447.41 486.375V95.2049C447.406 92.004 446.133 88.9352 443.87 86.6719C441.606 84.4085 438.537 83.1354 435.337 83.1317L147.191 83.1317Z" fill="#CCCCCC"/>
<path d="M379.559 183.117H298.024C296.313 183.117 294.672 182.437 293.463 181.227C292.253 180.018 291.573 178.377 291.573 176.666C291.573 174.955 292.253 173.315 293.463 172.105C294.672 170.895 296.313 170.216 298.024 170.216H379.559C381.27 170.216 382.91 170.895 384.12 172.105C385.33 173.315 386.009 174.955 386.009 176.666C386.009 178.377 385.33 180.018 384.12 181.227C382.91 182.437 381.27 183.117 379.559 183.117Z" fill="#E6E6E6"/>
<path d="M406.167 204.888H298.024C296.313 204.888 294.672 204.208 293.463 202.998C292.253 201.789 291.573 200.148 291.573 198.437C291.573 196.726 292.253 195.086 293.463 193.876C294.672 192.666 296.313 191.987 298.024 191.987H406.167C407.878 191.987 409.518 192.666 410.728 193.876C411.938 195.086 412.617 196.726 412.617 198.437C412.617 200.148 411.938 201.789 410.728 202.998C409.518 204.208 407.878 204.888 406.167 204.888Z" fill="#E6E6E6"/>
<path d="M379.442 288.383H176.37C174.66 288.383 173.019 287.704 171.809 286.494C170.6 285.284 169.92 283.644 169.92 281.933C169.92 280.222 170.6 278.581 171.809 277.372C173.019 276.162 174.66 275.482 176.37 275.482H379.442C381.153 275.482 382.793 276.162 384.003 277.372C385.213 278.581 385.892 280.222 385.892 281.933C385.892 283.644 385.213 285.284 384.003 286.494C382.793 287.704 381.153 288.383 379.442 288.383Z" fill="#E6E6E6"/>
<path d="M406.05 310.153H176.37C174.66 310.153 173.019 309.473 171.809 308.263C170.6 307.054 169.92 305.413 169.92 303.702C169.92 301.992 170.6 300.351 171.809 299.141C173.019 297.932 174.66 297.252 176.37 297.252H406.05C407.761 297.252 409.401 297.932 410.611 299.141C411.821 300.351 412.5 301.992 412.5 303.702C412.5 305.413 411.821 307.054 410.611 308.263C409.401 309.473 407.761 310.153 406.05 310.153Z" fill="#E6E6E6"/>
<path d="M379.442 360.19H176.37C174.66 360.19 173.019 359.511 171.809 358.301C170.6 357.091 169.92 355.451 169.92 353.74C169.92 352.029 170.6 350.388 171.809 349.179C173.019 347.969 174.66 347.29 176.37 347.29H379.442C381.153 347.29 382.793 347.969 384.003 349.179C385.213 350.388 385.892 352.029 385.892 353.74C385.892 355.451 385.213 357.091 384.003 358.301C382.793 359.511 381.153 360.19 379.442 360.19Z" fill="#E6E6E6"/>
<path d="M406.05 381.958H176.37C174.66 381.958 173.019 381.279 171.809 380.069C170.6 378.859 169.92 377.219 169.92 375.508C169.92 373.797 170.6 372.157 171.809 370.947C173.019 369.737 174.66 369.058 176.37 369.058H406.05C407.761 369.058 409.401 369.737 410.611 370.947C411.821 372.157 412.5 373.797 412.5 375.508C412.5 377.219 411.821 378.859 410.611 380.069C409.401 381.279 407.761 381.958 406.05 381.958Z" fill="#E6E6E6"/>
<path d="M379.442 431.994H176.37C174.66 431.994 173.019 431.314 171.809 430.104C170.6 428.895 169.92 427.254 169.92 425.543C169.92 423.832 170.6 422.192 171.809 420.982C173.019 419.772 174.66 419.093 176.37 419.093H379.442C381.153 419.093 382.793 419.772 384.003 420.982C385.213 422.192 385.892 423.832 385.892 425.543C385.892 427.254 385.213 428.895 384.003 430.104C382.793 431.314 381.153 431.994 379.442 431.994Z" fill="#E6E6E6"/>
<path d="M406.05 453.766H176.37C174.66 453.766 173.019 453.086 171.809 451.877C170.6 450.667 169.92 449.026 169.92 447.316C169.92 445.605 170.6 443.964 171.809 442.754C173.019 441.545 174.66 440.865 176.37 440.865H406.05C407.759 440.867 409.398 441.548 410.606 442.757C411.814 443.967 412.492 445.606 412.492 447.316C412.492 449.025 411.814 450.664 410.606 451.874C409.398 453.083 407.759 453.764 406.05 453.766Z" fill="#E6E6E6"/>
<path d="M555.543 233.631C555.809 231.18 555.314 228.706 554.124 226.547C552.935 224.387 551.11 222.646 548.897 221.561L326.828 113.023C325.416 112.332 323.881 111.926 322.312 111.828C320.743 111.731 319.17 111.943 317.683 112.453C316.196 112.963 314.824 113.761 313.645 114.801C312.466 115.841 311.504 117.104 310.813 118.516L310.809 118.524L227.519 288.937C226.129 291.791 225.927 295.08 226.958 298.083C227.989 301.086 230.169 303.557 233.02 304.956L455.089 413.493C457.943 414.883 461.232 415.085 464.235 414.054C467.238 413.022 469.709 410.843 471.107 407.992L554.398 237.579C555.006 236.34 555.394 235.003 555.543 233.631Z" fill="white"/>
<path d="M555.543 233.631C555.809 231.18 555.314 228.706 554.124 226.547C552.935 224.387 551.11 222.646 548.897 221.561L326.828 113.023C325.416 112.332 323.881 111.926 322.312 111.828C320.743 111.731 319.17 111.943 317.683 112.453C316.196 112.963 314.824 113.761 313.645 114.801C312.466 115.841 311.504 117.104 310.813 118.516L310.809 118.524L227.519 288.937C226.129 291.791 225.927 295.08 226.958 298.083C227.989 301.086 230.169 303.557 233.02 304.956L455.089 413.493C457.943 414.883 461.232 415.085 464.235 414.054C467.238 413.022 469.709 410.843 471.107 407.992L554.398 237.579C555.006 236.34 555.394 235.003 555.543 233.631ZM469.842 407.374C468.608 409.889 466.428 411.813 463.778 412.723C461.128 413.633 458.226 413.454 455.707 412.227L233.638 303.69C231.123 302.456 229.199 300.276 228.289 297.626C227.379 294.976 227.558 292.074 228.785 289.556L312.075 119.143C313.308 116.627 315.489 114.704 318.138 113.794C320.788 112.884 323.691 113.062 326.209 114.289L548.278 222.826C550.793 224.06 552.717 226.24 553.627 228.89C554.537 231.54 554.359 234.442 553.132 236.961L469.842 407.374Z" fill="#3F3D56"/>
<path d="M531.316 241.379L473.157 360.373C472.77 361.168 472.082 361.775 471.246 362.063C470.41 362.35 469.494 362.294 468.699 361.906H468.699L266.698 263.176C266.553 263.107 266.415 263.026 266.285 262.933C265.622 262.482 265.144 261.808 264.939 261.033C264.734 260.259 264.814 259.436 265.166 258.716L323.325 139.722C323.517 139.329 323.785 138.977 324.113 138.687C324.441 138.397 324.823 138.175 325.237 138.033C325.651 137.89 326.088 137.831 326.525 137.858C326.962 137.885 327.39 137.998 327.783 138.19L529.785 236.919C530.579 237.307 531.187 237.995 531.474 238.831C531.762 239.667 531.705 240.583 531.317 241.377V241.377L531.316 241.379Z" fill="#E6E6E6"/>
<path d="M353.977 235.337C370.133 235.337 383.231 222.239 383.231 206.083C383.231 189.926 370.133 176.829 353.977 176.829C337.82 176.829 324.723 189.926 324.723 206.083C324.723 222.239 337.82 235.337 353.977 235.337Z" fill="#CDD6E2"/>
<path d="M396.81 327.359L267.875 264.341C267.712 264.264 267.557 264.173 267.412 264.067L380.018 188.245C380.712 187.769 381.519 187.486 382.358 187.424C383.197 187.362 384.038 187.524 384.794 187.894C385.549 188.263 386.194 188.827 386.66 189.527C387.127 190.226 387.4 191.038 387.451 191.877L393.731 282.764L394.034 287.114L396.81 327.359Z" fill="#3F3D56"/>
<path opacity="0.2" d="M396.813 327.361L352.792 305.845L389.744 285.018L392.404 283.518L393.734 282.767L394.037 287.116L396.813 327.361Z" fill="black"/>
<path d="M468.598 362.447L357.079 307.941L394.031 287.114L396.691 285.613L444.845 258.469C448.001 256.691 452.524 258.695 453.55 262.098C453.617 262.329 453.67 262.564 453.708 262.802L468.598 362.447Z" fill="#3F3D56"/>
<path d="M124.515 372.834L136.644 372.833L142.415 326.044L124.512 326.045L124.515 372.834Z" fill="#FFB8B8"/>
<path d="M121.424 368.875L145.312 368.874H145.313C147.313 368.874 149.292 369.268 151.139 370.033C152.986 370.798 154.665 371.919 156.078 373.333C157.492 374.746 158.613 376.425 159.378 378.272C160.143 380.119 160.537 382.098 160.537 384.098V384.592L121.425 384.594L121.424 368.875Z" fill="#2F2E41"/>
<path d="M30.2251 365.109L42.7928 367.567L58.2556 320.262L39.7078 316.634L30.2251 365.109Z" fill="#FFB8B8"/>
<path d="M27.8237 360.381L52.5736 365.222L52.5746 365.222C54.6459 365.628 56.6171 366.437 58.3757 367.604C60.1342 368.771 61.6457 370.273 62.8238 372.024C64.0019 373.775 64.8235 375.741 65.2417 377.81C65.66 379.879 65.6666 382.009 65.2613 384.081L65.1611 384.593L24.6382 376.666L27.8237 360.381Z" fill="#2F2E41"/>
<path d="M142.165 211.436C141.754 210.041 141.043 208.753 140.08 207.662C139.118 206.571 137.928 205.705 136.594 205.124C135.261 204.543 133.816 204.262 132.362 204.299C130.908 204.337 129.48 204.693 128.178 205.343L102.894 180.627L99.4058 198.667L123.951 219.371C125.187 221.485 127.155 223.073 129.483 223.832C131.811 224.592 134.337 224.472 136.582 223.494C138.827 222.516 140.636 220.748 141.665 218.526C142.693 216.304 142.872 213.781 142.165 211.436Z" fill="#FFB8B8"/>
<path d="M48.3546 84.2243C61.7759 84.2243 72.656 73.3442 72.656 59.923C72.656 46.5017 61.7759 35.6216 48.3546 35.6216C34.9333 35.6216 24.0532 46.5017 24.0532 59.923C24.0532 73.3442 34.9333 84.2243 48.3546 84.2243Z" fill="#FFB8B8"/>
<path d="M43.2519 84.5966C44.5431 85.1616 47.1872 74.8732 46.0027 72.8154C44.2413 69.7552 44.3455 69.7772 43.1761 67.7525C42.0068 65.7279 41.7452 62.9566 43.2594 61.1752C44.7736 59.3937 48.2778 59.63 48.9688 61.8636C48.5243 57.6211 52.7206 54.2108 56.8773 53.2525C61.034 52.2941 65.4185 52.8891 69.5981 52.0363C74.4487 51.0466 79.4955 46.9806 77.5602 41.6466C77.2281 40.7586 76.7309 39.9414 76.0948 39.2383C73.8588 36.7242 70.731 35.6507 67.6728 34.6127C61.3107 32.4533 54.7746 30.2668 48.0602 30.5052C42.528 30.7945 37.2 32.6902 32.7284 35.9604C28.2567 39.2305 24.8354 43.7333 22.883 48.9177C22.4203 50.2147 22.0618 51.5465 21.811 52.9005C19.5064 65.2923 26.7024 77.5154 38.3901 82.2342L43.2519 84.5966Z" fill="#2F2E41"/>
<path d="M37.2879 218.093C36.6681 217.718 36.1713 217.171 35.8588 216.517C35.5463 215.864 35.4316 215.133 35.5288 214.416L24.563 160.095L13.4474 118.405H13.4476C12.2273 113.837 12.5959 108.99 14.4928 104.659C16.3897 100.328 19.7024 96.77 23.8873 94.5693L31.2358 87.6162L47.2669 94.5229L54.8845 102.268C60.3482 104.929 65.1948 108.703 69.1129 113.348C73.0309 117.993 75.9337 123.407 77.6346 129.241L89.8524 171.049L118.068 213.027C118.539 213.727 118.76 214.565 118.693 215.406C118.627 216.247 118.278 217.04 117.703 217.657C113.777 221.88 37.2879 218.093 37.2879 218.093Z" fill="#2F2E41"/>
<path d="M111.212 214.235L69.6061 185.403C63.9353 181.447 59.8299 175.628 58.0033 168.959L46.3081 126.256C45.8728 124.692 45.7554 123.056 45.9629 121.446C46.1705 119.835 46.6987 118.283 47.5164 116.88C48.627 114.943 50.2614 113.358 52.2321 112.308C54.2027 111.258 56.4295 110.785 58.6568 110.944C60.884 111.103 63.0213 111.887 64.8231 113.205C66.6249 114.524 68.0181 116.325 68.8428 118.4L86.187 161.064L123.142 196.135C123.558 196.64 123.835 197.245 123.945 197.89C124.055 198.535 123.994 199.198 123.769 199.812L116.731 212.394C116.487 213.119 116.021 213.75 115.401 214.197C114.78 214.644 114.035 214.886 113.269 214.888C112.533 214.887 111.815 214.659 111.212 214.235Z" fill="#2F2E41"/>
<path d="M24.7708 357.869C24.4306 357.381 24.2128 356.819 24.1357 356.229C24.0587 355.64 24.1246 355.04 24.328 354.482L43.576 284.51L44.9988 215.947L109.793 211.504L110.107 211.482L129.623 246.853C135.733 257.912 139.473 270.122 140.606 282.706L147.037 353.182C147.134 354.14 146.852 355.098 146.251 355.85C145.649 356.602 144.777 357.088 143.821 357.204L124.284 359.062C123.343 359.176 122.394 358.919 121.64 358.344C120.886 357.768 120.387 356.922 120.248 355.983L112.315 284.366L83.7703 236.136L74.1886 286.912L54.3379 357.032C54.0783 357.732 53.612 358.336 53.0009 358.765C52.3897 359.193 51.6627 359.426 50.9162 359.432L27.7634 359.442C27.1739 359.444 26.5928 359.302 26.071 359.028C25.5492 358.754 25.1027 358.356 24.7708 357.869Z" fill="#2F2E41"/>
<path d="M520.899 587.999H32.6511C23.9945 587.99 15.6953 584.546 9.5741 578.425C3.45294 572.304 0.00977851 564.005 0 555.348V287.213C0.00977851 278.557 3.45294 270.257 9.5741 264.136C15.6953 258.015 23.9945 254.572 32.6511 254.562H92.5142C100.637 254.555 108.469 257.583 114.475 263.051L179.393 309.407C183.625 313.274 189.152 315.417 194.886 315.412H523.931C528.259 315.412 532.544 316.272 536.536 317.943C540.528 319.614 544.149 322.062 547.187 325.145C550.225 328.227 552.619 331.883 554.232 335.899C555.844 339.916 556.642 344.213 556.578 348.54L553.547 555.826C553.386 564.39 549.88 572.552 543.779 578.565C537.678 584.578 529.465 587.964 520.899 587.999Z" fill="white"/>
<path d="M516.56 572.17H35.5383C31.3622 572.165 27.3586 570.504 24.4057 567.552C21.4528 564.599 19.7918 560.595 19.7871 556.419V283.9C19.7918 279.724 21.4528 275.72 24.4057 272.767C27.3586 269.814 31.3622 268.153 35.5383 268.148C39.2319 268.153 42.7731 269.622 45.3849 272.234C47.9967 274.845 49.4658 278.387 49.4699 282.08V537.62C49.4744 541.534 51.0311 545.286 53.7985 548.053C56.5659 550.82 60.318 552.377 64.2317 552.382H514.935C517.174 552.357 519.357 553.082 521.135 554.443C522.914 555.804 524.185 557.721 524.746 559.889C525.374 561.944 525.296 564.151 524.524 566.157C523.751 568.163 522.329 569.852 520.485 570.955C519.315 571.717 517.956 572.138 516.56 572.17Z" fill="#F2F2F2"/>
<path d="M291.5 394C284.281 394 277.224 396.141 271.222 400.151C265.219 404.162 260.541 409.863 257.778 416.532C255.016 423.202 254.293 430.54 255.701 437.621C257.11 444.701 260.586 451.205 265.691 456.309C270.795 461.414 277.299 464.89 284.379 466.299C291.46 467.707 298.798 466.984 305.468 464.222C312.137 461.459 317.838 456.781 321.849 450.778C325.859 444.776 328 437.719 328 430.5C328 420.82 324.154 411.536 317.309 404.691C310.464 397.846 301.18 394 291.5 394Z" fill="#464BA8"/>
<path d="M275.436 433.326L273.616 431.501C273.239 431.147 273.018 430.657 273.001 430.139C272.984 429.621 273.173 429.118 273.526 428.739C273.555 428.708 273.585 428.678 273.616 428.649L289.584 412.618C289.759 412.431 289.969 412.28 290.202 412.174C290.435 412.068 290.687 412.009 290.942 412.001C291.198 411.993 291.453 412.035 291.692 412.125C291.932 412.215 292.151 412.352 292.338 412.528C292.369 412.557 292.399 412.587 292.428 412.618L308.396 428.634C308.583 428.815 308.732 429.031 308.836 429.27C308.939 429.508 308.995 429.765 309 430.026C309.004 430.286 308.958 430.545 308.862 430.787C308.767 431.029 308.626 431.25 308.445 431.437L308.396 431.487L306.576 433.312C306.396 433.499 306.181 433.649 305.943 433.753C305.705 433.857 305.449 433.913 305.189 433.917C304.93 433.922 304.672 433.875 304.43 433.78C304.189 433.684 303.968 433.542 303.782 433.361L303.732 433.312L294.291 423.329V447.018C294.293 447.276 294.244 447.532 294.147 447.772C294.05 448.011 293.907 448.229 293.726 448.413C293.545 448.598 293.33 448.744 293.093 448.845C292.856 448.945 292.601 448.998 292.343 449L292.329 449H289.698C289.174 449 288.671 448.791 288.301 448.419C287.93 448.048 287.722 447.543 287.722 447.018V423.358L278.28 433.341C277.914 433.717 277.414 433.932 276.89 433.939C276.366 433.946 275.861 433.743 275.485 433.376L275.436 433.326Z" fill="white"/>
<path d="M520.899 587.999H32.6511C23.9945 587.99 15.6953 584.546 9.5741 578.425C3.45294 572.304 0.00977851 564.005 0 555.348V287.213C0.00977851 278.557 3.45294 270.257 9.5741 264.136C15.6953 258.015 23.9945 254.572 32.6511 254.562H92.5142C100.637 254.555 108.469 257.583 114.475 263.051L179.393 309.407C183.625 313.274 189.152 315.417 194.886 315.412H523.931C528.259 315.412 532.544 316.272 536.536 317.943C540.528 319.614 544.149 322.062 547.187 325.145C550.225 328.227 552.619 331.883 554.232 335.899C555.844 339.916 556.642 344.213 556.578 348.54L553.547 555.826C553.386 564.39 549.88 572.552 543.779 578.565C537.678 584.578 529.465 587.964 520.899 587.999ZM32.6511 256.541C24.5192 256.55 16.7229 259.785 10.9728 265.535C5.22261 271.285 1.9881 279.081 1.97886 287.213V555.348C1.9881 563.48 5.22261 571.276 10.9728 577.027C16.7229 582.777 24.5192 586.011 32.6511 586.021H520.899C528.946 585.988 536.661 582.807 542.392 577.158C548.124 571.51 551.417 563.842 551.568 555.797L554.6 348.511C554.659 344.446 553.91 340.41 552.395 336.637C550.881 332.864 548.631 329.429 545.777 326.533C542.924 323.638 539.523 321.338 535.772 319.769C532.022 318.199 527.996 317.391 523.931 317.391H194.886C188.679 317.396 182.695 315.084 178.103 310.909L113.185 264.553C107.538 259.393 100.164 256.534 92.5142 256.541H32.6511Z" fill="#3F3D56"/>
</svg>
