<svg width="716" height="595" viewBox="0 0 716 595" fill="none" xmlns="http://www.w3.org/2000/svg">
<path d="M358.244 109.068C357.634 106.465 356.274 104.098 354.332 102.259C352.39 100.421 349.951 99.1925 347.318 98.7258L101.252 56.9149C97.7149 56.3158 94.0844 57.1454 91.1583 59.2215C88.2322 61.2976 86.25 64.4504 85.6471 67.9871L32.7524 379.284C32.1533 382.821 32.983 386.451 35.0591 389.378C37.1352 392.304 40.2879 394.286 43.8247 394.889L289.9 436.701C293.437 437.297 297.066 436.467 299.991 434.391C302.916 432.315 304.899 429.164 305.505 425.629L358.399 114.332C358.702 112.586 358.653 110.797 358.253 109.07L358.244 109.068ZM302.534 425.124C302.063 427.875 300.521 430.326 298.245 431.941C295.969 433.555 293.146 434.202 290.394 433.737L44.328 391.927C41.5765 391.459 39.1235 389.917 37.5082 387.641C35.8929 385.365 35.2477 382.54 35.7143 379.789L88.6089 68.4923C89.0801 65.742 90.6227 63.2908 92.8984 61.6762C95.174 60.0615 97.9972 59.4152 100.749 59.8788L346.824 101.691C348.895 102.051 350.811 103.02 352.329 104.474C353.847 105.928 354.897 107.802 355.346 109.855C355.432 110.264 355.496 110.677 355.537 111.092C355.624 112.006 355.591 112.926 355.437 113.831L302.534 425.124Z" fill="#3F3D56"/>
<path d="M295.809 165.591L221.69 152.997C220.117 152.73 218.715 151.849 217.792 150.548C216.869 149.247 216.501 147.632 216.768 146.06C217.035 144.487 217.916 143.085 219.217 142.162C220.518 141.239 222.132 140.87 223.705 141.137L297.824 153.731C299.396 153.999 300.798 154.88 301.722 156.181C302.645 157.482 303.013 159.096 302.746 160.669C302.479 162.241 301.598 163.643 300.297 164.567C298.996 165.49 297.381 165.858 295.809 165.591Z" fill="#3F3D56"/>
<path d="M290.515 196.721L216.396 184.127C215.617 183.995 214.871 183.711 214.201 183.292C213.531 182.872 212.951 182.324 212.493 181.679C212.035 181.035 211.708 180.307 211.532 179.536C211.356 178.765 211.334 177.967 211.466 177.188C211.599 176.409 211.883 175.663 212.304 174.994C212.725 174.325 213.274 173.745 213.919 173.288C214.564 172.831 215.292 172.505 216.063 172.33C216.834 172.155 217.632 172.134 218.411 172.267L292.53 184.861C293.309 184.993 294.055 185.276 294.725 185.696C295.395 186.116 295.975 186.664 296.433 187.309C296.891 187.953 297.218 188.681 297.394 189.452C297.57 190.223 297.592 191.02 297.46 191.8C297.328 192.579 297.043 193.325 296.622 193.994C296.201 194.663 295.653 195.243 295.007 195.7C294.362 196.157 293.634 196.482 292.863 196.658C292.092 196.833 291.294 196.854 290.515 196.721Z" fill="#3F3D56"/>
<path d="M175.358 195.39L121.192 186.186C119.424 185.884 117.848 184.892 116.81 183.429C115.771 181.966 115.356 180.151 115.655 178.382L126.516 114.462C126.818 112.694 127.81 111.118 129.273 110.079C130.736 109.041 132.551 108.626 134.321 108.925L188.486 118.128C190.254 118.431 191.831 119.422 192.869 120.885C193.907 122.349 194.322 124.164 194.024 125.933L183.163 189.852C182.86 191.621 181.869 193.197 180.405 194.235C178.942 195.273 177.127 195.689 175.358 195.39Z" fill="#CDD6E2"/>
<path d="M279.171 260.374L111.664 231.912C110.091 231.645 108.689 230.764 107.766 229.463C106.843 228.162 106.474 226.547 106.741 224.975C107.009 223.402 107.89 222 109.191 221.077C110.492 220.154 112.106 219.785 113.679 220.052L281.186 248.515C282.759 248.782 284.161 249.663 285.084 250.964C286.007 252.265 286.376 253.88 286.108 255.452C285.841 257.025 284.96 258.427 283.659 259.35C282.358 260.273 280.744 260.642 279.171 260.374Z" fill="#CCCCCC"/>
<path d="M273.881 291.501L106.374 263.039C104.801 262.772 103.399 261.891 102.476 260.59C101.553 259.289 101.184 257.674 101.451 256.102C101.719 254.529 102.6 253.127 103.901 252.204C105.202 251.281 106.816 250.912 108.389 251.179L275.896 279.642C277.469 279.909 278.871 280.79 279.794 282.091C280.717 283.392 281.086 285.006 280.818 286.579C280.551 288.152 279.67 289.554 278.369 290.477C277.068 291.4 275.454 291.769 273.881 291.501Z" fill="#CCCCCC"/>
<path d="M268.6 322.637L101.092 294.174C99.5213 293.905 98.1214 293.024 97.2 291.723C96.2786 290.423 95.911 288.81 96.178 287.238C96.445 285.667 97.3247 284.266 98.6239 283.343C99.9232 282.42 101.536 282.05 103.107 282.315L270.615 310.777C271.394 310.909 272.14 311.192 272.81 311.612C273.48 312.032 274.06 312.58 274.518 313.225C274.976 313.869 275.303 314.597 275.479 315.368C275.655 316.139 275.677 316.937 275.545 317.716C275.413 318.495 275.128 319.241 274.707 319.91C274.286 320.579 273.738 321.159 273.093 321.616C272.447 322.073 271.719 322.398 270.948 322.574C270.177 322.749 269.379 322.77 268.6 322.637Z" fill="#CCCCCC"/>
<path d="M263.302 353.764L95.7945 325.302C94.2218 325.034 92.8197 324.153 91.8966 322.852C90.9735 321.551 90.6051 319.937 90.8723 318.364C91.1395 316.792 92.0205 315.39 93.3215 314.466C94.6225 313.543 96.2369 313.175 97.8096 313.442L265.317 341.905C266.89 342.172 268.292 343.053 269.215 344.354C270.138 345.655 270.507 347.269 270.239 348.842C269.972 350.415 269.091 351.817 267.79 352.74C266.489 353.663 264.875 354.031 263.302 353.764Z" fill="#CCCCCC"/>
<path d="M258.014 384.892L90.5069 356.43C88.9342 356.163 87.5321 355.282 86.609 353.981C85.686 352.68 85.3175 351.065 85.5847 349.493C85.8519 347.92 86.733 346.518 88.0339 345.595C89.3349 344.672 90.9493 344.303 92.522 344.571L260.03 373.033C261.602 373.3 263.004 374.181 263.927 375.482C264.851 376.783 265.219 378.398 264.952 379.97C264.685 381.543 263.804 382.945 262.503 383.868C261.202 384.791 259.587 385.16 258.014 384.892Z" fill="#CCCCCC"/>
<path d="M351.316 160.934C382.92 166.304 412.895 145.037 418.265 113.432C423.635 81.8276 402.368 51.8535 370.763 46.4833C339.158 41.1132 309.184 62.3804 303.814 93.9851C298.444 125.59 319.711 155.564 351.316 160.934Z" fill="#464BA8"/>
<path d="M351.67 124.577C350.383 124.361 349.2 123.731 348.301 122.784L348.246 122.725L336.545 110.152C336.003 109.569 335.582 108.885 335.304 108.138C335.027 107.392 334.9 106.599 334.929 105.803C334.959 105.007 335.144 104.225 335.476 103.502C335.808 102.778 336.279 102.127 336.862 101.585C337.445 101.043 338.13 100.622 338.876 100.344C339.622 100.067 340.416 99.9396 341.211 99.9691C342.007 99.9985 342.789 100.184 343.513 100.516C344.236 100.848 344.888 101.319 345.429 101.902L353.005 110.062L378.153 86.7049C378.736 86.1634 379.42 85.7421 380.166 85.4649C380.912 85.1878 381.705 85.0603 382.501 85.0897C383.296 85.1191 384.077 85.3049 384.801 85.6364C385.524 85.9679 386.175 86.4387 386.717 87.0218L386.718 87.0234L386.56 87.1791L386.722 87.024C387.814 88.2028 388.394 89.7666 388.334 91.3724C388.274 92.9782 387.58 94.4948 386.403 95.5892L356.827 123.048C356.143 123.681 355.323 124.147 354.43 124.411C353.536 124.675 352.595 124.73 351.677 124.571L351.67 124.577Z" fill="white"/>
<path d="M260.003 282.529L279.897 282.673C291.566 298.442 298.117 317.412 298.666 337.021C299.212 369.063 300.164 375.215 300.164 375.215L251.607 378.945L234.621 326.139L260.003 282.529Z" fill="#CFCCE0"/>
<path d="M486.672 298.258L180.402 246.217L154.551 398.358L460.82 450.398L486.672 298.258Z" fill="white"/>
<path d="M212.285 261.048C205.22 254.979 195.672 253.729 192.003 253.477C192.807 257.064 195.475 266.318 202.539 272.389C209.62 278.473 219.159 279.71 222.821 279.963C222.018 276.378 219.35 267.121 212.285 261.048Z" fill="#CDD6E2"/>
<path d="M233.313 361.224L184.135 352.868C182.681 352.619 181.193 352.66 179.755 352.987C178.316 353.314 176.957 353.921 175.753 354.774C174.55 355.627 173.526 356.708 172.741 357.957C171.956 359.206 171.425 360.597 171.178 362.051C170.931 363.505 170.973 364.994 171.301 366.431C171.63 367.869 172.239 369.228 173.093 370.431C173.947 371.633 175.03 372.656 176.279 373.439C177.529 374.223 178.921 374.753 180.375 374.998L229.553 383.354C231.007 383.603 232.495 383.563 233.934 383.236C235.372 382.909 236.731 382.301 237.935 381.449C239.138 380.596 240.162 379.514 240.947 378.265C241.732 377.017 242.263 375.626 242.51 374.171C242.757 372.717 242.715 371.229 242.387 369.791C242.058 368.353 241.449 366.994 240.595 365.792C239.741 364.589 238.658 363.567 237.409 362.783C236.159 361.999 234.768 361.47 233.313 361.224Z" fill="#CDD6E2"/>
<path d="M475.856 282.266L200.13 235.416C196.922 234.871 193.639 234.963 190.467 235.687C187.295 236.411 184.297 237.752 181.643 239.635C178.99 241.518 176.733 243.904 175.002 246.659C173.271 249.414 172.1 252.483 171.555 255.69L148.728 390.029C147.628 396.507 149.145 403.157 152.948 408.516C156.75 413.874 162.525 417.503 169.003 418.604L444.729 465.455C451.207 466.555 457.856 465.038 463.215 461.236C468.574 457.433 472.203 451.658 473.304 445.18L496.13 310.841C496.675 307.634 496.583 304.35 495.859 301.178C495.135 298.006 493.794 295.008 491.911 292.355C490.028 289.701 487.641 287.445 484.887 285.714C482.132 283.983 479.063 282.811 475.856 282.266ZM190.477 250.918C191.038 250.912 204.322 250.909 213.92 259.158C223.518 267.406 225.512 280.542 225.592 281.096L225.796 282.511L224.367 282.521C222.335 282.494 220.309 282.301 218.309 281.944C211.934 280.986 205.931 278.34 200.923 274.28C191.325 266.033 189.332 252.897 189.252 252.343L189.047 250.928L190.477 250.918ZM229.136 385.813L179.958 377.457C176.372 376.848 173.174 374.838 171.069 371.871C168.963 368.904 168.123 365.222 168.732 361.635C169.342 358.049 171.351 354.851 174.318 352.746C177.286 350.64 180.967 349.8 184.554 350.409L233.732 358.766C237.319 359.375 240.517 361.384 242.622 364.352C244.727 367.319 245.568 371.001 244.958 374.587C244.349 378.174 242.34 381.372 239.372 383.477C236.405 385.583 232.723 386.423 229.136 385.813ZM453.314 421.375C452.639 425.283 450.444 428.764 447.21 431.059C443.976 433.353 439.965 434.275 436.054 433.622L399.171 427.355C395.263 426.679 391.782 424.484 389.487 421.25C387.193 418.016 386.271 414.006 386.924 410.094L390.684 387.964C391.36 384.057 393.555 380.576 396.789 378.281C400.023 375.987 404.033 375.065 407.945 375.718L444.828 381.985C448.735 382.661 452.217 384.855 454.511 388.089C456.806 391.323 457.727 395.334 457.075 399.245L453.314 421.375Z" fill="#CDD6E2"/>
<path d="M414.077 410.278L398.095 407.562C396.953 407.368 395.782 407.636 394.838 408.306C393.894 408.975 393.254 409.993 393.06 411.134C392.866 412.275 393.134 413.447 393.804 414.391C394.474 415.335 395.491 415.974 396.632 416.168L412.615 418.884C413.756 419.078 414.928 418.811 415.872 418.141C416.816 417.471 417.455 416.453 417.649 415.312C417.843 414.171 417.576 412.999 416.906 412.055C416.236 411.111 415.219 410.472 414.077 410.278ZM413.033 416.425L397.05 413.709C396.807 413.669 396.575 413.581 396.366 413.45C396.158 413.32 395.977 413.149 395.834 412.949C395.692 412.748 395.59 412.522 395.535 412.282C395.48 412.042 395.473 411.794 395.514 411.551C395.555 411.308 395.644 411.076 395.775 410.868C395.906 410.66 396.077 410.48 396.278 410.337C396.479 410.195 396.706 410.094 396.946 410.04C397.186 409.986 397.434 409.979 397.677 410.021L413.66 412.737C414.148 412.821 414.582 413.096 414.868 413.5C415.154 413.904 415.268 414.405 415.186 414.894C415.103 415.382 414.829 415.817 414.426 416.104C414.022 416.392 413.521 416.507 413.033 416.425Z" fill="#CDD6E2"/>
<path d="M443.59 415.294L427.607 412.578C426.466 412.384 425.295 412.652 424.35 413.322C423.406 413.992 422.767 415.009 422.573 416.15C422.379 417.291 422.647 418.463 423.316 419.407C423.986 420.351 425.004 420.991 426.145 421.185L442.128 423.9C443.269 424.094 444.441 423.827 445.385 423.157C446.329 422.487 446.968 421.47 447.162 420.328C447.356 419.187 447.089 418.016 446.419 417.071C445.749 416.127 444.731 415.488 443.59 415.294ZM442.546 421.441L426.563 418.726C426.32 418.685 426.088 418.597 425.879 418.466C425.67 418.336 425.49 418.166 425.347 417.965C425.204 417.765 425.103 417.538 425.048 417.298C424.993 417.058 424.986 416.81 425.027 416.567C425.068 416.325 425.157 416.093 425.288 415.884C425.419 415.676 425.59 415.496 425.791 415.354C425.992 415.211 426.219 415.11 426.459 415.056C426.699 415.002 426.947 414.995 427.189 415.037L443.172 417.753C443.66 417.837 444.095 418.112 444.381 418.516C444.667 418.92 444.781 419.421 444.698 419.91C444.615 420.398 444.342 420.833 443.939 421.121C443.535 421.408 443.034 421.523 442.546 421.441Z" fill="#CDD6E2"/>
<path d="M415.957 399.214L399.974 396.498C398.833 396.304 397.661 396.572 396.717 397.242C395.773 397.911 395.134 398.929 394.94 400.07C394.746 401.211 395.013 402.383 395.683 403.327C396.353 404.271 397.37 404.911 398.512 405.104L414.494 407.82C415.636 408.014 416.807 407.747 417.751 407.077C418.695 406.407 419.335 405.389 419.529 404.248C419.723 403.107 419.455 401.935 418.785 400.991C418.116 400.047 417.098 399.408 415.957 399.214ZM414.912 405.361L398.929 402.646C398.687 402.604 398.456 402.516 398.248 402.385C398.04 402.255 397.859 402.084 397.717 401.884C397.575 401.683 397.474 401.457 397.419 401.218C397.364 400.978 397.357 400.73 397.399 400.488C397.44 400.246 397.528 400.014 397.659 399.806C397.79 399.598 397.96 399.418 398.16 399.276C398.361 399.134 398.587 399.032 398.827 398.978C399.066 398.923 399.314 398.916 399.556 398.957L415.539 401.673C415.781 401.714 416.013 401.803 416.221 401.933C416.429 402.064 416.609 402.234 416.751 402.435C416.893 402.635 416.995 402.861 417.049 403.101C417.104 403.34 417.111 403.588 417.07 403.83C417.029 404.073 416.94 404.304 416.81 404.512C416.679 404.72 416.508 404.901 416.308 405.043C416.108 405.185 415.881 405.286 415.642 405.341C415.402 405.395 415.154 405.402 414.912 405.361Z" fill="#CDD6E2"/>
<path d="M445.47 404.229L429.487 401.513C428.345 401.319 427.174 401.587 426.23 402.257C425.286 402.927 424.646 403.944 424.452 405.085C424.259 406.227 424.526 407.398 425.196 408.342C425.866 409.286 426.883 409.926 428.024 410.12L444.007 412.835C445.148 413.029 446.32 412.762 447.264 412.092C448.208 411.422 448.848 410.405 449.041 409.263C449.235 408.122 448.968 406.951 448.298 406.007C447.628 405.062 446.611 404.423 445.47 404.229ZM444.425 410.376L428.442 407.661C428.2 407.619 427.968 407.531 427.76 407.4C427.552 407.27 427.372 407.099 427.23 406.899C427.088 406.699 426.986 406.472 426.932 406.233C426.877 405.993 426.87 405.745 426.911 405.503C426.953 405.261 427.041 405.029 427.172 404.821C427.302 404.613 427.473 404.433 427.673 404.291C427.873 404.149 428.1 404.047 428.339 403.993C428.579 403.938 428.827 403.931 429.069 403.972L445.052 406.688C445.294 406.729 445.526 406.818 445.734 406.948C445.942 407.079 446.122 407.249 446.264 407.45C446.406 407.65 446.507 407.877 446.562 408.116C446.617 408.355 446.624 408.603 446.583 408.846C446.541 409.088 446.453 409.319 446.322 409.527C446.192 409.735 446.021 409.916 445.821 410.058C445.621 410.2 445.394 410.301 445.155 410.356C444.915 410.411 444.667 410.418 444.425 410.376Z" fill="#CDD6E2"/>
<path d="M417.836 388.15L401.853 385.434C400.712 385.24 399.541 385.508 398.596 386.178C397.652 386.848 397.013 387.865 396.819 389.006C396.625 390.147 396.893 391.319 397.562 392.263C398.232 393.207 399.25 393.847 400.391 394.04L416.374 396.756C417.515 396.95 418.687 396.683 419.631 396.013C420.575 395.343 421.214 394.326 421.408 393.184C421.602 392.043 421.335 390.872 420.665 389.927C419.995 388.983 418.977 388.344 417.836 388.15ZM416.792 394.297L400.809 391.582C400.566 391.541 400.334 391.453 400.125 391.322C399.917 391.192 399.736 391.022 399.593 390.821C399.45 390.621 399.349 390.394 399.294 390.154C399.239 389.914 399.232 389.666 399.273 389.423C399.314 389.181 399.403 388.949 399.534 388.74C399.665 388.532 399.836 388.352 400.037 388.209C400.238 388.067 400.465 387.966 400.705 387.912C400.945 387.858 401.193 387.851 401.436 387.893L417.418 390.609C417.906 390.693 418.341 390.968 418.627 391.372C418.913 391.776 419.027 392.277 418.944 392.766C418.861 393.254 418.588 393.689 418.185 393.976C417.781 394.264 417.28 394.379 416.792 394.297Z" fill="#CDD6E2"/>
<path d="M447.351 393.165L431.368 390.449C430.227 390.256 429.055 390.523 428.111 391.193C427.167 391.863 426.528 392.88 426.334 394.021C426.14 395.163 426.407 396.334 427.077 397.278C427.747 398.222 428.764 398.862 429.906 399.056L445.889 401.771C447.03 401.965 448.201 401.698 449.145 401.028C450.09 400.358 450.729 399.341 450.923 398.199C451.117 397.058 450.849 395.887 450.179 394.943C449.51 393.998 448.492 393.359 447.351 393.165ZM446.306 399.312L430.323 396.597C430.081 396.556 429.848 396.468 429.64 396.338C429.431 396.207 429.25 396.037 429.108 395.836C428.965 395.636 428.863 395.409 428.808 395.169C428.754 394.929 428.747 394.681 428.788 394.438C428.829 394.196 428.918 393.964 429.049 393.755C429.18 393.547 429.351 393.367 429.552 393.225C429.752 393.083 429.979 392.981 430.219 392.927C430.459 392.873 430.708 392.866 430.95 392.908L446.933 395.624C447.421 395.708 447.856 395.983 448.142 396.387C448.428 396.791 448.542 397.293 448.459 397.781C448.376 398.269 448.103 398.705 447.699 398.992C447.296 399.279 446.795 399.394 446.306 399.312Z" fill="#CDD6E2"/>
<path d="M592.338 382.553C591.429 381.593 590.73 380.447 590.287 379.19C589.844 377.933 589.667 376.594 589.768 375.261C589.87 373.928 590.247 372.633 590.875 371.462C591.502 370.29 592.366 369.268 593.409 368.465C593.854 368.108 594.325 367.789 594.819 367.508L587 333L605.184 339.688L609.821 371.433C610.911 373.418 611.261 375.742 610.805 377.971C610.35 380.201 609.121 382.186 607.345 383.558C605.157 385.301 602.421 386.161 599.655 385.975C596.889 385.79 594.286 384.572 592.338 382.553Z" fill="#FFB8B8"/>
<path d="M589.853 356L589.755 355.659C579.841 321.298 569.593 285.778 557.082 247.104L557 246.85L557.276 246.699C564.249 242.886 574.731 243.14 581.657 247.289C588.064 251.128 591.303 258.555 589.552 265.37L598.677 309.955C602.387 324.528 606.226 339.614 609.896 354.488L610 354.91L609.432 354.944C602.75 355.342 595.847 355.754 590.317 355.981L589.853 356Z" fill="#CCCCCC"/>
<path d="M504 539H491.127L485 493H504V539Z" fill="#FFB8B8"/>
<path d="M508 551H465V550.496C465 541.952 472.508 535 481.737 535H508V551Z" fill="#2F2E41"/>
<path d="M629 529.337L616.43 533L595 490.407L613.551 485L629 529.337Z" fill="#FFB8B8"/>
<path d="M594.958 551L594.793 550.543C591.986 542.799 596.869 534.491 605.678 532.023L630.744 525L636 539.502L594.958 551Z" fill="#2F2E41"/>
<path d="M562.5 216C577.136 216 589 205.255 589 192C589 178.745 577.136 168 562.5 168C547.864 168 536 178.745 536 192C536 205.255 547.864 216 562.5 216Z" fill="#FFB8B8"/>
<path d="M573.996 187.25C574.148 177.343 569.652 167.532 562.701 162.599C559.341 160.196 555.305 158.935 551.183 159.003C547.061 159.07 543.068 160.461 539.787 162.973C532.944 168.13 528.659 178.084 529.021 187.983C544.355 188.023 559.688 188.063 573.996 187.25Z" fill="#2F2E41"/>
<path d="M511.851 524L511.32 523.953C499.794 522.922 487.876 521.858 476.613 521.736L476 521.729L476.084 521.176C478.752 503.569 479.883 485.264 480.978 467.561C482.058 450.081 483.175 432.006 485.776 414.84C486.877 410.243 487.95 405.701 489.019 401.175C497.864 363.723 506.219 328.348 523.465 293.331L523.628 293L524.023 293.043C540.205 294.827 555.754 300.206 567.805 308.187L568.038 308.342L568.027 308.605C567.695 313.993 567.656 319.396 567.91 324.788C573.333 331.504 576.963 339.471 578.466 347.951C579.968 356.432 579.294 365.153 576.505 373.306C581.25 387.753 586.156 402.687 591.162 417.419C603.317 447.778 615.895 479.195 628.788 511.042L629 511.564L628.405 511.691C619.128 513.676 609.559 515.721 600.118 516.516L599.762 516.545L599.592 516.258C575.65 475.733 556.059 432.819 541.143 388.223C537.921 397.174 533.28 405.253 528.784 413.079C524.502 420.162 520.717 427.531 517.457 435.133C515.467 450.019 514.939 466.147 514.429 481.744C513.946 496.491 513.491 510.419 511.91 523.516L511.851 524Z" fill="#2F2E41"/>
<path d="M553.433 163.854C564.704 161.61 577.172 163.745 586.024 170.77C594.876 177.796 599.371 189.95 595.734 200.374C592.098 210.798 579.752 218.132 568.588 215.44C571.786 207.114 568.187 196.892 560.37 192.096C551.1 186.408 548.548 172.83 553.433 163.854Z" fill="#2F2E41"/>
<path d="M567.078 309L566.66 308.824C552.088 302.677 537.799 297.96 524.412 293.656L524.001 293.574L524 292.473L524.266 292.559C524.322 292.445 524.386 292.315 524.449 292.186C524.632 291.812 524.757 291.557 524.863 291.388L524.86 291.387C525.976 289.284 526.863 287.252 527.721 285.286C528.606 283.258 529.52 281.164 530.701 278.948C527.877 276.43 525.913 273.076 525.089 269.366C524.265 265.655 524.623 261.776 526.113 258.283C529.07 251.802 536.611 246.754 544.534 245.916C547.437 238.526 553.906 222.998 553.906 222.998C553.906 222.998 567.509 222.653 572.98 222.011L573.072 222L573.162 222.018C585.105 224.438 595.076 234.888 597.409 247.431C599.379 258.017 596.388 270.125 588.989 281.526C585.169 287.131 580.971 292.465 576.425 297.488C573.093 301.342 569.945 304.981 567.331 308.646L567.078 309Z" fill="#CCCCCC"/>
<path d="M593.631 177.835C585.529 176.739 579.168 169.237 580.089 161.864C581.01 154.491 589.061 148.466 597.228 149.038C605.396 149.61 612.329 156.684 611.988 164.098C611.647 171.511 603.976 179.233 593.631 177.835Z" fill="#2F2E41"/>
<path d="M592.256 172.832C583.98 171.724 577.482 164.139 578.422 156.684C579.066 151.584 583.12 147.125 588.286 145C581.612 146.31 575.868 151.524 575.091 157.68C574.15 165.135 580.648 172.72 588.925 173.828C591.999 174.263 595.137 173.87 598 172.69C596.106 173.045 594.166 173.094 592.256 172.832Z" fill="#2F2E41"/>
<path d="M436.41 303.141C437.999 300.801 440.411 299.124 443.179 298.436C445.947 297.747 448.875 298.095 451.399 299.411C451.916 299.681 452.41 299.99 452.877 300.336L486 282L485.319 300.242L453.97 314.858C452.199 316.501 449.955 317.56 447.548 317.89C445.141 318.22 442.689 317.803 440.533 316.698C439.309 316.129 438.219 315.313 437.336 314.301C436.453 313.29 435.796 312.106 435.407 310.827C435.018 309.548 434.906 308.203 435.079 306.878C435.252 305.554 435.705 304.281 436.41 303.141Z" fill="#FFB8B8"/>
<path d="M463 292.738L463.316 292.539C495.117 272.535 527.992 251.855 563.328 228.155L563.559 228L563.807 228.192C570.072 233.033 573.364 242.285 571.464 249.711C569.707 256.582 563.206 261.864 555.638 262.581L513.107 285.268C499.451 293.32 485.316 301.654 471.339 309.77L470.942 310L470.715 309.514C468.044 303.801 465.283 297.9 463.177 293.137L463 292.738Z" fill="#CCCCCC"/>
</svg>
