<svg width="116" height="153" viewBox="0 0 116 153" fill="none" xmlns="http://www.w3.org/2000/svg">
<rect x="2" y="2" width="111.925" height="148.927" rx="12" fill="#ECEDFF" stroke="#2B2A35" stroke-width="4"/>
<path d="M4.00098 14C4.00098 8.47715 8.47813 4 14.001 4H101.926C107.448 4 111.926 8.47715 111.926 14V24.0431H4.00098V14Z" fill="#464BA8"/>
<rect x="22.502" y="60" width="70.9218" height="3.08356" rx="1.54178" fill="#464BA8"/>
<rect x="23" y="80" width="33" height="3" rx="1.5" fill="#464BA8"/>
<rect x="60" y="80" width="33" height="3" rx="1.5" fill="#464BA8"/>
<rect x="23" y="70" width="33" height="3" rx="1.5" fill="#464BA8"/>
<rect x="60" y="70" width="33" height="3" rx="1.5" fill="#464BA8"/>
<path d="M70.625 120.875V126.708C70.625 127.482 70.3177 128.224 69.7707 128.771C69.2237 129.318 68.4819 129.625 67.7083 129.625H47.2917C46.5181 129.625 45.7763 129.318 45.2293 128.771C44.6823 128.224 44.375 127.482 44.375 126.708V120.875" stroke="#464BA8" stroke-width="3" stroke-linecap="round" stroke-linejoin="round"/>
<path d="M64.7913 110.667L57.4997 103.375L50.208 110.667" stroke="#464BA8" stroke-width="3" stroke-linecap="round" stroke-linejoin="round"/>
<path d="M57.5 103.375V120.875" stroke="#464BA8" stroke-width="3" stroke-linecap="round" stroke-linejoin="round"/>
</svg>
