<svg width="116" height="153" viewBox="0 0 116 153" fill="none" xmlns="http://www.w3.org/2000/svg">
<rect x="2" y="2" width="111.925" height="148.927" rx="12" fill="#ECEDFF" stroke="#2B2A35" stroke-width="4"/>
<rect x="22.5029" y="20.9597" width="70.9218" height="3.08356" rx="1.54178" fill="#464BA8"/>
<rect x="22.5029" y="51.0244" width="70.9218" height="3.08356" rx="1.54178" fill="#464BA8"/>
<rect x="22.5029" y="80.3181" width="70.9218" height="3.08356" rx="1.54178" fill="#464BA8"/>
<rect x="22.5029" y="39.4612" width="24.6685" height="3.08356" rx="1.54178" fill="#464BA8"/>
<rect x="22.5029" y="68.7549" width="24.6685" height="3.08356" rx="1.54178" fill="#464BA8"/>
<rect x="22.5029" y="98.8196" width="24.6685" height="3.08356" rx="1.54178" fill="#464BA8"/>
<rect x="22.5029" y="30.2104" width="24.6685" height="3.08356" rx="1.54178" fill="#464BA8"/>
<rect x="22.5029" y="59.5042" width="24.6685" height="3.08356" rx="1.54178" fill="#464BA8"/>
<rect x="22.5029" y="89.5688" width="24.6685" height="3.08356" rx="1.54178" fill="#464BA8"/>
<path d="M80.0417 129.131C86.485 129.131 91.7083 124.017 91.7083 117.708C91.7083 111.398 86.485 106.284 80.0417 106.284C73.5983 106.284 68.375 111.398 68.375 117.708C68.375 124.017 73.5983 129.131 80.0417 129.131Z" stroke="#464BA8" stroke-width="4" stroke-linecap="round" stroke-linejoin="round"/>
<path d="M101.917 139.187L88.0625 126.062" stroke="#464BA8" stroke-width="4" stroke-linecap="round" stroke-linejoin="round"/>
<path d="M101.916 139.187L93.8955 131.896" stroke="#464BA8" stroke-width="6" stroke-linecap="round" stroke-linejoin="round"/>
</svg>
