<svg width="88" height="85" viewBox="0 0 88 85" fill="none" xmlns="http://www.w3.org/2000/svg">
<path fill-rule="evenodd" clip-rule="evenodd" d="M84.3311 49.1742C86.1516 46.9414 88 44.6744 88 42.0979C88 39.5036 86.148 37.2282 84.3309 34.9957C82.9991 33.3595 81.686 31.7462 81.1346 30.0474C80.5477 28.2299 80.6575 26.0544 80.7667 23.8885C80.9101 21.0455 81.0527 18.219 79.6178 16.241C78.1626 14.2408 75.3951 13.5009 72.6332 12.7624C70.5465 12.2044 68.463 11.6473 66.9513 10.5483C65.4628 9.45782 64.3043 7.66897 63.14 5.87133C61.5777 3.45896 60.005 1.03078 57.6111 0.253384C55.3316 -0.481219 52.7225 0.516211 50.0791 1.52676C48.032 2.30933 45.9644 3.09977 44.0133 3.09977C42.0622 3.09977 39.9946 2.30933 37.9475 1.52676C35.3041 0.516212 32.695 -0.481219 30.4155 0.253384C28.0103 1.0447 26.4412 3.47261 24.886 5.87881C23.7226 7.67887 22.5671 9.46677 21.0753 10.5483C19.5636 11.6473 17.4801 12.2044 15.3934 12.7624C12.6315 13.5009 9.86398 14.2408 8.40883 16.241C6.95649 18.2222 7.10392 21.0547 7.25216 23.9024C7.36465 26.0637 7.47761 28.2338 6.89205 30.0474C6.32858 31.7598 5.00628 33.3815 3.66894 35.0217C1.84841 37.2545 0 39.5215 0 42.0979C0 44.6681 1.83934 46.9303 3.65045 49.1577C4.98862 50.8036 6.31139 52.4304 6.86544 54.1486C7.45226 55.966 7.34253 58.1415 7.23329 60.3074C7.0899 63.1504 6.94735 65.9769 8.38222 67.9549C9.83737 69.9551 12.6049 70.6951 15.3668 71.4335C17.4535 71.9915 19.537 72.5486 21.0487 73.6476C22.5372 74.7381 23.6957 76.5269 24.86 78.3246C26.4223 80.7369 27.995 83.1651 30.3889 83.9425C32.6684 84.6771 35.2775 83.6797 37.9209 82.6692C39.968 81.8866 42.0356 81.0961 43.9867 81.0961C45.9378 81.0961 48.0054 81.8866 50.0525 82.6692C52.6959 83.6797 55.305 84.6771 57.5845 83.9425C59.9897 83.1512 61.5588 80.7233 63.114 78.3171C64.2774 76.517 65.4329 74.7291 66.9247 73.6476C68.4364 72.5486 70.5199 71.9915 72.6066 71.4335C75.3685 70.6951 78.136 69.9551 79.5912 67.9549C81.0263 65.9765 80.8834 63.1407 80.74 60.2946C80.6308 58.1273 80.5213 55.954 81.108 54.1486C81.6714 52.4362 82.9937 50.8144 84.3311 49.1742ZM44.0144 15.8702C29.5237 15.8702 17.7767 27.6135 17.7767 42.0996C17.7767 56.5856 29.5237 68.3289 44.0144 68.3289C58.5051 68.3289 70.2521 56.5856 70.2521 42.0996C70.2521 27.6135 58.5051 15.8702 44.0144 15.8702ZM13.7852 42.0996C13.7852 25.4098 27.3193 11.88 44.0144 11.88C60.7095 11.88 74.2436 25.4098 74.2436 42.0996C74.2436 58.7894 60.7095 72.3192 44.0144 72.3192C27.3193 72.3192 13.7852 58.7894 13.7852 42.0996ZM54.0277 33.0607L39.4468 47.6415L33.1979 41.3926C32.8507 41.0455 31.896 40.6115 30.8545 41.653C29.813 42.6945 30.2469 43.6492 30.5941 43.9964L38.1449 51.5472C39.1864 52.5887 40.3147 51.9811 40.7487 51.5472L56.8918 35.4041C57.3257 34.9699 57.9332 33.8412 56.8918 32.7998C55.8503 31.7583 54.5485 32.5398 54.0277 33.0607Z" fill="#C4C4C4"/>
</svg>
