<svg width="91" height="91" viewBox="0 0 91 91" fill="none" xmlns="http://www.w3.org/2000/svg">
<path d="M45.5572 70.3855C59.0809 70.3855 70.044 59.4224 70.044 45.8987C70.044 32.3749 59.0809 21.4118 45.5572 21.4118C32.0335 21.4118 21.0703 32.3749 21.0703 45.8987C21.0703 59.4224 32.0335 70.3855 45.5572 70.3855Z" fill="#C4C4C4"/>
<path d="M36.3301 81.433C37.1273 83.597 38.9496 85.1914 41.2274 85.647V86.7859C41.2274 89.0638 43.1636 91 45.4415 91C47.7193 91 49.6555 89.0638 49.6555 86.7859V85.647C51.9333 85.3053 53.8695 83.597 54.5529 81.433H36.3301Z" fill="#C4C4C4"/>
<path d="M55.0117 75.1689H35.9917V79.3829H55.0117V75.1689Z" fill="#C4C4C4"/>
<path d="M55.0117 68.3354H35.9917V72.5493H55.0117V68.3354Z" fill="#C4C4C4"/>
<path d="M2.16395 43.3931C1.02503 43.3931 0 44.3043 0 45.5571C0 46.8099 0.911138 47.721 2.16395 47.721H12.7559C13.8949 47.721 14.9199 46.8099 14.9199 45.5571C14.9199 44.4182 14.0088 43.3931 12.7559 43.3931H2.16395Z" fill="#C4C4C4"/>
<path d="M14.8071 12.7559C14.2376 12.7559 13.782 12.9837 13.3265 13.4393C12.5292 14.2365 12.5292 15.6032 13.3265 16.4004L20.8433 23.9174C21.6406 24.7146 23.0073 24.7146 23.8045 23.9174C24.6018 23.1201 24.6018 21.7534 23.8045 20.9561L16.2877 13.4393C15.946 12.9837 15.3765 12.7559 14.8071 12.7559Z" fill="#C4C4C4"/>
<path d="M45.5585 0C44.4196 0 43.3945 0.911097 43.3945 2.16391V12.7559C43.3945 13.8948 44.3057 14.9199 45.5585 14.9199C46.6974 14.9199 47.7224 14.0087 47.7224 12.7559V2.16391C47.6086 0.911097 46.6974 0 45.5585 0Z" fill="#C4C4C4"/>
<path d="M76.196 12.7559C75.6266 12.7559 75.171 12.9837 74.7154 13.4393L67.1985 20.9561C66.4013 21.7534 66.4013 23.1201 67.1985 23.9174C67.9958 24.7146 69.3625 24.7146 70.1597 23.9174L77.6766 16.4004C78.4739 15.6032 78.4739 14.2365 77.6766 13.4393C77.221 12.9837 76.7655 12.7559 76.196 12.7559Z" fill="#C4C4C4"/>
<path d="M78.3563 43.3931C77.2174 43.3931 76.1924 44.3043 76.1924 45.5571C76.1924 46.696 77.1035 47.721 78.3563 47.721H88.8344C89.9734 47.721 90.9984 46.8099 90.9984 45.5571C90.9984 44.3043 90.0872 43.3931 88.8344 43.3931H78.3563Z" fill="#C4C4C4"/>
</svg>
