<svg width="126" height="101" viewBox="0 0 126 101" fill="none" xmlns="http://www.w3.org/2000/svg">
<g clip-path="url(#clip0_13819_85739)">
<path d="M95.371 100.164L11.656 100.194C7.45041 100.195 3.68314 98.0061 1.57906 94.3383C0.526894 92.5041 0.000693685 90.4921 6.85071e-07 88.4797C-0.000692315 86.4676 0.52438 84.455 1.57504 82.6203L43.4059 5.91899C45.5077 2.24948 49.2735 0.0581061 53.4791 0.0566414C57.6848 0.0551766 61.452 2.24393 63.5564 5.91197L105.445 82.5937C106.495 84.4229 107.02 86.4326 107.02 88.4437C107.02 90.4548 106.495 92.4672 105.444 94.3021C103.342 97.9713 99.5766 100.163 95.371 100.164ZM1.0523 88.4783C1.05217 90.31 10.2898 86.363 11.2468 88.0314C13.1611 91.3683 7.82944 99.1373 11.6557 99.136C11.6557 99.136 102.623 97.1118 104.534 93.7736C105.49 92.1045 105.968 90.2734 105.967 88.4428C105.967 86.6122 105.488 84.7817 104.531 83.1133L62.6416 6.43154C60.7327 3.10425 57.3057 1.1129 53.4795 1.11423C49.655 1.11557 1.05245 86.6464 1.0523 88.4783Z" fill="#3F3D56"/>
<path d="M77.9031 83.2491C99.0694 83.2491 116.228 65.9664 116.228 44.647C116.228 23.3277 99.0694 6.04492 77.9031 6.04492C56.7368 6.04492 39.5781 23.3277 39.5781 44.647C39.5781 65.9664 56.7368 83.2491 77.9031 83.2491Z" fill="#464BA8"/>
<path d="M76.3835 53.0815L69.5859 23.488L74.9271 22.3555L80.5508 52.198L76.3835 53.0815ZM81.0564 64.2961C80.0781 64.5035 79.191 64.3645 78.3948 63.8791C77.6296 63.3462 77.1488 62.6099 76.9525 61.6702C76.7561 60.7305 76.9055 59.8811 77.4006 59.1219C77.9267 58.3152 78.6789 57.8082 79.6572 57.6008C80.5963 57.4017 81.4484 57.5685 82.2136 58.1014C83.0098 58.5868 83.506 59.2994 83.7024 60.2391C83.8988 61.1788 83.7339 62.052 83.2078 62.8586C82.7127 63.6178 81.9955 64.097 81.0564 64.2961Z" fill="white"/>
</g>
<defs>
<clipPath id="clip0_13819_85739">
<rect width="126" height="101" fill="white"/>
</clipPath>
</defs>
</svg>
