<svg width="67" height="67" viewBox="0 0 67 67" fill="none" xmlns="http://www.w3.org/2000/svg">
<rect x="0.4375" width="66.4404" height="66.4404" rx="10" fill="#F8F8F8"/>
<path d="M34.1619 11.7246C45.3841 11.7982 55.2017 20.6771 55.8847 31.4301C56.6607 43.643 48.6554 53.8036 36.9519 55.2944C32.8542 55.8172 28.8069 55.3641 25.0389 53.521C23.9136 52.9711 22.8698 52.8898 21.6862 53.2073C19.3153 53.8385 16.9327 54.4115 14.5462 54.9808C12.2218 55.5345 12.0705 55.3757 12.6525 52.9905C13.2191 50.6749 13.7856 48.3593 14.4065 46.0593C14.7208 44.8976 14.6665 43.8676 14.1582 42.7137C8.20943 29.2153 16.11 14.5474 30.6889 11.9802C31.8258 11.7788 33.0016 11.8059 34.1619 11.7246ZM39.2957 43.5733C39.9205 43.5733 40.1145 43.5772 40.3085 43.5733C42.2643 43.5075 43.8358 42.2877 44.2976 40.4949C44.6701 39.0429 43.7621 38.3807 42.6795 37.7921C40.0524 36.3594 39.2569 36.3323 37.7474 38.0051C36.9364 38.8996 36.1448 38.9151 35.1592 38.4814C32.4506 37.2849 30.5104 35.2791 29.028 32.7699C28.6672 32.162 28.5275 31.4998 29.0319 30.9732C31.0071 28.9132 29.7265 27.0004 28.7448 25.1456C27.7436 23.2598 25.5783 23.1437 24.3172 24.8862C22.6214 27.2288 22.7417 29.7496 24.03 32.193C25.5279 35.0235 27.7397 37.3081 30.1534 39.372C32.9046 41.7224 36.0012 43.3797 39.2957 43.5733Z" fill="#2B2A35"/>
</svg>
