<svg width="68" height="67" viewBox="0 0 68 67" fill="none" xmlns="http://www.w3.org/2000/svg">
<rect x="0.75" width="66.4404" height="66.4404" rx="10" fill="#F8F8F8"/>
<path d="M54.6701 33.3543C54.6701 35.813 54.6881 38.2752 54.6665 40.7338C54.6376 44.3245 52.3918 46.7254 48.8662 47.0427C39.1691 47.9115 29.4755 47.879 19.7783 47.0319C16.3429 46.7326 14.0682 44.3028 14.0502 40.842C14.0249 35.8022 14.0249 30.7623 14.0502 25.7225C14.0682 22.3193 16.2456 19.7489 19.5837 19.565C24.8504 19.273 30.1028 18.6205 35.3839 18.7864C39.9333 18.9306 44.4827 19.2154 49.0248 19.5398C52.3846 19.7813 54.6196 22.2544 54.6593 25.6143C54.6917 28.1955 54.6665 30.7767 54.6701 33.3543ZM29.4034 33.2354C29.4034 35.1568 29.4214 37.0783 29.3962 38.9998C29.3818 40.0885 29.681 40.4707 30.7516 39.8398C34.0645 37.8931 37.3882 35.968 40.7264 34.0681C41.6528 33.5382 41.9124 33.1164 40.8129 32.4891C37.4748 30.5857 34.1474 28.6678 30.8345 26.7247C29.663 26.0397 29.3746 26.4975 29.3962 27.6512C29.4286 29.5114 29.4034 31.3716 29.4034 33.2354Z" fill="#2B2A35"/>
</svg>
