<svg width="17" height="17" viewBox="0 0 17 17" fill="none" xmlns="http://www.w3.org/2000/svg">
<g clip-path="url(#clip0_17319_51162)">
<path d="M16.2348 6.05867L8.73484 2.05867C8.6625 2.02015 8.5818 2 8.49984 2C8.41789 2 8.33718 2.02015 8.26484 2.05867L0.764844 6.05867C0.684846 6.1013 0.617944 6.16488 0.571294 6.2426C0.524643 6.32033 0.5 6.40927 0.5 6.49992C0.5 6.59057 0.524643 6.67951 0.571294 6.75723C0.617944 6.83495 0.684846 6.89853 0.764844 6.94117L2.49984 7.86679V10.893C2.49932 11.1386 2.58971 11.3757 2.75359 11.5587C3.57234 12.4705 5.40672 13.9999 8.49984 13.9999C9.52544 14.0084 10.5434 13.8226 11.4998 13.4524V15.4999C11.4998 15.6325 11.5525 15.7597 11.6463 15.8535C11.7401 15.9472 11.8672 15.9999 11.9998 15.9999C12.1325 15.9999 12.2596 15.9472 12.3534 15.8535C12.4472 15.7597 12.4998 15.6325 12.4998 15.4999V12.9693C13.1518 12.5929 13.741 12.117 14.2461 11.5587C14.41 11.3757 14.5004 11.1386 14.4998 10.893V7.86679L16.2348 6.94117C16.3148 6.89853 16.3817 6.83495 16.4284 6.75723C16.475 6.67951 16.4997 6.59057 16.4997 6.49992C16.4997 6.40927 16.475 6.32033 16.4284 6.2426C16.3817 6.16488 16.3148 6.1013 16.2348 6.05867ZM8.49984 12.9999C5.79547 12.9999 4.20484 11.6787 3.49984 10.893V8.39992L8.26484 10.9412C8.33718 10.9797 8.41789 10.9998 8.49984 10.9998C8.5818 10.9998 8.6625 10.9797 8.73484 10.9412L11.4998 9.46679V12.363C10.7123 12.7305 9.71984 12.9999 8.49984 12.9999ZM13.4998 10.8905C13.2001 11.2231 12.8648 11.5218 12.4998 11.7812V8.93304L13.4998 8.39992V10.8905ZM12.2498 7.93367L12.2361 7.92554L8.73609 6.05867C8.61932 5.99902 8.48379 5.98764 8.3587 6.02696C8.23361 6.06629 8.12898 6.15318 8.06734 6.26891C8.00571 6.38464 7.992 6.51996 8.02917 6.6457C8.06635 6.77145 8.15143 6.87755 8.26609 6.94117L11.1873 8.49992L8.49984 9.93304L2.06234 6.49992L8.49984 3.06679L14.9373 6.49992L12.2498 7.93367Z" fill="white"/>
</g>
<defs>
<clipPath id="clip0_17319_51162">
<rect width="16" height="16" fill="white" transform="translate(0.5 0.5)"/>
</clipPath>
</defs>
</svg>
