<svg width="17" height="17" viewBox="0 0 17 17" fill="none" xmlns="http://www.w3.org/2000/svg">
<path d="M8.4987 15.1668C12.1806 15.1668 15.1654 12.1821 15.1654 8.50016C15.1654 4.81826 12.1806 1.8335 8.4987 1.8335C4.8168 1.8335 1.83203 4.81826 1.83203 8.50016C1.83203 12.1821 4.8168 15.1668 8.4987 15.1668Z" stroke="white" stroke-linecap="round" stroke-linejoin="round"/>
<path d="M6.55859 6.49989C6.71533 6.05434 7.0247 5.67863 7.4319 5.43931C7.8391 5.2 8.31786 5.11252 8.78338 5.19237C9.2489 5.27222 9.67114 5.51424 9.97531 5.87558C10.2795 6.23691 10.446 6.69424 10.4453 7.16656C10.4453 8.49989 8.44526 9.16656 8.44526 9.16656" stroke="white" stroke-linecap="round" stroke-linejoin="round"/>
<path d="M8.5 11.8335H8.50667" stroke="white" stroke-linecap="round" stroke-linejoin="round"/>
</svg>
