<svg width="17" height="17" viewBox="0 0 17 17" fill="none" xmlns="http://www.w3.org/2000/svg">
<path d="M11.168 3.16602H12.5013C12.8549 3.16602 13.1941 3.30649 13.4441 3.55654C13.6942 3.80659 13.8346 4.14573 13.8346 4.49935V13.8327C13.8346 14.1863 13.6942 14.5254 13.4441 14.7755C13.1941 15.0255 12.8549 15.166 12.5013 15.166H4.5013C4.14768 15.166 3.80854 15.0255 3.55849 14.7755C3.30844 14.5254 3.16797 14.1863 3.16797 13.8327V4.49935C3.16797 4.14573 3.30844 3.80659 3.55849 3.55654C3.80854 3.30649 4.14768 3.16602 4.5013 3.16602H5.83464" stroke="white" stroke-linecap="round" stroke-linejoin="round"/>
<path d="M10.4987 1.83398H6.4987C6.13051 1.83398 5.83203 2.13246 5.83203 2.50065V3.83398C5.83203 4.20217 6.13051 4.50065 6.4987 4.50065H10.4987C10.8669 4.50065 11.1654 4.20217 11.1654 3.83398V2.50065C11.1654 2.13246 10.8669 1.83398 10.4987 1.83398Z" stroke="white" stroke-linecap="round" stroke-linejoin="round"/>
</svg>
