<svg width="328" height="46" viewBox="0 0 328 46" fill="none" xmlns="http://www.w3.org/2000/svg">
<path d="M10.7286 35V6.344H0.936625V1.4H26.7126V6.344H16.8726V35H10.7286ZM38.2315 35.576C35.9275 35.576 33.8475 35.048 31.9915 33.992C30.1675 32.936 28.7115 31.48 27.6235 29.624C26.5675 27.736 26.0395 25.56 26.0395 23.096C26.0395 20.632 26.5835 18.472 27.6715 16.616C28.7595 14.728 30.2155 13.256 32.0395 12.2C33.8955 11.144 35.9755 10.616 38.2795 10.616C40.5515 10.616 42.5995 11.144 44.4235 12.2C46.2795 13.256 47.7355 14.728 48.7915 16.616C49.8795 18.472 50.4235 20.632 50.4235 23.096C50.4235 25.56 49.8795 27.736 48.7915 29.624C47.7355 31.48 46.2795 32.936 44.4235 33.992C42.5675 35.048 40.5035 35.576 38.2315 35.576ZM38.2315 30.248C39.8315 30.248 41.2235 29.656 42.4075 28.472C43.5915 27.256 44.1835 25.464 44.1835 23.096C44.1835 20.728 43.5915 18.952 42.4075 17.768C41.2235 16.552 39.8475 15.944 38.2795 15.944C36.6475 15.944 35.2395 16.552 34.0555 17.768C32.9035 18.952 32.3275 20.728 32.3275 23.096C32.3275 25.464 32.9035 27.256 34.0555 28.472C35.2395 29.656 36.6315 30.248 38.2315 30.248ZM55.9169 45.56V11.192H61.3889L62.0609 14.6C62.8289 13.544 63.8369 12.616 65.0849 11.816C66.3649 11.016 68.0129 10.616 70.0289 10.616C72.2689 10.616 74.2689 11.16 76.0289 12.248C77.7889 13.336 79.1809 14.824 80.2049 16.712C81.2289 18.6 81.7409 20.744 81.7409 23.144C81.7409 25.544 81.2289 27.688 80.2049 29.576C79.1809 31.432 77.7889 32.904 76.0289 33.992C74.2689 35.048 72.2689 35.576 70.0289 35.576C68.2369 35.576 66.6689 35.24 65.3249 34.568C63.9809 33.896 62.8929 32.952 62.0609 31.736V45.56H55.9169ZM68.7329 30.2C70.6849 30.2 72.3009 29.544 73.5809 28.232C74.8609 26.92 75.5009 25.224 75.5009 23.144C75.5009 21.064 74.8609 19.352 73.5809 18.008C72.3009 16.664 70.6849 15.992 68.7329 15.992C66.7489 15.992 65.1169 16.664 63.8369 18.008C62.5889 19.32 61.9649 21.016 61.9649 23.096C61.9649 25.176 62.5889 26.888 63.8369 28.232C65.1169 29.544 66.7489 30.2 68.7329 30.2Z" fill="#F25094"/>
<path d="M102.061 35.576C98.8934 35.576 96.1254 34.856 93.7574 33.416C91.3894 31.976 89.5494 29.976 88.2374 27.416C86.9254 24.824 86.2694 21.816 86.2694 18.392C86.2694 14.936 86.9414 11.896 88.2854 9.272C89.6614 6.616 91.5974 4.552 94.0934 3.08C96.6214 1.576 99.6134 0.823999 103.069 0.823999C107.005 0.823999 110.269 1.768 112.861 3.656C115.453 5.544 117.133 8.152 117.901 11.48H111.037C110.525 9.912 109.597 8.696 108.253 7.832C106.909 6.936 105.181 6.488 103.069 6.488C99.7094 6.488 97.1174 7.56 95.2934 9.704C93.4694 11.816 92.5574 14.728 92.5574 18.44C92.5574 22.152 93.4534 25.032 95.2454 27.08C97.0694 29.096 99.5334 30.104 102.637 30.104C105.677 30.104 107.965 29.288 109.501 27.656C111.069 25.992 112.013 23.816 112.333 21.128H103.837V16.52H118.525V35H112.861L112.381 30.584C111.293 32.184 109.933 33.416 108.301 34.28C106.669 35.144 104.589 35.576 102.061 35.576ZM124.354 35V11.192H129.826L130.402 15.656C131.266 14.12 132.434 12.904 133.906 12.008C135.41 11.08 137.17 10.616 139.186 10.616V17.096H137.458C136.114 17.096 134.914 17.304 133.858 17.72C132.802 18.136 131.97 18.856 131.362 19.88C130.786 20.904 130.498 22.328 130.498 24.152V35H124.354ZM151.594 35.576C149.546 35.576 147.866 35.256 146.554 34.616C145.242 33.944 144.266 33.064 143.626 31.976C142.986 30.888 142.666 29.688 142.666 28.376C142.666 26.168 143.53 24.376 145.258 23C146.986 21.624 149.578 20.936 153.034 20.936H159.082V20.36C159.082 18.728 158.618 17.528 157.69 16.76C156.762 15.992 155.61 15.608 154.234 15.608C152.986 15.608 151.898 15.912 150.97 16.52C150.042 17.096 149.466 17.96 149.242 19.112H143.242C143.402 17.384 143.978 15.88 144.97 14.6C145.994 13.32 147.306 12.344 148.906 11.672C150.506 10.968 152.298 10.616 154.282 10.616C157.674 10.616 160.346 11.464 162.298 13.16C164.25 14.856 165.226 17.256 165.226 20.36V35H159.994L159.418 31.16C158.714 32.44 157.722 33.496 156.442 34.328C155.194 35.16 153.578 35.576 151.594 35.576ZM152.986 30.776C154.746 30.776 156.106 30.2 157.066 29.048C158.058 27.896 158.682 26.472 158.938 24.776H153.706C152.074 24.776 150.906 25.08 150.202 25.688C149.498 26.264 149.146 26.984 149.146 27.848C149.146 28.776 149.498 29.496 150.202 30.008C150.906 30.52 151.834 30.776 152.986 30.776ZM182.033 35.576C179.793 35.576 177.793 35.032 176.033 33.944C174.273 32.856 172.881 31.368 171.857 29.48C170.833 27.592 170.321 25.448 170.321 23.048C170.321 20.648 170.833 18.52 171.857 16.664C172.881 14.776 174.273 13.304 176.033 12.248C177.793 11.16 179.793 10.616 182.033 10.616C183.825 10.616 185.393 10.952 186.737 11.624C188.081 12.296 189.169 13.24 190.001 14.456V0.439999H196.145V35H190.673L190.001 31.592C189.233 32.648 188.209 33.576 186.929 34.376C185.681 35.176 184.049 35.576 182.033 35.576ZM183.329 30.2C185.313 30.2 186.929 29.544 188.177 28.232C189.457 26.888 190.097 25.176 190.097 23.096C190.097 21.016 189.457 19.32 188.177 18.008C186.929 16.664 185.313 15.992 183.329 15.992C181.377 15.992 179.761 16.648 178.481 17.96C177.201 19.272 176.561 20.968 176.561 23.048C176.561 25.128 177.201 26.84 178.481 28.184C179.761 29.528 181.377 30.2 183.329 30.2ZM211.329 35.576C208.353 35.576 206.049 34.648 204.417 32.792C202.817 30.936 202.017 28.216 202.017 24.632V11.192H208.113V24.056C208.113 26.104 208.529 27.672 209.361 28.76C210.193 29.848 211.505 30.392 213.297 30.392C214.993 30.392 216.385 29.784 217.473 28.568C218.593 27.352 219.153 25.656 219.153 23.48V11.192H225.297V35H219.873L219.393 30.968C218.657 32.376 217.585 33.496 216.177 34.328C214.801 35.16 213.185 35.576 211.329 35.576ZM239.812 35.576C237.764 35.576 236.084 35.256 234.772 34.616C233.46 33.944 232.484 33.064 231.844 31.976C231.204 30.888 230.884 29.688 230.884 28.376C230.884 26.168 231.748 24.376 233.476 23C235.204 21.624 237.796 20.936 241.252 20.936H247.3V20.36C247.3 18.728 246.836 17.528 245.908 16.76C244.98 15.992 243.828 15.608 242.452 15.608C241.204 15.608 240.116 15.912 239.188 16.52C238.26 17.096 237.684 17.96 237.46 19.112H231.46C231.62 17.384 232.196 15.88 233.188 14.6C234.212 13.32 235.524 12.344 237.124 11.672C238.724 10.968 240.516 10.616 242.5 10.616C245.892 10.616 248.564 11.464 250.516 13.16C252.468 14.856 253.444 17.256 253.444 20.36V35H248.212L247.636 31.16C246.932 32.44 245.94 33.496 244.66 34.328C243.412 35.16 241.796 35.576 239.812 35.576ZM241.204 30.776C242.964 30.776 244.324 30.2 245.284 29.048C246.276 27.896 246.9 26.472 247.156 24.776H241.924C240.292 24.776 239.124 25.08 238.42 25.688C237.716 26.264 237.364 26.984 237.364 27.848C237.364 28.776 237.716 29.496 238.42 30.008C239.124 30.52 240.052 30.776 241.204 30.776ZM269.587 35C267.091 35 265.091 34.392 263.587 33.176C262.083 31.96 261.331 29.8 261.331 26.696V16.328H257.251V11.192H261.331L262.051 4.808H267.475V11.192H273.907V16.328H267.475V26.744C267.475 27.896 267.715 28.696 268.195 29.144C268.707 29.56 269.571 29.768 270.787 29.768H273.763V35H269.587ZM290.141 35.576C287.741 35.576 285.613 35.064 283.757 34.04C281.901 33.016 280.445 31.576 279.389 29.72C278.333 27.864 277.805 25.72 277.805 23.288C277.805 20.824 278.317 18.632 279.341 16.712C280.397 14.792 281.837 13.304 283.661 12.248C285.517 11.16 287.693 10.616 290.189 10.616C292.525 10.616 294.589 11.128 296.381 12.152C298.173 13.176 299.565 14.584 300.557 16.376C301.581 18.136 302.093 20.104 302.093 22.28C302.093 22.632 302.077 23 302.045 23.384C302.045 23.768 302.029 24.168 301.997 24.584H283.901C284.029 26.44 284.669 27.896 285.821 28.952C287.005 30.008 288.429 30.536 290.093 30.536C291.341 30.536 292.381 30.264 293.213 29.72C294.077 29.144 294.717 28.408 295.133 27.512H301.373C300.925 29.016 300.173 30.392 299.117 31.64C298.093 32.856 296.813 33.816 295.277 34.52C293.773 35.224 292.061 35.576 290.141 35.576ZM290.189 15.608C288.685 15.608 287.357 16.04 286.205 16.904C285.053 17.736 284.317 19.016 283.997 20.744H295.853C295.757 19.176 295.181 17.928 294.125 17C293.069 16.072 291.757 15.608 290.189 15.608ZM317.101 35.576C314.989 35.576 313.133 35.24 311.533 34.568C309.933 33.864 308.653 32.904 307.693 31.688C306.733 30.472 306.157 29.064 305.965 27.464H312.157C312.349 28.392 312.861 29.192 313.693 29.864C314.557 30.504 315.661 30.824 317.005 30.824C318.349 30.824 319.325 30.552 319.933 30.008C320.573 29.464 320.893 28.84 320.893 28.136C320.893 27.112 320.445 26.424 319.549 26.072C318.653 25.688 317.405 25.32 315.805 24.968C314.781 24.744 313.741 24.472 312.685 24.152C311.629 23.832 310.653 23.432 309.757 22.952C308.893 22.44 308.189 21.8 307.645 21.032C307.101 20.232 306.829 19.256 306.829 18.104C306.829 15.992 307.661 14.216 309.325 12.776C311.021 11.336 313.389 10.616 316.429 10.616C319.245 10.616 321.485 11.272 323.149 12.584C324.845 13.896 325.853 15.704 326.173 18.008H320.365C320.013 16.248 318.685 15.368 316.381 15.368C315.229 15.368 314.333 15.592 313.693 16.04C313.085 16.488 312.781 17.048 312.781 17.72C312.781 18.424 313.245 18.984 314.173 19.4C315.101 19.816 316.333 20.2 317.869 20.552C319.533 20.936 321.053 21.368 322.429 21.848C323.837 22.296 324.957 22.984 325.789 23.912C326.621 24.808 327.037 26.104 327.037 27.8C327.069 29.272 326.685 30.6 325.885 31.784C325.085 32.968 323.933 33.896 322.429 34.568C320.925 35.24 319.149 35.576 317.101 35.576Z" fill="#202C76"/>
</svg>
