
<svg width="32" height="32" viewBox="0 0 32 32" fill="none" xmlns="http://www.w3.org/2000/svg">
<path d="M28.5897 14.7333L16.3363 26.9867C14.8352 28.4878 12.7992 29.3311 10.6763 29.3311C8.55341 29.3311 6.51745 28.4878 5.01632 26.9867C3.5152 25.4855 2.67188 23.4496 2.67188 21.3267C2.67188 19.2038 3.5152 17.1678 5.01632 15.6667L17.2697 3.41333C18.2704 2.41258 19.6277 1.85037 21.043 1.85037C22.4583 1.85037 23.8156 2.41258 24.8163 3.41333C25.8171 4.41408 26.3793 5.77139 26.3793 7.18667C26.3793 8.60194 25.8171 9.95925 24.8163 10.96L12.5497 23.2133C12.0493 23.7137 11.3706 23.9948 10.663 23.9948C9.95535 23.9948 9.2767 23.7137 8.77632 23.2133C8.27595 22.713 7.99484 22.0343 7.99484 21.3267C7.99484 20.619 8.27595 19.9404 8.77632 19.44L20.0963 8.13333" stroke="black" stroke-width="2" stroke-linecap="round" stroke-linejoin="round"/>
</svg>
