
<svg width="51" height="26" viewBox="0 0 51 26" fill="none" xmlns="http://www.w3.org/2000/svg">
<path d="M36.3904 25.9999C36.1959 25.9975 36.0789 25.904 36.0042 25.6781C35.7523 24.9157 35.5028 24.1522 35.2523 23.389C34.1846 20.1358 33.1176 16.8827 32.0488 13.6302C31.9995 13.4804 31.9674 13.3366 32.0544 13.1903C32.1619 13.0095 32.3557 12.9545 32.6108 13.0384C33.7022 13.3969 34.7931 13.7568 35.8844 14.1152C38.7799 15.0659 41.6758 16.0162 44.5716 16.9666C44.6329 16.9867 44.6943 17.0068 44.7542 17.0304C44.905 17.0906 44.9853 17.2049 44.9984 17.3656C45.0114 17.5274 44.9466 17.656 44.8095 17.7364C44.6886 17.8073 44.5575 17.8608 44.4296 17.9197C43.4334 18.3772 42.438 18.8365 41.4397 19.2891C41.2942 19.3551 41.3202 19.4023 41.4129 19.4947C42.5264 20.6043 43.6368 21.7164 44.7482 22.8282C45.041 23.1211 45.0413 23.2928 44.7503 23.5843C44.0209 24.3147 43.2918 25.0454 42.5617 25.775C42.3027 26.0338 42.1141 26.0341 41.8558 25.7761C40.7402 24.6605 39.6249 23.5445 38.5097 22.4288C38.3638 22.2829 38.3648 22.2839 38.2803 22.4686C37.7873 23.5455 37.2932 24.622 36.801 25.6989C36.7192 25.8776 36.6033 26.0035 36.3904 25.9999Z" fill="#2B2A35"/>
<rect x="0.75" y="0.75" width="49.5" height="20.5" rx="10.25" stroke="#2B2A35" stroke-width="1.5"/>
</svg>
