<svg width="41" height="36" viewBox="0 0 41 36" fill="none" xmlns="http://www.w3.org/2000/svg">
<path d="M9.49022 28.2973L10.3919 28.7297C10.5405 28.4199 10.5196 28.0554 10.3365 27.7646C10.1535 27.4738 9.83388 27.2973 9.49022 27.2973V28.2973ZM7.23438 33.0008L6.33271 32.5684C6.14768 32.9542 6.22861 33.415 6.53404 33.7147C6.83948 34.0143 7.30173 34.0865 7.68394 33.8941L7.23438 33.0008ZM16.58 28.2973V27.2973C16.4239 27.2973 16.2699 27.3339 16.1305 27.404L16.58 28.2973ZM3 9C3 6.79086 4.79086 5 7 5V3C3.68629 3 1 5.68629 1 9H3ZM3 23.2973V9H1V23.2973H3ZM7 27.2973C4.79086 27.2973 3 25.5064 3 23.2973H1C1 26.611 3.68629 29.2973 7 29.2973V27.2973ZM9.49022 27.2973H7V29.2973H9.49022V27.2973ZM8.13604 33.4333L10.3919 28.7297L8.58856 27.8649L6.33271 32.5684L8.13604 33.4333ZM16.1305 27.404L6.78481 32.1076L7.68394 33.8941L17.0296 29.1905L16.1305 27.404ZM34 27.2973H16.58V29.2973H34V27.2973ZM38 23.2973C38 25.5064 36.2091 27.2973 34 27.2973V29.2973C37.3137 29.2973 40 26.611 40 23.2973H38ZM38 9V23.2973H40V9H38ZM34 5C36.2091 5 38 6.79086 38 9H40C40 5.68629 37.3137 3 34 3V5ZM7 5H34V3H7V5Z" fill="#2B2A35"/>
<line x1="10" y1="11" x2="32" y2="11" stroke="#2B2A35" stroke-width="2" stroke-linejoin="round"/>
<line x1="10" y1="16" x2="32" y2="16" stroke="#2B2A35" stroke-width="2" stroke-linejoin="round"/>
<line x1="10" y1="21" x2="32" y2="21" stroke="#2B2A35" stroke-width="2" stroke-linejoin="round"/>
</svg>
