<svg xmlns="http://www.w3.org/2000/svg" width="32" height="31" viewBox="0 0 32 31" fill="none">
  <path d="M15.5024 30.9995C10.981 30.9995 6.45958 31.0006 1.93814 30.9983C1.00721 30.9977 0.261296 30.4056 0.0396172 29.5086C0.00179797 29.3559 0.00121613 29.2026 0.00121613 29.0482C5.24639e-05 20.0248 -0.00052937 11.0008 0.000634298 1.9774C0.000634298 0.824942 0.82102 0.00109927 1.97014 0.00109927C11.013 -0.000642476 20.0565 -6.18952e-05 29.0993 0.00109927C30.2351 0.00109927 31.0653 0.823781 31.0653 1.95185C31.0671 10.9851 31.0671 20.0184 31.0653 29.0516C31.0653 30.1774 30.2333 30.9989 29.0958 30.9995C24.5651 31.0006 20.0338 30.9995 15.5024 30.9995ZM2.48099 26.7734C2.5898 26.6701 2.63925 26.6248 2.68696 26.5778C6.63645 22.6757 10.5859 18.7736 14.5354 14.8709C15.2848 14.1307 16.0808 14.1301 16.8139 14.8797C18.1667 16.2626 19.5194 17.645 20.8611 19.0384C21.0502 19.2346 21.1585 19.2241 21.3475 19.0436C22.25 18.1826 23.1623 17.3309 24.0793 16.485C24.7245 15.8899 25.5222 15.9131 26.1512 16.5314C26.5585 16.9314 26.9588 17.3378 27.366 17.7379C27.7495 18.1141 28.1381 18.4856 28.5326 18.8671C28.6164 18.744 28.5832 18.6348 28.5832 18.5338C28.585 13.326 28.585 8.11762 28.585 2.90981C28.585 2.47611 28.585 2.47612 28.1381 2.47612C19.733 2.47612 11.3278 2.47612 2.92261 2.47612C2.48099 2.47612 2.48099 2.47612 2.48099 2.91504C2.48099 10.7418 2.48099 18.5681 2.48099 26.3949C2.48099 26.4977 2.48099 26.601 2.48099 26.7734ZM14.8595 28.5239C15.0457 28.5239 15.1516 28.5239 15.2575 28.5239C17.2607 28.5239 19.264 28.5239 21.2673 28.5239C23.5899 28.5239 25.9126 28.5192 28.2353 28.5297C28.5204 28.5308 28.5926 28.4414 28.5908 28.1674C28.5798 26.3618 28.5838 24.5556 28.5873 22.75C28.5879 22.5782 28.5576 22.4371 28.4267 22.3076C27.3602 21.255 26.2972 20.1989 25.2394 19.1376C25.1021 19 25.0172 19.0163 24.8845 19.1417C23.6737 20.2814 22.4571 21.4147 21.2422 22.5497C19.7731 23.9222 18.3028 25.2941 16.8343 26.6678C16.1931 27.2669 15.5554 27.8696 14.8595 28.5239ZM4.33472 28.5239C4.47203 28.5239 4.57792 28.5239 4.68324 28.5239C6.66729 28.5239 8.65135 28.514 10.6354 28.532C11.0322 28.5355 11.3138 28.4223 11.6042 28.1483C14.0711 25.819 16.5532 23.5048 19.0371 21.1935C19.2244 21.0193 19.2279 20.9183 19.0458 20.7354C17.9828 19.666 16.9285 18.5872 15.8818 17.5016C15.702 17.3152 15.5984 17.3216 15.4192 17.501C14.4837 18.4386 13.5341 19.3617 12.5921 20.293C9.91043 22.9433 7.22992 25.5949 4.55 28.2475C4.47727 28.3189 4.38243 28.3764 4.33472 28.5239Z" fill="#2B2A35"/>
  <path d="M13.6383 9.2411C13.6377 11.6819 11.6973 13.6094 9.2425 13.6071C6.81276 13.6047 4.88223 11.6691 4.88281 9.23529C4.88339 6.79163 6.81974 4.86816 9.27741 4.87049C11.7077 4.87223 13.6388 6.80788 13.6383 9.2411ZM11.1532 9.24865C11.166 8.23437 10.3009 7.3606 9.27333 7.35015C8.25861 7.3397 7.38354 8.20186 7.36899 9.22717C7.35444 10.2345 8.2208 11.1088 9.25064 11.1268C10.2572 11.1437 11.1404 10.2716 11.1532 9.24865Z" fill="#2B2A35"/>
</svg>