
<svg width="34" height="34" viewBox="0 0 34 34" fill="none" xmlns="http://www.w3.org/2000/svg">
<rect x="1.15" y="1.15" width="31.7" height="31.7" rx="15.85" stroke="#2B2A35" stroke-width="2.3"/>
<mask id="path-2-outside-1_14972_75058" maskUnits="userSpaceOnUse" x="6" y="13" width="22" height="10" fill="black">
<rect fill="white" x="6" y="13" width="22" height="10"/>
<path d="M6.76805 20V13.7H7.92005V19.1H10.7101V20H6.76805ZM14.0879 20.108C13.6559 20.108 13.2659 20.009 12.9179 19.811C12.5759 19.613 12.3029 19.34 12.0989 18.992C11.9009 18.638 11.8019 18.23 11.8019 17.768C11.8019 17.306 11.9039 16.901 12.1079 16.553C12.3119 16.199 12.5849 15.923 12.9269 15.725C13.2749 15.527 13.6649 15.428 14.0969 15.428C14.5229 15.428 14.9069 15.527 15.2489 15.725C15.5969 15.923 15.8699 16.199 16.0679 16.553C16.2719 16.901 16.3739 17.306 16.3739 17.768C16.3739 18.23 16.2719 18.638 16.0679 18.992C15.8699 19.34 15.5969 19.613 15.2489 19.811C14.9009 20.009 14.5139 20.108 14.0879 20.108ZM14.0879 19.109C14.3879 19.109 14.6489 18.998 14.8709 18.776C15.0929 18.548 15.2039 18.212 15.2039 17.768C15.2039 17.324 15.0929 16.991 14.8709 16.769C14.6489 16.541 14.3909 16.427 14.0969 16.427C13.7909 16.427 13.5269 16.541 13.3049 16.769C13.0889 16.991 12.9809 17.324 12.9809 17.768C12.9809 18.212 13.0889 18.548 13.3049 18.776C13.5269 18.998 13.7879 19.109 14.0879 19.109ZM19.4627 18.668C19.2467 18.668 19.0457 18.644 18.8597 18.596L18.5267 18.929C18.6287 18.983 18.7667 19.028 18.9407 19.064C19.1147 19.1 19.3967 19.136 19.7867 19.172C20.3807 19.226 20.8127 19.367 21.0827 19.595C21.3527 19.823 21.4877 20.138 21.4877 20.54C21.4877 20.804 21.4157 21.053 21.2717 21.287C21.1277 21.527 20.9057 21.719 20.6057 21.863C20.3057 22.013 19.9217 22.088 19.4537 22.088C18.8177 22.088 18.3047 21.968 17.9147 21.728C17.5247 21.494 17.3297 21.14 17.3297 20.666C17.3297 20.264 17.5247 19.916 17.9147 19.622C17.7947 19.568 17.6897 19.511 17.5997 19.451C17.5157 19.391 17.4407 19.328 17.3747 19.262V19.055L18.1577 18.227C17.8097 17.921 17.6357 17.528 17.6357 17.048C17.6357 16.748 17.7077 16.475 17.8517 16.229C18.0017 15.983 18.2117 15.788 18.4817 15.644C18.7517 15.5 19.0787 15.428 19.4627 15.428C19.7147 15.428 19.9487 15.464 20.1647 15.536H21.8567V16.238L21.0917 16.292C21.2117 16.52 21.2717 16.772 21.2717 17.048C21.2717 17.348 21.1997 17.621 21.0557 17.867C20.9117 18.113 20.7017 18.308 20.4257 18.452C20.1557 18.596 19.8347 18.668 19.4627 18.668ZM19.4627 17.786C19.6967 17.786 19.8887 17.723 20.0387 17.597C20.1947 17.471 20.2727 17.291 20.2727 17.057C20.2727 16.823 20.1947 16.643 20.0387 16.517C19.8887 16.391 19.6967 16.328 19.4627 16.328C19.2167 16.328 19.0187 16.391 18.8687 16.517C18.7187 16.643 18.6437 16.823 18.6437 17.057C18.6437 17.291 18.7187 17.471 18.8687 17.597C19.0187 17.723 19.2167 17.786 19.4627 17.786ZM18.3827 20.549C18.3827 20.771 18.4847 20.936 18.6887 21.044C18.8987 21.158 19.1537 21.215 19.4537 21.215C19.7417 21.215 19.9757 21.155 20.1557 21.035C20.3357 20.921 20.4257 20.765 20.4257 20.567C20.4257 20.405 20.3657 20.27 20.2457 20.162C20.1317 20.054 19.9007 19.988 19.5527 19.964C19.3067 19.946 19.0787 19.919 18.8687 19.883C18.6947 19.979 18.5687 20.084 18.4907 20.198C18.4187 20.312 18.3827 20.429 18.3827 20.549ZM25.1129 20.108C24.6809 20.108 24.2909 20.009 23.9429 19.811C23.6009 19.613 23.3279 19.34 23.1239 18.992C22.9259 18.638 22.8269 18.23 22.8269 17.768C22.8269 17.306 22.9289 16.901 23.1329 16.553C23.3369 16.199 23.6099 15.923 23.9519 15.725C24.2999 15.527 24.6899 15.428 25.1219 15.428C25.5479 15.428 25.9319 15.527 26.2739 15.725C26.6219 15.923 26.8949 16.199 27.0929 16.553C27.2969 16.901 27.3989 17.306 27.3989 17.768C27.3989 18.23 27.2969 18.638 27.0929 18.992C26.8949 19.34 26.6219 19.613 26.2739 19.811C25.9259 20.009 25.5389 20.108 25.1129 20.108ZM25.1129 19.109C25.4129 19.109 25.6739 18.998 25.8959 18.776C26.1179 18.548 26.2289 18.212 26.2289 17.768C26.2289 17.324 26.1179 16.991 25.8959 16.769C25.6739 16.541 25.4159 16.427 25.1219 16.427C24.8159 16.427 24.5519 16.541 24.3299 16.769C24.1139 16.991 24.0059 17.324 24.0059 17.768C24.0059 18.212 24.1139 18.548 24.3299 18.776C24.5519 18.998 24.8129 19.109 25.1129 19.109Z"/>
</mask>
<path d="M6.76805 20V13.7H7.92005V19.1H10.7101V20H6.76805ZM14.0879 20.108C13.6559 20.108 13.2659 20.009 12.9179 19.811C12.5759 19.613 12.3029 19.34 12.0989 18.992C11.9009 18.638 11.8019 18.23 11.8019 17.768C11.8019 17.306 11.9039 16.901 12.1079 16.553C12.3119 16.199 12.5849 15.923 12.9269 15.725C13.2749 15.527 13.6649 15.428 14.0969 15.428C14.5229 15.428 14.9069 15.527 15.2489 15.725C15.5969 15.923 15.8699 16.199 16.0679 16.553C16.2719 16.901 16.3739 17.306 16.3739 17.768C16.3739 18.23 16.2719 18.638 16.0679 18.992C15.8699 19.34 15.5969 19.613 15.2489 19.811C14.9009 20.009 14.5139 20.108 14.0879 20.108ZM14.0879 19.109C14.3879 19.109 14.6489 18.998 14.8709 18.776C15.0929 18.548 15.2039 18.212 15.2039 17.768C15.2039 17.324 15.0929 16.991 14.8709 16.769C14.6489 16.541 14.3909 16.427 14.0969 16.427C13.7909 16.427 13.5269 16.541 13.3049 16.769C13.0889 16.991 12.9809 17.324 12.9809 17.768C12.9809 18.212 13.0889 18.548 13.3049 18.776C13.5269 18.998 13.7879 19.109 14.0879 19.109ZM19.4627 18.668C19.2467 18.668 19.0457 18.644 18.8597 18.596L18.5267 18.929C18.6287 18.983 18.7667 19.028 18.9407 19.064C19.1147 19.1 19.3967 19.136 19.7867 19.172C20.3807 19.226 20.8127 19.367 21.0827 19.595C21.3527 19.823 21.4877 20.138 21.4877 20.54C21.4877 20.804 21.4157 21.053 21.2717 21.287C21.1277 21.527 20.9057 21.719 20.6057 21.863C20.3057 22.013 19.9217 22.088 19.4537 22.088C18.8177 22.088 18.3047 21.968 17.9147 21.728C17.5247 21.494 17.3297 21.14 17.3297 20.666C17.3297 20.264 17.5247 19.916 17.9147 19.622C17.7947 19.568 17.6897 19.511 17.5997 19.451C17.5157 19.391 17.4407 19.328 17.3747 19.262V19.055L18.1577 18.227C17.8097 17.921 17.6357 17.528 17.6357 17.048C17.6357 16.748 17.7077 16.475 17.8517 16.229C18.0017 15.983 18.2117 15.788 18.4817 15.644C18.7517 15.5 19.0787 15.428 19.4627 15.428C19.7147 15.428 19.9487 15.464 20.1647 15.536H21.8567V16.238L21.0917 16.292C21.2117 16.52 21.2717 16.772 21.2717 17.048C21.2717 17.348 21.1997 17.621 21.0557 17.867C20.9117 18.113 20.7017 18.308 20.4257 18.452C20.1557 18.596 19.8347 18.668 19.4627 18.668ZM19.4627 17.786C19.6967 17.786 19.8887 17.723 20.0387 17.597C20.1947 17.471 20.2727 17.291 20.2727 17.057C20.2727 16.823 20.1947 16.643 20.0387 16.517C19.8887 16.391 19.6967 16.328 19.4627 16.328C19.2167 16.328 19.0187 16.391 18.8687 16.517C18.7187 16.643 18.6437 16.823 18.6437 17.057C18.6437 17.291 18.7187 17.471 18.8687 17.597C19.0187 17.723 19.2167 17.786 19.4627 17.786ZM18.3827 20.549C18.3827 20.771 18.4847 20.936 18.6887 21.044C18.8987 21.158 19.1537 21.215 19.4537 21.215C19.7417 21.215 19.9757 21.155 20.1557 21.035C20.3357 20.921 20.4257 20.765 20.4257 20.567C20.4257 20.405 20.3657 20.27 20.2457 20.162C20.1317 20.054 19.9007 19.988 19.5527 19.964C19.3067 19.946 19.0787 19.919 18.8687 19.883C18.6947 19.979 18.5687 20.084 18.4907 20.198C18.4187 20.312 18.3827 20.429 18.3827 20.549ZM25.1129 20.108C24.6809 20.108 24.2909 20.009 23.9429 19.811C23.6009 19.613 23.3279 19.34 23.1239 18.992C22.9259 18.638 22.8269 18.23 22.8269 17.768C22.8269 17.306 22.9289 16.901 23.1329 16.553C23.3369 16.199 23.6099 15.923 23.9519 15.725C24.2999 15.527 24.6899 15.428 25.1219 15.428C25.5479 15.428 25.9319 15.527 26.2739 15.725C26.6219 15.923 26.8949 16.199 27.0929 16.553C27.2969 16.901 27.3989 17.306 27.3989 17.768C27.3989 18.23 27.2969 18.638 27.0929 18.992C26.8949 19.34 26.6219 19.613 26.2739 19.811C25.9259 20.009 25.5389 20.108 25.1129 20.108ZM25.1129 19.109C25.4129 19.109 25.6739 18.998 25.8959 18.776C26.1179 18.548 26.2289 18.212 26.2289 17.768C26.2289 17.324 26.1179 16.991 25.8959 16.769C25.6739 16.541 25.4159 16.427 25.1219 16.427C24.8159 16.427 24.5519 16.541 24.3299 16.769C24.1139 16.991 24.0059 17.324 24.0059 17.768C24.0059 18.212 24.1139 18.548 24.3299 18.776C24.5519 18.998 24.8129 19.109 25.1129 19.109Z" fill="#2B2A35"/>
<path d="M6.76805 20H6.56805V20.2H6.76805V20ZM6.76805 13.7V13.5H6.56805V13.7H6.76805ZM7.92005 13.7H8.12005V13.5H7.92005V13.7ZM7.92005 19.1H7.72005V19.3H7.92005V19.1ZM10.7101 19.1H10.9101V18.9H10.7101V19.1ZM10.7101 20V20.2H10.9101V20H10.7101ZM6.96805 20V13.7H6.56805V20H6.96805ZM6.76805 13.9H7.92005V13.5H6.76805V13.9ZM7.72005 13.7V19.1H8.12005V13.7H7.72005ZM7.92005 19.3H10.7101V18.9H7.92005V19.3ZM10.5101 19.1V20H10.9101V19.1H10.5101ZM10.7101 19.8H6.76805V20.2H10.7101V19.8ZM12.9179 19.811L12.8177 19.9841L12.819 19.9848L12.9179 19.811ZM12.0989 18.992L11.9243 19.0897L11.9264 19.0931L12.0989 18.992ZM12.1079 16.553L12.2805 16.6541L12.2812 16.6529L12.1079 16.553ZM12.9269 15.725L12.828 15.5512L12.8267 15.5519L12.9269 15.725ZM15.2489 15.725L15.1487 15.8981L15.15 15.8988L15.2489 15.725ZM16.0679 16.553L15.8933 16.6507L15.8954 16.6541L16.0679 16.553ZM16.0679 18.992L15.8946 18.8921L15.8941 18.8931L16.0679 18.992ZM15.2489 19.811L15.15 19.6372L15.2489 19.811ZM14.8709 18.776L15.0124 18.9174L15.0142 18.9155L14.8709 18.776ZM14.8709 16.769L14.7276 16.9085L14.7295 16.9104L14.8709 16.769ZM13.3049 16.769L13.1616 16.6295L13.1616 16.6295L13.3049 16.769ZM13.3049 18.776L13.1597 18.9136L13.1635 18.9174L13.3049 18.776ZM14.0879 19.908C13.6878 19.908 13.3323 19.8167 13.0168 19.6372L12.819 19.9848C13.1995 20.2013 13.6241 20.308 14.0879 20.308V19.908ZM13.0181 19.6379C12.7067 19.4576 12.4584 19.2097 12.2715 18.8909L11.9264 19.0931C12.1475 19.4703 12.4452 19.7684 12.8177 19.9841L13.0181 19.6379ZM12.2735 18.8944C12.0944 18.5741 12.0019 18.2006 12.0019 17.768H11.6019C11.6019 18.2594 11.7075 18.7019 11.9244 19.0896L12.2735 18.8944ZM12.0019 17.768C12.0019 17.3363 12.0969 16.9672 12.2805 16.6541L11.9354 16.4519C11.7109 16.8348 11.6019 17.2757 11.6019 17.768H12.0019ZM12.2812 16.6529C12.4683 16.3282 12.7166 16.0779 13.0271 15.8981L12.8267 15.5519C12.4533 15.7681 12.1555 16.0698 11.9347 16.4531L12.2812 16.6529ZM13.0258 15.8988C13.3413 15.7193 13.6968 15.628 14.0969 15.628V15.228C13.6331 15.228 13.2085 15.3347 12.828 15.5512L13.0258 15.8988ZM14.0969 15.628C14.4906 15.628 14.8395 15.7191 15.1487 15.8981L15.3491 15.5519C14.9743 15.3349 14.5553 15.228 14.0969 15.228V15.628ZM15.15 15.8988C15.4659 16.0786 15.7129 16.328 15.8934 16.6506L16.2425 16.4554C16.0269 16.07 15.728 15.7674 15.3478 15.5512L15.15 15.8988ZM15.8954 16.6541C16.0789 16.9672 16.1739 17.3363 16.1739 17.768H16.5739C16.5739 17.2757 16.4649 16.8348 16.2405 16.4519L15.8954 16.6541ZM16.1739 17.768C16.1739 18.1996 16.079 18.5723 15.8947 18.8921L16.2412 19.0919C16.4649 18.7037 16.5739 18.2604 16.5739 17.768H16.1739ZM15.8941 18.8931C15.7139 19.2098 15.4668 19.457 15.15 19.6372L15.3478 19.9848C15.7271 19.769 16.026 19.4702 16.2418 19.0909L15.8941 18.8931ZM15.15 19.6372C14.8341 19.8169 14.4816 19.908 14.0879 19.908V20.308C14.5463 20.308 14.9678 20.2011 15.3478 19.9848L15.15 19.6372ZM14.0879 19.309C14.4437 19.309 14.7548 19.175 15.0124 18.9174L14.7295 18.6346C14.5431 18.821 14.3322 18.909 14.0879 18.909V19.309ZM15.0142 18.9155C15.2849 18.6375 15.4039 18.2433 15.4039 17.768H15.0039C15.0039 18.1807 14.901 18.4585 14.7276 18.6365L15.0142 18.9155ZM15.4039 17.768C15.4039 17.2932 15.2851 16.9003 15.0124 16.6276L14.7295 16.9104C14.9008 17.0817 15.0039 17.3548 15.0039 17.768H15.4039ZM15.0142 16.6295C14.758 16.3663 14.4496 16.227 14.0969 16.227V16.627C14.3322 16.627 14.5399 16.7157 14.7276 16.9085L15.0142 16.6295ZM14.0969 16.227C13.7346 16.227 13.4196 16.3645 13.1616 16.6295L13.4482 16.9085C13.6343 16.7175 13.8473 16.627 14.0969 16.627V16.227ZM13.1616 16.6295C12.8961 16.9024 12.7809 17.2945 12.7809 17.768H13.1809C13.1809 17.3535 13.2818 17.0796 13.4483 16.9085L13.1616 16.6295ZM12.7809 17.768C12.7809 18.2419 12.8963 18.6354 13.1597 18.9135L13.4501 18.6385C13.2816 18.4606 13.1809 18.1821 13.1809 17.768H12.7809ZM13.1635 18.9174C13.4211 19.175 13.7322 19.309 14.0879 19.309V18.909C13.8437 18.909 13.6328 18.821 13.4464 18.6346L13.1635 18.9174ZM18.8597 18.596L18.9097 18.4023L18.7991 18.3738L18.7183 18.4546L18.8597 18.596ZM18.5267 18.929L18.3853 18.7876L18.1938 18.9791L18.4331 19.1058L18.5267 18.929ZM18.9407 19.064L18.9002 19.2599H18.9002L18.9407 19.064ZM19.7867 19.172L19.7683 19.3712L19.7686 19.3712L19.7867 19.172ZM21.0827 19.595L20.9537 19.7478L21.0827 19.595ZM21.2717 21.287L21.1014 21.1822L21.1002 21.1841L21.2717 21.287ZM20.6057 21.863L20.5191 21.6827L20.5163 21.6841L20.6057 21.863ZM17.9147 21.728L18.0195 21.5577L18.0176 21.5565L17.9147 21.728ZM17.9147 19.622L18.0351 19.7817L18.3049 19.5783L17.9968 19.4396L17.9147 19.622ZM17.5997 19.451L17.4834 19.6138L17.4888 19.6174L17.5997 19.451ZM17.3747 19.262H17.1747V19.3448L17.2333 19.4034L17.3747 19.262ZM17.3747 19.055L17.2294 18.9176L17.1747 18.9754V19.055H17.3747ZM18.1577 18.227L18.303 18.3644L18.4455 18.2137L18.2898 18.0768L18.1577 18.227ZM17.8517 16.229L17.6809 16.1249L17.6791 16.128L17.8517 16.229ZM18.4817 15.644L18.3876 15.4675L18.4817 15.644ZM20.1647 15.536L20.1014 15.7257L20.1322 15.736H20.1647V15.536ZM21.8567 15.536H22.0567V15.336H21.8567V15.536ZM21.8567 16.238L21.8708 16.4375L22.0567 16.4244V16.238H21.8567ZM21.0917 16.292L21.0776 16.0925L20.772 16.1141L20.9147 16.3851L21.0917 16.292ZM20.4257 18.452L20.3332 18.2747L20.3316 18.2755L20.4257 18.452ZM20.0387 17.597L19.913 17.4414L19.9101 17.4439L20.0387 17.597ZM20.0387 16.517L19.91 16.6702L19.913 16.6726L20.0387 16.517ZM18.8687 16.517L18.7401 16.3639L18.8687 16.517ZM18.8687 17.597L18.9973 17.4439L18.8687 17.597ZM18.6887 21.044L18.7841 20.8682L18.7823 20.8672L18.6887 21.044ZM20.1557 21.035L20.0487 20.866L20.0448 20.8686L20.1557 21.035ZM20.2457 20.162L20.1081 20.3072L20.1119 20.3107L20.2457 20.162ZM19.5527 19.964L19.5381 20.1635L19.5389 20.1635L19.5527 19.964ZM18.8687 19.883L18.9025 19.6859L18.8334 19.674L18.7721 19.7079L18.8687 19.883ZM18.4907 20.198L18.3255 20.085L18.3216 20.0912L18.4907 20.198ZM19.4627 18.468C19.2615 18.468 19.0775 18.4456 18.9097 18.4023L18.8097 18.7897C19.0139 18.8424 19.2319 18.868 19.4627 18.868V18.468ZM18.7183 18.4546L18.3853 18.7876L18.6681 19.0704L19.0011 18.7374L18.7183 18.4546ZM18.4331 19.1058C18.5582 19.172 18.7165 19.2219 18.9002 19.2599L18.9812 18.8681C18.8169 18.8341 18.6991 18.794 18.6203 18.7522L18.4331 19.1058ZM18.9002 19.2599C19.086 19.2983 19.3775 19.3351 19.7683 19.3712L19.8051 18.9728C19.4159 18.9369 19.1434 18.9017 18.9812 18.8681L18.9002 19.2599ZM19.7686 19.3712C20.347 19.4238 20.73 19.5589 20.9537 19.7478L21.2117 19.4422C20.8954 19.1751 20.4144 19.0282 19.8048 18.9728L19.7686 19.3712ZM20.9537 19.7478C21.1722 19.9323 21.2877 20.1878 21.2877 20.54H21.6877C21.6877 20.0882 21.5332 19.7137 21.2117 19.4422L20.9537 19.7478ZM21.2877 20.54C21.2877 20.7654 21.2268 20.9784 21.1014 21.1822L21.442 21.3918C21.6046 21.1276 21.6877 20.8426 21.6877 20.54H21.2877ZM21.1002 21.1841C20.9799 21.3846 20.7906 21.5524 20.5191 21.6827L20.6922 22.0433C21.0207 21.8856 21.2755 21.6694 21.4432 21.3899L21.1002 21.1841ZM20.5163 21.6841C20.2528 21.8159 19.9022 21.888 19.4537 21.888V22.288C19.9412 22.288 20.3586 22.2101 20.6951 22.0419L20.5163 21.6841ZM19.4537 21.888C18.8409 21.888 18.368 21.7721 18.0195 21.5577L17.8099 21.8983C18.2414 22.1639 18.7945 22.288 19.4537 22.288V21.888ZM18.0176 21.5565C17.6909 21.3605 17.5297 21.0734 17.5297 20.666H17.1297C17.1297 21.2066 17.3585 21.6275 17.8118 21.8995L18.0176 21.5565ZM17.5297 20.666C17.5297 20.3405 17.6832 20.047 18.0351 19.7817L17.7943 19.4623C17.3662 19.785 17.1297 20.1875 17.1297 20.666H17.5297ZM17.9968 19.4396C17.8847 19.3892 17.7898 19.3373 17.7106 19.2846L17.4888 19.6174C17.5896 19.6847 17.7046 19.7468 17.8326 19.8044L17.9968 19.4396ZM17.7159 19.2883C17.64 19.234 17.5736 19.178 17.5161 19.1206L17.2333 19.4034C17.3078 19.478 17.3914 19.548 17.4834 19.6137L17.7159 19.2883ZM17.5747 19.262V19.055H17.1747V19.262H17.5747ZM17.52 19.1924L18.303 18.3644L18.0124 18.0896L17.2294 18.9176L17.52 19.1924ZM18.2898 18.0768C17.9867 17.8103 17.8357 17.4728 17.8357 17.048H17.4357C17.4357 17.5832 17.6327 18.0317 18.0256 18.3772L18.2898 18.0768ZM17.8357 17.048C17.8357 16.7816 17.8992 16.5438 18.0243 16.33L17.6791 16.128C17.5162 16.4062 17.4357 16.7144 17.4357 17.048H17.8357ZM18.0225 16.3331C18.1527 16.1196 18.3353 15.9487 18.5758 15.8205L18.3876 15.4675C18.0881 15.6273 17.8507 15.8464 17.6809 16.1249L18.0225 16.3331ZM18.5758 15.8205C18.8104 15.6954 19.1033 15.628 19.4627 15.628V15.228C19.0541 15.228 18.693 15.3046 18.3876 15.4675L18.5758 15.8205ZM19.4627 15.628C19.6955 15.628 19.9079 15.6612 20.1014 15.7257L20.2279 15.3463C19.9895 15.2668 19.7339 15.228 19.4627 15.228V15.628ZM20.1647 15.736H21.8567V15.336H20.1647V15.736ZM21.6567 15.536V16.238H22.0567V15.536H21.6567ZM21.8426 16.0385L21.0776 16.0925L21.1058 16.4915L21.8708 16.4375L21.8426 16.0385ZM20.9147 16.3851C21.0185 16.5824 21.0717 16.8021 21.0717 17.048H21.4717C21.4717 16.7419 21.4049 16.4576 21.2687 16.1989L20.9147 16.3851ZM21.0717 17.048C21.0717 17.3144 21.0082 17.5522 20.8831 17.766L21.2283 17.968C21.3912 17.6898 21.4717 17.3816 21.4717 17.048H21.0717ZM20.8831 17.766C20.7598 17.9765 20.579 18.1464 20.3332 18.2747L20.5182 18.6293C20.8244 18.4696 21.0636 18.2495 21.2283 17.968L20.8831 17.766ZM20.3316 18.2755C20.0962 18.4011 19.8089 18.468 19.4627 18.468V18.868C19.8605 18.868 20.2152 18.7909 20.5198 18.6285L20.3316 18.2755ZM19.4627 17.986C19.7342 17.986 19.9746 17.912 20.1673 17.7501L19.9101 17.4439C19.8028 17.534 19.6592 17.586 19.4627 17.586V17.986ZM20.1644 17.7526C20.3755 17.5821 20.4727 17.3401 20.4727 17.057H20.0727C20.0727 17.2419 20.0139 17.3599 19.913 17.4414L20.1644 17.7526ZM20.4727 17.057C20.4727 16.7739 20.3755 16.5319 20.1644 16.3614L19.913 16.6726C20.0139 16.7541 20.0727 16.8721 20.0727 17.057H20.4727ZM20.1673 16.3639C19.9746 16.202 19.7342 16.128 19.4627 16.128V16.528C19.6592 16.528 19.8028 16.58 19.9101 16.6701L20.1673 16.3639ZM19.4627 16.128C19.182 16.128 18.9345 16.2005 18.7401 16.3639L18.9973 16.6701C19.1028 16.5815 19.2514 16.528 19.4627 16.528V16.128ZM18.7401 16.3639C18.5359 16.5353 18.4437 16.7766 18.4437 17.057H18.8437C18.8437 16.8694 18.9015 16.7507 18.9973 16.6701L18.7401 16.3639ZM18.4437 17.057C18.4437 17.3374 18.5359 17.5787 18.7401 17.7501L18.9973 17.4439C18.9015 17.3633 18.8437 17.2446 18.8437 17.057H18.4437ZM18.7401 17.7501C18.9345 17.9135 19.182 17.986 19.4627 17.986V17.586C19.2514 17.586 19.1028 17.5325 18.9973 17.4439L18.7401 17.7501ZM18.1827 20.549C18.1827 20.6917 18.2158 20.826 18.2891 20.9444C18.362 21.0625 18.4677 21.1533 18.5951 21.2208L18.7823 20.8672C18.7057 20.8267 18.6583 20.781 18.6293 20.7341C18.6005 20.6875 18.5827 20.6283 18.5827 20.549H18.1827ZM18.5933 21.2198C18.8391 21.3532 19.1287 21.415 19.4537 21.415V21.015C19.1787 21.015 18.9583 20.9628 18.7841 20.8682L18.5933 21.2198ZM19.4537 21.415C19.7684 21.415 20.0445 21.3495 20.2666 21.2014L20.0448 20.8686C19.9069 20.9605 19.715 21.015 19.4537 21.015V21.415ZM20.2627 21.204C20.4953 21.0566 20.6257 20.8396 20.6257 20.567H20.2257C20.2257 20.6904 20.1761 20.7854 20.0487 20.866L20.2627 21.204ZM20.6257 20.567C20.6257 20.3485 20.5418 20.1594 20.3795 20.0133L20.1119 20.3107C20.1896 20.3806 20.2257 20.4615 20.2257 20.567H20.6257ZM20.3832 20.0168C20.2938 19.932 20.1734 19.8768 20.0419 19.8392C19.9084 19.8011 19.7487 19.777 19.5665 19.7645L19.5389 20.1635C19.7047 20.175 19.8345 20.1959 19.932 20.2238C20.0315 20.2522 20.0836 20.284 20.1081 20.3072L20.3832 20.0168ZM19.5673 19.7645C19.3267 19.7469 19.1052 19.7206 18.9025 19.6859L18.8349 20.0801C19.0522 20.1174 19.2866 20.1451 19.5381 20.1635L19.5673 19.7645ZM18.7721 19.7079C18.5819 19.8128 18.4273 19.9365 18.3256 20.0851L18.6558 20.3109C18.7101 20.2315 18.8075 20.1452 18.9653 20.0581L18.7721 19.7079ZM18.3216 20.0912C18.232 20.2331 18.1827 20.3867 18.1827 20.549H18.5827C18.5827 20.4713 18.6054 20.3909 18.6598 20.3048L18.3216 20.0912ZM23.9429 19.811L23.8427 19.9841L23.844 19.9848L23.9429 19.811ZM23.1239 18.992L22.9493 19.0897L22.9514 19.0931L23.1239 18.992ZM23.1329 16.553L23.3055 16.6541L23.3062 16.6529L23.1329 16.553ZM23.9519 15.725L23.853 15.5512L23.8517 15.5519L23.9519 15.725ZM26.2739 15.725L26.1737 15.8981L26.175 15.8988L26.2739 15.725ZM27.0929 16.553L26.9184 16.6507L26.9204 16.6541L27.0929 16.553ZM27.0929 18.992L26.9196 18.8921L26.9191 18.8931L27.0929 18.992ZM26.2739 19.811L26.175 19.6372L26.2739 19.811ZM25.8959 18.776L26.0374 18.9174L26.0392 18.9155L25.8959 18.776ZM25.8959 16.769L25.7526 16.9085L25.7545 16.9104L25.8959 16.769ZM24.3299 16.769L24.1866 16.6295L24.1866 16.6295L24.3299 16.769ZM24.3299 18.776L24.1847 18.9136L24.1885 18.9174L24.3299 18.776ZM25.1129 19.908C24.7128 19.908 24.3573 19.8167 24.0418 19.6372L23.844 19.9848C24.2245 20.2013 24.6491 20.308 25.1129 20.308V19.908ZM24.0431 19.6379C23.7317 19.4576 23.4834 19.2097 23.2965 18.8909L22.9514 19.0931C23.1725 19.4703 23.4702 19.7684 23.8427 19.9841L24.0431 19.6379ZM23.2985 18.8944C23.1194 18.5741 23.0269 18.2006 23.0269 17.768H22.6269C22.6269 18.2594 22.7325 18.7019 22.9494 19.0896L23.2985 18.8944ZM23.0269 17.768C23.0269 17.3363 23.1219 16.9672 23.3055 16.6541L22.9604 16.4519C22.7359 16.8348 22.6269 17.2757 22.6269 17.768H23.0269ZM23.3062 16.6529C23.4933 16.3282 23.7416 16.0779 24.0521 15.8981L23.8517 15.5519C23.4783 15.7681 23.1805 16.0698 22.9597 16.4531L23.3062 16.6529ZM24.0508 15.8988C24.3663 15.7193 24.7218 15.628 25.1219 15.628V15.228C24.6581 15.228 24.2335 15.3347 23.853 15.5512L24.0508 15.8988ZM25.1219 15.628C25.5156 15.628 25.8645 15.7191 26.1737 15.8981L26.3741 15.5519C25.9993 15.3349 25.5803 15.228 25.1219 15.228V15.628ZM26.175 15.8988C26.4909 16.0786 26.7379 16.328 26.9184 16.6506L27.2675 16.4554C27.0519 16.07 26.753 15.7674 26.3728 15.5512L26.175 15.8988ZM26.9204 16.6541C27.1039 16.9672 27.1989 17.3363 27.1989 17.768H27.5989C27.5989 17.2757 27.4899 16.8348 27.2655 16.4519L26.9204 16.6541ZM27.1989 17.768C27.1989 18.1996 27.104 18.5723 26.9197 18.8921L27.2662 19.0919C27.4899 18.7037 27.5989 18.2604 27.5989 17.768H27.1989ZM26.9191 18.8931C26.7389 19.2098 26.4918 19.457 26.175 19.6372L26.3728 19.9848C26.7521 19.769 27.051 19.4702 27.2668 19.0909L26.9191 18.8931ZM26.175 19.6372C25.8591 19.8169 25.5066 19.908 25.1129 19.908V20.308C25.5713 20.308 25.9928 20.2011 26.3728 19.9848L26.175 19.6372ZM25.1129 19.309C25.4687 19.309 25.7798 19.175 26.0374 18.9174L25.7545 18.6346C25.5681 18.821 25.3572 18.909 25.1129 18.909V19.309ZM26.0392 18.9155C26.3099 18.6375 26.4289 18.2433 26.4289 17.768H26.0289C26.0289 18.1807 25.926 18.4585 25.7526 18.6365L26.0392 18.9155ZM26.4289 17.768C26.4289 17.2932 26.3101 16.9003 26.0374 16.6276L25.7545 16.9104C25.9258 17.0817 26.0289 17.3548 26.0289 17.768H26.4289ZM26.0392 16.6295C25.783 16.3663 25.4746 16.227 25.1219 16.227V16.627C25.3572 16.627 25.5649 16.7157 25.7526 16.9085L26.0392 16.6295ZM25.1219 16.227C24.7596 16.227 24.4446 16.3645 24.1866 16.6295L24.4732 16.9085C24.6593 16.7175 24.8723 16.627 25.1219 16.627V16.227ZM24.1866 16.6295C23.9211 16.9024 23.8059 17.2945 23.8059 17.768H24.2059C24.2059 17.3535 24.3068 17.0796 24.4733 16.9085L24.1866 16.6295ZM23.8059 17.768C23.8059 18.2419 23.9213 18.6354 24.1847 18.9135L24.4751 18.6385C24.3066 18.4606 24.2059 18.1821 24.2059 17.768H23.8059ZM24.1885 18.9174C24.4461 19.175 24.7572 19.309 25.1129 19.309V18.909C24.8687 18.909 24.6578 18.821 24.4714 18.6346L24.1885 18.9174Z" fill="#2B2A35" mask="url(#path-2-outside-1_14972_75058)"/>
</svg>
