
<svg width="55" height="27" viewBox="0 0 55 27" fill="none" xmlns="http://www.w3.org/2000/svg">
<path d="M0.33875 26V25.6L1.89875 25.12C2.91208 24.7733 3.41875 24.0933 3.41875 23.08V3.72L0.17875 4.16V3.64C1.75208 3.32 3.25875 2.86666 4.69875 2.28C6.16542 1.69333 7.53875 1.01333 8.81875 0.239998L9.33875 0.599998L9.17875 6.32V23.08C9.17875 24.12 9.68542 24.7867 10.6988 25.08L12.3388 25.6V26H0.33875ZM15.9631 7.36L16.2431 1.68C17.0431 1.22667 18.0298 0.84 19.2031 0.519999C20.4031 0.199998 21.7498 0.0399981 23.2431 0.0399981C25.3765 0.0399981 27.0965 0.346665 28.4031 0.959998C29.7098 1.54667 30.6698 2.36 31.2831 3.4C31.8965 4.44 32.2031 5.61333 32.2031 6.92C32.2031 8.76 31.3098 10.56 29.5231 12.32C27.7365 14.0533 25.2965 15.9733 22.2031 18.08C21.6165 18.5067 20.9231 19.0267 20.1231 19.64C19.3231 20.2533 18.5765 20.8533 17.8831 21.44H32.8831V26H15.2831V22.64C16.2431 21.7067 17.1765 20.7867 18.0831 19.88C19.0165 18.9467 19.8965 18.0667 20.7231 17.24C22.6431 15.2667 24.0698 13.52 25.0031 12C25.9631 10.4533 26.4431 8.8 26.4431 7.04C26.4431 5.2 26.1098 3.72 25.4431 2.6C24.7765 1.45333 23.7765 0.879999 22.4431 0.879999C21.6165 0.879999 20.8431 1.09333 20.1231 1.52C19.4298 1.92 18.8165 2.62667 18.2831 3.64L16.3631 7.36H15.9631ZM44.6522 26.6C42.8655 26.6 41.3989 26.4 40.2522 26C39.1322 25.6 38.0255 25.1333 36.9322 24.6L37.3722 19.4H37.7722L39.5322 22.64C40.7055 24.7467 42.3322 25.8 44.4122 25.8C45.6389 25.8 46.6255 25.2933 47.3722 24.28C48.1455 23.24 48.5322 21.5067 48.5322 19.08C48.5322 16.9733 48.2122 15.4667 47.5722 14.56C46.9322 13.6267 45.8389 13.16 44.2922 13.16H41.8922V12.36H44.0122C45.4255 12.36 46.4389 11.9333 47.0522 11.08C47.6922 10.2267 48.0122 8.74667 48.0122 6.64C48.0122 4.58666 47.7055 3.13333 47.0922 2.28C46.4789 1.4 45.6655 0.959998 44.6522 0.959998C43.6389 0.959998 42.7855 1.25333 42.0922 1.84C41.4255 2.42667 40.8789 3.12 40.4522 3.92L38.6522 7.28L38.2522 7.24L38.6522 1.36C39.5055 0.986664 40.4522 0.679998 41.4922 0.439998C42.5589 0.173331 43.7455 0.0399981 45.0522 0.0399981C47.8522 0.0399981 49.9722 0.653331 51.4122 1.88C52.8789 3.08 53.6122 4.58667 53.6122 6.4C53.6122 7.70667 53.0522 8.96 51.9322 10.16C50.8122 11.3333 49.0522 12.1467 46.6522 12.6C49.3722 12.84 51.3455 13.5733 52.5722 14.8C53.7989 16.0267 54.4122 17.5067 54.4122 19.24C54.4122 20.6267 54.0122 21.88 53.2122 23C52.4389 24.12 51.3189 25 49.8522 25.64C48.4122 26.28 46.6789 26.6 44.6522 26.6Z" fill="#2B2A35"/>
</svg>
