<svg width="53" height="26" viewBox="0 0 53 26" fill="none" xmlns="http://www.w3.org/2000/svg">
<path d="M51 24L2 24" stroke="#2B2A35" stroke-width="1.5" stroke-linecap="round"/>
<path fill-rule="evenodd" clip-rule="evenodd" d="M42.9843 1.45831C43.4617 1.45831 43.9193 1.64893 44.2536 1.98581L46.5146 4.24688C46.8513 4.58352 47.0404 5.0401 47.0404 5.51618C47.0404 5.99226 46.8513 6.44885 46.5146 6.78549L38.2594 15.0381C37.7501 15.6257 37.0281 15.9866 36.201 16.0433H32.457V15.3142L32.4594 12.2407C32.5215 11.4718 32.879 10.7569 33.4243 10.2764L41.7141 1.98669C42.0502 1.6485 42.5074 1.45831 42.9843 1.45831ZM36.1495 14.5868C36.5391 14.5593 36.9017 14.378 37.1928 14.0449L42.7067 8.53102L39.9691 5.79335L34.4229 11.3382C34.1275 11.5995 33.9448 11.965 33.9154 12.2994V14.5855L36.1495 14.5868ZM41.0005 4.76228L43.7379 7.49983L45.4834 5.75429C45.5466 5.69114 45.5821 5.60549 45.5821 5.51618C45.5821 5.42688 45.5466 5.34123 45.4834 5.27808L43.2204 3.01498C43.1579 2.95204 43.0729 2.91665 42.9843 2.91665C42.8956 2.91665 42.8106 2.95204 42.7482 3.01498L41.0005 4.76228Z" fill="#2B2A35"/>
<g clip-path="url(#clip0_18173_190389)">
<path d="M4.00157 15.2151C4.12568 12.5347 5.49581 10.3244 8.30896 8.66121C8.6084 8.48456 8.93542 8.34085 9.27918 8.22184C10.801 7.69414 12.2874 8.12827 12.9178 9.30717C13.4743 10.3476 13.4881 11.4486 13.4546 12.5474C13.4329 13.257 13.3354 13.9644 13.1483 14.6627C13.0941 14.8663 13.1827 14.9135 13.4339 14.8169C13.9166 14.6305 14.4031 14.4501 14.8966 14.2825C15.2581 14.1597 15.6413 14.0953 16.0422 14.0931C17.1611 14.0856 17.7807 14.4958 17.9176 15.3461C18.0063 15.8925 18.285 16.0287 18.9725 15.8147C19.8118 15.5534 20.521 15.1141 21.308 14.7795C22.8012 14.144 24.3388 13.6313 26.1059 13.7293C27.3756 13.7997 28.5083 14.1185 29.3928 14.8453C29.5692 14.9906 29.7287 15.1537 29.8607 15.3244C30.103 15.638 30.0154 15.9644 29.6657 16.1545C29.3003 16.3528 28.8245 16.3079 28.5379 16.0003C27.5873 14.9786 26.2468 14.8304 24.7732 15.0265C23.4021 15.2091 22.2467 15.7742 21.0873 16.3199C20.4609 16.6148 19.8472 16.9187 19.1193 17.0744C17.9639 17.3214 16.2855 16.7959 16.3111 15.6126C16.316 15.376 16.1377 15.3042 15.8619 15.3468C15.7024 15.3715 15.5457 15.412 15.3931 15.4569C14.7942 15.6335 14.2455 15.8843 13.689 16.1245C12.836 16.4928 12.2342 16.9786 11.8786 17.7121C11.3605 18.7795 10.5351 19.7353 9.59832 20.6275C9.00141 21.1971 8.27252 21.1066 7.9258 20.4187C7.58893 19.7495 7.86276 19.1403 8.30699 18.5661C8.92655 17.766 9.69288 17.0512 10.5902 16.4209C10.866 16.2271 11.0384 16.0063 11.1438 15.7338C11.8008 14.0347 11.983 12.3087 11.6875 10.5534C11.652 10.3446 11.5811 10.1365 11.4935 9.93741C11.1832 9.23606 10.5922 9.05941 9.73228 9.42693C8.87632 9.79295 8.18485 10.3109 7.59582 10.9007C5.95482 12.5437 5.33525 14.388 5.76373 16.4299C5.85632 16.8715 5.61499 17.1934 5.13628 17.263C4.69008 17.3281 4.31184 17.0931 4.1897 16.6694C4.05476 16.1911 3.98876 15.7084 4.00157 15.2151Z" fill="#2B2A35"/>
</g>
<defs>
<clipPath id="clip0_18173_190389">
<rect width="26" height="13" fill="white" transform="translate(4 8)"/>
</clipPath>
</defs>
</svg>
