
<svg width="24" height="27" viewBox="0 0 24 27" fill="none" xmlns="http://www.w3.org/2000/svg">
<path d="M5.70094 27V26.6L7.34094 26.2C8.43427 25.96 8.98094 25.2933 8.98094 24.2V1.4H5.58094C4.59427 1.4 3.8876 1.66667 3.46094 2.2C3.03427 2.70667 2.58094 3.41333 2.10094 4.32L0.660938 7.12H0.260938L0.460938 0.599999H23.5409L23.7009 7.12H23.3009L21.8609 4.32C21.4076 3.41333 20.9676 2.70667 20.5409 2.2C20.1143 1.66667 19.4076 1.4 18.4209 1.4H15.0209V24.2C15.0209 25.2933 15.5676 25.96 16.6609 26.2L18.3009 26.6V27H5.70094Z" fill="#2B2A35"/>
</svg>
