
<svg width="33" height="33" viewBox="0 0 33 33" fill="none" xmlns="http://www.w3.org/2000/svg">
<path d="M26.1048 0.012223C29.631 -0.00872514 32.5597 2.58162 32.958 6.0525C33.379 9.72492 30.5836 13.1619 26.8795 13.5295C24.519 13.7643 22.545 12.9964 20.9452 11.2874C20.7409 11.0692 20.5989 11.041 20.3331 11.174C18.2142 12.2329 16.0902 13.281 13.9595 14.3176C13.6667 14.4606 13.5817 14.608 13.6601 14.9294C13.8819 15.8432 13.8519 16.7664 13.6403 17.6794C13.5891 17.9005 13.6498 18.011 13.8446 18.1063C16.047 19.1884 18.2486 20.2719 20.4451 21.3656C20.6692 21.4768 20.7695 21.3836 20.9006 21.237C21.9988 20.0119 23.3702 19.2708 25.0022 18.9883C28.6872 18.3512 32.3701 20.9892 32.9031 24.6515C33.4361 28.3146 31.129 31.5926 27.4682 32.3742C23.5664 33.207 19.6661 30.4007 19.2436 26.4755C19.1638 25.7358 19.1997 25.012 19.3535 24.2918C19.4025 24.0621 19.3615 23.94 19.1463 23.8338C16.9644 22.764 14.7847 21.6906 12.6101 20.6071C12.3473 20.4764 12.214 20.5818 12.0537 20.7566C10.9071 22.0092 9.49474 22.7864 7.78877 22.9778C5.15075 23.2733 2.97107 22.3834 1.38298 20.2972C-1.70826 16.2383 0.660326 10.3953 5.73429 9.54433C8.17902 9.13404 10.2848 9.87517 11.9849 11.6651C12.236 11.9295 12.4227 11.9765 12.7566 11.8089C14.8411 10.7615 16.9344 9.73287 19.0313 8.71074C19.3161 8.57205 19.4047 8.43842 19.3425 8.10614C18.592 4.1325 21.2461 0.535926 25.3031 0.01439C25.5652 -0.016671 25.8369 0.012223 26.1048 0.012223ZM30.156 25.7105C30.1567 23.5023 28.3219 21.6791 26.1027 21.6812C23.8629 21.6841 22.0003 23.5268 22.0098 25.7293C22.0201 27.9137 23.8505 29.7123 26.0675 29.7174C28.3556 29.7239 30.1552 27.9592 30.156 25.7105ZM26.0953 2.77159C23.8556 2.77087 22.0105 4.57602 22.0098 6.76762C22.0091 8.9614 23.8541 10.8222 26.0741 10.7998C28.6316 10.7745 30.1867 8.71363 30.1618 6.76907C30.1333 4.53774 28.3599 2.77159 26.0953 2.77159ZM2.84294 16.2412C2.83488 18.4502 4.6331 20.2495 6.86257 20.2625C9.12133 20.2755 10.9803 18.4668 10.9876 16.2499C10.9942 14.0706 9.14769 12.2329 6.94531 12.2279C4.66166 12.2221 2.85099 13.9933 2.84294 16.2412Z" fill="#2B2A35"/>
</svg>
