<svg xmlns="http://www.w3.org/2000/svg" width="37" height="41" viewBox="0 0 37 41" fill="none">
  <path d="M31.9343 4.86304H4.86678C2.73122 4.86304 1 6.59426 1 8.72982V35.7973C1 37.9329 2.73122 39.6641 4.86678 39.6641H31.9343C34.0698 39.6641 35.8011 37.9329 35.8011 35.7973V8.72982C35.8011 6.59426 34.0698 4.86304 31.9343 4.86304Z" stroke="#2B2A35" stroke-width="2" stroke-linecap="round" stroke-linejoin="round"/>
  <path d="M26.1367 1V8.73357" stroke="#2B2A35" stroke-width="2" stroke-linecap="round" stroke-linejoin="round"/>
  <path d="M10.6641 1V8.73357" stroke="#2B2A35" stroke-width="2" stroke-linecap="round" stroke-linejoin="round"/>
  <path d="M1 16.4634H35.8011" stroke="#2B2A35" stroke-width="2" stroke-linecap="round" stroke-linejoin="round"/>
  <path d="M18.4221 34.623C22.4263 34.623 25.6723 31.377 25.6723 27.3728C25.6723 23.3686 22.4263 20.1226 18.4221 20.1226C14.4179 20.1226 11.1719 23.3686 11.1719 27.3728C11.1719 31.377 14.4179 34.623 18.4221 34.623Z" stroke="#2B2A35" stroke-width="2" stroke-linecap="round" stroke-linejoin="round"/>
  <path d="M18.4219 23.0225V27.3726L21.322 28.8226" stroke="#2B2A35" stroke-width="2" stroke-linecap="round" stroke-linejoin="round"/>
</svg>